G75*
%MOIN*%
%OFA0B0*%
%FSLAX24Y24*%
%IPPOS*%
%LPD*%
%AMOC8*
5,1,8,0,0,1.08239X$1,22.5*
%
%ADD10C,0.0000*%
D10*
X000417Y000180D02*
X000417Y025676D01*
X038287Y025676D01*
X038287Y000180D01*
X000417Y000180D01*
X001002Y006926D02*
X001004Y006977D01*
X001010Y007027D01*
X001020Y007077D01*
X001034Y007125D01*
X001051Y007173D01*
X001072Y007219D01*
X001097Y007263D01*
X001125Y007305D01*
X001157Y007345D01*
X001191Y007382D01*
X001228Y007416D01*
X001268Y007448D01*
X001310Y007476D01*
X001354Y007501D01*
X001400Y007522D01*
X001448Y007539D01*
X001496Y007553D01*
X001546Y007563D01*
X001596Y007569D01*
X001647Y007571D01*
X001698Y007569D01*
X001748Y007563D01*
X001798Y007553D01*
X001846Y007539D01*
X001894Y007522D01*
X001940Y007501D01*
X001984Y007476D01*
X002026Y007448D01*
X002066Y007416D01*
X002103Y007382D01*
X002137Y007345D01*
X002169Y007305D01*
X002197Y007263D01*
X002222Y007219D01*
X002243Y007173D01*
X002260Y007125D01*
X002274Y007077D01*
X002284Y007027D01*
X002290Y006977D01*
X002292Y006926D01*
X002290Y006875D01*
X002284Y006825D01*
X002274Y006775D01*
X002260Y006727D01*
X002243Y006679D01*
X002222Y006633D01*
X002197Y006589D01*
X002169Y006547D01*
X002137Y006507D01*
X002103Y006470D01*
X002066Y006436D01*
X002026Y006404D01*
X001984Y006376D01*
X001940Y006351D01*
X001894Y006330D01*
X001846Y006313D01*
X001798Y006299D01*
X001748Y006289D01*
X001698Y006283D01*
X001647Y006281D01*
X001596Y006283D01*
X001546Y006289D01*
X001496Y006299D01*
X001448Y006313D01*
X001400Y006330D01*
X001354Y006351D01*
X001310Y006376D01*
X001268Y006404D01*
X001228Y006436D01*
X001191Y006470D01*
X001157Y006507D01*
X001125Y006547D01*
X001097Y006589D01*
X001072Y006633D01*
X001051Y006679D01*
X001034Y006727D01*
X001020Y006775D01*
X001010Y006825D01*
X001004Y006875D01*
X001002Y006926D01*
X014403Y019778D02*
X014405Y019829D01*
X014411Y019879D01*
X014421Y019929D01*
X014435Y019977D01*
X014452Y020025D01*
X014473Y020071D01*
X014498Y020115D01*
X014526Y020157D01*
X014558Y020197D01*
X014592Y020234D01*
X014629Y020268D01*
X014669Y020300D01*
X014711Y020328D01*
X014755Y020353D01*
X014801Y020374D01*
X014849Y020391D01*
X014897Y020405D01*
X014947Y020415D01*
X014997Y020421D01*
X015048Y020423D01*
X015099Y020421D01*
X015149Y020415D01*
X015199Y020405D01*
X015247Y020391D01*
X015295Y020374D01*
X015341Y020353D01*
X015385Y020328D01*
X015427Y020300D01*
X015467Y020268D01*
X015504Y020234D01*
X015538Y020197D01*
X015570Y020157D01*
X015598Y020115D01*
X015623Y020071D01*
X015644Y020025D01*
X015661Y019977D01*
X015675Y019929D01*
X015685Y019879D01*
X015691Y019829D01*
X015693Y019778D01*
X015691Y019727D01*
X015685Y019677D01*
X015675Y019627D01*
X015661Y019579D01*
X015644Y019531D01*
X015623Y019485D01*
X015598Y019441D01*
X015570Y019399D01*
X015538Y019359D01*
X015504Y019322D01*
X015467Y019288D01*
X015427Y019256D01*
X015385Y019228D01*
X015341Y019203D01*
X015295Y019182D01*
X015247Y019165D01*
X015199Y019151D01*
X015149Y019141D01*
X015099Y019135D01*
X015048Y019133D01*
X014997Y019135D01*
X014947Y019141D01*
X014897Y019151D01*
X014849Y019165D01*
X014801Y019182D01*
X014755Y019203D01*
X014711Y019228D01*
X014669Y019256D01*
X014629Y019288D01*
X014592Y019322D01*
X014558Y019359D01*
X014526Y019399D01*
X014498Y019441D01*
X014473Y019485D01*
X014452Y019531D01*
X014435Y019579D01*
X014421Y019627D01*
X014411Y019677D01*
X014405Y019727D01*
X014403Y019778D01*
X028187Y019554D02*
X028189Y019605D01*
X028195Y019655D01*
X028205Y019705D01*
X028219Y019753D01*
X028236Y019801D01*
X028257Y019847D01*
X028282Y019891D01*
X028310Y019933D01*
X028342Y019973D01*
X028376Y020010D01*
X028413Y020044D01*
X028453Y020076D01*
X028495Y020104D01*
X028539Y020129D01*
X028585Y020150D01*
X028633Y020167D01*
X028681Y020181D01*
X028731Y020191D01*
X028781Y020197D01*
X028832Y020199D01*
X028883Y020197D01*
X028933Y020191D01*
X028983Y020181D01*
X029031Y020167D01*
X029079Y020150D01*
X029125Y020129D01*
X029169Y020104D01*
X029211Y020076D01*
X029251Y020044D01*
X029288Y020010D01*
X029322Y019973D01*
X029354Y019933D01*
X029382Y019891D01*
X029407Y019847D01*
X029428Y019801D01*
X029445Y019753D01*
X029459Y019705D01*
X029469Y019655D01*
X029475Y019605D01*
X029477Y019554D01*
X029475Y019503D01*
X029469Y019453D01*
X029459Y019403D01*
X029445Y019355D01*
X029428Y019307D01*
X029407Y019261D01*
X029382Y019217D01*
X029354Y019175D01*
X029322Y019135D01*
X029288Y019098D01*
X029251Y019064D01*
X029211Y019032D01*
X029169Y019004D01*
X029125Y018979D01*
X029079Y018958D01*
X029031Y018941D01*
X028983Y018927D01*
X028933Y018917D01*
X028883Y018911D01*
X028832Y018909D01*
X028781Y018911D01*
X028731Y018917D01*
X028681Y018927D01*
X028633Y018941D01*
X028585Y018958D01*
X028539Y018979D01*
X028495Y019004D01*
X028453Y019032D01*
X028413Y019064D01*
X028376Y019098D01*
X028342Y019135D01*
X028310Y019175D01*
X028282Y019217D01*
X028257Y019261D01*
X028236Y019307D01*
X028219Y019355D01*
X028205Y019403D01*
X028195Y019453D01*
X028189Y019503D01*
X028187Y019554D01*
X036272Y001680D02*
X036274Y001731D01*
X036280Y001781D01*
X036290Y001831D01*
X036304Y001879D01*
X036321Y001927D01*
X036342Y001973D01*
X036367Y002017D01*
X036395Y002059D01*
X036427Y002099D01*
X036461Y002136D01*
X036498Y002170D01*
X036538Y002202D01*
X036580Y002230D01*
X036624Y002255D01*
X036670Y002276D01*
X036718Y002293D01*
X036766Y002307D01*
X036816Y002317D01*
X036866Y002323D01*
X036917Y002325D01*
X036968Y002323D01*
X037018Y002317D01*
X037068Y002307D01*
X037116Y002293D01*
X037164Y002276D01*
X037210Y002255D01*
X037254Y002230D01*
X037296Y002202D01*
X037336Y002170D01*
X037373Y002136D01*
X037407Y002099D01*
X037439Y002059D01*
X037467Y002017D01*
X037492Y001973D01*
X037513Y001927D01*
X037530Y001879D01*
X037544Y001831D01*
X037554Y001781D01*
X037560Y001731D01*
X037562Y001680D01*
X037560Y001629D01*
X037554Y001579D01*
X037544Y001529D01*
X037530Y001481D01*
X037513Y001433D01*
X037492Y001387D01*
X037467Y001343D01*
X037439Y001301D01*
X037407Y001261D01*
X037373Y001224D01*
X037336Y001190D01*
X037296Y001158D01*
X037254Y001130D01*
X037210Y001105D01*
X037164Y001084D01*
X037116Y001067D01*
X037068Y001053D01*
X037018Y001043D01*
X036968Y001037D01*
X036917Y001035D01*
X036866Y001037D01*
X036816Y001043D01*
X036766Y001053D01*
X036718Y001067D01*
X036670Y001084D01*
X036624Y001105D01*
X036580Y001130D01*
X036538Y001158D01*
X036498Y001190D01*
X036461Y001224D01*
X036427Y001261D01*
X036395Y001301D01*
X036367Y001343D01*
X036342Y001387D01*
X036321Y001433D01*
X036304Y001481D01*
X036290Y001529D01*
X036280Y001579D01*
X036274Y001629D01*
X036272Y001680D01*
M02*
