G75*
%MOIN*%
%OFA0B0*%
%FSLAX24Y24*%
%IPPOS*%
%LPD*%
%AMOC8*
5,1,8,0,0,1.08239X$1,22.5*
%
%ADD10C,0.0010*%
D10*
X001647Y004680D02*
X001649Y004719D01*
X001655Y004757D01*
X001664Y004795D01*
X001678Y004831D01*
X001694Y004867D01*
X001715Y004900D01*
X001738Y004931D01*
X001765Y004959D01*
X001794Y004985D01*
X001825Y005008D01*
X001859Y005027D01*
X001895Y005043D01*
X001931Y005055D01*
X001969Y005064D01*
X002008Y005069D01*
X002047Y005070D01*
X002085Y005067D01*
X002124Y005060D01*
X002161Y005050D01*
X002197Y005035D01*
X002232Y005018D01*
X002265Y004997D01*
X002295Y004972D01*
X002323Y004945D01*
X002348Y004915D01*
X002370Y004883D01*
X002388Y004849D01*
X002403Y004813D01*
X002415Y004776D01*
X002423Y004738D01*
X002427Y004699D01*
X002427Y004661D01*
X002423Y004622D01*
X002415Y004584D01*
X002403Y004547D01*
X002388Y004511D01*
X002370Y004477D01*
X002348Y004445D01*
X002323Y004415D01*
X002295Y004388D01*
X002265Y004363D01*
X002232Y004342D01*
X002197Y004325D01*
X002161Y004310D01*
X002124Y004300D01*
X002085Y004293D01*
X002047Y004290D01*
X002008Y004291D01*
X001969Y004296D01*
X001931Y004305D01*
X001895Y004317D01*
X001859Y004333D01*
X001825Y004352D01*
X001794Y004375D01*
X001765Y004401D01*
X001738Y004429D01*
X001715Y004460D01*
X001694Y004493D01*
X001678Y004529D01*
X001664Y004565D01*
X001655Y004603D01*
X001649Y004641D01*
X001647Y004680D01*
X001637Y004280D02*
X002437Y005080D01*
X003617Y004680D02*
X003619Y004719D01*
X003625Y004757D01*
X003634Y004795D01*
X003648Y004831D01*
X003664Y004867D01*
X003685Y004900D01*
X003708Y004931D01*
X003735Y004959D01*
X003764Y004985D01*
X003795Y005008D01*
X003829Y005027D01*
X003865Y005043D01*
X003901Y005055D01*
X003939Y005064D01*
X003978Y005069D01*
X004017Y005070D01*
X004055Y005067D01*
X004094Y005060D01*
X004131Y005050D01*
X004167Y005035D01*
X004202Y005018D01*
X004235Y004997D01*
X004265Y004972D01*
X004293Y004945D01*
X004318Y004915D01*
X004340Y004883D01*
X004358Y004849D01*
X004373Y004813D01*
X004385Y004776D01*
X004393Y004738D01*
X004397Y004699D01*
X004397Y004661D01*
X004393Y004622D01*
X004385Y004584D01*
X004373Y004547D01*
X004358Y004511D01*
X004340Y004477D01*
X004318Y004445D01*
X004293Y004415D01*
X004265Y004388D01*
X004235Y004363D01*
X004202Y004342D01*
X004167Y004325D01*
X004131Y004310D01*
X004094Y004300D01*
X004055Y004293D01*
X004017Y004290D01*
X003978Y004291D01*
X003939Y004296D01*
X003901Y004305D01*
X003865Y004317D01*
X003829Y004333D01*
X003795Y004352D01*
X003764Y004375D01*
X003735Y004401D01*
X003708Y004429D01*
X003685Y004460D01*
X003664Y004493D01*
X003648Y004529D01*
X003634Y004565D01*
X003625Y004603D01*
X003619Y004641D01*
X003617Y004680D01*
X003607Y004280D02*
X004407Y005080D01*
X005577Y004680D02*
X005579Y004719D01*
X005585Y004757D01*
X005594Y004795D01*
X005608Y004831D01*
X005624Y004867D01*
X005645Y004900D01*
X005668Y004931D01*
X005695Y004959D01*
X005724Y004985D01*
X005755Y005008D01*
X005789Y005027D01*
X005825Y005043D01*
X005861Y005055D01*
X005899Y005064D01*
X005938Y005069D01*
X005977Y005070D01*
X006015Y005067D01*
X006054Y005060D01*
X006091Y005050D01*
X006127Y005035D01*
X006162Y005018D01*
X006195Y004997D01*
X006225Y004972D01*
X006253Y004945D01*
X006278Y004915D01*
X006300Y004883D01*
X006318Y004849D01*
X006333Y004813D01*
X006345Y004776D01*
X006353Y004738D01*
X006357Y004699D01*
X006357Y004661D01*
X006353Y004622D01*
X006345Y004584D01*
X006333Y004547D01*
X006318Y004511D01*
X006300Y004477D01*
X006278Y004445D01*
X006253Y004415D01*
X006225Y004388D01*
X006195Y004363D01*
X006162Y004342D01*
X006127Y004325D01*
X006091Y004310D01*
X006054Y004300D01*
X006015Y004293D01*
X005977Y004290D01*
X005938Y004291D01*
X005899Y004296D01*
X005861Y004305D01*
X005825Y004317D01*
X005789Y004333D01*
X005755Y004352D01*
X005724Y004375D01*
X005695Y004401D01*
X005668Y004429D01*
X005645Y004460D01*
X005624Y004493D01*
X005608Y004529D01*
X005594Y004565D01*
X005585Y004603D01*
X005579Y004641D01*
X005577Y004680D01*
X005567Y004280D02*
X006367Y005080D01*
X007557Y004680D02*
X007559Y004719D01*
X007565Y004757D01*
X007574Y004795D01*
X007588Y004831D01*
X007604Y004867D01*
X007625Y004900D01*
X007648Y004931D01*
X007675Y004959D01*
X007704Y004985D01*
X007735Y005008D01*
X007769Y005027D01*
X007805Y005043D01*
X007841Y005055D01*
X007879Y005064D01*
X007918Y005069D01*
X007957Y005070D01*
X007995Y005067D01*
X008034Y005060D01*
X008071Y005050D01*
X008107Y005035D01*
X008142Y005018D01*
X008175Y004997D01*
X008205Y004972D01*
X008233Y004945D01*
X008258Y004915D01*
X008280Y004883D01*
X008298Y004849D01*
X008313Y004813D01*
X008325Y004776D01*
X008333Y004738D01*
X008337Y004699D01*
X008337Y004661D01*
X008333Y004622D01*
X008325Y004584D01*
X008313Y004547D01*
X008298Y004511D01*
X008280Y004477D01*
X008258Y004445D01*
X008233Y004415D01*
X008205Y004388D01*
X008175Y004363D01*
X008142Y004342D01*
X008107Y004325D01*
X008071Y004310D01*
X008034Y004300D01*
X007995Y004293D01*
X007957Y004290D01*
X007918Y004291D01*
X007879Y004296D01*
X007841Y004305D01*
X007805Y004317D01*
X007769Y004333D01*
X007735Y004352D01*
X007704Y004375D01*
X007675Y004401D01*
X007648Y004429D01*
X007625Y004460D01*
X007604Y004493D01*
X007588Y004529D01*
X007574Y004565D01*
X007565Y004603D01*
X007559Y004641D01*
X007557Y004680D01*
X007547Y004280D02*
X008347Y005080D01*
X009527Y004680D02*
X009529Y004719D01*
X009535Y004757D01*
X009544Y004795D01*
X009558Y004831D01*
X009574Y004867D01*
X009595Y004900D01*
X009618Y004931D01*
X009645Y004959D01*
X009674Y004985D01*
X009705Y005008D01*
X009739Y005027D01*
X009775Y005043D01*
X009811Y005055D01*
X009849Y005064D01*
X009888Y005069D01*
X009927Y005070D01*
X009965Y005067D01*
X010004Y005060D01*
X010041Y005050D01*
X010077Y005035D01*
X010112Y005018D01*
X010145Y004997D01*
X010175Y004972D01*
X010203Y004945D01*
X010228Y004915D01*
X010250Y004883D01*
X010268Y004849D01*
X010283Y004813D01*
X010295Y004776D01*
X010303Y004738D01*
X010307Y004699D01*
X010307Y004661D01*
X010303Y004622D01*
X010295Y004584D01*
X010283Y004547D01*
X010268Y004511D01*
X010250Y004477D01*
X010228Y004445D01*
X010203Y004415D01*
X010175Y004388D01*
X010145Y004363D01*
X010112Y004342D01*
X010077Y004325D01*
X010041Y004310D01*
X010004Y004300D01*
X009965Y004293D01*
X009927Y004290D01*
X009888Y004291D01*
X009849Y004296D01*
X009811Y004305D01*
X009775Y004317D01*
X009739Y004333D01*
X009705Y004352D01*
X009674Y004375D01*
X009645Y004401D01*
X009618Y004429D01*
X009595Y004460D01*
X009574Y004493D01*
X009558Y004529D01*
X009544Y004565D01*
X009535Y004603D01*
X009529Y004641D01*
X009527Y004680D01*
X009517Y004280D02*
X010317Y005080D01*
X011497Y004680D02*
X011499Y004719D01*
X011505Y004757D01*
X011514Y004795D01*
X011528Y004831D01*
X011544Y004867D01*
X011565Y004900D01*
X011588Y004931D01*
X011615Y004959D01*
X011644Y004985D01*
X011675Y005008D01*
X011709Y005027D01*
X011745Y005043D01*
X011781Y005055D01*
X011819Y005064D01*
X011858Y005069D01*
X011897Y005070D01*
X011935Y005067D01*
X011974Y005060D01*
X012011Y005050D01*
X012047Y005035D01*
X012082Y005018D01*
X012115Y004997D01*
X012145Y004972D01*
X012173Y004945D01*
X012198Y004915D01*
X012220Y004883D01*
X012238Y004849D01*
X012253Y004813D01*
X012265Y004776D01*
X012273Y004738D01*
X012277Y004699D01*
X012277Y004661D01*
X012273Y004622D01*
X012265Y004584D01*
X012253Y004547D01*
X012238Y004511D01*
X012220Y004477D01*
X012198Y004445D01*
X012173Y004415D01*
X012145Y004388D01*
X012115Y004363D01*
X012082Y004342D01*
X012047Y004325D01*
X012011Y004310D01*
X011974Y004300D01*
X011935Y004293D01*
X011897Y004290D01*
X011858Y004291D01*
X011819Y004296D01*
X011781Y004305D01*
X011745Y004317D01*
X011709Y004333D01*
X011675Y004352D01*
X011644Y004375D01*
X011615Y004401D01*
X011588Y004429D01*
X011565Y004460D01*
X011544Y004493D01*
X011528Y004529D01*
X011514Y004565D01*
X011505Y004603D01*
X011499Y004641D01*
X011497Y004680D01*
X011487Y004280D02*
X012287Y005080D01*
X013477Y004680D02*
X013479Y004719D01*
X013485Y004757D01*
X013494Y004795D01*
X013508Y004831D01*
X013524Y004867D01*
X013545Y004900D01*
X013568Y004931D01*
X013595Y004959D01*
X013624Y004985D01*
X013655Y005008D01*
X013689Y005027D01*
X013725Y005043D01*
X013761Y005055D01*
X013799Y005064D01*
X013838Y005069D01*
X013877Y005070D01*
X013915Y005067D01*
X013954Y005060D01*
X013991Y005050D01*
X014027Y005035D01*
X014062Y005018D01*
X014095Y004997D01*
X014125Y004972D01*
X014153Y004945D01*
X014178Y004915D01*
X014200Y004883D01*
X014218Y004849D01*
X014233Y004813D01*
X014245Y004776D01*
X014253Y004738D01*
X014257Y004699D01*
X014257Y004661D01*
X014253Y004622D01*
X014245Y004584D01*
X014233Y004547D01*
X014218Y004511D01*
X014200Y004477D01*
X014178Y004445D01*
X014153Y004415D01*
X014125Y004388D01*
X014095Y004363D01*
X014062Y004342D01*
X014027Y004325D01*
X013991Y004310D01*
X013954Y004300D01*
X013915Y004293D01*
X013877Y004290D01*
X013838Y004291D01*
X013799Y004296D01*
X013761Y004305D01*
X013725Y004317D01*
X013689Y004333D01*
X013655Y004352D01*
X013624Y004375D01*
X013595Y004401D01*
X013568Y004429D01*
X013545Y004460D01*
X013524Y004493D01*
X013508Y004529D01*
X013494Y004565D01*
X013485Y004603D01*
X013479Y004641D01*
X013477Y004680D01*
X013467Y004280D02*
X014267Y005080D01*
X015437Y004680D02*
X015439Y004719D01*
X015445Y004757D01*
X015454Y004795D01*
X015468Y004831D01*
X015484Y004867D01*
X015505Y004900D01*
X015528Y004931D01*
X015555Y004959D01*
X015584Y004985D01*
X015615Y005008D01*
X015649Y005027D01*
X015685Y005043D01*
X015721Y005055D01*
X015759Y005064D01*
X015798Y005069D01*
X015837Y005070D01*
X015875Y005067D01*
X015914Y005060D01*
X015951Y005050D01*
X015987Y005035D01*
X016022Y005018D01*
X016055Y004997D01*
X016085Y004972D01*
X016113Y004945D01*
X016138Y004915D01*
X016160Y004883D01*
X016178Y004849D01*
X016193Y004813D01*
X016205Y004776D01*
X016213Y004738D01*
X016217Y004699D01*
X016217Y004661D01*
X016213Y004622D01*
X016205Y004584D01*
X016193Y004547D01*
X016178Y004511D01*
X016160Y004477D01*
X016138Y004445D01*
X016113Y004415D01*
X016085Y004388D01*
X016055Y004363D01*
X016022Y004342D01*
X015987Y004325D01*
X015951Y004310D01*
X015914Y004300D01*
X015875Y004293D01*
X015837Y004290D01*
X015798Y004291D01*
X015759Y004296D01*
X015721Y004305D01*
X015685Y004317D01*
X015649Y004333D01*
X015615Y004352D01*
X015584Y004375D01*
X015555Y004401D01*
X015528Y004429D01*
X015505Y004460D01*
X015484Y004493D01*
X015468Y004529D01*
X015454Y004565D01*
X015445Y004603D01*
X015439Y004641D01*
X015437Y004680D01*
X015427Y004280D02*
X016227Y005080D01*
X017407Y004680D02*
X017409Y004719D01*
X017415Y004757D01*
X017424Y004795D01*
X017438Y004831D01*
X017454Y004867D01*
X017475Y004900D01*
X017498Y004931D01*
X017525Y004959D01*
X017554Y004985D01*
X017585Y005008D01*
X017619Y005027D01*
X017655Y005043D01*
X017691Y005055D01*
X017729Y005064D01*
X017768Y005069D01*
X017807Y005070D01*
X017845Y005067D01*
X017884Y005060D01*
X017921Y005050D01*
X017957Y005035D01*
X017992Y005018D01*
X018025Y004997D01*
X018055Y004972D01*
X018083Y004945D01*
X018108Y004915D01*
X018130Y004883D01*
X018148Y004849D01*
X018163Y004813D01*
X018175Y004776D01*
X018183Y004738D01*
X018187Y004699D01*
X018187Y004661D01*
X018183Y004622D01*
X018175Y004584D01*
X018163Y004547D01*
X018148Y004511D01*
X018130Y004477D01*
X018108Y004445D01*
X018083Y004415D01*
X018055Y004388D01*
X018025Y004363D01*
X017992Y004342D01*
X017957Y004325D01*
X017921Y004310D01*
X017884Y004300D01*
X017845Y004293D01*
X017807Y004290D01*
X017768Y004291D01*
X017729Y004296D01*
X017691Y004305D01*
X017655Y004317D01*
X017619Y004333D01*
X017585Y004352D01*
X017554Y004375D01*
X017525Y004401D01*
X017498Y004429D01*
X017475Y004460D01*
X017454Y004493D01*
X017438Y004529D01*
X017424Y004565D01*
X017415Y004603D01*
X017409Y004641D01*
X017407Y004680D01*
X017397Y004280D02*
X018197Y005080D01*
X019597Y004680D02*
X019599Y004719D01*
X019605Y004757D01*
X019614Y004795D01*
X019628Y004831D01*
X019644Y004867D01*
X019665Y004900D01*
X019688Y004931D01*
X019715Y004959D01*
X019744Y004985D01*
X019775Y005008D01*
X019809Y005027D01*
X019845Y005043D01*
X019881Y005055D01*
X019919Y005064D01*
X019958Y005069D01*
X019997Y005070D01*
X020035Y005067D01*
X020074Y005060D01*
X020111Y005050D01*
X020147Y005035D01*
X020182Y005018D01*
X020215Y004997D01*
X020245Y004972D01*
X020273Y004945D01*
X020298Y004915D01*
X020320Y004883D01*
X020338Y004849D01*
X020353Y004813D01*
X020365Y004776D01*
X020373Y004738D01*
X020377Y004699D01*
X020377Y004661D01*
X020373Y004622D01*
X020365Y004584D01*
X020353Y004547D01*
X020338Y004511D01*
X020320Y004477D01*
X020298Y004445D01*
X020273Y004415D01*
X020245Y004388D01*
X020215Y004363D01*
X020182Y004342D01*
X020147Y004325D01*
X020111Y004310D01*
X020074Y004300D01*
X020035Y004293D01*
X019997Y004290D01*
X019958Y004291D01*
X019919Y004296D01*
X019881Y004305D01*
X019845Y004317D01*
X019809Y004333D01*
X019775Y004352D01*
X019744Y004375D01*
X019715Y004401D01*
X019688Y004429D01*
X019665Y004460D01*
X019644Y004493D01*
X019628Y004529D01*
X019614Y004565D01*
X019605Y004603D01*
X019599Y004641D01*
X019597Y004680D01*
X019587Y004280D02*
X020387Y005080D01*
X021567Y004680D02*
X021569Y004719D01*
X021575Y004757D01*
X021584Y004795D01*
X021598Y004831D01*
X021614Y004867D01*
X021635Y004900D01*
X021658Y004931D01*
X021685Y004959D01*
X021714Y004985D01*
X021745Y005008D01*
X021779Y005027D01*
X021815Y005043D01*
X021851Y005055D01*
X021889Y005064D01*
X021928Y005069D01*
X021967Y005070D01*
X022005Y005067D01*
X022044Y005060D01*
X022081Y005050D01*
X022117Y005035D01*
X022152Y005018D01*
X022185Y004997D01*
X022215Y004972D01*
X022243Y004945D01*
X022268Y004915D01*
X022290Y004883D01*
X022308Y004849D01*
X022323Y004813D01*
X022335Y004776D01*
X022343Y004738D01*
X022347Y004699D01*
X022347Y004661D01*
X022343Y004622D01*
X022335Y004584D01*
X022323Y004547D01*
X022308Y004511D01*
X022290Y004477D01*
X022268Y004445D01*
X022243Y004415D01*
X022215Y004388D01*
X022185Y004363D01*
X022152Y004342D01*
X022117Y004325D01*
X022081Y004310D01*
X022044Y004300D01*
X022005Y004293D01*
X021967Y004290D01*
X021928Y004291D01*
X021889Y004296D01*
X021851Y004305D01*
X021815Y004317D01*
X021779Y004333D01*
X021745Y004352D01*
X021714Y004375D01*
X021685Y004401D01*
X021658Y004429D01*
X021635Y004460D01*
X021614Y004493D01*
X021598Y004529D01*
X021584Y004565D01*
X021575Y004603D01*
X021569Y004641D01*
X021567Y004680D01*
X021557Y004280D02*
X022357Y005080D01*
X023537Y004680D02*
X023539Y004719D01*
X023545Y004757D01*
X023554Y004795D01*
X023568Y004831D01*
X023584Y004867D01*
X023605Y004900D01*
X023628Y004931D01*
X023655Y004959D01*
X023684Y004985D01*
X023715Y005008D01*
X023749Y005027D01*
X023785Y005043D01*
X023821Y005055D01*
X023859Y005064D01*
X023898Y005069D01*
X023937Y005070D01*
X023975Y005067D01*
X024014Y005060D01*
X024051Y005050D01*
X024087Y005035D01*
X024122Y005018D01*
X024155Y004997D01*
X024185Y004972D01*
X024213Y004945D01*
X024238Y004915D01*
X024260Y004883D01*
X024278Y004849D01*
X024293Y004813D01*
X024305Y004776D01*
X024313Y004738D01*
X024317Y004699D01*
X024317Y004661D01*
X024313Y004622D01*
X024305Y004584D01*
X024293Y004547D01*
X024278Y004511D01*
X024260Y004477D01*
X024238Y004445D01*
X024213Y004415D01*
X024185Y004388D01*
X024155Y004363D01*
X024122Y004342D01*
X024087Y004325D01*
X024051Y004310D01*
X024014Y004300D01*
X023975Y004293D01*
X023937Y004290D01*
X023898Y004291D01*
X023859Y004296D01*
X023821Y004305D01*
X023785Y004317D01*
X023749Y004333D01*
X023715Y004352D01*
X023684Y004375D01*
X023655Y004401D01*
X023628Y004429D01*
X023605Y004460D01*
X023584Y004493D01*
X023568Y004529D01*
X023554Y004565D01*
X023545Y004603D01*
X023539Y004641D01*
X023537Y004680D01*
X023527Y004280D02*
X024327Y005080D01*
X025517Y004680D02*
X025519Y004719D01*
X025525Y004757D01*
X025534Y004795D01*
X025548Y004831D01*
X025564Y004867D01*
X025585Y004900D01*
X025608Y004931D01*
X025635Y004959D01*
X025664Y004985D01*
X025695Y005008D01*
X025729Y005027D01*
X025765Y005043D01*
X025801Y005055D01*
X025839Y005064D01*
X025878Y005069D01*
X025917Y005070D01*
X025955Y005067D01*
X025994Y005060D01*
X026031Y005050D01*
X026067Y005035D01*
X026102Y005018D01*
X026135Y004997D01*
X026165Y004972D01*
X026193Y004945D01*
X026218Y004915D01*
X026240Y004883D01*
X026258Y004849D01*
X026273Y004813D01*
X026285Y004776D01*
X026293Y004738D01*
X026297Y004699D01*
X026297Y004661D01*
X026293Y004622D01*
X026285Y004584D01*
X026273Y004547D01*
X026258Y004511D01*
X026240Y004477D01*
X026218Y004445D01*
X026193Y004415D01*
X026165Y004388D01*
X026135Y004363D01*
X026102Y004342D01*
X026067Y004325D01*
X026031Y004310D01*
X025994Y004300D01*
X025955Y004293D01*
X025917Y004290D01*
X025878Y004291D01*
X025839Y004296D01*
X025801Y004305D01*
X025765Y004317D01*
X025729Y004333D01*
X025695Y004352D01*
X025664Y004375D01*
X025635Y004401D01*
X025608Y004429D01*
X025585Y004460D01*
X025564Y004493D01*
X025548Y004529D01*
X025534Y004565D01*
X025525Y004603D01*
X025519Y004641D01*
X025517Y004680D01*
X025507Y004280D02*
X026307Y005080D01*
X027487Y004680D02*
X027489Y004719D01*
X027495Y004757D01*
X027504Y004795D01*
X027518Y004831D01*
X027534Y004867D01*
X027555Y004900D01*
X027578Y004931D01*
X027605Y004959D01*
X027634Y004985D01*
X027665Y005008D01*
X027699Y005027D01*
X027735Y005043D01*
X027771Y005055D01*
X027809Y005064D01*
X027848Y005069D01*
X027887Y005070D01*
X027925Y005067D01*
X027964Y005060D01*
X028001Y005050D01*
X028037Y005035D01*
X028072Y005018D01*
X028105Y004997D01*
X028135Y004972D01*
X028163Y004945D01*
X028188Y004915D01*
X028210Y004883D01*
X028228Y004849D01*
X028243Y004813D01*
X028255Y004776D01*
X028263Y004738D01*
X028267Y004699D01*
X028267Y004661D01*
X028263Y004622D01*
X028255Y004584D01*
X028243Y004547D01*
X028228Y004511D01*
X028210Y004477D01*
X028188Y004445D01*
X028163Y004415D01*
X028135Y004388D01*
X028105Y004363D01*
X028072Y004342D01*
X028037Y004325D01*
X028001Y004310D01*
X027964Y004300D01*
X027925Y004293D01*
X027887Y004290D01*
X027848Y004291D01*
X027809Y004296D01*
X027771Y004305D01*
X027735Y004317D01*
X027699Y004333D01*
X027665Y004352D01*
X027634Y004375D01*
X027605Y004401D01*
X027578Y004429D01*
X027555Y004460D01*
X027534Y004493D01*
X027518Y004529D01*
X027504Y004565D01*
X027495Y004603D01*
X027489Y004641D01*
X027487Y004680D01*
X027477Y004280D02*
X028277Y005080D01*
X029457Y004680D02*
X029459Y004719D01*
X029465Y004757D01*
X029474Y004795D01*
X029488Y004831D01*
X029504Y004867D01*
X029525Y004900D01*
X029548Y004931D01*
X029575Y004959D01*
X029604Y004985D01*
X029635Y005008D01*
X029669Y005027D01*
X029705Y005043D01*
X029741Y005055D01*
X029779Y005064D01*
X029818Y005069D01*
X029857Y005070D01*
X029895Y005067D01*
X029934Y005060D01*
X029971Y005050D01*
X030007Y005035D01*
X030042Y005018D01*
X030075Y004997D01*
X030105Y004972D01*
X030133Y004945D01*
X030158Y004915D01*
X030180Y004883D01*
X030198Y004849D01*
X030213Y004813D01*
X030225Y004776D01*
X030233Y004738D01*
X030237Y004699D01*
X030237Y004661D01*
X030233Y004622D01*
X030225Y004584D01*
X030213Y004547D01*
X030198Y004511D01*
X030180Y004477D01*
X030158Y004445D01*
X030133Y004415D01*
X030105Y004388D01*
X030075Y004363D01*
X030042Y004342D01*
X030007Y004325D01*
X029971Y004310D01*
X029934Y004300D01*
X029895Y004293D01*
X029857Y004290D01*
X029818Y004291D01*
X029779Y004296D01*
X029741Y004305D01*
X029705Y004317D01*
X029669Y004333D01*
X029635Y004352D01*
X029604Y004375D01*
X029575Y004401D01*
X029548Y004429D01*
X029525Y004460D01*
X029504Y004493D01*
X029488Y004529D01*
X029474Y004565D01*
X029465Y004603D01*
X029459Y004641D01*
X029457Y004680D01*
X029447Y004280D02*
X030247Y005080D01*
X031873Y004668D02*
X031875Y004707D01*
X031881Y004745D01*
X031890Y004783D01*
X031904Y004819D01*
X031920Y004855D01*
X031941Y004888D01*
X031964Y004919D01*
X031991Y004947D01*
X032020Y004973D01*
X032051Y004996D01*
X032085Y005015D01*
X032121Y005031D01*
X032157Y005043D01*
X032195Y005052D01*
X032234Y005057D01*
X032273Y005058D01*
X032311Y005055D01*
X032350Y005048D01*
X032387Y005038D01*
X032423Y005023D01*
X032458Y005006D01*
X032491Y004985D01*
X032521Y004960D01*
X032549Y004933D01*
X032574Y004903D01*
X032596Y004871D01*
X032614Y004837D01*
X032629Y004801D01*
X032641Y004764D01*
X032649Y004726D01*
X032653Y004687D01*
X032653Y004649D01*
X032649Y004610D01*
X032641Y004572D01*
X032629Y004535D01*
X032614Y004499D01*
X032596Y004465D01*
X032574Y004433D01*
X032549Y004403D01*
X032521Y004376D01*
X032491Y004351D01*
X032458Y004330D01*
X032423Y004313D01*
X032387Y004298D01*
X032350Y004288D01*
X032311Y004281D01*
X032273Y004278D01*
X032234Y004279D01*
X032195Y004284D01*
X032157Y004293D01*
X032121Y004305D01*
X032085Y004321D01*
X032051Y004340D01*
X032020Y004363D01*
X031991Y004389D01*
X031964Y004417D01*
X031941Y004448D01*
X031920Y004481D01*
X031904Y004517D01*
X031890Y004553D01*
X031881Y004591D01*
X031875Y004629D01*
X031873Y004668D01*
X031863Y004268D02*
X032663Y005068D01*
X033853Y004668D02*
X033855Y004707D01*
X033861Y004745D01*
X033870Y004783D01*
X033884Y004819D01*
X033900Y004855D01*
X033921Y004888D01*
X033944Y004919D01*
X033971Y004947D01*
X034000Y004973D01*
X034031Y004996D01*
X034065Y005015D01*
X034101Y005031D01*
X034137Y005043D01*
X034175Y005052D01*
X034214Y005057D01*
X034253Y005058D01*
X034291Y005055D01*
X034330Y005048D01*
X034367Y005038D01*
X034403Y005023D01*
X034438Y005006D01*
X034471Y004985D01*
X034501Y004960D01*
X034529Y004933D01*
X034554Y004903D01*
X034576Y004871D01*
X034594Y004837D01*
X034609Y004801D01*
X034621Y004764D01*
X034629Y004726D01*
X034633Y004687D01*
X034633Y004649D01*
X034629Y004610D01*
X034621Y004572D01*
X034609Y004535D01*
X034594Y004499D01*
X034576Y004465D01*
X034554Y004433D01*
X034529Y004403D01*
X034501Y004376D01*
X034471Y004351D01*
X034438Y004330D01*
X034403Y004313D01*
X034367Y004298D01*
X034330Y004288D01*
X034291Y004281D01*
X034253Y004278D01*
X034214Y004279D01*
X034175Y004284D01*
X034137Y004293D01*
X034101Y004305D01*
X034065Y004321D01*
X034031Y004340D01*
X034000Y004363D01*
X033971Y004389D01*
X033944Y004417D01*
X033921Y004448D01*
X033900Y004481D01*
X033884Y004517D01*
X033870Y004553D01*
X033861Y004591D01*
X033855Y004629D01*
X033853Y004668D01*
X033843Y004268D02*
X034643Y005068D01*
X033527Y008250D02*
X033529Y008289D01*
X033535Y008327D01*
X033544Y008365D01*
X033558Y008401D01*
X033574Y008437D01*
X033595Y008470D01*
X033618Y008501D01*
X033645Y008529D01*
X033674Y008555D01*
X033705Y008578D01*
X033739Y008597D01*
X033775Y008613D01*
X033811Y008625D01*
X033849Y008634D01*
X033888Y008639D01*
X033927Y008640D01*
X033965Y008637D01*
X034004Y008630D01*
X034041Y008620D01*
X034077Y008605D01*
X034112Y008588D01*
X034145Y008567D01*
X034175Y008542D01*
X034203Y008515D01*
X034228Y008485D01*
X034250Y008453D01*
X034268Y008419D01*
X034283Y008383D01*
X034295Y008346D01*
X034303Y008308D01*
X034307Y008269D01*
X034307Y008231D01*
X034303Y008192D01*
X034295Y008154D01*
X034283Y008117D01*
X034268Y008081D01*
X034250Y008047D01*
X034228Y008015D01*
X034203Y007985D01*
X034175Y007958D01*
X034145Y007933D01*
X034112Y007912D01*
X034077Y007895D01*
X034041Y007880D01*
X034004Y007870D01*
X033965Y007863D01*
X033927Y007860D01*
X033888Y007861D01*
X033849Y007866D01*
X033811Y007875D01*
X033775Y007887D01*
X033739Y007903D01*
X033705Y007922D01*
X033674Y007945D01*
X033645Y007971D01*
X033618Y007999D01*
X033595Y008030D01*
X033574Y008063D01*
X033558Y008099D01*
X033544Y008135D01*
X033535Y008173D01*
X033529Y008211D01*
X033527Y008250D01*
X033517Y007850D02*
X034317Y008650D01*
X033527Y010220D02*
X033529Y010259D01*
X033535Y010297D01*
X033544Y010335D01*
X033558Y010371D01*
X033574Y010407D01*
X033595Y010440D01*
X033618Y010471D01*
X033645Y010499D01*
X033674Y010525D01*
X033705Y010548D01*
X033739Y010567D01*
X033775Y010583D01*
X033811Y010595D01*
X033849Y010604D01*
X033888Y010609D01*
X033927Y010610D01*
X033965Y010607D01*
X034004Y010600D01*
X034041Y010590D01*
X034077Y010575D01*
X034112Y010558D01*
X034145Y010537D01*
X034175Y010512D01*
X034203Y010485D01*
X034228Y010455D01*
X034250Y010423D01*
X034268Y010389D01*
X034283Y010353D01*
X034295Y010316D01*
X034303Y010278D01*
X034307Y010239D01*
X034307Y010201D01*
X034303Y010162D01*
X034295Y010124D01*
X034283Y010087D01*
X034268Y010051D01*
X034250Y010017D01*
X034228Y009985D01*
X034203Y009955D01*
X034175Y009928D01*
X034145Y009903D01*
X034112Y009882D01*
X034077Y009865D01*
X034041Y009850D01*
X034004Y009840D01*
X033965Y009833D01*
X033927Y009830D01*
X033888Y009831D01*
X033849Y009836D01*
X033811Y009845D01*
X033775Y009857D01*
X033739Y009873D01*
X033705Y009892D01*
X033674Y009915D01*
X033645Y009941D01*
X033618Y009969D01*
X033595Y010000D01*
X033574Y010033D01*
X033558Y010069D01*
X033544Y010105D01*
X033535Y010143D01*
X033529Y010181D01*
X033527Y010220D01*
X033517Y009820D02*
X034317Y010620D01*
X033527Y012190D02*
X033529Y012229D01*
X033535Y012267D01*
X033544Y012305D01*
X033558Y012341D01*
X033574Y012377D01*
X033595Y012410D01*
X033618Y012441D01*
X033645Y012469D01*
X033674Y012495D01*
X033705Y012518D01*
X033739Y012537D01*
X033775Y012553D01*
X033811Y012565D01*
X033849Y012574D01*
X033888Y012579D01*
X033927Y012580D01*
X033965Y012577D01*
X034004Y012570D01*
X034041Y012560D01*
X034077Y012545D01*
X034112Y012528D01*
X034145Y012507D01*
X034175Y012482D01*
X034203Y012455D01*
X034228Y012425D01*
X034250Y012393D01*
X034268Y012359D01*
X034283Y012323D01*
X034295Y012286D01*
X034303Y012248D01*
X034307Y012209D01*
X034307Y012171D01*
X034303Y012132D01*
X034295Y012094D01*
X034283Y012057D01*
X034268Y012021D01*
X034250Y011987D01*
X034228Y011955D01*
X034203Y011925D01*
X034175Y011898D01*
X034145Y011873D01*
X034112Y011852D01*
X034077Y011835D01*
X034041Y011820D01*
X034004Y011810D01*
X033965Y011803D01*
X033927Y011800D01*
X033888Y011801D01*
X033849Y011806D01*
X033811Y011815D01*
X033775Y011827D01*
X033739Y011843D01*
X033705Y011862D01*
X033674Y011885D01*
X033645Y011911D01*
X033618Y011939D01*
X033595Y011970D01*
X033574Y012003D01*
X033558Y012039D01*
X033544Y012075D01*
X033535Y012113D01*
X033529Y012151D01*
X033527Y012190D01*
X033517Y011790D02*
X034317Y012590D01*
X033527Y014170D02*
X033529Y014209D01*
X033535Y014247D01*
X033544Y014285D01*
X033558Y014321D01*
X033574Y014357D01*
X033595Y014390D01*
X033618Y014421D01*
X033645Y014449D01*
X033674Y014475D01*
X033705Y014498D01*
X033739Y014517D01*
X033775Y014533D01*
X033811Y014545D01*
X033849Y014554D01*
X033888Y014559D01*
X033927Y014560D01*
X033965Y014557D01*
X034004Y014550D01*
X034041Y014540D01*
X034077Y014525D01*
X034112Y014508D01*
X034145Y014487D01*
X034175Y014462D01*
X034203Y014435D01*
X034228Y014405D01*
X034250Y014373D01*
X034268Y014339D01*
X034283Y014303D01*
X034295Y014266D01*
X034303Y014228D01*
X034307Y014189D01*
X034307Y014151D01*
X034303Y014112D01*
X034295Y014074D01*
X034283Y014037D01*
X034268Y014001D01*
X034250Y013967D01*
X034228Y013935D01*
X034203Y013905D01*
X034175Y013878D01*
X034145Y013853D01*
X034112Y013832D01*
X034077Y013815D01*
X034041Y013800D01*
X034004Y013790D01*
X033965Y013783D01*
X033927Y013780D01*
X033888Y013781D01*
X033849Y013786D01*
X033811Y013795D01*
X033775Y013807D01*
X033739Y013823D01*
X033705Y013842D01*
X033674Y013865D01*
X033645Y013891D01*
X033618Y013919D01*
X033595Y013950D01*
X033574Y013983D01*
X033558Y014019D01*
X033544Y014055D01*
X033535Y014093D01*
X033529Y014131D01*
X033527Y014170D01*
X033517Y013770D02*
X034317Y014570D01*
X033527Y016140D02*
X033529Y016179D01*
X033535Y016217D01*
X033544Y016255D01*
X033558Y016291D01*
X033574Y016327D01*
X033595Y016360D01*
X033618Y016391D01*
X033645Y016419D01*
X033674Y016445D01*
X033705Y016468D01*
X033739Y016487D01*
X033775Y016503D01*
X033811Y016515D01*
X033849Y016524D01*
X033888Y016529D01*
X033927Y016530D01*
X033965Y016527D01*
X034004Y016520D01*
X034041Y016510D01*
X034077Y016495D01*
X034112Y016478D01*
X034145Y016457D01*
X034175Y016432D01*
X034203Y016405D01*
X034228Y016375D01*
X034250Y016343D01*
X034268Y016309D01*
X034283Y016273D01*
X034295Y016236D01*
X034303Y016198D01*
X034307Y016159D01*
X034307Y016121D01*
X034303Y016082D01*
X034295Y016044D01*
X034283Y016007D01*
X034268Y015971D01*
X034250Y015937D01*
X034228Y015905D01*
X034203Y015875D01*
X034175Y015848D01*
X034145Y015823D01*
X034112Y015802D01*
X034077Y015785D01*
X034041Y015770D01*
X034004Y015760D01*
X033965Y015753D01*
X033927Y015750D01*
X033888Y015751D01*
X033849Y015756D01*
X033811Y015765D01*
X033775Y015777D01*
X033739Y015793D01*
X033705Y015812D01*
X033674Y015835D01*
X033645Y015861D01*
X033618Y015889D01*
X033595Y015920D01*
X033574Y015953D01*
X033558Y015989D01*
X033544Y016025D01*
X033535Y016063D01*
X033529Y016101D01*
X033527Y016140D01*
X033517Y015740D02*
X034317Y016540D01*
X033527Y018110D02*
X033529Y018149D01*
X033535Y018187D01*
X033544Y018225D01*
X033558Y018261D01*
X033574Y018297D01*
X033595Y018330D01*
X033618Y018361D01*
X033645Y018389D01*
X033674Y018415D01*
X033705Y018438D01*
X033739Y018457D01*
X033775Y018473D01*
X033811Y018485D01*
X033849Y018494D01*
X033888Y018499D01*
X033927Y018500D01*
X033965Y018497D01*
X034004Y018490D01*
X034041Y018480D01*
X034077Y018465D01*
X034112Y018448D01*
X034145Y018427D01*
X034175Y018402D01*
X034203Y018375D01*
X034228Y018345D01*
X034250Y018313D01*
X034268Y018279D01*
X034283Y018243D01*
X034295Y018206D01*
X034303Y018168D01*
X034307Y018129D01*
X034307Y018091D01*
X034303Y018052D01*
X034295Y018014D01*
X034283Y017977D01*
X034268Y017941D01*
X034250Y017907D01*
X034228Y017875D01*
X034203Y017845D01*
X034175Y017818D01*
X034145Y017793D01*
X034112Y017772D01*
X034077Y017755D01*
X034041Y017740D01*
X034004Y017730D01*
X033965Y017723D01*
X033927Y017720D01*
X033888Y017721D01*
X033849Y017726D01*
X033811Y017735D01*
X033775Y017747D01*
X033739Y017763D01*
X033705Y017782D01*
X033674Y017805D01*
X033645Y017831D01*
X033618Y017859D01*
X033595Y017890D01*
X033574Y017923D01*
X033558Y017959D01*
X033544Y017995D01*
X033535Y018033D01*
X033529Y018071D01*
X033527Y018110D01*
X033517Y017710D02*
X034317Y018510D01*
X033437Y021680D02*
X033439Y021719D01*
X033445Y021757D01*
X033454Y021795D01*
X033468Y021831D01*
X033484Y021867D01*
X033505Y021900D01*
X033528Y021931D01*
X033555Y021959D01*
X033584Y021985D01*
X033615Y022008D01*
X033649Y022027D01*
X033685Y022043D01*
X033721Y022055D01*
X033759Y022064D01*
X033798Y022069D01*
X033837Y022070D01*
X033875Y022067D01*
X033914Y022060D01*
X033951Y022050D01*
X033987Y022035D01*
X034022Y022018D01*
X034055Y021997D01*
X034085Y021972D01*
X034113Y021945D01*
X034138Y021915D01*
X034160Y021883D01*
X034178Y021849D01*
X034193Y021813D01*
X034205Y021776D01*
X034213Y021738D01*
X034217Y021699D01*
X034217Y021661D01*
X034213Y021622D01*
X034205Y021584D01*
X034193Y021547D01*
X034178Y021511D01*
X034160Y021477D01*
X034138Y021445D01*
X034113Y021415D01*
X034085Y021388D01*
X034055Y021363D01*
X034022Y021342D01*
X033987Y021325D01*
X033951Y021310D01*
X033914Y021300D01*
X033875Y021293D01*
X033837Y021290D01*
X033798Y021291D01*
X033759Y021296D01*
X033721Y021305D01*
X033685Y021317D01*
X033649Y021333D01*
X033615Y021352D01*
X033584Y021375D01*
X033555Y021401D01*
X033528Y021429D01*
X033505Y021460D01*
X033484Y021493D01*
X033468Y021529D01*
X033454Y021565D01*
X033445Y021603D01*
X033439Y021641D01*
X033437Y021680D01*
X033427Y021280D02*
X034227Y022080D01*
X035407Y021680D02*
X035409Y021719D01*
X035415Y021757D01*
X035424Y021795D01*
X035438Y021831D01*
X035454Y021867D01*
X035475Y021900D01*
X035498Y021931D01*
X035525Y021959D01*
X035554Y021985D01*
X035585Y022008D01*
X035619Y022027D01*
X035655Y022043D01*
X035691Y022055D01*
X035729Y022064D01*
X035768Y022069D01*
X035807Y022070D01*
X035845Y022067D01*
X035884Y022060D01*
X035921Y022050D01*
X035957Y022035D01*
X035992Y022018D01*
X036025Y021997D01*
X036055Y021972D01*
X036083Y021945D01*
X036108Y021915D01*
X036130Y021883D01*
X036148Y021849D01*
X036163Y021813D01*
X036175Y021776D01*
X036183Y021738D01*
X036187Y021699D01*
X036187Y021661D01*
X036183Y021622D01*
X036175Y021584D01*
X036163Y021547D01*
X036148Y021511D01*
X036130Y021477D01*
X036108Y021445D01*
X036083Y021415D01*
X036055Y021388D01*
X036025Y021363D01*
X035992Y021342D01*
X035957Y021325D01*
X035921Y021310D01*
X035884Y021300D01*
X035845Y021293D01*
X035807Y021290D01*
X035768Y021291D01*
X035729Y021296D01*
X035691Y021305D01*
X035655Y021317D01*
X035619Y021333D01*
X035585Y021352D01*
X035554Y021375D01*
X035525Y021401D01*
X035498Y021429D01*
X035475Y021460D01*
X035454Y021493D01*
X035438Y021529D01*
X035424Y021565D01*
X035415Y021603D01*
X035409Y021641D01*
X035407Y021680D01*
X035397Y021280D02*
X036197Y022080D01*
X031477Y021680D02*
X031479Y021719D01*
X031485Y021757D01*
X031494Y021795D01*
X031508Y021831D01*
X031524Y021867D01*
X031545Y021900D01*
X031568Y021931D01*
X031595Y021959D01*
X031624Y021985D01*
X031655Y022008D01*
X031689Y022027D01*
X031725Y022043D01*
X031761Y022055D01*
X031799Y022064D01*
X031838Y022069D01*
X031877Y022070D01*
X031915Y022067D01*
X031954Y022060D01*
X031991Y022050D01*
X032027Y022035D01*
X032062Y022018D01*
X032095Y021997D01*
X032125Y021972D01*
X032153Y021945D01*
X032178Y021915D01*
X032200Y021883D01*
X032218Y021849D01*
X032233Y021813D01*
X032245Y021776D01*
X032253Y021738D01*
X032257Y021699D01*
X032257Y021661D01*
X032253Y021622D01*
X032245Y021584D01*
X032233Y021547D01*
X032218Y021511D01*
X032200Y021477D01*
X032178Y021445D01*
X032153Y021415D01*
X032125Y021388D01*
X032095Y021363D01*
X032062Y021342D01*
X032027Y021325D01*
X031991Y021310D01*
X031954Y021300D01*
X031915Y021293D01*
X031877Y021290D01*
X031838Y021291D01*
X031799Y021296D01*
X031761Y021305D01*
X031725Y021317D01*
X031689Y021333D01*
X031655Y021352D01*
X031624Y021375D01*
X031595Y021401D01*
X031568Y021429D01*
X031545Y021460D01*
X031524Y021493D01*
X031508Y021529D01*
X031494Y021565D01*
X031485Y021603D01*
X031479Y021641D01*
X031477Y021680D01*
X031467Y021280D02*
X032267Y022080D01*
X029497Y021680D02*
X029499Y021719D01*
X029505Y021757D01*
X029514Y021795D01*
X029528Y021831D01*
X029544Y021867D01*
X029565Y021900D01*
X029588Y021931D01*
X029615Y021959D01*
X029644Y021985D01*
X029675Y022008D01*
X029709Y022027D01*
X029745Y022043D01*
X029781Y022055D01*
X029819Y022064D01*
X029858Y022069D01*
X029897Y022070D01*
X029935Y022067D01*
X029974Y022060D01*
X030011Y022050D01*
X030047Y022035D01*
X030082Y022018D01*
X030115Y021997D01*
X030145Y021972D01*
X030173Y021945D01*
X030198Y021915D01*
X030220Y021883D01*
X030238Y021849D01*
X030253Y021813D01*
X030265Y021776D01*
X030273Y021738D01*
X030277Y021699D01*
X030277Y021661D01*
X030273Y021622D01*
X030265Y021584D01*
X030253Y021547D01*
X030238Y021511D01*
X030220Y021477D01*
X030198Y021445D01*
X030173Y021415D01*
X030145Y021388D01*
X030115Y021363D01*
X030082Y021342D01*
X030047Y021325D01*
X030011Y021310D01*
X029974Y021300D01*
X029935Y021293D01*
X029897Y021290D01*
X029858Y021291D01*
X029819Y021296D01*
X029781Y021305D01*
X029745Y021317D01*
X029709Y021333D01*
X029675Y021352D01*
X029644Y021375D01*
X029615Y021401D01*
X029588Y021429D01*
X029565Y021460D01*
X029544Y021493D01*
X029528Y021529D01*
X029514Y021565D01*
X029505Y021603D01*
X029499Y021641D01*
X029497Y021680D01*
X029487Y021280D02*
X030287Y022080D01*
X027527Y021680D02*
X027529Y021719D01*
X027535Y021757D01*
X027544Y021795D01*
X027558Y021831D01*
X027574Y021867D01*
X027595Y021900D01*
X027618Y021931D01*
X027645Y021959D01*
X027674Y021985D01*
X027705Y022008D01*
X027739Y022027D01*
X027775Y022043D01*
X027811Y022055D01*
X027849Y022064D01*
X027888Y022069D01*
X027927Y022070D01*
X027965Y022067D01*
X028004Y022060D01*
X028041Y022050D01*
X028077Y022035D01*
X028112Y022018D01*
X028145Y021997D01*
X028175Y021972D01*
X028203Y021945D01*
X028228Y021915D01*
X028250Y021883D01*
X028268Y021849D01*
X028283Y021813D01*
X028295Y021776D01*
X028303Y021738D01*
X028307Y021699D01*
X028307Y021661D01*
X028303Y021622D01*
X028295Y021584D01*
X028283Y021547D01*
X028268Y021511D01*
X028250Y021477D01*
X028228Y021445D01*
X028203Y021415D01*
X028175Y021388D01*
X028145Y021363D01*
X028112Y021342D01*
X028077Y021325D01*
X028041Y021310D01*
X028004Y021300D01*
X027965Y021293D01*
X027927Y021290D01*
X027888Y021291D01*
X027849Y021296D01*
X027811Y021305D01*
X027775Y021317D01*
X027739Y021333D01*
X027705Y021352D01*
X027674Y021375D01*
X027645Y021401D01*
X027618Y021429D01*
X027595Y021460D01*
X027574Y021493D01*
X027558Y021529D01*
X027544Y021565D01*
X027535Y021603D01*
X027529Y021641D01*
X027527Y021680D01*
X027517Y021280D02*
X028317Y022080D01*
X025557Y021680D02*
X025559Y021719D01*
X025565Y021757D01*
X025574Y021795D01*
X025588Y021831D01*
X025604Y021867D01*
X025625Y021900D01*
X025648Y021931D01*
X025675Y021959D01*
X025704Y021985D01*
X025735Y022008D01*
X025769Y022027D01*
X025805Y022043D01*
X025841Y022055D01*
X025879Y022064D01*
X025918Y022069D01*
X025957Y022070D01*
X025995Y022067D01*
X026034Y022060D01*
X026071Y022050D01*
X026107Y022035D01*
X026142Y022018D01*
X026175Y021997D01*
X026205Y021972D01*
X026233Y021945D01*
X026258Y021915D01*
X026280Y021883D01*
X026298Y021849D01*
X026313Y021813D01*
X026325Y021776D01*
X026333Y021738D01*
X026337Y021699D01*
X026337Y021661D01*
X026333Y021622D01*
X026325Y021584D01*
X026313Y021547D01*
X026298Y021511D01*
X026280Y021477D01*
X026258Y021445D01*
X026233Y021415D01*
X026205Y021388D01*
X026175Y021363D01*
X026142Y021342D01*
X026107Y021325D01*
X026071Y021310D01*
X026034Y021300D01*
X025995Y021293D01*
X025957Y021290D01*
X025918Y021291D01*
X025879Y021296D01*
X025841Y021305D01*
X025805Y021317D01*
X025769Y021333D01*
X025735Y021352D01*
X025704Y021375D01*
X025675Y021401D01*
X025648Y021429D01*
X025625Y021460D01*
X025604Y021493D01*
X025588Y021529D01*
X025574Y021565D01*
X025565Y021603D01*
X025559Y021641D01*
X025557Y021680D01*
X025547Y021280D02*
X026347Y022080D01*
X023577Y021680D02*
X023579Y021719D01*
X023585Y021757D01*
X023594Y021795D01*
X023608Y021831D01*
X023624Y021867D01*
X023645Y021900D01*
X023668Y021931D01*
X023695Y021959D01*
X023724Y021985D01*
X023755Y022008D01*
X023789Y022027D01*
X023825Y022043D01*
X023861Y022055D01*
X023899Y022064D01*
X023938Y022069D01*
X023977Y022070D01*
X024015Y022067D01*
X024054Y022060D01*
X024091Y022050D01*
X024127Y022035D01*
X024162Y022018D01*
X024195Y021997D01*
X024225Y021972D01*
X024253Y021945D01*
X024278Y021915D01*
X024300Y021883D01*
X024318Y021849D01*
X024333Y021813D01*
X024345Y021776D01*
X024353Y021738D01*
X024357Y021699D01*
X024357Y021661D01*
X024353Y021622D01*
X024345Y021584D01*
X024333Y021547D01*
X024318Y021511D01*
X024300Y021477D01*
X024278Y021445D01*
X024253Y021415D01*
X024225Y021388D01*
X024195Y021363D01*
X024162Y021342D01*
X024127Y021325D01*
X024091Y021310D01*
X024054Y021300D01*
X024015Y021293D01*
X023977Y021290D01*
X023938Y021291D01*
X023899Y021296D01*
X023861Y021305D01*
X023825Y021317D01*
X023789Y021333D01*
X023755Y021352D01*
X023724Y021375D01*
X023695Y021401D01*
X023668Y021429D01*
X023645Y021460D01*
X023624Y021493D01*
X023608Y021529D01*
X023594Y021565D01*
X023585Y021603D01*
X023579Y021641D01*
X023577Y021680D01*
X023567Y021280D02*
X024367Y022080D01*
X021617Y021680D02*
X021619Y021719D01*
X021625Y021757D01*
X021634Y021795D01*
X021648Y021831D01*
X021664Y021867D01*
X021685Y021900D01*
X021708Y021931D01*
X021735Y021959D01*
X021764Y021985D01*
X021795Y022008D01*
X021829Y022027D01*
X021865Y022043D01*
X021901Y022055D01*
X021939Y022064D01*
X021978Y022069D01*
X022017Y022070D01*
X022055Y022067D01*
X022094Y022060D01*
X022131Y022050D01*
X022167Y022035D01*
X022202Y022018D01*
X022235Y021997D01*
X022265Y021972D01*
X022293Y021945D01*
X022318Y021915D01*
X022340Y021883D01*
X022358Y021849D01*
X022373Y021813D01*
X022385Y021776D01*
X022393Y021738D01*
X022397Y021699D01*
X022397Y021661D01*
X022393Y021622D01*
X022385Y021584D01*
X022373Y021547D01*
X022358Y021511D01*
X022340Y021477D01*
X022318Y021445D01*
X022293Y021415D01*
X022265Y021388D01*
X022235Y021363D01*
X022202Y021342D01*
X022167Y021325D01*
X022131Y021310D01*
X022094Y021300D01*
X022055Y021293D01*
X022017Y021290D01*
X021978Y021291D01*
X021939Y021296D01*
X021901Y021305D01*
X021865Y021317D01*
X021829Y021333D01*
X021795Y021352D01*
X021764Y021375D01*
X021735Y021401D01*
X021708Y021429D01*
X021685Y021460D01*
X021664Y021493D01*
X021648Y021529D01*
X021634Y021565D01*
X021625Y021603D01*
X021619Y021641D01*
X021617Y021680D01*
X021607Y021280D02*
X022407Y022080D01*
X019647Y021680D02*
X019649Y021719D01*
X019655Y021757D01*
X019664Y021795D01*
X019678Y021831D01*
X019694Y021867D01*
X019715Y021900D01*
X019738Y021931D01*
X019765Y021959D01*
X019794Y021985D01*
X019825Y022008D01*
X019859Y022027D01*
X019895Y022043D01*
X019931Y022055D01*
X019969Y022064D01*
X020008Y022069D01*
X020047Y022070D01*
X020085Y022067D01*
X020124Y022060D01*
X020161Y022050D01*
X020197Y022035D01*
X020232Y022018D01*
X020265Y021997D01*
X020295Y021972D01*
X020323Y021945D01*
X020348Y021915D01*
X020370Y021883D01*
X020388Y021849D01*
X020403Y021813D01*
X020415Y021776D01*
X020423Y021738D01*
X020427Y021699D01*
X020427Y021661D01*
X020423Y021622D01*
X020415Y021584D01*
X020403Y021547D01*
X020388Y021511D01*
X020370Y021477D01*
X020348Y021445D01*
X020323Y021415D01*
X020295Y021388D01*
X020265Y021363D01*
X020232Y021342D01*
X020197Y021325D01*
X020161Y021310D01*
X020124Y021300D01*
X020085Y021293D01*
X020047Y021290D01*
X020008Y021291D01*
X019969Y021296D01*
X019931Y021305D01*
X019895Y021317D01*
X019859Y021333D01*
X019825Y021352D01*
X019794Y021375D01*
X019765Y021401D01*
X019738Y021429D01*
X019715Y021460D01*
X019694Y021493D01*
X019678Y021529D01*
X019664Y021565D01*
X019655Y021603D01*
X019649Y021641D01*
X019647Y021680D01*
X019637Y021280D02*
X020437Y022080D01*
X017407Y021680D02*
X017409Y021719D01*
X017415Y021757D01*
X017424Y021795D01*
X017438Y021831D01*
X017454Y021867D01*
X017475Y021900D01*
X017498Y021931D01*
X017525Y021959D01*
X017554Y021985D01*
X017585Y022008D01*
X017619Y022027D01*
X017655Y022043D01*
X017691Y022055D01*
X017729Y022064D01*
X017768Y022069D01*
X017807Y022070D01*
X017845Y022067D01*
X017884Y022060D01*
X017921Y022050D01*
X017957Y022035D01*
X017992Y022018D01*
X018025Y021997D01*
X018055Y021972D01*
X018083Y021945D01*
X018108Y021915D01*
X018130Y021883D01*
X018148Y021849D01*
X018163Y021813D01*
X018175Y021776D01*
X018183Y021738D01*
X018187Y021699D01*
X018187Y021661D01*
X018183Y021622D01*
X018175Y021584D01*
X018163Y021547D01*
X018148Y021511D01*
X018130Y021477D01*
X018108Y021445D01*
X018083Y021415D01*
X018055Y021388D01*
X018025Y021363D01*
X017992Y021342D01*
X017957Y021325D01*
X017921Y021310D01*
X017884Y021300D01*
X017845Y021293D01*
X017807Y021290D01*
X017768Y021291D01*
X017729Y021296D01*
X017691Y021305D01*
X017655Y021317D01*
X017619Y021333D01*
X017585Y021352D01*
X017554Y021375D01*
X017525Y021401D01*
X017498Y021429D01*
X017475Y021460D01*
X017454Y021493D01*
X017438Y021529D01*
X017424Y021565D01*
X017415Y021603D01*
X017409Y021641D01*
X017407Y021680D01*
X017397Y021280D02*
X018197Y022080D01*
X015437Y021680D02*
X015439Y021719D01*
X015445Y021757D01*
X015454Y021795D01*
X015468Y021831D01*
X015484Y021867D01*
X015505Y021900D01*
X015528Y021931D01*
X015555Y021959D01*
X015584Y021985D01*
X015615Y022008D01*
X015649Y022027D01*
X015685Y022043D01*
X015721Y022055D01*
X015759Y022064D01*
X015798Y022069D01*
X015837Y022070D01*
X015875Y022067D01*
X015914Y022060D01*
X015951Y022050D01*
X015987Y022035D01*
X016022Y022018D01*
X016055Y021997D01*
X016085Y021972D01*
X016113Y021945D01*
X016138Y021915D01*
X016160Y021883D01*
X016178Y021849D01*
X016193Y021813D01*
X016205Y021776D01*
X016213Y021738D01*
X016217Y021699D01*
X016217Y021661D01*
X016213Y021622D01*
X016205Y021584D01*
X016193Y021547D01*
X016178Y021511D01*
X016160Y021477D01*
X016138Y021445D01*
X016113Y021415D01*
X016085Y021388D01*
X016055Y021363D01*
X016022Y021342D01*
X015987Y021325D01*
X015951Y021310D01*
X015914Y021300D01*
X015875Y021293D01*
X015837Y021290D01*
X015798Y021291D01*
X015759Y021296D01*
X015721Y021305D01*
X015685Y021317D01*
X015649Y021333D01*
X015615Y021352D01*
X015584Y021375D01*
X015555Y021401D01*
X015528Y021429D01*
X015505Y021460D01*
X015484Y021493D01*
X015468Y021529D01*
X015454Y021565D01*
X015445Y021603D01*
X015439Y021641D01*
X015437Y021680D01*
X015427Y021280D02*
X016227Y022080D01*
X013477Y021680D02*
X013479Y021719D01*
X013485Y021757D01*
X013494Y021795D01*
X013508Y021831D01*
X013524Y021867D01*
X013545Y021900D01*
X013568Y021931D01*
X013595Y021959D01*
X013624Y021985D01*
X013655Y022008D01*
X013689Y022027D01*
X013725Y022043D01*
X013761Y022055D01*
X013799Y022064D01*
X013838Y022069D01*
X013877Y022070D01*
X013915Y022067D01*
X013954Y022060D01*
X013991Y022050D01*
X014027Y022035D01*
X014062Y022018D01*
X014095Y021997D01*
X014125Y021972D01*
X014153Y021945D01*
X014178Y021915D01*
X014200Y021883D01*
X014218Y021849D01*
X014233Y021813D01*
X014245Y021776D01*
X014253Y021738D01*
X014257Y021699D01*
X014257Y021661D01*
X014253Y021622D01*
X014245Y021584D01*
X014233Y021547D01*
X014218Y021511D01*
X014200Y021477D01*
X014178Y021445D01*
X014153Y021415D01*
X014125Y021388D01*
X014095Y021363D01*
X014062Y021342D01*
X014027Y021325D01*
X013991Y021310D01*
X013954Y021300D01*
X013915Y021293D01*
X013877Y021290D01*
X013838Y021291D01*
X013799Y021296D01*
X013761Y021305D01*
X013725Y021317D01*
X013689Y021333D01*
X013655Y021352D01*
X013624Y021375D01*
X013595Y021401D01*
X013568Y021429D01*
X013545Y021460D01*
X013524Y021493D01*
X013508Y021529D01*
X013494Y021565D01*
X013485Y021603D01*
X013479Y021641D01*
X013477Y021680D01*
X013467Y021280D02*
X014267Y022080D01*
X011497Y021680D02*
X011499Y021719D01*
X011505Y021757D01*
X011514Y021795D01*
X011528Y021831D01*
X011544Y021867D01*
X011565Y021900D01*
X011588Y021931D01*
X011615Y021959D01*
X011644Y021985D01*
X011675Y022008D01*
X011709Y022027D01*
X011745Y022043D01*
X011781Y022055D01*
X011819Y022064D01*
X011858Y022069D01*
X011897Y022070D01*
X011935Y022067D01*
X011974Y022060D01*
X012011Y022050D01*
X012047Y022035D01*
X012082Y022018D01*
X012115Y021997D01*
X012145Y021972D01*
X012173Y021945D01*
X012198Y021915D01*
X012220Y021883D01*
X012238Y021849D01*
X012253Y021813D01*
X012265Y021776D01*
X012273Y021738D01*
X012277Y021699D01*
X012277Y021661D01*
X012273Y021622D01*
X012265Y021584D01*
X012253Y021547D01*
X012238Y021511D01*
X012220Y021477D01*
X012198Y021445D01*
X012173Y021415D01*
X012145Y021388D01*
X012115Y021363D01*
X012082Y021342D01*
X012047Y021325D01*
X012011Y021310D01*
X011974Y021300D01*
X011935Y021293D01*
X011897Y021290D01*
X011858Y021291D01*
X011819Y021296D01*
X011781Y021305D01*
X011745Y021317D01*
X011709Y021333D01*
X011675Y021352D01*
X011644Y021375D01*
X011615Y021401D01*
X011588Y021429D01*
X011565Y021460D01*
X011544Y021493D01*
X011528Y021529D01*
X011514Y021565D01*
X011505Y021603D01*
X011499Y021641D01*
X011497Y021680D01*
X011487Y021280D02*
X012287Y022080D01*
X009527Y021680D02*
X009529Y021719D01*
X009535Y021757D01*
X009544Y021795D01*
X009558Y021831D01*
X009574Y021867D01*
X009595Y021900D01*
X009618Y021931D01*
X009645Y021959D01*
X009674Y021985D01*
X009705Y022008D01*
X009739Y022027D01*
X009775Y022043D01*
X009811Y022055D01*
X009849Y022064D01*
X009888Y022069D01*
X009927Y022070D01*
X009965Y022067D01*
X010004Y022060D01*
X010041Y022050D01*
X010077Y022035D01*
X010112Y022018D01*
X010145Y021997D01*
X010175Y021972D01*
X010203Y021945D01*
X010228Y021915D01*
X010250Y021883D01*
X010268Y021849D01*
X010283Y021813D01*
X010295Y021776D01*
X010303Y021738D01*
X010307Y021699D01*
X010307Y021661D01*
X010303Y021622D01*
X010295Y021584D01*
X010283Y021547D01*
X010268Y021511D01*
X010250Y021477D01*
X010228Y021445D01*
X010203Y021415D01*
X010175Y021388D01*
X010145Y021363D01*
X010112Y021342D01*
X010077Y021325D01*
X010041Y021310D01*
X010004Y021300D01*
X009965Y021293D01*
X009927Y021290D01*
X009888Y021291D01*
X009849Y021296D01*
X009811Y021305D01*
X009775Y021317D01*
X009739Y021333D01*
X009705Y021352D01*
X009674Y021375D01*
X009645Y021401D01*
X009618Y021429D01*
X009595Y021460D01*
X009574Y021493D01*
X009558Y021529D01*
X009544Y021565D01*
X009535Y021603D01*
X009529Y021641D01*
X009527Y021680D01*
X009517Y021280D02*
X010317Y022080D01*
X007557Y021680D02*
X007559Y021719D01*
X007565Y021757D01*
X007574Y021795D01*
X007588Y021831D01*
X007604Y021867D01*
X007625Y021900D01*
X007648Y021931D01*
X007675Y021959D01*
X007704Y021985D01*
X007735Y022008D01*
X007769Y022027D01*
X007805Y022043D01*
X007841Y022055D01*
X007879Y022064D01*
X007918Y022069D01*
X007957Y022070D01*
X007995Y022067D01*
X008034Y022060D01*
X008071Y022050D01*
X008107Y022035D01*
X008142Y022018D01*
X008175Y021997D01*
X008205Y021972D01*
X008233Y021945D01*
X008258Y021915D01*
X008280Y021883D01*
X008298Y021849D01*
X008313Y021813D01*
X008325Y021776D01*
X008333Y021738D01*
X008337Y021699D01*
X008337Y021661D01*
X008333Y021622D01*
X008325Y021584D01*
X008313Y021547D01*
X008298Y021511D01*
X008280Y021477D01*
X008258Y021445D01*
X008233Y021415D01*
X008205Y021388D01*
X008175Y021363D01*
X008142Y021342D01*
X008107Y021325D01*
X008071Y021310D01*
X008034Y021300D01*
X007995Y021293D01*
X007957Y021290D01*
X007918Y021291D01*
X007879Y021296D01*
X007841Y021305D01*
X007805Y021317D01*
X007769Y021333D01*
X007735Y021352D01*
X007704Y021375D01*
X007675Y021401D01*
X007648Y021429D01*
X007625Y021460D01*
X007604Y021493D01*
X007588Y021529D01*
X007574Y021565D01*
X007565Y021603D01*
X007559Y021641D01*
X007557Y021680D01*
X007547Y021280D02*
X008347Y022080D01*
X005577Y021680D02*
X005579Y021719D01*
X005585Y021757D01*
X005594Y021795D01*
X005608Y021831D01*
X005624Y021867D01*
X005645Y021900D01*
X005668Y021931D01*
X005695Y021959D01*
X005724Y021985D01*
X005755Y022008D01*
X005789Y022027D01*
X005825Y022043D01*
X005861Y022055D01*
X005899Y022064D01*
X005938Y022069D01*
X005977Y022070D01*
X006015Y022067D01*
X006054Y022060D01*
X006091Y022050D01*
X006127Y022035D01*
X006162Y022018D01*
X006195Y021997D01*
X006225Y021972D01*
X006253Y021945D01*
X006278Y021915D01*
X006300Y021883D01*
X006318Y021849D01*
X006333Y021813D01*
X006345Y021776D01*
X006353Y021738D01*
X006357Y021699D01*
X006357Y021661D01*
X006353Y021622D01*
X006345Y021584D01*
X006333Y021547D01*
X006318Y021511D01*
X006300Y021477D01*
X006278Y021445D01*
X006253Y021415D01*
X006225Y021388D01*
X006195Y021363D01*
X006162Y021342D01*
X006127Y021325D01*
X006091Y021310D01*
X006054Y021300D01*
X006015Y021293D01*
X005977Y021290D01*
X005938Y021291D01*
X005899Y021296D01*
X005861Y021305D01*
X005825Y021317D01*
X005789Y021333D01*
X005755Y021352D01*
X005724Y021375D01*
X005695Y021401D01*
X005668Y021429D01*
X005645Y021460D01*
X005624Y021493D01*
X005608Y021529D01*
X005594Y021565D01*
X005585Y021603D01*
X005579Y021641D01*
X005577Y021680D01*
X005567Y021280D02*
X006367Y022080D01*
X003617Y021680D02*
X003619Y021719D01*
X003625Y021757D01*
X003634Y021795D01*
X003648Y021831D01*
X003664Y021867D01*
X003685Y021900D01*
X003708Y021931D01*
X003735Y021959D01*
X003764Y021985D01*
X003795Y022008D01*
X003829Y022027D01*
X003865Y022043D01*
X003901Y022055D01*
X003939Y022064D01*
X003978Y022069D01*
X004017Y022070D01*
X004055Y022067D01*
X004094Y022060D01*
X004131Y022050D01*
X004167Y022035D01*
X004202Y022018D01*
X004235Y021997D01*
X004265Y021972D01*
X004293Y021945D01*
X004318Y021915D01*
X004340Y021883D01*
X004358Y021849D01*
X004373Y021813D01*
X004385Y021776D01*
X004393Y021738D01*
X004397Y021699D01*
X004397Y021661D01*
X004393Y021622D01*
X004385Y021584D01*
X004373Y021547D01*
X004358Y021511D01*
X004340Y021477D01*
X004318Y021445D01*
X004293Y021415D01*
X004265Y021388D01*
X004235Y021363D01*
X004202Y021342D01*
X004167Y021325D01*
X004131Y021310D01*
X004094Y021300D01*
X004055Y021293D01*
X004017Y021290D01*
X003978Y021291D01*
X003939Y021296D01*
X003901Y021305D01*
X003865Y021317D01*
X003829Y021333D01*
X003795Y021352D01*
X003764Y021375D01*
X003735Y021401D01*
X003708Y021429D01*
X003685Y021460D01*
X003664Y021493D01*
X003648Y021529D01*
X003634Y021565D01*
X003625Y021603D01*
X003619Y021641D01*
X003617Y021680D01*
X003607Y021280D02*
X004407Y022080D01*
X001647Y021680D02*
X001649Y021719D01*
X001655Y021757D01*
X001664Y021795D01*
X001678Y021831D01*
X001694Y021867D01*
X001715Y021900D01*
X001738Y021931D01*
X001765Y021959D01*
X001794Y021985D01*
X001825Y022008D01*
X001859Y022027D01*
X001895Y022043D01*
X001931Y022055D01*
X001969Y022064D01*
X002008Y022069D01*
X002047Y022070D01*
X002085Y022067D01*
X002124Y022060D01*
X002161Y022050D01*
X002197Y022035D01*
X002232Y022018D01*
X002265Y021997D01*
X002295Y021972D01*
X002323Y021945D01*
X002348Y021915D01*
X002370Y021883D01*
X002388Y021849D01*
X002403Y021813D01*
X002415Y021776D01*
X002423Y021738D01*
X002427Y021699D01*
X002427Y021661D01*
X002423Y021622D01*
X002415Y021584D01*
X002403Y021547D01*
X002388Y021511D01*
X002370Y021477D01*
X002348Y021445D01*
X002323Y021415D01*
X002295Y021388D01*
X002265Y021363D01*
X002232Y021342D01*
X002197Y021325D01*
X002161Y021310D01*
X002124Y021300D01*
X002085Y021293D01*
X002047Y021290D01*
X002008Y021291D01*
X001969Y021296D01*
X001931Y021305D01*
X001895Y021317D01*
X001859Y021333D01*
X001825Y021352D01*
X001794Y021375D01*
X001765Y021401D01*
X001738Y021429D01*
X001715Y021460D01*
X001694Y021493D01*
X001678Y021529D01*
X001664Y021565D01*
X001655Y021603D01*
X001649Y021641D01*
X001647Y021680D01*
X001637Y021280D02*
X002437Y022080D01*
X002027Y019680D02*
X002029Y019719D01*
X002035Y019757D01*
X002044Y019795D01*
X002058Y019831D01*
X002074Y019867D01*
X002095Y019900D01*
X002118Y019931D01*
X002145Y019959D01*
X002174Y019985D01*
X002205Y020008D01*
X002239Y020027D01*
X002275Y020043D01*
X002311Y020055D01*
X002349Y020064D01*
X002388Y020069D01*
X002427Y020070D01*
X002465Y020067D01*
X002504Y020060D01*
X002541Y020050D01*
X002577Y020035D01*
X002612Y020018D01*
X002645Y019997D01*
X002675Y019972D01*
X002703Y019945D01*
X002728Y019915D01*
X002750Y019883D01*
X002768Y019849D01*
X002783Y019813D01*
X002795Y019776D01*
X002803Y019738D01*
X002807Y019699D01*
X002807Y019661D01*
X002803Y019622D01*
X002795Y019584D01*
X002783Y019547D01*
X002768Y019511D01*
X002750Y019477D01*
X002728Y019445D01*
X002703Y019415D01*
X002675Y019388D01*
X002645Y019363D01*
X002612Y019342D01*
X002577Y019325D01*
X002541Y019310D01*
X002504Y019300D01*
X002465Y019293D01*
X002427Y019290D01*
X002388Y019291D01*
X002349Y019296D01*
X002311Y019305D01*
X002275Y019317D01*
X002239Y019333D01*
X002205Y019352D01*
X002174Y019375D01*
X002145Y019401D01*
X002118Y019429D01*
X002095Y019460D01*
X002074Y019493D01*
X002058Y019529D01*
X002044Y019565D01*
X002035Y019603D01*
X002029Y019641D01*
X002027Y019680D01*
X002017Y019280D02*
X002817Y020080D01*
X001027Y019680D02*
X001029Y019719D01*
X001035Y019757D01*
X001044Y019795D01*
X001058Y019831D01*
X001074Y019867D01*
X001095Y019900D01*
X001118Y019931D01*
X001145Y019959D01*
X001174Y019985D01*
X001205Y020008D01*
X001239Y020027D01*
X001275Y020043D01*
X001311Y020055D01*
X001349Y020064D01*
X001388Y020069D01*
X001427Y020070D01*
X001465Y020067D01*
X001504Y020060D01*
X001541Y020050D01*
X001577Y020035D01*
X001612Y020018D01*
X001645Y019997D01*
X001675Y019972D01*
X001703Y019945D01*
X001728Y019915D01*
X001750Y019883D01*
X001768Y019849D01*
X001783Y019813D01*
X001795Y019776D01*
X001803Y019738D01*
X001807Y019699D01*
X001807Y019661D01*
X001803Y019622D01*
X001795Y019584D01*
X001783Y019547D01*
X001768Y019511D01*
X001750Y019477D01*
X001728Y019445D01*
X001703Y019415D01*
X001675Y019388D01*
X001645Y019363D01*
X001612Y019342D01*
X001577Y019325D01*
X001541Y019310D01*
X001504Y019300D01*
X001465Y019293D01*
X001427Y019290D01*
X001388Y019291D01*
X001349Y019296D01*
X001311Y019305D01*
X001275Y019317D01*
X001239Y019333D01*
X001205Y019352D01*
X001174Y019375D01*
X001145Y019401D01*
X001118Y019429D01*
X001095Y019460D01*
X001074Y019493D01*
X001058Y019529D01*
X001044Y019565D01*
X001035Y019603D01*
X001029Y019641D01*
X001027Y019680D01*
X001017Y019280D02*
X001817Y020080D01*
X001027Y018680D02*
X001029Y018719D01*
X001035Y018757D01*
X001044Y018795D01*
X001058Y018831D01*
X001074Y018867D01*
X001095Y018900D01*
X001118Y018931D01*
X001145Y018959D01*
X001174Y018985D01*
X001205Y019008D01*
X001239Y019027D01*
X001275Y019043D01*
X001311Y019055D01*
X001349Y019064D01*
X001388Y019069D01*
X001427Y019070D01*
X001465Y019067D01*
X001504Y019060D01*
X001541Y019050D01*
X001577Y019035D01*
X001612Y019018D01*
X001645Y018997D01*
X001675Y018972D01*
X001703Y018945D01*
X001728Y018915D01*
X001750Y018883D01*
X001768Y018849D01*
X001783Y018813D01*
X001795Y018776D01*
X001803Y018738D01*
X001807Y018699D01*
X001807Y018661D01*
X001803Y018622D01*
X001795Y018584D01*
X001783Y018547D01*
X001768Y018511D01*
X001750Y018477D01*
X001728Y018445D01*
X001703Y018415D01*
X001675Y018388D01*
X001645Y018363D01*
X001612Y018342D01*
X001577Y018325D01*
X001541Y018310D01*
X001504Y018300D01*
X001465Y018293D01*
X001427Y018290D01*
X001388Y018291D01*
X001349Y018296D01*
X001311Y018305D01*
X001275Y018317D01*
X001239Y018333D01*
X001205Y018352D01*
X001174Y018375D01*
X001145Y018401D01*
X001118Y018429D01*
X001095Y018460D01*
X001074Y018493D01*
X001058Y018529D01*
X001044Y018565D01*
X001035Y018603D01*
X001029Y018641D01*
X001027Y018680D01*
X001017Y018280D02*
X001817Y019080D01*
X002027Y018680D02*
X002029Y018719D01*
X002035Y018757D01*
X002044Y018795D01*
X002058Y018831D01*
X002074Y018867D01*
X002095Y018900D01*
X002118Y018931D01*
X002145Y018959D01*
X002174Y018985D01*
X002205Y019008D01*
X002239Y019027D01*
X002275Y019043D01*
X002311Y019055D01*
X002349Y019064D01*
X002388Y019069D01*
X002427Y019070D01*
X002465Y019067D01*
X002504Y019060D01*
X002541Y019050D01*
X002577Y019035D01*
X002612Y019018D01*
X002645Y018997D01*
X002675Y018972D01*
X002703Y018945D01*
X002728Y018915D01*
X002750Y018883D01*
X002768Y018849D01*
X002783Y018813D01*
X002795Y018776D01*
X002803Y018738D01*
X002807Y018699D01*
X002807Y018661D01*
X002803Y018622D01*
X002795Y018584D01*
X002783Y018547D01*
X002768Y018511D01*
X002750Y018477D01*
X002728Y018445D01*
X002703Y018415D01*
X002675Y018388D01*
X002645Y018363D01*
X002612Y018342D01*
X002577Y018325D01*
X002541Y018310D01*
X002504Y018300D01*
X002465Y018293D01*
X002427Y018290D01*
X002388Y018291D01*
X002349Y018296D01*
X002311Y018305D01*
X002275Y018317D01*
X002239Y018333D01*
X002205Y018352D01*
X002174Y018375D01*
X002145Y018401D01*
X002118Y018429D01*
X002095Y018460D01*
X002074Y018493D01*
X002058Y018529D01*
X002044Y018565D01*
X002035Y018603D01*
X002029Y018641D01*
X002027Y018680D01*
X002017Y018280D02*
X002817Y019080D01*
X002027Y017680D02*
X002029Y017719D01*
X002035Y017757D01*
X002044Y017795D01*
X002058Y017831D01*
X002074Y017867D01*
X002095Y017900D01*
X002118Y017931D01*
X002145Y017959D01*
X002174Y017985D01*
X002205Y018008D01*
X002239Y018027D01*
X002275Y018043D01*
X002311Y018055D01*
X002349Y018064D01*
X002388Y018069D01*
X002427Y018070D01*
X002465Y018067D01*
X002504Y018060D01*
X002541Y018050D01*
X002577Y018035D01*
X002612Y018018D01*
X002645Y017997D01*
X002675Y017972D01*
X002703Y017945D01*
X002728Y017915D01*
X002750Y017883D01*
X002768Y017849D01*
X002783Y017813D01*
X002795Y017776D01*
X002803Y017738D01*
X002807Y017699D01*
X002807Y017661D01*
X002803Y017622D01*
X002795Y017584D01*
X002783Y017547D01*
X002768Y017511D01*
X002750Y017477D01*
X002728Y017445D01*
X002703Y017415D01*
X002675Y017388D01*
X002645Y017363D01*
X002612Y017342D01*
X002577Y017325D01*
X002541Y017310D01*
X002504Y017300D01*
X002465Y017293D01*
X002427Y017290D01*
X002388Y017291D01*
X002349Y017296D01*
X002311Y017305D01*
X002275Y017317D01*
X002239Y017333D01*
X002205Y017352D01*
X002174Y017375D01*
X002145Y017401D01*
X002118Y017429D01*
X002095Y017460D01*
X002074Y017493D01*
X002058Y017529D01*
X002044Y017565D01*
X002035Y017603D01*
X002029Y017641D01*
X002027Y017680D01*
X002017Y017280D02*
X002817Y018080D01*
X002027Y016680D02*
X002029Y016719D01*
X002035Y016757D01*
X002044Y016795D01*
X002058Y016831D01*
X002074Y016867D01*
X002095Y016900D01*
X002118Y016931D01*
X002145Y016959D01*
X002174Y016985D01*
X002205Y017008D01*
X002239Y017027D01*
X002275Y017043D01*
X002311Y017055D01*
X002349Y017064D01*
X002388Y017069D01*
X002427Y017070D01*
X002465Y017067D01*
X002504Y017060D01*
X002541Y017050D01*
X002577Y017035D01*
X002612Y017018D01*
X002645Y016997D01*
X002675Y016972D01*
X002703Y016945D01*
X002728Y016915D01*
X002750Y016883D01*
X002768Y016849D01*
X002783Y016813D01*
X002795Y016776D01*
X002803Y016738D01*
X002807Y016699D01*
X002807Y016661D01*
X002803Y016622D01*
X002795Y016584D01*
X002783Y016547D01*
X002768Y016511D01*
X002750Y016477D01*
X002728Y016445D01*
X002703Y016415D01*
X002675Y016388D01*
X002645Y016363D01*
X002612Y016342D01*
X002577Y016325D01*
X002541Y016310D01*
X002504Y016300D01*
X002465Y016293D01*
X002427Y016290D01*
X002388Y016291D01*
X002349Y016296D01*
X002311Y016305D01*
X002275Y016317D01*
X002239Y016333D01*
X002205Y016352D01*
X002174Y016375D01*
X002145Y016401D01*
X002118Y016429D01*
X002095Y016460D01*
X002074Y016493D01*
X002058Y016529D01*
X002044Y016565D01*
X002035Y016603D01*
X002029Y016641D01*
X002027Y016680D01*
X002017Y016280D02*
X002817Y017080D01*
X002027Y015680D02*
X002029Y015719D01*
X002035Y015757D01*
X002044Y015795D01*
X002058Y015831D01*
X002074Y015867D01*
X002095Y015900D01*
X002118Y015931D01*
X002145Y015959D01*
X002174Y015985D01*
X002205Y016008D01*
X002239Y016027D01*
X002275Y016043D01*
X002311Y016055D01*
X002349Y016064D01*
X002388Y016069D01*
X002427Y016070D01*
X002465Y016067D01*
X002504Y016060D01*
X002541Y016050D01*
X002577Y016035D01*
X002612Y016018D01*
X002645Y015997D01*
X002675Y015972D01*
X002703Y015945D01*
X002728Y015915D01*
X002750Y015883D01*
X002768Y015849D01*
X002783Y015813D01*
X002795Y015776D01*
X002803Y015738D01*
X002807Y015699D01*
X002807Y015661D01*
X002803Y015622D01*
X002795Y015584D01*
X002783Y015547D01*
X002768Y015511D01*
X002750Y015477D01*
X002728Y015445D01*
X002703Y015415D01*
X002675Y015388D01*
X002645Y015363D01*
X002612Y015342D01*
X002577Y015325D01*
X002541Y015310D01*
X002504Y015300D01*
X002465Y015293D01*
X002427Y015290D01*
X002388Y015291D01*
X002349Y015296D01*
X002311Y015305D01*
X002275Y015317D01*
X002239Y015333D01*
X002205Y015352D01*
X002174Y015375D01*
X002145Y015401D01*
X002118Y015429D01*
X002095Y015460D01*
X002074Y015493D01*
X002058Y015529D01*
X002044Y015565D01*
X002035Y015603D01*
X002029Y015641D01*
X002027Y015680D01*
X002017Y015280D02*
X002817Y016080D01*
X002027Y014680D02*
X002029Y014719D01*
X002035Y014757D01*
X002044Y014795D01*
X002058Y014831D01*
X002074Y014867D01*
X002095Y014900D01*
X002118Y014931D01*
X002145Y014959D01*
X002174Y014985D01*
X002205Y015008D01*
X002239Y015027D01*
X002275Y015043D01*
X002311Y015055D01*
X002349Y015064D01*
X002388Y015069D01*
X002427Y015070D01*
X002465Y015067D01*
X002504Y015060D01*
X002541Y015050D01*
X002577Y015035D01*
X002612Y015018D01*
X002645Y014997D01*
X002675Y014972D01*
X002703Y014945D01*
X002728Y014915D01*
X002750Y014883D01*
X002768Y014849D01*
X002783Y014813D01*
X002795Y014776D01*
X002803Y014738D01*
X002807Y014699D01*
X002807Y014661D01*
X002803Y014622D01*
X002795Y014584D01*
X002783Y014547D01*
X002768Y014511D01*
X002750Y014477D01*
X002728Y014445D01*
X002703Y014415D01*
X002675Y014388D01*
X002645Y014363D01*
X002612Y014342D01*
X002577Y014325D01*
X002541Y014310D01*
X002504Y014300D01*
X002465Y014293D01*
X002427Y014290D01*
X002388Y014291D01*
X002349Y014296D01*
X002311Y014305D01*
X002275Y014317D01*
X002239Y014333D01*
X002205Y014352D01*
X002174Y014375D01*
X002145Y014401D01*
X002118Y014429D01*
X002095Y014460D01*
X002074Y014493D01*
X002058Y014529D01*
X002044Y014565D01*
X002035Y014603D01*
X002029Y014641D01*
X002027Y014680D01*
X002017Y014280D02*
X002817Y015080D01*
X001027Y014680D02*
X001029Y014719D01*
X001035Y014757D01*
X001044Y014795D01*
X001058Y014831D01*
X001074Y014867D01*
X001095Y014900D01*
X001118Y014931D01*
X001145Y014959D01*
X001174Y014985D01*
X001205Y015008D01*
X001239Y015027D01*
X001275Y015043D01*
X001311Y015055D01*
X001349Y015064D01*
X001388Y015069D01*
X001427Y015070D01*
X001465Y015067D01*
X001504Y015060D01*
X001541Y015050D01*
X001577Y015035D01*
X001612Y015018D01*
X001645Y014997D01*
X001675Y014972D01*
X001703Y014945D01*
X001728Y014915D01*
X001750Y014883D01*
X001768Y014849D01*
X001783Y014813D01*
X001795Y014776D01*
X001803Y014738D01*
X001807Y014699D01*
X001807Y014661D01*
X001803Y014622D01*
X001795Y014584D01*
X001783Y014547D01*
X001768Y014511D01*
X001750Y014477D01*
X001728Y014445D01*
X001703Y014415D01*
X001675Y014388D01*
X001645Y014363D01*
X001612Y014342D01*
X001577Y014325D01*
X001541Y014310D01*
X001504Y014300D01*
X001465Y014293D01*
X001427Y014290D01*
X001388Y014291D01*
X001349Y014296D01*
X001311Y014305D01*
X001275Y014317D01*
X001239Y014333D01*
X001205Y014352D01*
X001174Y014375D01*
X001145Y014401D01*
X001118Y014429D01*
X001095Y014460D01*
X001074Y014493D01*
X001058Y014529D01*
X001044Y014565D01*
X001035Y014603D01*
X001029Y014641D01*
X001027Y014680D01*
X001017Y014280D02*
X001817Y015080D01*
X001027Y015680D02*
X001029Y015719D01*
X001035Y015757D01*
X001044Y015795D01*
X001058Y015831D01*
X001074Y015867D01*
X001095Y015900D01*
X001118Y015931D01*
X001145Y015959D01*
X001174Y015985D01*
X001205Y016008D01*
X001239Y016027D01*
X001275Y016043D01*
X001311Y016055D01*
X001349Y016064D01*
X001388Y016069D01*
X001427Y016070D01*
X001465Y016067D01*
X001504Y016060D01*
X001541Y016050D01*
X001577Y016035D01*
X001612Y016018D01*
X001645Y015997D01*
X001675Y015972D01*
X001703Y015945D01*
X001728Y015915D01*
X001750Y015883D01*
X001768Y015849D01*
X001783Y015813D01*
X001795Y015776D01*
X001803Y015738D01*
X001807Y015699D01*
X001807Y015661D01*
X001803Y015622D01*
X001795Y015584D01*
X001783Y015547D01*
X001768Y015511D01*
X001750Y015477D01*
X001728Y015445D01*
X001703Y015415D01*
X001675Y015388D01*
X001645Y015363D01*
X001612Y015342D01*
X001577Y015325D01*
X001541Y015310D01*
X001504Y015300D01*
X001465Y015293D01*
X001427Y015290D01*
X001388Y015291D01*
X001349Y015296D01*
X001311Y015305D01*
X001275Y015317D01*
X001239Y015333D01*
X001205Y015352D01*
X001174Y015375D01*
X001145Y015401D01*
X001118Y015429D01*
X001095Y015460D01*
X001074Y015493D01*
X001058Y015529D01*
X001044Y015565D01*
X001035Y015603D01*
X001029Y015641D01*
X001027Y015680D01*
X001017Y015280D02*
X001817Y016080D01*
X001027Y016680D02*
X001029Y016719D01*
X001035Y016757D01*
X001044Y016795D01*
X001058Y016831D01*
X001074Y016867D01*
X001095Y016900D01*
X001118Y016931D01*
X001145Y016959D01*
X001174Y016985D01*
X001205Y017008D01*
X001239Y017027D01*
X001275Y017043D01*
X001311Y017055D01*
X001349Y017064D01*
X001388Y017069D01*
X001427Y017070D01*
X001465Y017067D01*
X001504Y017060D01*
X001541Y017050D01*
X001577Y017035D01*
X001612Y017018D01*
X001645Y016997D01*
X001675Y016972D01*
X001703Y016945D01*
X001728Y016915D01*
X001750Y016883D01*
X001768Y016849D01*
X001783Y016813D01*
X001795Y016776D01*
X001803Y016738D01*
X001807Y016699D01*
X001807Y016661D01*
X001803Y016622D01*
X001795Y016584D01*
X001783Y016547D01*
X001768Y016511D01*
X001750Y016477D01*
X001728Y016445D01*
X001703Y016415D01*
X001675Y016388D01*
X001645Y016363D01*
X001612Y016342D01*
X001577Y016325D01*
X001541Y016310D01*
X001504Y016300D01*
X001465Y016293D01*
X001427Y016290D01*
X001388Y016291D01*
X001349Y016296D01*
X001311Y016305D01*
X001275Y016317D01*
X001239Y016333D01*
X001205Y016352D01*
X001174Y016375D01*
X001145Y016401D01*
X001118Y016429D01*
X001095Y016460D01*
X001074Y016493D01*
X001058Y016529D01*
X001044Y016565D01*
X001035Y016603D01*
X001029Y016641D01*
X001027Y016680D01*
X001017Y016280D02*
X001817Y017080D01*
X001027Y017680D02*
X001029Y017719D01*
X001035Y017757D01*
X001044Y017795D01*
X001058Y017831D01*
X001074Y017867D01*
X001095Y017900D01*
X001118Y017931D01*
X001145Y017959D01*
X001174Y017985D01*
X001205Y018008D01*
X001239Y018027D01*
X001275Y018043D01*
X001311Y018055D01*
X001349Y018064D01*
X001388Y018069D01*
X001427Y018070D01*
X001465Y018067D01*
X001504Y018060D01*
X001541Y018050D01*
X001577Y018035D01*
X001612Y018018D01*
X001645Y017997D01*
X001675Y017972D01*
X001703Y017945D01*
X001728Y017915D01*
X001750Y017883D01*
X001768Y017849D01*
X001783Y017813D01*
X001795Y017776D01*
X001803Y017738D01*
X001807Y017699D01*
X001807Y017661D01*
X001803Y017622D01*
X001795Y017584D01*
X001783Y017547D01*
X001768Y017511D01*
X001750Y017477D01*
X001728Y017445D01*
X001703Y017415D01*
X001675Y017388D01*
X001645Y017363D01*
X001612Y017342D01*
X001577Y017325D01*
X001541Y017310D01*
X001504Y017300D01*
X001465Y017293D01*
X001427Y017290D01*
X001388Y017291D01*
X001349Y017296D01*
X001311Y017305D01*
X001275Y017317D01*
X001239Y017333D01*
X001205Y017352D01*
X001174Y017375D01*
X001145Y017401D01*
X001118Y017429D01*
X001095Y017460D01*
X001074Y017493D01*
X001058Y017529D01*
X001044Y017565D01*
X001035Y017603D01*
X001029Y017641D01*
X001027Y017680D01*
X001017Y017280D02*
X001817Y018080D01*
X001027Y013680D02*
X001029Y013719D01*
X001035Y013757D01*
X001044Y013795D01*
X001058Y013831D01*
X001074Y013867D01*
X001095Y013900D01*
X001118Y013931D01*
X001145Y013959D01*
X001174Y013985D01*
X001205Y014008D01*
X001239Y014027D01*
X001275Y014043D01*
X001311Y014055D01*
X001349Y014064D01*
X001388Y014069D01*
X001427Y014070D01*
X001465Y014067D01*
X001504Y014060D01*
X001541Y014050D01*
X001577Y014035D01*
X001612Y014018D01*
X001645Y013997D01*
X001675Y013972D01*
X001703Y013945D01*
X001728Y013915D01*
X001750Y013883D01*
X001768Y013849D01*
X001783Y013813D01*
X001795Y013776D01*
X001803Y013738D01*
X001807Y013699D01*
X001807Y013661D01*
X001803Y013622D01*
X001795Y013584D01*
X001783Y013547D01*
X001768Y013511D01*
X001750Y013477D01*
X001728Y013445D01*
X001703Y013415D01*
X001675Y013388D01*
X001645Y013363D01*
X001612Y013342D01*
X001577Y013325D01*
X001541Y013310D01*
X001504Y013300D01*
X001465Y013293D01*
X001427Y013290D01*
X001388Y013291D01*
X001349Y013296D01*
X001311Y013305D01*
X001275Y013317D01*
X001239Y013333D01*
X001205Y013352D01*
X001174Y013375D01*
X001145Y013401D01*
X001118Y013429D01*
X001095Y013460D01*
X001074Y013493D01*
X001058Y013529D01*
X001044Y013565D01*
X001035Y013603D01*
X001029Y013641D01*
X001027Y013680D01*
X001017Y013280D02*
X001817Y014080D01*
X002027Y013680D02*
X002029Y013719D01*
X002035Y013757D01*
X002044Y013795D01*
X002058Y013831D01*
X002074Y013867D01*
X002095Y013900D01*
X002118Y013931D01*
X002145Y013959D01*
X002174Y013985D01*
X002205Y014008D01*
X002239Y014027D01*
X002275Y014043D01*
X002311Y014055D01*
X002349Y014064D01*
X002388Y014069D01*
X002427Y014070D01*
X002465Y014067D01*
X002504Y014060D01*
X002541Y014050D01*
X002577Y014035D01*
X002612Y014018D01*
X002645Y013997D01*
X002675Y013972D01*
X002703Y013945D01*
X002728Y013915D01*
X002750Y013883D01*
X002768Y013849D01*
X002783Y013813D01*
X002795Y013776D01*
X002803Y013738D01*
X002807Y013699D01*
X002807Y013661D01*
X002803Y013622D01*
X002795Y013584D01*
X002783Y013547D01*
X002768Y013511D01*
X002750Y013477D01*
X002728Y013445D01*
X002703Y013415D01*
X002675Y013388D01*
X002645Y013363D01*
X002612Y013342D01*
X002577Y013325D01*
X002541Y013310D01*
X002504Y013300D01*
X002465Y013293D01*
X002427Y013290D01*
X002388Y013291D01*
X002349Y013296D01*
X002311Y013305D01*
X002275Y013317D01*
X002239Y013333D01*
X002205Y013352D01*
X002174Y013375D01*
X002145Y013401D01*
X002118Y013429D01*
X002095Y013460D01*
X002074Y013493D01*
X002058Y013529D01*
X002044Y013565D01*
X002035Y013603D01*
X002029Y013641D01*
X002027Y013680D01*
X002017Y013280D02*
X002817Y014080D01*
X002027Y012680D02*
X002029Y012719D01*
X002035Y012757D01*
X002044Y012795D01*
X002058Y012831D01*
X002074Y012867D01*
X002095Y012900D01*
X002118Y012931D01*
X002145Y012959D01*
X002174Y012985D01*
X002205Y013008D01*
X002239Y013027D01*
X002275Y013043D01*
X002311Y013055D01*
X002349Y013064D01*
X002388Y013069D01*
X002427Y013070D01*
X002465Y013067D01*
X002504Y013060D01*
X002541Y013050D01*
X002577Y013035D01*
X002612Y013018D01*
X002645Y012997D01*
X002675Y012972D01*
X002703Y012945D01*
X002728Y012915D01*
X002750Y012883D01*
X002768Y012849D01*
X002783Y012813D01*
X002795Y012776D01*
X002803Y012738D01*
X002807Y012699D01*
X002807Y012661D01*
X002803Y012622D01*
X002795Y012584D01*
X002783Y012547D01*
X002768Y012511D01*
X002750Y012477D01*
X002728Y012445D01*
X002703Y012415D01*
X002675Y012388D01*
X002645Y012363D01*
X002612Y012342D01*
X002577Y012325D01*
X002541Y012310D01*
X002504Y012300D01*
X002465Y012293D01*
X002427Y012290D01*
X002388Y012291D01*
X002349Y012296D01*
X002311Y012305D01*
X002275Y012317D01*
X002239Y012333D01*
X002205Y012352D01*
X002174Y012375D01*
X002145Y012401D01*
X002118Y012429D01*
X002095Y012460D01*
X002074Y012493D01*
X002058Y012529D01*
X002044Y012565D01*
X002035Y012603D01*
X002029Y012641D01*
X002027Y012680D01*
X002017Y012280D02*
X002817Y013080D01*
X001027Y012680D02*
X001029Y012719D01*
X001035Y012757D01*
X001044Y012795D01*
X001058Y012831D01*
X001074Y012867D01*
X001095Y012900D01*
X001118Y012931D01*
X001145Y012959D01*
X001174Y012985D01*
X001205Y013008D01*
X001239Y013027D01*
X001275Y013043D01*
X001311Y013055D01*
X001349Y013064D01*
X001388Y013069D01*
X001427Y013070D01*
X001465Y013067D01*
X001504Y013060D01*
X001541Y013050D01*
X001577Y013035D01*
X001612Y013018D01*
X001645Y012997D01*
X001675Y012972D01*
X001703Y012945D01*
X001728Y012915D01*
X001750Y012883D01*
X001768Y012849D01*
X001783Y012813D01*
X001795Y012776D01*
X001803Y012738D01*
X001807Y012699D01*
X001807Y012661D01*
X001803Y012622D01*
X001795Y012584D01*
X001783Y012547D01*
X001768Y012511D01*
X001750Y012477D01*
X001728Y012445D01*
X001703Y012415D01*
X001675Y012388D01*
X001645Y012363D01*
X001612Y012342D01*
X001577Y012325D01*
X001541Y012310D01*
X001504Y012300D01*
X001465Y012293D01*
X001427Y012290D01*
X001388Y012291D01*
X001349Y012296D01*
X001311Y012305D01*
X001275Y012317D01*
X001239Y012333D01*
X001205Y012352D01*
X001174Y012375D01*
X001145Y012401D01*
X001118Y012429D01*
X001095Y012460D01*
X001074Y012493D01*
X001058Y012529D01*
X001044Y012565D01*
X001035Y012603D01*
X001029Y012641D01*
X001027Y012680D01*
X001017Y012280D02*
X001817Y013080D01*
X001027Y011680D02*
X001029Y011719D01*
X001035Y011757D01*
X001044Y011795D01*
X001058Y011831D01*
X001074Y011867D01*
X001095Y011900D01*
X001118Y011931D01*
X001145Y011959D01*
X001174Y011985D01*
X001205Y012008D01*
X001239Y012027D01*
X001275Y012043D01*
X001311Y012055D01*
X001349Y012064D01*
X001388Y012069D01*
X001427Y012070D01*
X001465Y012067D01*
X001504Y012060D01*
X001541Y012050D01*
X001577Y012035D01*
X001612Y012018D01*
X001645Y011997D01*
X001675Y011972D01*
X001703Y011945D01*
X001728Y011915D01*
X001750Y011883D01*
X001768Y011849D01*
X001783Y011813D01*
X001795Y011776D01*
X001803Y011738D01*
X001807Y011699D01*
X001807Y011661D01*
X001803Y011622D01*
X001795Y011584D01*
X001783Y011547D01*
X001768Y011511D01*
X001750Y011477D01*
X001728Y011445D01*
X001703Y011415D01*
X001675Y011388D01*
X001645Y011363D01*
X001612Y011342D01*
X001577Y011325D01*
X001541Y011310D01*
X001504Y011300D01*
X001465Y011293D01*
X001427Y011290D01*
X001388Y011291D01*
X001349Y011296D01*
X001311Y011305D01*
X001275Y011317D01*
X001239Y011333D01*
X001205Y011352D01*
X001174Y011375D01*
X001145Y011401D01*
X001118Y011429D01*
X001095Y011460D01*
X001074Y011493D01*
X001058Y011529D01*
X001044Y011565D01*
X001035Y011603D01*
X001029Y011641D01*
X001027Y011680D01*
X001017Y011280D02*
X001817Y012080D01*
X002027Y011680D02*
X002029Y011719D01*
X002035Y011757D01*
X002044Y011795D01*
X002058Y011831D01*
X002074Y011867D01*
X002095Y011900D01*
X002118Y011931D01*
X002145Y011959D01*
X002174Y011985D01*
X002205Y012008D01*
X002239Y012027D01*
X002275Y012043D01*
X002311Y012055D01*
X002349Y012064D01*
X002388Y012069D01*
X002427Y012070D01*
X002465Y012067D01*
X002504Y012060D01*
X002541Y012050D01*
X002577Y012035D01*
X002612Y012018D01*
X002645Y011997D01*
X002675Y011972D01*
X002703Y011945D01*
X002728Y011915D01*
X002750Y011883D01*
X002768Y011849D01*
X002783Y011813D01*
X002795Y011776D01*
X002803Y011738D01*
X002807Y011699D01*
X002807Y011661D01*
X002803Y011622D01*
X002795Y011584D01*
X002783Y011547D01*
X002768Y011511D01*
X002750Y011477D01*
X002728Y011445D01*
X002703Y011415D01*
X002675Y011388D01*
X002645Y011363D01*
X002612Y011342D01*
X002577Y011325D01*
X002541Y011310D01*
X002504Y011300D01*
X002465Y011293D01*
X002427Y011290D01*
X002388Y011291D01*
X002349Y011296D01*
X002311Y011305D01*
X002275Y011317D01*
X002239Y011333D01*
X002205Y011352D01*
X002174Y011375D01*
X002145Y011401D01*
X002118Y011429D01*
X002095Y011460D01*
X002074Y011493D01*
X002058Y011529D01*
X002044Y011565D01*
X002035Y011603D01*
X002029Y011641D01*
X002027Y011680D01*
X002017Y011280D02*
X002817Y012080D01*
X002027Y010680D02*
X002029Y010719D01*
X002035Y010757D01*
X002044Y010795D01*
X002058Y010831D01*
X002074Y010867D01*
X002095Y010900D01*
X002118Y010931D01*
X002145Y010959D01*
X002174Y010985D01*
X002205Y011008D01*
X002239Y011027D01*
X002275Y011043D01*
X002311Y011055D01*
X002349Y011064D01*
X002388Y011069D01*
X002427Y011070D01*
X002465Y011067D01*
X002504Y011060D01*
X002541Y011050D01*
X002577Y011035D01*
X002612Y011018D01*
X002645Y010997D01*
X002675Y010972D01*
X002703Y010945D01*
X002728Y010915D01*
X002750Y010883D01*
X002768Y010849D01*
X002783Y010813D01*
X002795Y010776D01*
X002803Y010738D01*
X002807Y010699D01*
X002807Y010661D01*
X002803Y010622D01*
X002795Y010584D01*
X002783Y010547D01*
X002768Y010511D01*
X002750Y010477D01*
X002728Y010445D01*
X002703Y010415D01*
X002675Y010388D01*
X002645Y010363D01*
X002612Y010342D01*
X002577Y010325D01*
X002541Y010310D01*
X002504Y010300D01*
X002465Y010293D01*
X002427Y010290D01*
X002388Y010291D01*
X002349Y010296D01*
X002311Y010305D01*
X002275Y010317D01*
X002239Y010333D01*
X002205Y010352D01*
X002174Y010375D01*
X002145Y010401D01*
X002118Y010429D01*
X002095Y010460D01*
X002074Y010493D01*
X002058Y010529D01*
X002044Y010565D01*
X002035Y010603D01*
X002029Y010641D01*
X002027Y010680D01*
X002017Y010280D02*
X002817Y011080D01*
X002027Y009680D02*
X002029Y009719D01*
X002035Y009757D01*
X002044Y009795D01*
X002058Y009831D01*
X002074Y009867D01*
X002095Y009900D01*
X002118Y009931D01*
X002145Y009959D01*
X002174Y009985D01*
X002205Y010008D01*
X002239Y010027D01*
X002275Y010043D01*
X002311Y010055D01*
X002349Y010064D01*
X002388Y010069D01*
X002427Y010070D01*
X002465Y010067D01*
X002504Y010060D01*
X002541Y010050D01*
X002577Y010035D01*
X002612Y010018D01*
X002645Y009997D01*
X002675Y009972D01*
X002703Y009945D01*
X002728Y009915D01*
X002750Y009883D01*
X002768Y009849D01*
X002783Y009813D01*
X002795Y009776D01*
X002803Y009738D01*
X002807Y009699D01*
X002807Y009661D01*
X002803Y009622D01*
X002795Y009584D01*
X002783Y009547D01*
X002768Y009511D01*
X002750Y009477D01*
X002728Y009445D01*
X002703Y009415D01*
X002675Y009388D01*
X002645Y009363D01*
X002612Y009342D01*
X002577Y009325D01*
X002541Y009310D01*
X002504Y009300D01*
X002465Y009293D01*
X002427Y009290D01*
X002388Y009291D01*
X002349Y009296D01*
X002311Y009305D01*
X002275Y009317D01*
X002239Y009333D01*
X002205Y009352D01*
X002174Y009375D01*
X002145Y009401D01*
X002118Y009429D01*
X002095Y009460D01*
X002074Y009493D01*
X002058Y009529D01*
X002044Y009565D01*
X002035Y009603D01*
X002029Y009641D01*
X002027Y009680D01*
X002017Y009280D02*
X002817Y010080D01*
X002027Y008680D02*
X002029Y008719D01*
X002035Y008757D01*
X002044Y008795D01*
X002058Y008831D01*
X002074Y008867D01*
X002095Y008900D01*
X002118Y008931D01*
X002145Y008959D01*
X002174Y008985D01*
X002205Y009008D01*
X002239Y009027D01*
X002275Y009043D01*
X002311Y009055D01*
X002349Y009064D01*
X002388Y009069D01*
X002427Y009070D01*
X002465Y009067D01*
X002504Y009060D01*
X002541Y009050D01*
X002577Y009035D01*
X002612Y009018D01*
X002645Y008997D01*
X002675Y008972D01*
X002703Y008945D01*
X002728Y008915D01*
X002750Y008883D01*
X002768Y008849D01*
X002783Y008813D01*
X002795Y008776D01*
X002803Y008738D01*
X002807Y008699D01*
X002807Y008661D01*
X002803Y008622D01*
X002795Y008584D01*
X002783Y008547D01*
X002768Y008511D01*
X002750Y008477D01*
X002728Y008445D01*
X002703Y008415D01*
X002675Y008388D01*
X002645Y008363D01*
X002612Y008342D01*
X002577Y008325D01*
X002541Y008310D01*
X002504Y008300D01*
X002465Y008293D01*
X002427Y008290D01*
X002388Y008291D01*
X002349Y008296D01*
X002311Y008305D01*
X002275Y008317D01*
X002239Y008333D01*
X002205Y008352D01*
X002174Y008375D01*
X002145Y008401D01*
X002118Y008429D01*
X002095Y008460D01*
X002074Y008493D01*
X002058Y008529D01*
X002044Y008565D01*
X002035Y008603D01*
X002029Y008641D01*
X002027Y008680D01*
X002017Y008280D02*
X002817Y009080D01*
X001027Y008680D02*
X001029Y008719D01*
X001035Y008757D01*
X001044Y008795D01*
X001058Y008831D01*
X001074Y008867D01*
X001095Y008900D01*
X001118Y008931D01*
X001145Y008959D01*
X001174Y008985D01*
X001205Y009008D01*
X001239Y009027D01*
X001275Y009043D01*
X001311Y009055D01*
X001349Y009064D01*
X001388Y009069D01*
X001427Y009070D01*
X001465Y009067D01*
X001504Y009060D01*
X001541Y009050D01*
X001577Y009035D01*
X001612Y009018D01*
X001645Y008997D01*
X001675Y008972D01*
X001703Y008945D01*
X001728Y008915D01*
X001750Y008883D01*
X001768Y008849D01*
X001783Y008813D01*
X001795Y008776D01*
X001803Y008738D01*
X001807Y008699D01*
X001807Y008661D01*
X001803Y008622D01*
X001795Y008584D01*
X001783Y008547D01*
X001768Y008511D01*
X001750Y008477D01*
X001728Y008445D01*
X001703Y008415D01*
X001675Y008388D01*
X001645Y008363D01*
X001612Y008342D01*
X001577Y008325D01*
X001541Y008310D01*
X001504Y008300D01*
X001465Y008293D01*
X001427Y008290D01*
X001388Y008291D01*
X001349Y008296D01*
X001311Y008305D01*
X001275Y008317D01*
X001239Y008333D01*
X001205Y008352D01*
X001174Y008375D01*
X001145Y008401D01*
X001118Y008429D01*
X001095Y008460D01*
X001074Y008493D01*
X001058Y008529D01*
X001044Y008565D01*
X001035Y008603D01*
X001029Y008641D01*
X001027Y008680D01*
X001017Y008280D02*
X001817Y009080D01*
X001027Y009680D02*
X001029Y009719D01*
X001035Y009757D01*
X001044Y009795D01*
X001058Y009831D01*
X001074Y009867D01*
X001095Y009900D01*
X001118Y009931D01*
X001145Y009959D01*
X001174Y009985D01*
X001205Y010008D01*
X001239Y010027D01*
X001275Y010043D01*
X001311Y010055D01*
X001349Y010064D01*
X001388Y010069D01*
X001427Y010070D01*
X001465Y010067D01*
X001504Y010060D01*
X001541Y010050D01*
X001577Y010035D01*
X001612Y010018D01*
X001645Y009997D01*
X001675Y009972D01*
X001703Y009945D01*
X001728Y009915D01*
X001750Y009883D01*
X001768Y009849D01*
X001783Y009813D01*
X001795Y009776D01*
X001803Y009738D01*
X001807Y009699D01*
X001807Y009661D01*
X001803Y009622D01*
X001795Y009584D01*
X001783Y009547D01*
X001768Y009511D01*
X001750Y009477D01*
X001728Y009445D01*
X001703Y009415D01*
X001675Y009388D01*
X001645Y009363D01*
X001612Y009342D01*
X001577Y009325D01*
X001541Y009310D01*
X001504Y009300D01*
X001465Y009293D01*
X001427Y009290D01*
X001388Y009291D01*
X001349Y009296D01*
X001311Y009305D01*
X001275Y009317D01*
X001239Y009333D01*
X001205Y009352D01*
X001174Y009375D01*
X001145Y009401D01*
X001118Y009429D01*
X001095Y009460D01*
X001074Y009493D01*
X001058Y009529D01*
X001044Y009565D01*
X001035Y009603D01*
X001029Y009641D01*
X001027Y009680D01*
X001017Y009280D02*
X001817Y010080D01*
X001027Y010680D02*
X001029Y010719D01*
X001035Y010757D01*
X001044Y010795D01*
X001058Y010831D01*
X001074Y010867D01*
X001095Y010900D01*
X001118Y010931D01*
X001145Y010959D01*
X001174Y010985D01*
X001205Y011008D01*
X001239Y011027D01*
X001275Y011043D01*
X001311Y011055D01*
X001349Y011064D01*
X001388Y011069D01*
X001427Y011070D01*
X001465Y011067D01*
X001504Y011060D01*
X001541Y011050D01*
X001577Y011035D01*
X001612Y011018D01*
X001645Y010997D01*
X001675Y010972D01*
X001703Y010945D01*
X001728Y010915D01*
X001750Y010883D01*
X001768Y010849D01*
X001783Y010813D01*
X001795Y010776D01*
X001803Y010738D01*
X001807Y010699D01*
X001807Y010661D01*
X001803Y010622D01*
X001795Y010584D01*
X001783Y010547D01*
X001768Y010511D01*
X001750Y010477D01*
X001728Y010445D01*
X001703Y010415D01*
X001675Y010388D01*
X001645Y010363D01*
X001612Y010342D01*
X001577Y010325D01*
X001541Y010310D01*
X001504Y010300D01*
X001465Y010293D01*
X001427Y010290D01*
X001388Y010291D01*
X001349Y010296D01*
X001311Y010305D01*
X001275Y010317D01*
X001239Y010333D01*
X001205Y010352D01*
X001174Y010375D01*
X001145Y010401D01*
X001118Y010429D01*
X001095Y010460D01*
X001074Y010493D01*
X001058Y010529D01*
X001044Y010565D01*
X001035Y010603D01*
X001029Y010641D01*
X001027Y010680D01*
X001017Y010280D02*
X001817Y011080D01*
X001257Y006926D02*
X001259Y006965D01*
X001265Y007003D01*
X001274Y007041D01*
X001288Y007077D01*
X001304Y007113D01*
X001325Y007146D01*
X001348Y007177D01*
X001375Y007205D01*
X001404Y007231D01*
X001435Y007254D01*
X001469Y007273D01*
X001505Y007289D01*
X001541Y007301D01*
X001579Y007310D01*
X001618Y007315D01*
X001657Y007316D01*
X001695Y007313D01*
X001734Y007306D01*
X001771Y007296D01*
X001807Y007281D01*
X001842Y007264D01*
X001875Y007243D01*
X001905Y007218D01*
X001933Y007191D01*
X001958Y007161D01*
X001980Y007129D01*
X001998Y007095D01*
X002013Y007059D01*
X002025Y007022D01*
X002033Y006984D01*
X002037Y006945D01*
X002037Y006907D01*
X002033Y006868D01*
X002025Y006830D01*
X002013Y006793D01*
X001998Y006757D01*
X001980Y006723D01*
X001958Y006691D01*
X001933Y006661D01*
X001905Y006634D01*
X001875Y006609D01*
X001842Y006588D01*
X001807Y006571D01*
X001771Y006556D01*
X001734Y006546D01*
X001695Y006539D01*
X001657Y006536D01*
X001618Y006537D01*
X001579Y006542D01*
X001541Y006551D01*
X001505Y006563D01*
X001469Y006579D01*
X001435Y006598D01*
X001404Y006621D01*
X001375Y006647D01*
X001348Y006675D01*
X001325Y006706D01*
X001304Y006739D01*
X001288Y006775D01*
X001274Y006811D01*
X001265Y006849D01*
X001259Y006887D01*
X001257Y006926D01*
X001247Y006526D02*
X002047Y007326D01*
X014658Y019778D02*
X014660Y019817D01*
X014666Y019855D01*
X014675Y019893D01*
X014689Y019929D01*
X014705Y019965D01*
X014726Y019998D01*
X014749Y020029D01*
X014776Y020057D01*
X014805Y020083D01*
X014836Y020106D01*
X014870Y020125D01*
X014906Y020141D01*
X014942Y020153D01*
X014980Y020162D01*
X015019Y020167D01*
X015058Y020168D01*
X015096Y020165D01*
X015135Y020158D01*
X015172Y020148D01*
X015208Y020133D01*
X015243Y020116D01*
X015276Y020095D01*
X015306Y020070D01*
X015334Y020043D01*
X015359Y020013D01*
X015381Y019981D01*
X015399Y019947D01*
X015414Y019911D01*
X015426Y019874D01*
X015434Y019836D01*
X015438Y019797D01*
X015438Y019759D01*
X015434Y019720D01*
X015426Y019682D01*
X015414Y019645D01*
X015399Y019609D01*
X015381Y019575D01*
X015359Y019543D01*
X015334Y019513D01*
X015306Y019486D01*
X015276Y019461D01*
X015243Y019440D01*
X015208Y019423D01*
X015172Y019408D01*
X015135Y019398D01*
X015096Y019391D01*
X015058Y019388D01*
X015019Y019389D01*
X014980Y019394D01*
X014942Y019403D01*
X014906Y019415D01*
X014870Y019431D01*
X014836Y019450D01*
X014805Y019473D01*
X014776Y019499D01*
X014749Y019527D01*
X014726Y019558D01*
X014705Y019591D01*
X014689Y019627D01*
X014675Y019663D01*
X014666Y019701D01*
X014660Y019739D01*
X014658Y019778D01*
X014648Y019378D02*
X015448Y020178D01*
X028442Y019554D02*
X028444Y019593D01*
X028450Y019631D01*
X028459Y019669D01*
X028473Y019705D01*
X028489Y019741D01*
X028510Y019774D01*
X028533Y019805D01*
X028560Y019833D01*
X028589Y019859D01*
X028620Y019882D01*
X028654Y019901D01*
X028690Y019917D01*
X028726Y019929D01*
X028764Y019938D01*
X028803Y019943D01*
X028842Y019944D01*
X028880Y019941D01*
X028919Y019934D01*
X028956Y019924D01*
X028992Y019909D01*
X029027Y019892D01*
X029060Y019871D01*
X029090Y019846D01*
X029118Y019819D01*
X029143Y019789D01*
X029165Y019757D01*
X029183Y019723D01*
X029198Y019687D01*
X029210Y019650D01*
X029218Y019612D01*
X029222Y019573D01*
X029222Y019535D01*
X029218Y019496D01*
X029210Y019458D01*
X029198Y019421D01*
X029183Y019385D01*
X029165Y019351D01*
X029143Y019319D01*
X029118Y019289D01*
X029090Y019262D01*
X029060Y019237D01*
X029027Y019216D01*
X028992Y019199D01*
X028956Y019184D01*
X028919Y019174D01*
X028880Y019167D01*
X028842Y019164D01*
X028803Y019165D01*
X028764Y019170D01*
X028726Y019179D01*
X028690Y019191D01*
X028654Y019207D01*
X028620Y019226D01*
X028589Y019249D01*
X028560Y019275D01*
X028533Y019303D01*
X028510Y019334D01*
X028489Y019367D01*
X028473Y019403D01*
X028459Y019439D01*
X028450Y019477D01*
X028444Y019515D01*
X028442Y019554D01*
X028432Y019154D02*
X029232Y019954D01*
X036527Y001680D02*
X036529Y001719D01*
X036535Y001757D01*
X036544Y001795D01*
X036558Y001831D01*
X036574Y001867D01*
X036595Y001900D01*
X036618Y001931D01*
X036645Y001959D01*
X036674Y001985D01*
X036705Y002008D01*
X036739Y002027D01*
X036775Y002043D01*
X036811Y002055D01*
X036849Y002064D01*
X036888Y002069D01*
X036927Y002070D01*
X036965Y002067D01*
X037004Y002060D01*
X037041Y002050D01*
X037077Y002035D01*
X037112Y002018D01*
X037145Y001997D01*
X037175Y001972D01*
X037203Y001945D01*
X037228Y001915D01*
X037250Y001883D01*
X037268Y001849D01*
X037283Y001813D01*
X037295Y001776D01*
X037303Y001738D01*
X037307Y001699D01*
X037307Y001661D01*
X037303Y001622D01*
X037295Y001584D01*
X037283Y001547D01*
X037268Y001511D01*
X037250Y001477D01*
X037228Y001445D01*
X037203Y001415D01*
X037175Y001388D01*
X037145Y001363D01*
X037112Y001342D01*
X037077Y001325D01*
X037041Y001310D01*
X037004Y001300D01*
X036965Y001293D01*
X036927Y001290D01*
X036888Y001291D01*
X036849Y001296D01*
X036811Y001305D01*
X036775Y001317D01*
X036739Y001333D01*
X036705Y001352D01*
X036674Y001375D01*
X036645Y001401D01*
X036618Y001429D01*
X036595Y001460D01*
X036574Y001493D01*
X036558Y001529D01*
X036544Y001565D01*
X036535Y001603D01*
X036529Y001641D01*
X036527Y001680D01*
X036517Y001280D02*
X037317Y002080D01*
M02*
