G75*
%MOIN*%
%OFA0B0*%
%FSLAX24Y24*%
%IPPOS*%
%LPD*%
%AMOC8*
5,1,8,0,0,1.08239X$1,22.5*
%
%ADD10C,0.0780*%
%ADD11OC8,0.0600*%
%ADD12C,0.0160*%
%ADD13C,0.0100*%
D10*
X002037Y004290D02*
X002037Y005070D01*
X004007Y005070D02*
X004007Y004290D01*
X005967Y004290D02*
X005967Y005070D01*
X007947Y005070D02*
X007947Y004290D01*
X009917Y004290D02*
X009917Y005070D01*
X011887Y005070D02*
X011887Y004290D01*
X013867Y004290D02*
X013867Y005070D01*
X015827Y005070D02*
X015827Y004290D01*
X017797Y004290D02*
X017797Y005070D01*
X019987Y005070D02*
X019987Y004290D01*
X021957Y004290D02*
X021957Y005070D01*
X023927Y005070D02*
X023927Y004290D01*
X025907Y004290D02*
X025907Y005070D01*
X027877Y005070D02*
X027877Y004290D01*
X029847Y004290D02*
X029847Y005070D01*
X032263Y005058D02*
X032263Y004278D01*
X034243Y004278D02*
X034243Y005058D01*
X034307Y008250D02*
X033527Y008250D01*
X033527Y010220D02*
X034307Y010220D01*
X034307Y012190D02*
X033527Y012190D01*
X033527Y014170D02*
X034307Y014170D01*
X034307Y016140D02*
X033527Y016140D01*
X033527Y018110D02*
X034307Y018110D01*
X033827Y021290D02*
X033827Y022070D01*
X031867Y022070D02*
X031867Y021290D01*
X029887Y021290D02*
X029887Y022070D01*
X027917Y022070D02*
X027917Y021290D01*
X025947Y021290D02*
X025947Y022070D01*
X023967Y022070D02*
X023967Y021290D01*
X022007Y021290D02*
X022007Y022070D01*
X020037Y022070D02*
X020037Y021290D01*
X017797Y021290D02*
X017797Y022070D01*
X015827Y022070D02*
X015827Y021290D01*
X013867Y021290D02*
X013867Y022070D01*
X011887Y022070D02*
X011887Y021290D01*
X009917Y021290D02*
X009917Y022070D01*
X007947Y022070D02*
X007947Y021290D01*
X005967Y021290D02*
X005967Y022070D01*
X004007Y022070D02*
X004007Y021290D01*
X002037Y021290D02*
X002037Y022070D01*
X035797Y022070D02*
X035797Y021290D01*
D11*
X002417Y019680D03*
X002417Y018680D03*
X002417Y017680D03*
X002417Y016680D03*
X002417Y015680D03*
X002417Y014680D03*
X001417Y014680D03*
X001417Y015680D03*
X001417Y016680D03*
X001417Y017680D03*
X001417Y018680D03*
X001417Y019680D03*
X001417Y013680D03*
X002417Y013680D03*
X002417Y012680D03*
X002417Y011680D03*
X002417Y010680D03*
X002417Y009680D03*
X002417Y008680D03*
X001417Y008680D03*
X001417Y009680D03*
X001417Y010680D03*
X001417Y011680D03*
X001417Y012680D03*
D12*
X000897Y006086D02*
X000897Y000660D01*
X036434Y000660D01*
X036226Y000780D01*
X036017Y000989D01*
X035868Y001246D01*
X035792Y001532D01*
X035792Y001828D01*
X035868Y002114D01*
X036017Y002371D01*
X036226Y002580D01*
X036482Y002728D01*
X036769Y002805D01*
X037065Y002805D01*
X037351Y002728D01*
X037607Y002580D01*
X037807Y002381D01*
X037807Y025196D01*
X000897Y025196D01*
X000897Y007766D01*
X000957Y007826D01*
X001213Y007974D01*
X001499Y008051D01*
X001796Y008051D01*
X002082Y007974D01*
X002338Y007826D01*
X002548Y007617D01*
X002696Y007360D01*
X002707Y007319D01*
X002707Y008291D01*
X002615Y008200D01*
X002437Y008200D01*
X002437Y008660D01*
X002397Y008660D01*
X002397Y008200D01*
X002218Y008200D01*
X001937Y008481D01*
X001937Y008660D01*
X002397Y008660D01*
X002397Y008700D01*
X002397Y009160D01*
X002218Y009160D01*
X001937Y008879D01*
X001937Y008700D01*
X002397Y008700D01*
X002437Y008700D01*
X002437Y009160D01*
X002615Y009160D01*
X002707Y009069D01*
X002707Y009319D01*
X002607Y009220D01*
X002226Y009220D01*
X001957Y009489D01*
X001957Y009871D01*
X002226Y010140D01*
X002607Y010140D01*
X002707Y010041D01*
X002707Y010319D01*
X002607Y010220D01*
X002226Y010220D01*
X001957Y010489D01*
X001957Y010871D01*
X002226Y011140D01*
X002607Y011140D01*
X002707Y011041D01*
X002707Y011319D01*
X002607Y011220D01*
X002226Y011220D01*
X001957Y011489D01*
X001957Y011871D01*
X002056Y011970D01*
X001777Y011970D01*
X001877Y011871D01*
X001877Y011489D01*
X001607Y011220D01*
X001226Y011220D01*
X000957Y011489D01*
X000957Y011871D01*
X001207Y012121D01*
X001207Y012239D01*
X000957Y012489D01*
X000957Y012871D01*
X001207Y013121D01*
X001207Y013239D01*
X000957Y013489D01*
X000957Y013871D01*
X001207Y014121D01*
X001207Y014239D01*
X000957Y014489D01*
X000957Y014871D01*
X001207Y015121D01*
X001207Y015239D01*
X000957Y015489D01*
X000957Y015871D01*
X001207Y016121D01*
X001207Y016239D01*
X000957Y016489D01*
X000957Y016871D01*
X001207Y017121D01*
X001207Y017239D01*
X000957Y017489D01*
X000957Y017871D01*
X001207Y018121D01*
X001207Y018239D01*
X000957Y018489D01*
X000957Y018871D01*
X001207Y019121D01*
X001207Y019239D01*
X000957Y019489D01*
X000957Y019871D01*
X001207Y020121D01*
X001207Y021767D01*
X001330Y021890D01*
X001487Y021890D01*
X001487Y022179D01*
X001570Y022382D01*
X001725Y022536D01*
X001927Y022620D01*
X002146Y022620D01*
X002348Y022536D01*
X002503Y022382D01*
X002587Y022179D01*
X002587Y021181D01*
X002503Y020978D01*
X002348Y020824D01*
X002146Y020740D01*
X001927Y020740D01*
X001725Y020824D01*
X001627Y020922D01*
X001627Y020121D01*
X001877Y019871D01*
X001877Y019489D01*
X001777Y019390D01*
X002056Y019390D01*
X001957Y019489D01*
X001957Y019871D01*
X002226Y020140D01*
X002607Y020140D01*
X002857Y019890D01*
X007737Y019890D01*
X007737Y020782D01*
X007635Y020824D01*
X007480Y020978D01*
X007397Y021181D01*
X007397Y022179D01*
X007480Y022382D01*
X007635Y022536D01*
X007837Y022620D01*
X008056Y022620D01*
X008258Y022536D01*
X008413Y022382D01*
X008497Y022179D01*
X008497Y021181D01*
X008413Y020978D01*
X008258Y020824D01*
X008157Y020782D01*
X008157Y019593D01*
X008034Y019470D01*
X002857Y019470D01*
X002777Y019390D01*
X013657Y019390D01*
X013657Y020782D01*
X013555Y020824D01*
X013400Y020978D01*
X013317Y021181D01*
X013317Y022179D01*
X013400Y022382D01*
X013555Y022536D01*
X013757Y022620D01*
X013976Y022620D01*
X014178Y022536D01*
X014333Y022382D01*
X014417Y022179D01*
X014417Y021181D01*
X014333Y020978D01*
X014178Y020824D01*
X014077Y020782D01*
X014077Y020345D01*
X014148Y020468D01*
X014077Y020468D01*
X014148Y020468D02*
X014358Y020678D01*
X014614Y020826D01*
X014900Y020903D01*
X015196Y020903D01*
X015482Y020826D01*
X015739Y020678D01*
X015948Y020468D01*
X016096Y020212D01*
X016173Y019926D01*
X016173Y019630D01*
X016096Y019344D01*
X015948Y019087D01*
X015751Y018890D01*
X019827Y018890D01*
X019827Y020782D01*
X019725Y020824D01*
X019570Y020978D01*
X019487Y021181D01*
X019487Y022179D01*
X019570Y022382D01*
X019725Y022536D01*
X019927Y022620D01*
X020146Y022620D01*
X020348Y022536D01*
X020503Y022382D01*
X020587Y022179D01*
X020587Y021181D01*
X020503Y020978D01*
X020348Y020824D01*
X020247Y020782D01*
X020247Y018593D01*
X020124Y018470D01*
X002857Y018470D01*
X002777Y018390D01*
X025737Y018390D01*
X025737Y020782D01*
X025635Y020824D01*
X025480Y020978D01*
X025397Y021181D01*
X025397Y022179D01*
X025480Y022382D01*
X025635Y022536D01*
X025837Y022620D01*
X026056Y022620D01*
X026258Y022536D01*
X026413Y022382D01*
X026497Y022179D01*
X026497Y021181D01*
X026413Y020978D01*
X026258Y020824D01*
X026157Y020782D01*
X026157Y018093D01*
X026034Y017970D01*
X002777Y017970D01*
X002857Y017890D01*
X031657Y017890D01*
X031657Y020782D01*
X031555Y020824D01*
X031400Y020978D01*
X031317Y021181D01*
X031317Y022179D01*
X031400Y022382D01*
X031555Y022536D01*
X031757Y022620D01*
X031976Y022620D01*
X032178Y022536D01*
X032333Y022382D01*
X032417Y022179D01*
X032417Y021181D01*
X032333Y020978D01*
X032178Y020824D01*
X032077Y020782D01*
X032077Y017593D01*
X031954Y017470D01*
X002857Y017470D01*
X002777Y017390D01*
X033707Y017390D01*
X033707Y017560D01*
X033417Y017560D01*
X033215Y017644D01*
X033060Y017798D01*
X032977Y018001D01*
X032977Y018219D01*
X033060Y018422D01*
X033215Y018576D01*
X033417Y018660D01*
X034416Y018660D01*
X034618Y018576D01*
X034773Y018422D01*
X034857Y018219D01*
X034857Y018001D01*
X034773Y017798D01*
X034618Y017644D01*
X034416Y017560D01*
X034127Y017560D01*
X034127Y017093D01*
X034004Y016970D01*
X002777Y016970D01*
X002857Y016890D01*
X008504Y016890D01*
X008627Y016767D01*
X008627Y012390D01*
X033014Y012390D01*
X033060Y012502D01*
X033215Y012656D01*
X033417Y012740D01*
X034416Y012740D01*
X034618Y012656D01*
X034773Y012502D01*
X034857Y012299D01*
X034857Y012081D01*
X034773Y011878D01*
X034618Y011724D01*
X034416Y011640D01*
X033417Y011640D01*
X033215Y011724D01*
X033060Y011878D01*
X033022Y011970D01*
X008330Y011970D01*
X008207Y012093D01*
X008207Y016470D01*
X002857Y016470D01*
X002777Y016390D01*
X007504Y016390D01*
X007627Y016267D01*
X007627Y010390D01*
X011504Y010390D01*
X011627Y010267D01*
X011627Y008890D01*
X016504Y008890D01*
X016627Y008767D01*
X016627Y007890D01*
X020004Y007890D01*
X020127Y007767D01*
X020127Y007390D01*
X022004Y007390D01*
X022127Y007267D01*
X022127Y006890D01*
X025004Y006890D01*
X025127Y006767D01*
X025127Y006390D01*
X025883Y006390D01*
X025933Y006407D01*
X025966Y006390D01*
X026004Y006390D01*
X026041Y006353D01*
X026966Y005890D01*
X029934Y005890D01*
X030057Y005767D01*
X030057Y005578D01*
X030158Y005536D01*
X030313Y005382D01*
X030397Y005179D01*
X030397Y004181D01*
X030313Y003978D01*
X030158Y003824D01*
X029956Y003740D01*
X029737Y003740D01*
X029535Y003824D01*
X029380Y003978D01*
X029297Y004181D01*
X029297Y005179D01*
X029380Y005382D01*
X029469Y005470D01*
X028283Y005470D01*
X028311Y005441D01*
X028364Y005369D01*
X028405Y005289D01*
X028433Y005203D01*
X028447Y005115D01*
X028447Y004730D01*
X027927Y004730D01*
X027927Y004630D01*
X028447Y004630D01*
X028447Y004245D01*
X028433Y004157D01*
X028405Y004071D01*
X028364Y003991D01*
X028311Y003919D01*
X028248Y003855D01*
X028175Y003802D01*
X028095Y003762D01*
X028010Y003734D01*
X027927Y003721D01*
X027927Y004630D01*
X027827Y004630D01*
X027827Y003721D01*
X027743Y003734D01*
X027658Y003762D01*
X027578Y003802D01*
X027505Y003855D01*
X027442Y003919D01*
X027389Y003991D01*
X027348Y004071D01*
X027321Y004157D01*
X027307Y004245D01*
X027307Y004630D01*
X027827Y004630D01*
X027827Y004730D01*
X027307Y004730D01*
X027307Y005115D01*
X027321Y005203D01*
X027348Y005289D01*
X027389Y005369D01*
X027442Y005441D01*
X027471Y005470D01*
X026951Y005470D01*
X026901Y005453D01*
X026867Y005470D01*
X026830Y005470D01*
X026792Y005507D01*
X025867Y005970D01*
X024830Y005970D01*
X024707Y006093D01*
X024707Y006470D01*
X021830Y006470D01*
X021707Y006593D01*
X021707Y006970D01*
X019830Y006970D01*
X019707Y007093D01*
X019707Y007470D01*
X016330Y007470D01*
X016207Y007593D01*
X016207Y008470D01*
X011330Y008470D01*
X011207Y008593D01*
X011207Y009970D01*
X007330Y009970D01*
X007207Y010093D01*
X007207Y015970D01*
X002777Y015970D01*
X002857Y015890D01*
X007004Y015890D01*
X007127Y015767D01*
X007127Y009890D01*
X011004Y009890D01*
X011127Y009767D01*
X011127Y008390D01*
X016004Y008390D01*
X016127Y008267D01*
X016127Y007390D01*
X019504Y007390D01*
X019627Y007267D01*
X019627Y006890D01*
X021504Y006890D01*
X021627Y006767D01*
X021627Y006390D01*
X024504Y006390D01*
X024627Y006267D01*
X024627Y005890D01*
X025994Y005890D01*
X026117Y005767D01*
X026117Y005578D01*
X026218Y005536D01*
X026373Y005382D01*
X026457Y005179D01*
X026457Y004181D01*
X026373Y003978D01*
X026218Y003824D01*
X026016Y003740D01*
X025797Y003740D01*
X025595Y003824D01*
X025440Y003978D01*
X025357Y004181D01*
X025357Y005179D01*
X025440Y005382D01*
X025529Y005470D01*
X024330Y005470D01*
X024207Y005593D01*
X024207Y005970D01*
X021330Y005970D01*
X021207Y006093D01*
X021207Y006470D01*
X019330Y006470D01*
X019207Y006593D01*
X019207Y006970D01*
X015830Y006970D01*
X015707Y007093D01*
X015707Y007970D01*
X010830Y007970D01*
X010707Y008093D01*
X010707Y009470D01*
X006830Y009470D01*
X006707Y009593D01*
X006707Y015470D01*
X002857Y015470D01*
X002777Y015390D01*
X006504Y015390D01*
X006627Y015267D01*
X006627Y009390D01*
X010504Y009390D01*
X010627Y009267D01*
X010627Y007890D01*
X015504Y007890D01*
X015627Y007767D01*
X015627Y006890D01*
X019004Y006890D01*
X019127Y006767D01*
X019127Y006390D01*
X021004Y006390D01*
X021127Y006267D01*
X021127Y005890D01*
X024014Y005890D01*
X024137Y005767D01*
X024137Y005578D01*
X024238Y005536D01*
X024393Y005382D01*
X024477Y005179D01*
X024477Y004181D01*
X024393Y003978D01*
X024238Y003824D01*
X024036Y003740D01*
X023817Y003740D01*
X023615Y003824D01*
X023460Y003978D01*
X023377Y004181D01*
X023377Y005179D01*
X023460Y005382D01*
X023549Y005470D01*
X022363Y005470D01*
X022391Y005441D01*
X022444Y005369D01*
X022485Y005289D01*
X022513Y005203D01*
X022527Y005115D01*
X022527Y004730D01*
X022007Y004730D01*
X022007Y004630D01*
X022527Y004630D01*
X022527Y004245D01*
X022513Y004157D01*
X022485Y004071D01*
X022444Y003991D01*
X022391Y003919D01*
X022328Y003855D01*
X022255Y003802D01*
X022175Y003762D01*
X022090Y003734D01*
X022007Y003721D01*
X022007Y004630D01*
X021907Y004630D01*
X021907Y003721D01*
X021823Y003734D01*
X021738Y003762D01*
X021658Y003802D01*
X021585Y003855D01*
X021522Y003919D01*
X021469Y003991D01*
X021428Y004071D01*
X021401Y004157D01*
X021387Y004245D01*
X021387Y004630D01*
X021907Y004630D01*
X021907Y004730D01*
X021387Y004730D01*
X021387Y005115D01*
X021401Y005203D01*
X021428Y005289D01*
X021469Y005369D01*
X021522Y005441D01*
X021551Y005470D01*
X020830Y005470D01*
X020707Y005593D01*
X020707Y005970D01*
X018830Y005970D01*
X018707Y006093D01*
X018707Y006470D01*
X015330Y006470D01*
X015207Y006593D01*
X015207Y007470D01*
X010330Y007470D01*
X010207Y007593D01*
X010207Y008970D01*
X006330Y008970D01*
X006207Y009093D01*
X006207Y014970D01*
X002777Y014970D01*
X002857Y014890D01*
X006004Y014890D01*
X006127Y014767D01*
X006127Y008890D01*
X010004Y008890D01*
X010127Y008767D01*
X010127Y007390D01*
X015004Y007390D01*
X015127Y007267D01*
X015127Y006390D01*
X018504Y006390D01*
X018627Y006267D01*
X018627Y005890D01*
X020074Y005890D01*
X020197Y005767D01*
X020197Y005578D01*
X020298Y005536D01*
X020453Y005382D01*
X020537Y005179D01*
X020537Y004181D01*
X020453Y003978D01*
X020298Y003824D01*
X020096Y003740D01*
X019877Y003740D01*
X019675Y003824D01*
X019520Y003978D01*
X019437Y004181D01*
X019437Y005179D01*
X019520Y005382D01*
X019609Y005470D01*
X018330Y005470D01*
X018207Y005593D01*
X018207Y005970D01*
X014830Y005970D01*
X014707Y006093D01*
X014707Y006970D01*
X009830Y006970D01*
X009707Y007093D01*
X009707Y008470D01*
X005830Y008470D01*
X005707Y008593D01*
X005707Y014470D01*
X002857Y014470D01*
X002777Y014390D01*
X005504Y014390D01*
X005627Y014267D01*
X005627Y008390D01*
X009504Y008390D01*
X009627Y008267D01*
X009627Y006890D01*
X014504Y006890D01*
X014627Y006767D01*
X014627Y005890D01*
X017884Y005890D01*
X018007Y005767D01*
X018007Y005578D01*
X018108Y005536D01*
X018263Y005382D01*
X018347Y005179D01*
X018347Y004181D01*
X018263Y003978D01*
X018108Y003824D01*
X017906Y003740D01*
X017687Y003740D01*
X017485Y003824D01*
X017330Y003978D01*
X017247Y004181D01*
X017247Y005179D01*
X017330Y005382D01*
X017419Y005470D01*
X016233Y005470D01*
X016261Y005441D01*
X016314Y005369D01*
X016355Y005289D01*
X016383Y005203D01*
X016397Y005115D01*
X016397Y004730D01*
X015877Y004730D01*
X015877Y004630D01*
X016397Y004630D01*
X016397Y004245D01*
X016383Y004157D01*
X016355Y004071D01*
X016314Y003991D01*
X016261Y003919D01*
X016198Y003855D01*
X016125Y003802D01*
X016045Y003762D01*
X015960Y003734D01*
X015877Y003721D01*
X015877Y004630D01*
X015777Y004630D01*
X015777Y003721D01*
X015693Y003734D01*
X015608Y003762D01*
X015528Y003802D01*
X015455Y003855D01*
X015392Y003919D01*
X015339Y003991D01*
X015298Y004071D01*
X015271Y004157D01*
X015257Y004245D01*
X015257Y004630D01*
X015777Y004630D01*
X015777Y004730D01*
X015257Y004730D01*
X015257Y005115D01*
X015271Y005203D01*
X015298Y005289D01*
X015339Y005369D01*
X015392Y005441D01*
X015421Y005470D01*
X014330Y005470D01*
X014207Y005593D01*
X014207Y006470D01*
X009330Y006470D01*
X009207Y006593D01*
X009207Y007970D01*
X005330Y007970D01*
X005207Y008093D01*
X005207Y013970D01*
X002777Y013970D01*
X002857Y013890D01*
X005004Y013890D01*
X005127Y013767D01*
X005127Y007890D01*
X009004Y007890D01*
X009127Y007767D01*
X009127Y006390D01*
X013954Y006390D01*
X014077Y006267D01*
X014077Y005578D01*
X014178Y005536D01*
X014333Y005382D01*
X014417Y005179D01*
X014417Y004181D01*
X014333Y003978D01*
X014178Y003824D01*
X013976Y003740D01*
X013757Y003740D01*
X013555Y003824D01*
X013400Y003978D01*
X013317Y004181D01*
X013317Y005179D01*
X013400Y005382D01*
X013555Y005536D01*
X013657Y005578D01*
X013657Y005970D01*
X008830Y005970D01*
X008707Y006093D01*
X008707Y007470D01*
X004830Y007470D01*
X004707Y007593D01*
X004707Y013470D01*
X002857Y013470D01*
X002777Y013390D01*
X004504Y013390D01*
X004627Y013267D01*
X004627Y007390D01*
X008504Y007390D01*
X008627Y007267D01*
X008627Y005890D01*
X011974Y005890D01*
X012097Y005767D01*
X012097Y005578D01*
X012198Y005536D01*
X012353Y005382D01*
X012437Y005179D01*
X012437Y004181D01*
X012353Y003978D01*
X012198Y003824D01*
X011996Y003740D01*
X011777Y003740D01*
X011575Y003824D01*
X011420Y003978D01*
X011337Y004181D01*
X011337Y005179D01*
X011420Y005382D01*
X011509Y005470D01*
X010323Y005470D01*
X010351Y005441D01*
X010404Y005369D01*
X010445Y005289D01*
X010473Y005203D01*
X010487Y005115D01*
X010487Y004730D01*
X009967Y004730D01*
X009967Y004630D01*
X010487Y004630D01*
X010487Y004245D01*
X010473Y004157D01*
X010445Y004071D01*
X010404Y003991D01*
X010351Y003919D01*
X010288Y003855D01*
X010215Y003802D01*
X010135Y003762D01*
X010050Y003734D01*
X009967Y003721D01*
X009967Y004630D01*
X009867Y004630D01*
X009867Y003721D01*
X009783Y003734D01*
X009698Y003762D01*
X009618Y003802D01*
X009545Y003855D01*
X009482Y003919D01*
X009429Y003991D01*
X009388Y004071D01*
X009361Y004157D01*
X009347Y004245D01*
X009347Y004630D01*
X009867Y004630D01*
X009867Y004730D01*
X009347Y004730D01*
X009347Y005115D01*
X009361Y005203D01*
X009388Y005289D01*
X009429Y005369D01*
X009482Y005441D01*
X009511Y005470D01*
X008330Y005470D01*
X008207Y005593D01*
X008207Y006970D01*
X004330Y006970D01*
X004207Y007093D01*
X004207Y012970D01*
X002777Y012970D01*
X002857Y012890D01*
X004004Y012890D01*
X004127Y012767D01*
X004127Y006890D01*
X008034Y006890D01*
X008157Y006767D01*
X008157Y005578D01*
X008258Y005536D01*
X008413Y005382D01*
X008497Y005179D01*
X008497Y004181D01*
X008413Y003978D01*
X008258Y003824D01*
X008056Y003740D01*
X007837Y003740D01*
X007635Y003824D01*
X007480Y003978D01*
X007397Y004181D01*
X007397Y005179D01*
X007480Y005382D01*
X007635Y005536D01*
X007737Y005578D01*
X007737Y006470D01*
X003830Y006470D01*
X003707Y006593D01*
X003707Y012470D01*
X002857Y012470D01*
X002777Y012390D01*
X003504Y012390D01*
X003627Y012267D01*
X003627Y006390D01*
X006054Y006390D01*
X006177Y006267D01*
X006177Y005578D01*
X006278Y005536D01*
X006433Y005382D01*
X006517Y005179D01*
X006517Y004181D01*
X006433Y003978D01*
X006278Y003824D01*
X006076Y003740D01*
X005857Y003740D01*
X005655Y003824D01*
X005500Y003978D01*
X005417Y004181D01*
X005417Y005179D01*
X005500Y005382D01*
X005655Y005536D01*
X005757Y005578D01*
X005757Y005970D01*
X003330Y005970D01*
X003207Y006093D01*
X003207Y011970D01*
X002777Y011970D01*
X002857Y011890D01*
X003004Y011890D01*
X003127Y011767D01*
X003127Y005593D01*
X003004Y005470D01*
X002414Y005470D01*
X002503Y005382D01*
X002587Y005179D01*
X002587Y004181D01*
X002503Y003978D01*
X002348Y003824D01*
X002146Y003740D01*
X001927Y003740D01*
X001725Y003824D01*
X001570Y003978D01*
X001487Y004181D01*
X001487Y005179D01*
X001570Y005382D01*
X001707Y005518D01*
X001707Y005767D01*
X001741Y005801D01*
X001499Y005801D01*
X001213Y005878D01*
X000957Y006026D01*
X000897Y006086D01*
X000897Y006045D02*
X000938Y006045D01*
X000897Y005886D02*
X001199Y005886D01*
X000897Y005728D02*
X001707Y005728D01*
X001707Y005569D02*
X000897Y005569D01*
X000897Y005411D02*
X001599Y005411D01*
X001517Y005252D02*
X000897Y005252D01*
X000897Y005094D02*
X001487Y005094D01*
X001487Y004935D02*
X000897Y004935D01*
X000897Y004777D02*
X001487Y004777D01*
X001487Y004618D02*
X000897Y004618D01*
X000897Y004460D02*
X001487Y004460D01*
X001487Y004301D02*
X000897Y004301D01*
X000897Y004143D02*
X001502Y004143D01*
X001568Y003984D02*
X000897Y003984D01*
X000897Y003826D02*
X001723Y003826D01*
X002350Y003826D02*
X003676Y003826D01*
X003708Y003802D02*
X003635Y003855D01*
X003572Y003919D01*
X003519Y003991D01*
X003478Y004071D01*
X003451Y004157D01*
X003437Y004245D01*
X003437Y004630D01*
X003957Y004630D01*
X004057Y004630D01*
X004057Y004730D01*
X004577Y004730D01*
X004577Y005115D01*
X004563Y005203D01*
X004535Y005289D01*
X004494Y005369D01*
X004441Y005441D01*
X004378Y005505D01*
X004305Y005558D01*
X004225Y005598D01*
X004140Y005626D01*
X004057Y005639D01*
X004057Y004730D01*
X003957Y004730D01*
X003957Y005639D01*
X003873Y005626D01*
X003788Y005598D01*
X003708Y005558D01*
X003635Y005505D01*
X003572Y005441D01*
X003519Y005369D01*
X003478Y005289D01*
X003451Y005203D01*
X003437Y005115D01*
X003437Y004730D01*
X003957Y004730D01*
X003957Y004630D01*
X003957Y003721D01*
X003873Y003734D01*
X003788Y003762D01*
X003708Y003802D01*
X003957Y003826D02*
X004057Y003826D01*
X004057Y003721D02*
X004140Y003734D01*
X004225Y003762D01*
X004305Y003802D01*
X004378Y003855D01*
X004441Y003919D01*
X004494Y003991D01*
X004535Y004071D01*
X004563Y004157D01*
X004577Y004245D01*
X004577Y004630D01*
X004057Y004630D01*
X004057Y003721D01*
X004057Y003984D02*
X003957Y003984D01*
X003957Y004143D02*
X004057Y004143D01*
X004057Y004301D02*
X003957Y004301D01*
X003957Y004460D02*
X004057Y004460D01*
X004057Y004618D02*
X003957Y004618D01*
X003957Y004777D02*
X004057Y004777D01*
X004057Y004935D02*
X003957Y004935D01*
X003957Y005094D02*
X004057Y005094D01*
X004057Y005252D02*
X003957Y005252D01*
X003957Y005411D02*
X004057Y005411D01*
X004057Y005569D02*
X003957Y005569D01*
X003730Y005569D02*
X003103Y005569D01*
X003127Y005728D02*
X005757Y005728D01*
X005757Y005886D02*
X003127Y005886D01*
X003127Y006045D02*
X003255Y006045D01*
X003207Y006203D02*
X003127Y006203D01*
X003127Y006362D02*
X003207Y006362D01*
X003207Y006520D02*
X003127Y006520D01*
X003127Y006679D02*
X003207Y006679D01*
X003207Y006837D02*
X003127Y006837D01*
X003127Y006996D02*
X003207Y006996D01*
X003207Y007154D02*
X003127Y007154D01*
X003127Y007313D02*
X003207Y007313D01*
X003207Y007471D02*
X003127Y007471D01*
X003127Y007630D02*
X003207Y007630D01*
X003207Y007788D02*
X003127Y007788D01*
X003127Y007947D02*
X003207Y007947D01*
X003207Y008105D02*
X003127Y008105D01*
X003127Y008264D02*
X003207Y008264D01*
X003207Y008422D02*
X003127Y008422D01*
X003127Y008581D02*
X003207Y008581D01*
X003207Y008739D02*
X003127Y008739D01*
X003127Y008898D02*
X003207Y008898D01*
X003207Y009056D02*
X003127Y009056D01*
X003127Y009215D02*
X003207Y009215D01*
X003207Y009373D02*
X003127Y009373D01*
X003127Y009532D02*
X003207Y009532D01*
X003207Y009690D02*
X003127Y009690D01*
X003127Y009849D02*
X003207Y009849D01*
X003207Y010007D02*
X003127Y010007D01*
X003127Y010166D02*
X003207Y010166D01*
X003207Y010324D02*
X003127Y010324D01*
X003127Y010483D02*
X003207Y010483D01*
X003207Y010641D02*
X003127Y010641D01*
X003127Y010800D02*
X003207Y010800D01*
X003207Y010958D02*
X003127Y010958D01*
X003127Y011117D02*
X003207Y011117D01*
X003207Y011275D02*
X003127Y011275D01*
X003127Y011434D02*
X003207Y011434D01*
X003207Y011592D02*
X003127Y011592D01*
X003127Y011751D02*
X003207Y011751D01*
X003207Y011909D02*
X002838Y011909D01*
X003509Y012385D02*
X003707Y012385D01*
X003707Y012226D02*
X003627Y012226D01*
X003627Y012068D02*
X003707Y012068D01*
X003707Y011909D02*
X003627Y011909D01*
X003627Y011751D02*
X003707Y011751D01*
X003707Y011592D02*
X003627Y011592D01*
X003627Y011434D02*
X003707Y011434D01*
X003707Y011275D02*
X003627Y011275D01*
X003627Y011117D02*
X003707Y011117D01*
X003707Y010958D02*
X003627Y010958D01*
X003627Y010800D02*
X003707Y010800D01*
X003707Y010641D02*
X003627Y010641D01*
X003627Y010483D02*
X003707Y010483D01*
X003707Y010324D02*
X003627Y010324D01*
X003627Y010166D02*
X003707Y010166D01*
X003707Y010007D02*
X003627Y010007D01*
X003627Y009849D02*
X003707Y009849D01*
X003707Y009690D02*
X003627Y009690D01*
X003627Y009532D02*
X003707Y009532D01*
X003707Y009373D02*
X003627Y009373D01*
X003627Y009215D02*
X003707Y009215D01*
X003707Y009056D02*
X003627Y009056D01*
X003627Y008898D02*
X003707Y008898D01*
X003707Y008739D02*
X003627Y008739D01*
X003627Y008581D02*
X003707Y008581D01*
X003707Y008422D02*
X003627Y008422D01*
X003627Y008264D02*
X003707Y008264D01*
X003707Y008105D02*
X003627Y008105D01*
X003627Y007947D02*
X003707Y007947D01*
X003707Y007788D02*
X003627Y007788D01*
X003627Y007630D02*
X003707Y007630D01*
X003707Y007471D02*
X003627Y007471D01*
X003627Y007313D02*
X003707Y007313D01*
X003707Y007154D02*
X003627Y007154D01*
X003627Y006996D02*
X003707Y006996D01*
X003707Y006837D02*
X003627Y006837D01*
X003627Y006679D02*
X003707Y006679D01*
X003780Y006520D02*
X003627Y006520D01*
X004127Y006996D02*
X004304Y006996D01*
X004207Y007154D02*
X004127Y007154D01*
X004127Y007313D02*
X004207Y007313D01*
X004207Y007471D02*
X004127Y007471D01*
X004127Y007630D02*
X004207Y007630D01*
X004207Y007788D02*
X004127Y007788D01*
X004127Y007947D02*
X004207Y007947D01*
X004207Y008105D02*
X004127Y008105D01*
X004127Y008264D02*
X004207Y008264D01*
X004207Y008422D02*
X004127Y008422D01*
X004127Y008581D02*
X004207Y008581D01*
X004207Y008739D02*
X004127Y008739D01*
X004127Y008898D02*
X004207Y008898D01*
X004207Y009056D02*
X004127Y009056D01*
X004127Y009215D02*
X004207Y009215D01*
X004207Y009373D02*
X004127Y009373D01*
X004127Y009532D02*
X004207Y009532D01*
X004207Y009690D02*
X004127Y009690D01*
X004127Y009849D02*
X004207Y009849D01*
X004207Y010007D02*
X004127Y010007D01*
X004127Y010166D02*
X004207Y010166D01*
X004207Y010324D02*
X004127Y010324D01*
X004127Y010483D02*
X004207Y010483D01*
X004207Y010641D02*
X004127Y010641D01*
X004127Y010800D02*
X004207Y010800D01*
X004207Y010958D02*
X004127Y010958D01*
X004127Y011117D02*
X004207Y011117D01*
X004207Y011275D02*
X004127Y011275D01*
X004127Y011434D02*
X004207Y011434D01*
X004207Y011592D02*
X004127Y011592D01*
X004127Y011751D02*
X004207Y011751D01*
X004207Y011909D02*
X004127Y011909D01*
X004127Y012068D02*
X004207Y012068D01*
X004207Y012226D02*
X004127Y012226D01*
X004127Y012385D02*
X004207Y012385D01*
X004207Y012543D02*
X004127Y012543D01*
X004127Y012702D02*
X004207Y012702D01*
X004207Y012860D02*
X004034Y012860D01*
X004627Y012860D02*
X004707Y012860D01*
X004707Y012702D02*
X004627Y012702D01*
X004627Y012543D02*
X004707Y012543D01*
X004707Y012385D02*
X004627Y012385D01*
X004627Y012226D02*
X004707Y012226D01*
X004707Y012068D02*
X004627Y012068D01*
X004627Y011909D02*
X004707Y011909D01*
X004707Y011751D02*
X004627Y011751D01*
X004627Y011592D02*
X004707Y011592D01*
X004707Y011434D02*
X004627Y011434D01*
X004627Y011275D02*
X004707Y011275D01*
X004707Y011117D02*
X004627Y011117D01*
X004627Y010958D02*
X004707Y010958D01*
X004707Y010800D02*
X004627Y010800D01*
X004627Y010641D02*
X004707Y010641D01*
X004707Y010483D02*
X004627Y010483D01*
X004627Y010324D02*
X004707Y010324D01*
X004707Y010166D02*
X004627Y010166D01*
X004627Y010007D02*
X004707Y010007D01*
X004707Y009849D02*
X004627Y009849D01*
X004627Y009690D02*
X004707Y009690D01*
X004707Y009532D02*
X004627Y009532D01*
X004627Y009373D02*
X004707Y009373D01*
X004707Y009215D02*
X004627Y009215D01*
X004627Y009056D02*
X004707Y009056D01*
X004707Y008898D02*
X004627Y008898D01*
X004627Y008739D02*
X004707Y008739D01*
X004707Y008581D02*
X004627Y008581D01*
X004627Y008422D02*
X004707Y008422D01*
X004707Y008264D02*
X004627Y008264D01*
X004627Y008105D02*
X004707Y008105D01*
X004707Y007947D02*
X004627Y007947D01*
X004627Y007788D02*
X004707Y007788D01*
X004707Y007630D02*
X004627Y007630D01*
X004627Y007471D02*
X004829Y007471D01*
X005127Y007947D02*
X009207Y007947D01*
X009207Y007788D02*
X009106Y007788D01*
X009127Y007630D02*
X009207Y007630D01*
X009207Y007471D02*
X009127Y007471D01*
X009127Y007313D02*
X009207Y007313D01*
X009207Y007154D02*
X009127Y007154D01*
X009127Y006996D02*
X009207Y006996D01*
X009207Y006837D02*
X009127Y006837D01*
X009127Y006679D02*
X009207Y006679D01*
X009280Y006520D02*
X009127Y006520D01*
X008707Y006520D02*
X008627Y006520D01*
X008627Y006362D02*
X008707Y006362D01*
X008707Y006203D02*
X008627Y006203D01*
X008627Y006045D02*
X008755Y006045D01*
X008207Y006045D02*
X008157Y006045D01*
X008157Y006203D02*
X008207Y006203D01*
X008207Y006362D02*
X008157Y006362D01*
X008157Y006520D02*
X008207Y006520D01*
X008207Y006679D02*
X008157Y006679D01*
X008207Y006837D02*
X008087Y006837D01*
X008627Y006837D02*
X008707Y006837D01*
X008707Y006679D02*
X008627Y006679D01*
X008627Y006996D02*
X008707Y006996D01*
X008707Y007154D02*
X008627Y007154D01*
X008581Y007313D02*
X008707Y007313D01*
X009627Y007313D02*
X009707Y007313D01*
X009707Y007471D02*
X009627Y007471D01*
X009627Y007630D02*
X009707Y007630D01*
X009707Y007788D02*
X009627Y007788D01*
X009627Y007947D02*
X009707Y007947D01*
X009707Y008105D02*
X009627Y008105D01*
X009627Y008264D02*
X009707Y008264D01*
X009707Y008422D02*
X005627Y008422D01*
X005627Y008581D02*
X005719Y008581D01*
X005707Y008739D02*
X005627Y008739D01*
X005627Y008898D02*
X005707Y008898D01*
X005707Y009056D02*
X005627Y009056D01*
X005627Y009215D02*
X005707Y009215D01*
X005707Y009373D02*
X005627Y009373D01*
X005627Y009532D02*
X005707Y009532D01*
X005707Y009690D02*
X005627Y009690D01*
X005627Y009849D02*
X005707Y009849D01*
X005707Y010007D02*
X005627Y010007D01*
X005627Y010166D02*
X005707Y010166D01*
X005707Y010324D02*
X005627Y010324D01*
X005627Y010483D02*
X005707Y010483D01*
X005707Y010641D02*
X005627Y010641D01*
X005627Y010800D02*
X005707Y010800D01*
X005707Y010958D02*
X005627Y010958D01*
X005627Y011117D02*
X005707Y011117D01*
X005707Y011275D02*
X005627Y011275D01*
X005627Y011434D02*
X005707Y011434D01*
X005707Y011592D02*
X005627Y011592D01*
X005627Y011751D02*
X005707Y011751D01*
X005707Y011909D02*
X005627Y011909D01*
X005627Y012068D02*
X005707Y012068D01*
X005707Y012226D02*
X005627Y012226D01*
X005627Y012385D02*
X005707Y012385D01*
X005707Y012543D02*
X005627Y012543D01*
X005627Y012702D02*
X005707Y012702D01*
X005707Y012860D02*
X005627Y012860D01*
X005627Y013019D02*
X005707Y013019D01*
X005707Y013177D02*
X005627Y013177D01*
X005627Y013336D02*
X005707Y013336D01*
X005707Y013494D02*
X005627Y013494D01*
X005627Y013653D02*
X005707Y013653D01*
X005707Y013811D02*
X005627Y013811D01*
X005627Y013970D02*
X005707Y013970D01*
X005707Y014128D02*
X005627Y014128D01*
X005607Y014287D02*
X005707Y014287D01*
X005707Y014445D02*
X002832Y014445D01*
X002827Y014921D02*
X006207Y014921D01*
X006207Y014762D02*
X006127Y014762D01*
X006127Y014604D02*
X006207Y014604D01*
X006207Y014445D02*
X006127Y014445D01*
X006127Y014287D02*
X006207Y014287D01*
X006207Y014128D02*
X006127Y014128D01*
X006127Y013970D02*
X006207Y013970D01*
X006207Y013811D02*
X006127Y013811D01*
X006127Y013653D02*
X006207Y013653D01*
X006207Y013494D02*
X006127Y013494D01*
X006127Y013336D02*
X006207Y013336D01*
X006207Y013177D02*
X006127Y013177D01*
X006127Y013019D02*
X006207Y013019D01*
X006207Y012860D02*
X006127Y012860D01*
X006127Y012702D02*
X006207Y012702D01*
X006207Y012543D02*
X006127Y012543D01*
X006127Y012385D02*
X006207Y012385D01*
X006207Y012226D02*
X006127Y012226D01*
X006127Y012068D02*
X006207Y012068D01*
X006207Y011909D02*
X006127Y011909D01*
X006127Y011751D02*
X006207Y011751D01*
X006207Y011592D02*
X006127Y011592D01*
X006127Y011434D02*
X006207Y011434D01*
X006207Y011275D02*
X006127Y011275D01*
X006127Y011117D02*
X006207Y011117D01*
X006207Y010958D02*
X006127Y010958D01*
X006127Y010800D02*
X006207Y010800D01*
X006207Y010641D02*
X006127Y010641D01*
X006127Y010483D02*
X006207Y010483D01*
X006207Y010324D02*
X006127Y010324D01*
X006127Y010166D02*
X006207Y010166D01*
X006207Y010007D02*
X006127Y010007D01*
X006127Y009849D02*
X006207Y009849D01*
X006207Y009690D02*
X006127Y009690D01*
X006127Y009532D02*
X006207Y009532D01*
X006207Y009373D02*
X006127Y009373D01*
X006127Y009215D02*
X006207Y009215D01*
X006244Y009056D02*
X006127Y009056D01*
X006127Y008898D02*
X010207Y008898D01*
X010207Y008739D02*
X010127Y008739D01*
X010127Y008581D02*
X010207Y008581D01*
X010207Y008422D02*
X010127Y008422D01*
X010127Y008264D02*
X010207Y008264D01*
X010207Y008105D02*
X010127Y008105D01*
X010127Y007947D02*
X010207Y007947D01*
X010207Y007788D02*
X010127Y007788D01*
X010127Y007630D02*
X010207Y007630D01*
X010127Y007471D02*
X010329Y007471D01*
X010627Y007947D02*
X015707Y007947D01*
X015707Y007788D02*
X015606Y007788D01*
X015627Y007630D02*
X015707Y007630D01*
X015707Y007471D02*
X015627Y007471D01*
X015627Y007313D02*
X015707Y007313D01*
X015707Y007154D02*
X015627Y007154D01*
X015627Y006996D02*
X015804Y006996D01*
X015280Y006520D02*
X015127Y006520D01*
X015127Y006679D02*
X015207Y006679D01*
X015207Y006837D02*
X015127Y006837D01*
X015127Y006996D02*
X015207Y006996D01*
X015207Y007154D02*
X015127Y007154D01*
X015081Y007313D02*
X015207Y007313D01*
X014707Y006837D02*
X014557Y006837D01*
X014627Y006679D02*
X014707Y006679D01*
X014707Y006520D02*
X014627Y006520D01*
X014627Y006362D02*
X014707Y006362D01*
X014707Y006203D02*
X014627Y006203D01*
X014627Y006045D02*
X014755Y006045D01*
X014207Y006045D02*
X014077Y006045D01*
X014077Y006203D02*
X014207Y006203D01*
X014207Y006362D02*
X013982Y006362D01*
X014077Y005886D02*
X014207Y005886D01*
X014207Y005728D02*
X014077Y005728D01*
X014099Y005569D02*
X014231Y005569D01*
X014304Y005411D02*
X015370Y005411D01*
X015286Y005252D02*
X014387Y005252D01*
X014417Y005094D02*
X015257Y005094D01*
X015257Y004935D02*
X014417Y004935D01*
X014417Y004777D02*
X015257Y004777D01*
X015257Y004618D02*
X014417Y004618D01*
X014417Y004460D02*
X015257Y004460D01*
X015257Y004301D02*
X014417Y004301D01*
X014401Y004143D02*
X015275Y004143D01*
X015344Y003984D02*
X014335Y003984D01*
X014180Y003826D02*
X015496Y003826D01*
X015777Y003826D02*
X015877Y003826D01*
X015877Y003984D02*
X015777Y003984D01*
X015777Y004143D02*
X015877Y004143D01*
X015877Y004301D02*
X015777Y004301D01*
X015777Y004460D02*
X015877Y004460D01*
X015877Y004618D02*
X015777Y004618D01*
X016397Y004618D02*
X017247Y004618D01*
X017247Y004460D02*
X016397Y004460D01*
X016397Y004301D02*
X017247Y004301D01*
X017262Y004143D02*
X016378Y004143D01*
X016309Y003984D02*
X017328Y003984D01*
X017483Y003826D02*
X016157Y003826D01*
X016397Y004777D02*
X017247Y004777D01*
X017247Y004935D02*
X016397Y004935D01*
X016397Y005094D02*
X017247Y005094D01*
X017277Y005252D02*
X016367Y005252D01*
X016284Y005411D02*
X017359Y005411D01*
X018029Y005569D02*
X018231Y005569D01*
X018234Y005411D02*
X019549Y005411D01*
X019467Y005252D02*
X018317Y005252D01*
X018347Y005094D02*
X019437Y005094D01*
X019437Y004935D02*
X018347Y004935D01*
X018347Y004777D02*
X019437Y004777D01*
X019437Y004618D02*
X018347Y004618D01*
X018347Y004460D02*
X019437Y004460D01*
X019437Y004301D02*
X018347Y004301D01*
X018331Y004143D02*
X019452Y004143D01*
X019518Y003984D02*
X018265Y003984D01*
X018110Y003826D02*
X019673Y003826D01*
X020300Y003826D02*
X021626Y003826D01*
X021474Y003984D02*
X020455Y003984D01*
X020521Y004143D02*
X021405Y004143D01*
X021387Y004301D02*
X020537Y004301D01*
X020537Y004460D02*
X021387Y004460D01*
X021387Y004618D02*
X020537Y004618D01*
X020537Y004777D02*
X021387Y004777D01*
X021387Y004935D02*
X020537Y004935D01*
X020537Y005094D02*
X021387Y005094D01*
X021416Y005252D02*
X020507Y005252D01*
X020424Y005411D02*
X021500Y005411D01*
X021255Y006045D02*
X021127Y006045D01*
X021127Y006203D02*
X021207Y006203D01*
X021207Y006362D02*
X021032Y006362D01*
X020707Y005886D02*
X020078Y005886D01*
X020197Y005728D02*
X020707Y005728D01*
X020731Y005569D02*
X020219Y005569D01*
X019280Y006520D02*
X019127Y006520D01*
X019127Y006679D02*
X019207Y006679D01*
X019207Y006837D02*
X019057Y006837D01*
X019627Y006996D02*
X019804Y006996D01*
X019707Y007154D02*
X019627Y007154D01*
X019581Y007313D02*
X019707Y007313D01*
X020127Y007471D02*
X034041Y007471D01*
X034041Y007313D02*
X022081Y007313D01*
X022127Y007154D02*
X034040Y007154D01*
X034040Y006996D02*
X022127Y006996D01*
X021707Y006837D02*
X021557Y006837D01*
X021627Y006679D02*
X021707Y006679D01*
X021780Y006520D02*
X021627Y006520D01*
X020127Y007630D02*
X034042Y007630D01*
X034042Y007700D02*
X033417Y007700D01*
X033215Y007784D01*
X033060Y007938D01*
X032977Y008141D01*
X032977Y008359D01*
X033060Y008562D01*
X033215Y008716D01*
X033417Y008800D01*
X034416Y008800D01*
X034618Y008716D01*
X034773Y008562D01*
X034815Y008460D01*
X035591Y008460D01*
X035596Y013970D01*
X034819Y013970D01*
X034773Y013858D01*
X034618Y013704D01*
X034416Y013620D01*
X033417Y013620D01*
X033215Y013704D01*
X033060Y013858D01*
X032977Y014061D01*
X032977Y014279D01*
X033060Y014482D01*
X033215Y014636D01*
X033417Y014720D01*
X034416Y014720D01*
X034618Y014636D01*
X034773Y014482D01*
X034811Y014390D01*
X035596Y014390D01*
X035596Y020778D01*
X035485Y020824D01*
X035330Y020978D01*
X035247Y021181D01*
X035247Y022179D01*
X035330Y022382D01*
X035485Y022536D01*
X035587Y022578D01*
X035587Y023470D01*
X030127Y023470D01*
X030127Y022566D01*
X030198Y022536D01*
X030353Y022382D01*
X030437Y022179D01*
X030437Y021181D01*
X030353Y020978D01*
X030198Y020824D01*
X029996Y020740D01*
X029777Y020740D01*
X029575Y020824D01*
X029420Y020978D01*
X029337Y021181D01*
X029337Y022179D01*
X029420Y022382D01*
X029575Y022536D01*
X029707Y022591D01*
X029707Y023470D01*
X024165Y023470D01*
X024165Y022583D01*
X024278Y022536D01*
X024433Y022382D01*
X024517Y022179D01*
X024517Y021181D01*
X024433Y020978D01*
X024278Y020824D01*
X024076Y020740D01*
X023857Y020740D01*
X023655Y020824D01*
X023500Y020978D01*
X023417Y021181D01*
X023417Y022179D01*
X023500Y022382D01*
X023655Y022536D01*
X023745Y022574D01*
X023745Y023470D01*
X018050Y023470D01*
X018050Y022560D01*
X018108Y022536D01*
X018263Y022382D01*
X018347Y022179D01*
X018347Y021181D01*
X018263Y020978D01*
X018108Y020824D01*
X017906Y020740D01*
X017687Y020740D01*
X017485Y020824D01*
X017330Y020978D01*
X017247Y021181D01*
X017247Y022179D01*
X017330Y022382D01*
X017485Y022536D01*
X017630Y022596D01*
X017630Y023470D01*
X012127Y023470D01*
X012127Y022566D01*
X012198Y022536D01*
X012353Y022382D01*
X012437Y022179D01*
X012437Y021181D01*
X012353Y020978D01*
X012198Y020824D01*
X011996Y020740D01*
X011777Y020740D01*
X011575Y020824D01*
X011420Y020978D01*
X011337Y021181D01*
X011337Y022179D01*
X011420Y022382D01*
X011575Y022536D01*
X011707Y022591D01*
X011707Y023470D01*
X006184Y023470D01*
X006184Y022575D01*
X006278Y022536D01*
X006433Y022382D01*
X006517Y022179D01*
X006517Y021181D01*
X006433Y020978D01*
X006278Y020824D01*
X006076Y020740D01*
X005857Y020740D01*
X005655Y020824D01*
X005500Y020978D01*
X005417Y021181D01*
X005417Y022179D01*
X005500Y022382D01*
X005655Y022536D01*
X005764Y022582D01*
X005764Y023767D01*
X005887Y023890D01*
X035884Y023890D01*
X036007Y023767D01*
X036007Y022578D01*
X036108Y022536D01*
X036263Y022382D01*
X036347Y022179D01*
X036347Y021181D01*
X036263Y020978D01*
X036108Y020824D01*
X036016Y020785D01*
X037807Y020785D01*
X037807Y020627D02*
X036016Y020627D01*
X036016Y020785D02*
X036016Y014267D01*
X036016Y014267D01*
X036016Y014180D01*
X036016Y014093D01*
X036016Y014093D01*
X036011Y008250D01*
X036011Y008163D01*
X036011Y008163D01*
X036011Y008163D01*
X035950Y008101D01*
X035888Y008040D01*
X035888Y008040D01*
X035801Y008040D01*
X034815Y008040D01*
X034773Y007938D01*
X034618Y007784D01*
X034462Y007719D01*
X034456Y005565D01*
X034555Y005524D01*
X034710Y005369D01*
X034793Y005167D01*
X034793Y004168D01*
X034710Y003966D01*
X034555Y003811D01*
X034353Y003728D01*
X034134Y003728D01*
X033932Y003811D01*
X033777Y003966D01*
X033693Y004168D01*
X033693Y005167D01*
X033777Y005369D01*
X033932Y005524D01*
X034036Y005567D01*
X034042Y007700D01*
X034462Y007630D02*
X037807Y007630D01*
X037807Y007788D02*
X034622Y007788D01*
X034776Y007947D02*
X037807Y007947D01*
X037807Y008105D02*
X035953Y008105D01*
X035888Y008040D02*
X035888Y008040D01*
X036011Y008264D02*
X037807Y008264D01*
X037807Y008422D02*
X036011Y008422D01*
X036012Y008581D02*
X037807Y008581D01*
X037807Y008739D02*
X036012Y008739D01*
X036012Y008898D02*
X037807Y008898D01*
X037807Y009056D02*
X036012Y009056D01*
X036012Y009215D02*
X037807Y009215D01*
X037807Y009373D02*
X036012Y009373D01*
X036012Y009532D02*
X037807Y009532D01*
X037807Y009690D02*
X036012Y009690D01*
X036013Y009849D02*
X037807Y009849D01*
X037807Y010007D02*
X036013Y010007D01*
X036013Y010166D02*
X037807Y010166D01*
X037807Y010324D02*
X036013Y010324D01*
X036013Y010483D02*
X037807Y010483D01*
X037807Y010641D02*
X036013Y010641D01*
X036013Y010800D02*
X037807Y010800D01*
X037807Y010958D02*
X036013Y010958D01*
X036013Y011117D02*
X037807Y011117D01*
X037807Y011275D02*
X036014Y011275D01*
X036014Y011434D02*
X037807Y011434D01*
X037807Y011592D02*
X036014Y011592D01*
X036014Y011751D02*
X037807Y011751D01*
X037807Y011909D02*
X036014Y011909D01*
X036014Y012068D02*
X037807Y012068D01*
X037807Y012226D02*
X036014Y012226D01*
X036014Y012385D02*
X037807Y012385D01*
X037807Y012543D02*
X036015Y012543D01*
X036015Y012702D02*
X037807Y012702D01*
X037807Y012860D02*
X036015Y012860D01*
X036015Y013019D02*
X037807Y013019D01*
X037807Y013177D02*
X036015Y013177D01*
X036015Y013336D02*
X037807Y013336D01*
X037807Y013494D02*
X036015Y013494D01*
X036015Y013653D02*
X037807Y013653D01*
X037807Y013811D02*
X036016Y013811D01*
X036016Y013970D02*
X037807Y013970D01*
X037807Y014128D02*
X036016Y014128D01*
X036016Y014287D02*
X037807Y014287D01*
X037807Y014445D02*
X036016Y014445D01*
X036016Y014604D02*
X037807Y014604D01*
X037807Y014762D02*
X036016Y014762D01*
X036016Y014921D02*
X037807Y014921D01*
X037807Y015079D02*
X036016Y015079D01*
X036016Y015238D02*
X037807Y015238D01*
X037807Y015396D02*
X036016Y015396D01*
X036016Y015555D02*
X037807Y015555D01*
X037807Y015713D02*
X036016Y015713D01*
X036016Y015872D02*
X037807Y015872D01*
X037807Y016030D02*
X036016Y016030D01*
X036016Y016189D02*
X037807Y016189D01*
X037807Y016347D02*
X036016Y016347D01*
X036016Y016506D02*
X037807Y016506D01*
X037807Y016664D02*
X036016Y016664D01*
X036016Y016823D02*
X037807Y016823D01*
X037807Y016981D02*
X036016Y016981D01*
X036016Y017140D02*
X037807Y017140D01*
X037807Y017298D02*
X036016Y017298D01*
X036016Y017457D02*
X037807Y017457D01*
X037807Y017615D02*
X036016Y017615D01*
X036016Y017774D02*
X037807Y017774D01*
X037807Y017932D02*
X036016Y017932D01*
X036016Y018091D02*
X037807Y018091D01*
X037807Y018249D02*
X036016Y018249D01*
X036016Y018408D02*
X037807Y018408D01*
X037807Y018566D02*
X036016Y018566D01*
X036016Y018725D02*
X037807Y018725D01*
X037807Y018883D02*
X036016Y018883D01*
X036016Y019042D02*
X037807Y019042D01*
X037807Y019200D02*
X036016Y019200D01*
X036016Y019359D02*
X037807Y019359D01*
X037807Y019517D02*
X036016Y019517D01*
X036016Y019676D02*
X037807Y019676D01*
X037807Y019834D02*
X036016Y019834D01*
X036016Y019993D02*
X037807Y019993D01*
X037807Y020151D02*
X036016Y020151D01*
X036016Y020310D02*
X037807Y020310D01*
X037807Y020468D02*
X036016Y020468D01*
X035596Y020468D02*
X032077Y020468D01*
X032077Y020310D02*
X035596Y020310D01*
X035596Y020151D02*
X032077Y020151D01*
X032077Y019993D02*
X035596Y019993D01*
X035596Y019834D02*
X032077Y019834D01*
X032077Y019676D02*
X035596Y019676D01*
X035596Y019517D02*
X032077Y019517D01*
X032077Y019359D02*
X035596Y019359D01*
X035596Y019200D02*
X032077Y019200D01*
X032077Y019042D02*
X035596Y019042D01*
X035596Y018883D02*
X032077Y018883D01*
X032077Y018725D02*
X035596Y018725D01*
X035596Y018566D02*
X034628Y018566D01*
X034779Y018408D02*
X035596Y018408D01*
X035596Y018249D02*
X034844Y018249D01*
X034857Y018091D02*
X035596Y018091D01*
X035596Y017932D02*
X034828Y017932D01*
X034748Y017774D02*
X035596Y017774D01*
X035596Y017615D02*
X034549Y017615D01*
X034127Y017457D02*
X035596Y017457D01*
X035596Y017298D02*
X034127Y017298D01*
X034127Y017140D02*
X035596Y017140D01*
X035596Y016981D02*
X034015Y016981D01*
X033967Y016710D02*
X033967Y016190D01*
X034876Y016190D01*
X034863Y016273D01*
X034835Y016359D01*
X034794Y016439D01*
X034741Y016511D01*
X034678Y016575D01*
X034605Y016628D01*
X034525Y016668D01*
X034440Y016696D01*
X034352Y016710D01*
X033967Y016710D01*
X033967Y016664D02*
X033867Y016664D01*
X033867Y016710D02*
X033482Y016710D01*
X033393Y016696D01*
X033308Y016668D01*
X033228Y016628D01*
X033155Y016575D01*
X033092Y016511D01*
X033039Y016439D01*
X032998Y016359D01*
X032971Y016273D01*
X032957Y016190D01*
X033867Y016190D01*
X033867Y016710D01*
X033867Y016506D02*
X033967Y016506D01*
X033967Y016347D02*
X033867Y016347D01*
X033867Y016190D02*
X033967Y016190D01*
X033967Y016090D01*
X034876Y016090D01*
X034863Y016007D01*
X034835Y015921D01*
X034794Y015841D01*
X034741Y015769D01*
X034678Y015705D01*
X034605Y015652D01*
X034525Y015612D01*
X034440Y015584D01*
X034352Y015570D01*
X033967Y015570D01*
X033967Y016090D01*
X033867Y016090D01*
X033867Y015570D01*
X033482Y015570D01*
X033393Y015584D01*
X033308Y015612D01*
X033228Y015652D01*
X033155Y015705D01*
X033092Y015769D01*
X033039Y015841D01*
X032998Y015921D01*
X032971Y016007D01*
X032957Y016090D01*
X033867Y016090D01*
X033867Y016190D01*
X033867Y016189D02*
X008627Y016189D01*
X008627Y016347D02*
X032995Y016347D01*
X033088Y016506D02*
X008627Y016506D01*
X008627Y016664D02*
X033300Y016664D01*
X032967Y016030D02*
X008627Y016030D01*
X008627Y015872D02*
X033024Y015872D01*
X033148Y015713D02*
X008627Y015713D01*
X008627Y015555D02*
X035596Y015555D01*
X035596Y015713D02*
X034686Y015713D01*
X034810Y015872D02*
X035596Y015872D01*
X035596Y016030D02*
X034866Y016030D01*
X034839Y016347D02*
X035596Y016347D01*
X035596Y016189D02*
X033967Y016189D01*
X033967Y016030D02*
X033867Y016030D01*
X033867Y015872D02*
X033967Y015872D01*
X033967Y015713D02*
X033867Y015713D01*
X034746Y016506D02*
X035596Y016506D01*
X035596Y016664D02*
X034534Y016664D01*
X035596Y016823D02*
X008571Y016823D01*
X008207Y016347D02*
X007547Y016347D01*
X007627Y016189D02*
X008207Y016189D01*
X008207Y016030D02*
X007627Y016030D01*
X007627Y015872D02*
X008207Y015872D01*
X008207Y015713D02*
X007627Y015713D01*
X007627Y015555D02*
X008207Y015555D01*
X008207Y015396D02*
X007627Y015396D01*
X007627Y015238D02*
X008207Y015238D01*
X008207Y015079D02*
X007627Y015079D01*
X007627Y014921D02*
X008207Y014921D01*
X008207Y014762D02*
X007627Y014762D01*
X007627Y014604D02*
X008207Y014604D01*
X008207Y014445D02*
X007627Y014445D01*
X007627Y014287D02*
X008207Y014287D01*
X008207Y014128D02*
X007627Y014128D01*
X007627Y013970D02*
X008207Y013970D01*
X008207Y013811D02*
X007627Y013811D01*
X007627Y013653D02*
X008207Y013653D01*
X008207Y013494D02*
X007627Y013494D01*
X007627Y013336D02*
X008207Y013336D01*
X008207Y013177D02*
X007627Y013177D01*
X007627Y013019D02*
X008207Y013019D01*
X008207Y012860D02*
X007627Y012860D01*
X007627Y012702D02*
X008207Y012702D01*
X008207Y012543D02*
X007627Y012543D01*
X007627Y012385D02*
X008207Y012385D01*
X008207Y012226D02*
X007627Y012226D01*
X007627Y012068D02*
X008232Y012068D01*
X007627Y011909D02*
X033048Y011909D01*
X033188Y011751D02*
X007627Y011751D01*
X007627Y011592D02*
X035594Y011592D01*
X035594Y011434D02*
X007627Y011434D01*
X007627Y011275D02*
X035594Y011275D01*
X035593Y011117D02*
X007627Y011117D01*
X007627Y010958D02*
X035593Y010958D01*
X035593Y010800D02*
X007627Y010800D01*
X007627Y010641D02*
X033142Y010641D01*
X033155Y010655D02*
X033092Y010591D01*
X033039Y010519D01*
X032998Y010439D01*
X032971Y010353D01*
X032957Y010270D01*
X033867Y010270D01*
X033867Y010790D01*
X033482Y010790D01*
X033393Y010776D01*
X033308Y010748D01*
X033228Y010708D01*
X033155Y010655D01*
X033021Y010483D02*
X007627Y010483D01*
X007293Y010007D02*
X007127Y010007D01*
X007127Y010166D02*
X007207Y010166D01*
X007207Y010324D02*
X007127Y010324D01*
X007127Y010483D02*
X007207Y010483D01*
X007207Y010641D02*
X007127Y010641D01*
X007127Y010800D02*
X007207Y010800D01*
X007207Y010958D02*
X007127Y010958D01*
X007127Y011117D02*
X007207Y011117D01*
X007207Y011275D02*
X007127Y011275D01*
X007127Y011434D02*
X007207Y011434D01*
X007207Y011592D02*
X007127Y011592D01*
X007127Y011751D02*
X007207Y011751D01*
X007207Y011909D02*
X007127Y011909D01*
X007127Y012068D02*
X007207Y012068D01*
X007207Y012226D02*
X007127Y012226D01*
X007127Y012385D02*
X007207Y012385D01*
X007207Y012543D02*
X007127Y012543D01*
X007127Y012702D02*
X007207Y012702D01*
X007207Y012860D02*
X007127Y012860D01*
X007127Y013019D02*
X007207Y013019D01*
X007207Y013177D02*
X007127Y013177D01*
X007127Y013336D02*
X007207Y013336D01*
X007207Y013494D02*
X007127Y013494D01*
X007127Y013653D02*
X007207Y013653D01*
X007207Y013811D02*
X007127Y013811D01*
X007127Y013970D02*
X007207Y013970D01*
X007207Y014128D02*
X007127Y014128D01*
X007127Y014287D02*
X007207Y014287D01*
X007207Y014445D02*
X007127Y014445D01*
X007127Y014604D02*
X007207Y014604D01*
X007207Y014762D02*
X007127Y014762D01*
X007127Y014921D02*
X007207Y014921D01*
X007207Y015079D02*
X007127Y015079D01*
X007127Y015238D02*
X007207Y015238D01*
X007207Y015396D02*
X007127Y015396D01*
X007127Y015555D02*
X007207Y015555D01*
X007207Y015713D02*
X007127Y015713D01*
X007207Y015872D02*
X007022Y015872D01*
X006707Y015396D02*
X002783Y015396D01*
X001207Y015238D02*
X000897Y015238D01*
X000897Y015396D02*
X001050Y015396D01*
X000957Y015555D02*
X000897Y015555D01*
X000897Y015713D02*
X000957Y015713D01*
X000958Y015872D02*
X000897Y015872D01*
X000897Y016030D02*
X001116Y016030D01*
X001207Y016189D02*
X000897Y016189D01*
X000897Y016347D02*
X001099Y016347D01*
X000957Y016506D02*
X000897Y016506D01*
X000897Y016664D02*
X000957Y016664D01*
X000957Y016823D02*
X000897Y016823D01*
X000897Y016981D02*
X001067Y016981D01*
X001207Y017140D02*
X000897Y017140D01*
X000897Y017298D02*
X001148Y017298D01*
X000990Y017457D02*
X000897Y017457D01*
X000897Y017615D02*
X000957Y017615D01*
X000957Y017774D02*
X000897Y017774D01*
X000897Y017932D02*
X001018Y017932D01*
X000897Y018091D02*
X001177Y018091D01*
X001197Y018249D02*
X000897Y018249D01*
X000897Y018408D02*
X001039Y018408D01*
X000957Y018566D02*
X000897Y018566D01*
X000897Y018725D02*
X000957Y018725D01*
X000969Y018883D02*
X000897Y018883D01*
X000897Y019042D02*
X001128Y019042D01*
X001207Y019200D02*
X000897Y019200D01*
X000897Y019359D02*
X001088Y019359D01*
X000957Y019517D02*
X000897Y019517D01*
X000897Y019676D02*
X000957Y019676D01*
X000957Y019834D02*
X000897Y019834D01*
X000897Y019993D02*
X001079Y019993D01*
X001207Y020151D02*
X000897Y020151D01*
X000897Y020310D02*
X001207Y020310D01*
X001207Y020468D02*
X000897Y020468D01*
X000897Y020627D02*
X001207Y020627D01*
X001207Y020785D02*
X000897Y020785D01*
X000897Y020944D02*
X001207Y020944D01*
X001207Y021102D02*
X000897Y021102D01*
X000897Y021261D02*
X001207Y021261D01*
X001207Y021419D02*
X000897Y021419D01*
X000897Y021578D02*
X001207Y021578D01*
X001207Y021736D02*
X000897Y021736D01*
X000897Y021895D02*
X001487Y021895D01*
X001487Y022053D02*
X000897Y022053D01*
X000897Y022212D02*
X001500Y022212D01*
X001566Y022370D02*
X000897Y022370D01*
X000897Y022529D02*
X001717Y022529D01*
X002356Y022529D02*
X003668Y022529D01*
X003635Y022505D02*
X003572Y022441D01*
X003519Y022369D01*
X003478Y022289D01*
X003451Y022203D01*
X003437Y022115D01*
X003437Y021730D01*
X003957Y021730D01*
X003957Y022639D01*
X003873Y022626D01*
X003788Y022598D01*
X003708Y022558D01*
X003635Y022505D01*
X003520Y022370D02*
X002508Y022370D01*
X002573Y022212D02*
X003453Y022212D01*
X003437Y022053D02*
X002587Y022053D01*
X002587Y021895D02*
X003437Y021895D01*
X003437Y021736D02*
X002587Y021736D01*
X002587Y021578D02*
X003437Y021578D01*
X003437Y021630D02*
X003437Y021245D01*
X003451Y021157D01*
X003478Y021071D01*
X003519Y020991D01*
X003572Y020919D01*
X003635Y020855D01*
X003708Y020802D01*
X003788Y020762D01*
X003873Y020734D01*
X003957Y020721D01*
X003957Y021630D01*
X004057Y021630D01*
X004057Y021730D01*
X004577Y021730D01*
X004577Y022115D01*
X004563Y022203D01*
X004535Y022289D01*
X004494Y022369D01*
X004441Y022441D01*
X004378Y022505D01*
X004305Y022558D01*
X004225Y022598D01*
X004140Y022626D01*
X004057Y022639D01*
X004057Y021730D01*
X003957Y021730D01*
X003957Y021630D01*
X003437Y021630D01*
X003437Y021419D02*
X002587Y021419D01*
X002587Y021261D02*
X003437Y021261D01*
X003468Y021102D02*
X002554Y021102D01*
X002468Y020944D02*
X003554Y020944D01*
X003742Y020785D02*
X002255Y020785D01*
X001819Y020785D02*
X001627Y020785D01*
X001627Y020627D02*
X007737Y020627D01*
X007729Y020785D02*
X006185Y020785D01*
X006398Y020944D02*
X007515Y020944D01*
X007429Y021102D02*
X006484Y021102D01*
X006517Y021261D02*
X007397Y021261D01*
X007397Y021419D02*
X006517Y021419D01*
X006517Y021578D02*
X007397Y021578D01*
X007397Y021736D02*
X006517Y021736D01*
X006517Y021895D02*
X007397Y021895D01*
X007397Y022053D02*
X006517Y022053D01*
X006503Y022212D02*
X007410Y022212D01*
X007476Y022370D02*
X006438Y022370D01*
X006286Y022529D02*
X007627Y022529D01*
X008266Y022529D02*
X009578Y022529D01*
X009545Y022505D02*
X009482Y022441D01*
X009429Y022369D01*
X009388Y022289D01*
X009361Y022203D01*
X009347Y022115D01*
X009347Y021730D01*
X009867Y021730D01*
X009867Y022639D01*
X009783Y022626D01*
X009698Y022598D01*
X009618Y022558D01*
X009545Y022505D01*
X009430Y022370D02*
X008418Y022370D01*
X008483Y022212D02*
X009363Y022212D01*
X009347Y022053D02*
X008497Y022053D01*
X008497Y021895D02*
X009347Y021895D01*
X009347Y021736D02*
X008497Y021736D01*
X008497Y021578D02*
X009347Y021578D01*
X009347Y021630D02*
X009347Y021245D01*
X009361Y021157D01*
X009388Y021071D01*
X009429Y020991D01*
X009482Y020919D01*
X009545Y020855D01*
X009618Y020802D01*
X009698Y020762D01*
X009783Y020734D01*
X009867Y020721D01*
X009867Y021630D01*
X009967Y021630D01*
X009967Y021730D01*
X010487Y021730D01*
X010487Y022115D01*
X010473Y022203D01*
X010445Y022289D01*
X010404Y022369D01*
X010351Y022441D01*
X010288Y022505D01*
X010215Y022558D01*
X010135Y022598D01*
X010050Y022626D01*
X009967Y022639D01*
X009967Y021730D01*
X009867Y021730D01*
X009867Y021630D01*
X009347Y021630D01*
X009347Y021419D02*
X008497Y021419D01*
X008497Y021261D02*
X009347Y021261D01*
X009378Y021102D02*
X008464Y021102D01*
X008378Y020944D02*
X009464Y020944D01*
X009652Y020785D02*
X008165Y020785D01*
X008157Y020627D02*
X013657Y020627D01*
X013649Y020785D02*
X012105Y020785D01*
X012318Y020944D02*
X013435Y020944D01*
X013349Y021102D02*
X012404Y021102D01*
X012437Y021261D02*
X013317Y021261D01*
X013317Y021419D02*
X012437Y021419D01*
X012437Y021578D02*
X013317Y021578D01*
X013317Y021736D02*
X012437Y021736D01*
X012437Y021895D02*
X013317Y021895D01*
X013317Y022053D02*
X012437Y022053D01*
X012423Y022212D02*
X013330Y022212D01*
X013396Y022370D02*
X012358Y022370D01*
X012206Y022529D02*
X013547Y022529D01*
X014186Y022529D02*
X015488Y022529D01*
X015455Y022505D02*
X015392Y022441D01*
X015339Y022369D01*
X015298Y022289D01*
X015271Y022203D01*
X015257Y022115D01*
X015257Y021730D01*
X015777Y021730D01*
X015777Y022639D01*
X015693Y022626D01*
X015608Y022598D01*
X015528Y022558D01*
X015455Y022505D01*
X015340Y022370D02*
X014338Y022370D01*
X014403Y022212D02*
X015273Y022212D01*
X015257Y022053D02*
X014417Y022053D01*
X014417Y021895D02*
X015257Y021895D01*
X015257Y021736D02*
X014417Y021736D01*
X014417Y021578D02*
X015257Y021578D01*
X015257Y021630D02*
X015257Y021245D01*
X015271Y021157D01*
X015298Y021071D01*
X015339Y020991D01*
X015392Y020919D01*
X015455Y020855D01*
X015528Y020802D01*
X015608Y020762D01*
X015693Y020734D01*
X015777Y020721D01*
X015777Y021630D01*
X015877Y021630D01*
X015877Y021730D01*
X016397Y021730D01*
X016397Y022115D01*
X016383Y022203D01*
X016355Y022289D01*
X016314Y022369D01*
X016261Y022441D01*
X016198Y022505D01*
X016125Y022558D01*
X016045Y022598D01*
X015960Y022626D01*
X015877Y022639D01*
X015877Y021730D01*
X015777Y021730D01*
X015777Y021630D01*
X015257Y021630D01*
X015257Y021419D02*
X014417Y021419D01*
X014417Y021261D02*
X015257Y021261D01*
X015288Y021102D02*
X014384Y021102D01*
X014298Y020944D02*
X015374Y020944D01*
X015553Y020785D02*
X015562Y020785D01*
X015777Y020785D02*
X015877Y020785D01*
X015877Y020721D02*
X015960Y020734D01*
X016045Y020762D01*
X016125Y020802D01*
X016198Y020855D01*
X016261Y020919D01*
X016314Y020991D01*
X016355Y021071D01*
X016383Y021157D01*
X016397Y021245D01*
X016397Y021630D01*
X015877Y021630D01*
X015877Y020721D01*
X015790Y020627D02*
X019827Y020627D01*
X019819Y020785D02*
X018015Y020785D01*
X018228Y020944D02*
X019605Y020944D01*
X019519Y021102D02*
X018314Y021102D01*
X018347Y021261D02*
X019487Y021261D01*
X019487Y021419D02*
X018347Y021419D01*
X018347Y021578D02*
X019487Y021578D01*
X019487Y021736D02*
X018347Y021736D01*
X018347Y021895D02*
X019487Y021895D01*
X019487Y022053D02*
X018347Y022053D01*
X018333Y022212D02*
X019500Y022212D01*
X019566Y022370D02*
X018268Y022370D01*
X018116Y022529D02*
X019717Y022529D01*
X020356Y022529D02*
X021668Y022529D01*
X021635Y022505D02*
X021708Y022558D01*
X021788Y022598D01*
X021873Y022626D01*
X021957Y022639D01*
X021957Y021730D01*
X022057Y021730D01*
X022577Y021730D01*
X022577Y022115D01*
X022563Y022203D01*
X022535Y022289D01*
X022494Y022369D01*
X022441Y022441D01*
X022378Y022505D01*
X022305Y022558D01*
X022225Y022598D01*
X022140Y022626D01*
X022057Y022639D01*
X022057Y021730D01*
X022057Y021630D01*
X022577Y021630D01*
X022577Y021245D01*
X022563Y021157D01*
X022535Y021071D01*
X022494Y020991D01*
X022441Y020919D01*
X022378Y020855D01*
X022305Y020802D01*
X022225Y020762D01*
X022140Y020734D01*
X022057Y020721D01*
X022057Y021630D01*
X021957Y021630D01*
X021957Y020721D01*
X021873Y020734D01*
X021788Y020762D01*
X021708Y020802D01*
X021635Y020855D01*
X021572Y020919D01*
X021519Y020991D01*
X021478Y021071D01*
X021451Y021157D01*
X021437Y021245D01*
X021437Y021630D01*
X021957Y021630D01*
X021957Y021730D01*
X021437Y021730D01*
X021437Y022115D01*
X021451Y022203D01*
X021478Y022289D01*
X021519Y022369D01*
X021572Y022441D01*
X021635Y022505D01*
X021520Y022370D02*
X020508Y022370D01*
X020573Y022212D02*
X021453Y022212D01*
X021437Y022053D02*
X020587Y022053D01*
X020587Y021895D02*
X021437Y021895D01*
X021437Y021736D02*
X020587Y021736D01*
X020587Y021578D02*
X021437Y021578D01*
X021437Y021419D02*
X020587Y021419D01*
X020587Y021261D02*
X021437Y021261D01*
X021468Y021102D02*
X020554Y021102D01*
X020468Y020944D02*
X021554Y020944D01*
X021742Y020785D02*
X020255Y020785D01*
X020247Y020627D02*
X025737Y020627D01*
X025729Y020785D02*
X024185Y020785D01*
X024398Y020944D02*
X025515Y020944D01*
X025429Y021102D02*
X024484Y021102D01*
X024517Y021261D02*
X025397Y021261D01*
X025397Y021419D02*
X024517Y021419D01*
X024517Y021578D02*
X025397Y021578D01*
X025397Y021736D02*
X024517Y021736D01*
X024517Y021895D02*
X025397Y021895D01*
X025397Y022053D02*
X024517Y022053D01*
X024503Y022212D02*
X025410Y022212D01*
X025476Y022370D02*
X024438Y022370D01*
X024286Y022529D02*
X025627Y022529D01*
X026266Y022529D02*
X027578Y022529D01*
X027545Y022505D02*
X027482Y022441D01*
X027429Y022369D01*
X027388Y022289D01*
X027361Y022203D01*
X027347Y022115D01*
X027347Y021730D01*
X027867Y021730D01*
X027867Y022639D01*
X027783Y022626D01*
X027698Y022598D01*
X027618Y022558D01*
X027545Y022505D01*
X027430Y022370D02*
X026418Y022370D01*
X026483Y022212D02*
X027363Y022212D01*
X027347Y022053D02*
X026497Y022053D01*
X026497Y021895D02*
X027347Y021895D01*
X027347Y021736D02*
X026497Y021736D01*
X026497Y021578D02*
X027347Y021578D01*
X027347Y021630D02*
X027347Y021245D01*
X027361Y021157D01*
X027388Y021071D01*
X027429Y020991D01*
X027482Y020919D01*
X027545Y020855D01*
X027618Y020802D01*
X027698Y020762D01*
X027783Y020734D01*
X027867Y020721D01*
X027867Y021630D01*
X027967Y021630D01*
X027967Y021730D01*
X028487Y021730D01*
X028487Y022115D01*
X028473Y022203D01*
X028445Y022289D01*
X028404Y022369D01*
X028351Y022441D01*
X028288Y022505D01*
X028215Y022558D01*
X028135Y022598D01*
X028050Y022626D01*
X027967Y022639D01*
X027967Y021730D01*
X027867Y021730D01*
X027867Y021630D01*
X027347Y021630D01*
X027347Y021419D02*
X026497Y021419D01*
X026497Y021261D02*
X027347Y021261D01*
X027378Y021102D02*
X026464Y021102D01*
X026378Y020944D02*
X027464Y020944D01*
X027652Y020785D02*
X026165Y020785D01*
X026157Y020627D02*
X028490Y020627D01*
X028398Y020602D02*
X028684Y020679D01*
X028980Y020679D01*
X029267Y020602D01*
X029523Y020454D01*
X029732Y020244D01*
X029881Y019988D01*
X029957Y019702D01*
X029957Y019406D01*
X029881Y019119D01*
X029732Y018863D01*
X029523Y018653D01*
X029267Y018505D01*
X028980Y018429D01*
X028684Y018429D01*
X028398Y018505D01*
X028142Y018653D01*
X027932Y018863D01*
X027784Y019119D01*
X027707Y019406D01*
X027707Y019702D01*
X027784Y019988D01*
X027932Y020244D01*
X028142Y020454D01*
X028398Y020602D01*
X028166Y020468D02*
X026157Y020468D01*
X026157Y020310D02*
X027997Y020310D01*
X027878Y020151D02*
X026157Y020151D01*
X026157Y019993D02*
X027787Y019993D01*
X027743Y019834D02*
X026157Y019834D01*
X026157Y019676D02*
X027707Y019676D01*
X027707Y019517D02*
X026157Y019517D01*
X026157Y019359D02*
X027720Y019359D01*
X027762Y019200D02*
X026157Y019200D01*
X026157Y019042D02*
X027829Y019042D01*
X027921Y018883D02*
X026157Y018883D01*
X026157Y018725D02*
X028071Y018725D01*
X028293Y018566D02*
X026157Y018566D01*
X026157Y018408D02*
X031657Y018408D01*
X031657Y018566D02*
X029372Y018566D01*
X029594Y018725D02*
X031657Y018725D01*
X031657Y018883D02*
X029744Y018883D01*
X029836Y019042D02*
X031657Y019042D01*
X031657Y019200D02*
X029902Y019200D01*
X029945Y019359D02*
X031657Y019359D01*
X031657Y019517D02*
X029957Y019517D01*
X029957Y019676D02*
X031657Y019676D01*
X031657Y019834D02*
X029922Y019834D01*
X029878Y019993D02*
X031657Y019993D01*
X031657Y020151D02*
X029786Y020151D01*
X029667Y020310D02*
X031657Y020310D01*
X031657Y020468D02*
X029498Y020468D01*
X029669Y020785D02*
X028181Y020785D01*
X028215Y020802D02*
X028288Y020855D01*
X028351Y020919D01*
X028404Y020991D01*
X028445Y021071D01*
X028473Y021157D01*
X028487Y021245D01*
X028487Y021630D01*
X027967Y021630D01*
X027967Y020721D01*
X028050Y020734D01*
X028135Y020762D01*
X028215Y020802D01*
X028369Y020944D02*
X029455Y020944D01*
X029369Y021102D02*
X028455Y021102D01*
X028487Y021261D02*
X029337Y021261D01*
X029337Y021419D02*
X028487Y021419D01*
X028487Y021578D02*
X029337Y021578D01*
X029337Y021736D02*
X028487Y021736D01*
X028487Y021895D02*
X029337Y021895D01*
X029337Y022053D02*
X028487Y022053D01*
X028470Y022212D02*
X029350Y022212D01*
X029416Y022370D02*
X028403Y022370D01*
X028255Y022529D02*
X029567Y022529D01*
X029707Y022687D02*
X024165Y022687D01*
X024165Y022846D02*
X029707Y022846D01*
X029707Y023004D02*
X024165Y023004D01*
X024165Y023163D02*
X029707Y023163D01*
X029707Y023321D02*
X024165Y023321D01*
X023745Y023321D02*
X018050Y023321D01*
X018050Y023163D02*
X023745Y023163D01*
X023745Y023004D02*
X018050Y023004D01*
X018050Y022846D02*
X023745Y022846D01*
X023745Y022687D02*
X018050Y022687D01*
X017630Y022687D02*
X012127Y022687D01*
X012127Y022846D02*
X017630Y022846D01*
X017630Y023004D02*
X012127Y023004D01*
X012127Y023163D02*
X017630Y023163D01*
X017630Y023321D02*
X012127Y023321D01*
X011707Y023321D02*
X006184Y023321D01*
X006184Y023163D02*
X011707Y023163D01*
X011707Y023004D02*
X006184Y023004D01*
X006184Y022846D02*
X011707Y022846D01*
X011707Y022687D02*
X006184Y022687D01*
X005764Y022687D02*
X000897Y022687D01*
X000897Y022846D02*
X005764Y022846D01*
X005764Y023004D02*
X000897Y023004D01*
X000897Y023163D02*
X005764Y023163D01*
X005764Y023321D02*
X000897Y023321D01*
X000897Y023480D02*
X005764Y023480D01*
X005764Y023638D02*
X000897Y023638D01*
X000897Y023797D02*
X005794Y023797D01*
X005647Y022529D02*
X004345Y022529D01*
X004493Y022370D02*
X005496Y022370D01*
X005430Y022212D02*
X004560Y022212D01*
X004577Y022053D02*
X005417Y022053D01*
X005417Y021895D02*
X004577Y021895D01*
X004577Y021736D02*
X005417Y021736D01*
X005417Y021578D02*
X004577Y021578D01*
X004577Y021630D02*
X004057Y021630D01*
X004057Y020721D01*
X004140Y020734D01*
X004225Y020762D01*
X004305Y020802D01*
X004378Y020855D01*
X004441Y020919D01*
X004494Y020991D01*
X004535Y021071D01*
X004563Y021157D01*
X004577Y021245D01*
X004577Y021630D01*
X004577Y021419D02*
X005417Y021419D01*
X005417Y021261D02*
X004577Y021261D01*
X004545Y021102D02*
X005449Y021102D01*
X005535Y020944D02*
X004459Y020944D01*
X004271Y020785D02*
X005749Y020785D01*
X004057Y020785D02*
X003957Y020785D01*
X003957Y020944D02*
X004057Y020944D01*
X004057Y021102D02*
X003957Y021102D01*
X003957Y021261D02*
X004057Y021261D01*
X004057Y021419D02*
X003957Y021419D01*
X003957Y021578D02*
X004057Y021578D01*
X004057Y021736D02*
X003957Y021736D01*
X003957Y021895D02*
X004057Y021895D01*
X004057Y022053D02*
X003957Y022053D01*
X003957Y022212D02*
X004057Y022212D01*
X004057Y022370D02*
X003957Y022370D01*
X003957Y022529D02*
X004057Y022529D01*
X001627Y020468D02*
X007737Y020468D01*
X007737Y020310D02*
X001627Y020310D01*
X001627Y020151D02*
X007737Y020151D01*
X007737Y019993D02*
X002755Y019993D01*
X002079Y019993D02*
X001755Y019993D01*
X001877Y019834D02*
X001957Y019834D01*
X001957Y019676D02*
X001877Y019676D01*
X001877Y019517D02*
X001957Y019517D01*
X002795Y018408D02*
X025737Y018408D01*
X025737Y018566D02*
X020220Y018566D01*
X020247Y018725D02*
X025737Y018725D01*
X025737Y018883D02*
X020247Y018883D01*
X020247Y019042D02*
X025737Y019042D01*
X025737Y019200D02*
X020247Y019200D01*
X020247Y019359D02*
X025737Y019359D01*
X025737Y019517D02*
X020247Y019517D01*
X020247Y019676D02*
X025737Y019676D01*
X025737Y019834D02*
X020247Y019834D01*
X020247Y019993D02*
X025737Y019993D01*
X025737Y020151D02*
X020247Y020151D01*
X020247Y020310D02*
X025737Y020310D01*
X025737Y020468D02*
X020247Y020468D01*
X019827Y020468D02*
X015949Y020468D01*
X016040Y020310D02*
X019827Y020310D01*
X019827Y020151D02*
X016113Y020151D01*
X016155Y019993D02*
X019827Y019993D01*
X019827Y019834D02*
X016173Y019834D01*
X016173Y019676D02*
X019827Y019676D01*
X019827Y019517D02*
X016143Y019517D01*
X016100Y019359D02*
X019827Y019359D01*
X019827Y019200D02*
X016014Y019200D01*
X015903Y019042D02*
X019827Y019042D01*
X021957Y020785D02*
X022057Y020785D01*
X022057Y020944D02*
X021957Y020944D01*
X021957Y021102D02*
X022057Y021102D01*
X022057Y021261D02*
X021957Y021261D01*
X021957Y021419D02*
X022057Y021419D01*
X022057Y021578D02*
X021957Y021578D01*
X021957Y021736D02*
X022057Y021736D01*
X022057Y021895D02*
X021957Y021895D01*
X021957Y022053D02*
X022057Y022053D01*
X022057Y022212D02*
X021957Y022212D01*
X021957Y022370D02*
X022057Y022370D01*
X022057Y022529D02*
X021957Y022529D01*
X022345Y022529D02*
X023647Y022529D01*
X023496Y022370D02*
X022493Y022370D01*
X022560Y022212D02*
X023430Y022212D01*
X023417Y022053D02*
X022577Y022053D01*
X022577Y021895D02*
X023417Y021895D01*
X023417Y021736D02*
X022577Y021736D01*
X022577Y021578D02*
X023417Y021578D01*
X023417Y021419D02*
X022577Y021419D01*
X022577Y021261D02*
X023417Y021261D01*
X023449Y021102D02*
X022545Y021102D01*
X022459Y020944D02*
X023535Y020944D01*
X023749Y020785D02*
X022271Y020785D01*
X026157Y018249D02*
X031657Y018249D01*
X031657Y018091D02*
X026154Y018091D01*
X029174Y020627D02*
X031657Y020627D01*
X031649Y020785D02*
X030105Y020785D01*
X030318Y020944D02*
X031435Y020944D01*
X031349Y021102D02*
X030404Y021102D01*
X030437Y021261D02*
X031317Y021261D01*
X031317Y021419D02*
X030437Y021419D01*
X030437Y021578D02*
X031317Y021578D01*
X031317Y021736D02*
X030437Y021736D01*
X030437Y021895D02*
X031317Y021895D01*
X031317Y022053D02*
X030437Y022053D01*
X030423Y022212D02*
X031330Y022212D01*
X031396Y022370D02*
X030358Y022370D01*
X030206Y022529D02*
X031547Y022529D01*
X032186Y022529D02*
X033488Y022529D01*
X033455Y022505D02*
X033392Y022441D01*
X033339Y022369D01*
X033298Y022289D01*
X033271Y022203D01*
X033257Y022115D01*
X033257Y021730D01*
X033777Y021730D01*
X033777Y022639D01*
X033693Y022626D01*
X033608Y022598D01*
X033528Y022558D01*
X033455Y022505D01*
X033340Y022370D02*
X032338Y022370D01*
X032403Y022212D02*
X033273Y022212D01*
X033257Y022053D02*
X032417Y022053D01*
X032417Y021895D02*
X033257Y021895D01*
X033257Y021736D02*
X032417Y021736D01*
X032417Y021578D02*
X033257Y021578D01*
X033257Y021630D02*
X033257Y021245D01*
X033271Y021157D01*
X033298Y021071D01*
X033339Y020991D01*
X033392Y020919D01*
X033455Y020855D01*
X033528Y020802D01*
X033608Y020762D01*
X033693Y020734D01*
X033777Y020721D01*
X033777Y021630D01*
X033877Y021630D01*
X033877Y021730D01*
X034397Y021730D01*
X034397Y022115D01*
X034383Y022203D01*
X034355Y022289D01*
X034314Y022369D01*
X034261Y022441D01*
X034198Y022505D01*
X034125Y022558D01*
X034045Y022598D01*
X033960Y022626D01*
X033877Y022639D01*
X033877Y021730D01*
X033777Y021730D01*
X033777Y021630D01*
X033257Y021630D01*
X033257Y021419D02*
X032417Y021419D01*
X032417Y021261D02*
X033257Y021261D01*
X033288Y021102D02*
X032384Y021102D01*
X032298Y020944D02*
X033374Y020944D01*
X033562Y020785D02*
X032085Y020785D01*
X032077Y020627D02*
X035596Y020627D01*
X035579Y020785D02*
X034091Y020785D01*
X034125Y020802D02*
X034198Y020855D01*
X034261Y020919D01*
X034314Y020991D01*
X034355Y021071D01*
X034383Y021157D01*
X034397Y021245D01*
X034397Y021630D01*
X033877Y021630D01*
X033877Y020721D01*
X033960Y020734D01*
X034045Y020762D01*
X034125Y020802D01*
X034279Y020944D02*
X035365Y020944D01*
X035279Y021102D02*
X034365Y021102D01*
X034397Y021261D02*
X035247Y021261D01*
X035247Y021419D02*
X034397Y021419D01*
X034397Y021578D02*
X035247Y021578D01*
X035247Y021736D02*
X034397Y021736D01*
X034397Y021895D02*
X035247Y021895D01*
X035247Y022053D02*
X034397Y022053D01*
X034380Y022212D02*
X035260Y022212D01*
X035326Y022370D02*
X034313Y022370D01*
X034165Y022529D02*
X035477Y022529D01*
X035587Y022687D02*
X030127Y022687D01*
X030127Y022846D02*
X035587Y022846D01*
X035587Y023004D02*
X030127Y023004D01*
X030127Y023163D02*
X035587Y023163D01*
X035587Y023321D02*
X030127Y023321D01*
X027967Y022529D02*
X027867Y022529D01*
X027867Y022370D02*
X027967Y022370D01*
X027967Y022212D02*
X027867Y022212D01*
X027867Y022053D02*
X027967Y022053D01*
X027967Y021895D02*
X027867Y021895D01*
X027867Y021736D02*
X027967Y021736D01*
X027967Y021578D02*
X027867Y021578D01*
X027867Y021419D02*
X027967Y021419D01*
X027967Y021261D02*
X027867Y021261D01*
X027867Y021102D02*
X027967Y021102D01*
X027967Y020944D02*
X027867Y020944D01*
X027867Y020785D02*
X027967Y020785D01*
X031657Y017932D02*
X002815Y017932D01*
X002844Y017457D02*
X033707Y017457D01*
X033284Y017615D02*
X032077Y017615D01*
X032077Y017774D02*
X033085Y017774D01*
X033005Y017932D02*
X032077Y017932D01*
X032077Y018091D02*
X032977Y018091D01*
X032989Y018249D02*
X032077Y018249D01*
X032077Y018408D02*
X033055Y018408D01*
X033205Y018566D02*
X032077Y018566D01*
X033777Y020785D02*
X033877Y020785D01*
X033877Y020944D02*
X033777Y020944D01*
X033777Y021102D02*
X033877Y021102D01*
X033877Y021261D02*
X033777Y021261D01*
X033777Y021419D02*
X033877Y021419D01*
X033877Y021578D02*
X033777Y021578D01*
X033777Y021736D02*
X033877Y021736D01*
X033877Y021895D02*
X033777Y021895D01*
X033777Y022053D02*
X033877Y022053D01*
X033877Y022212D02*
X033777Y022212D01*
X033777Y022370D02*
X033877Y022370D01*
X033877Y022529D02*
X033777Y022529D01*
X036007Y022687D02*
X037807Y022687D01*
X037807Y022529D02*
X036116Y022529D01*
X036268Y022370D02*
X037807Y022370D01*
X037807Y022212D02*
X036333Y022212D01*
X036347Y022053D02*
X037807Y022053D01*
X037807Y021895D02*
X036347Y021895D01*
X036347Y021736D02*
X037807Y021736D01*
X037807Y021578D02*
X036347Y021578D01*
X036347Y021419D02*
X037807Y021419D01*
X037807Y021261D02*
X036347Y021261D01*
X036314Y021102D02*
X037807Y021102D01*
X037807Y020944D02*
X036228Y020944D01*
X036007Y022846D02*
X037807Y022846D01*
X037807Y023004D02*
X036007Y023004D01*
X036007Y023163D02*
X037807Y023163D01*
X037807Y023321D02*
X036007Y023321D01*
X036007Y023480D02*
X037807Y023480D01*
X037807Y023638D02*
X036007Y023638D01*
X035977Y023797D02*
X037807Y023797D01*
X037807Y023955D02*
X000897Y023955D01*
X000897Y024114D02*
X037807Y024114D01*
X037807Y024272D02*
X000897Y024272D01*
X000897Y024431D02*
X037807Y024431D01*
X037807Y024589D02*
X000897Y024589D01*
X000897Y024748D02*
X037807Y024748D01*
X037807Y024906D02*
X000897Y024906D01*
X000897Y025065D02*
X037807Y025065D01*
X035596Y015396D02*
X008627Y015396D01*
X008627Y015238D02*
X035596Y015238D01*
X035596Y015079D02*
X008627Y015079D01*
X008627Y014921D02*
X035596Y014921D01*
X035596Y014762D02*
X008627Y014762D01*
X008627Y014604D02*
X033182Y014604D01*
X033045Y014445D02*
X008627Y014445D01*
X008627Y014287D02*
X032980Y014287D01*
X032977Y014128D02*
X008627Y014128D01*
X008627Y013970D02*
X033014Y013970D01*
X033108Y013811D02*
X008627Y013811D01*
X008627Y013653D02*
X033339Y013653D01*
X033324Y012702D02*
X008627Y012702D01*
X008627Y012860D02*
X035595Y012860D01*
X035595Y012702D02*
X034509Y012702D01*
X034731Y012543D02*
X035595Y012543D01*
X035594Y012385D02*
X034821Y012385D01*
X034857Y012226D02*
X035594Y012226D01*
X035594Y012068D02*
X034851Y012068D01*
X034786Y011909D02*
X035594Y011909D01*
X035594Y011751D02*
X034645Y011751D01*
X034440Y010776D02*
X034352Y010790D01*
X033967Y010790D01*
X033967Y010270D01*
X034876Y010270D01*
X034863Y010353D01*
X034835Y010439D01*
X034794Y010519D01*
X034741Y010591D01*
X034678Y010655D01*
X034605Y010708D01*
X034525Y010748D01*
X034440Y010776D01*
X034692Y010641D02*
X035593Y010641D01*
X035593Y010483D02*
X034813Y010483D01*
X034867Y010324D02*
X035593Y010324D01*
X035593Y010166D02*
X034875Y010166D01*
X034876Y010170D02*
X033967Y010170D01*
X033967Y010270D01*
X033867Y010270D01*
X033867Y010170D01*
X033967Y010170D01*
X033967Y009650D01*
X034352Y009650D01*
X034440Y009664D01*
X034525Y009692D01*
X034605Y009732D01*
X034678Y009785D01*
X034741Y009849D01*
X034794Y009921D01*
X034835Y010001D01*
X034863Y010087D01*
X034876Y010170D01*
X034837Y010007D02*
X035593Y010007D01*
X035593Y009849D02*
X034741Y009849D01*
X034520Y009690D02*
X035592Y009690D01*
X035592Y009532D02*
X011627Y009532D01*
X011627Y009690D02*
X033313Y009690D01*
X033308Y009692D02*
X033393Y009664D01*
X033482Y009650D01*
X033867Y009650D01*
X033867Y010170D01*
X032957Y010170D01*
X032971Y010087D01*
X032998Y010001D01*
X033039Y009921D01*
X033092Y009849D01*
X033155Y009785D01*
X033228Y009732D01*
X033308Y009692D01*
X033092Y009849D02*
X011627Y009849D01*
X011627Y010007D02*
X032997Y010007D01*
X032958Y010166D02*
X011627Y010166D01*
X011570Y010324D02*
X032966Y010324D01*
X033867Y010324D02*
X033967Y010324D01*
X033967Y010166D02*
X033867Y010166D01*
X033867Y010007D02*
X033967Y010007D01*
X033967Y009849D02*
X033867Y009849D01*
X033867Y009690D02*
X033967Y009690D01*
X033967Y010483D02*
X033867Y010483D01*
X033867Y010641D02*
X033967Y010641D01*
X035592Y009373D02*
X011627Y009373D01*
X011627Y009215D02*
X035592Y009215D01*
X035592Y009056D02*
X011627Y009056D01*
X011627Y008898D02*
X035592Y008898D01*
X035592Y008739D02*
X034563Y008739D01*
X034754Y008581D02*
X035592Y008581D01*
X034461Y007471D02*
X037807Y007471D01*
X037807Y007313D02*
X034461Y007313D01*
X034460Y007154D02*
X037807Y007154D01*
X037807Y006996D02*
X034460Y006996D01*
X034459Y006837D02*
X037807Y006837D01*
X037807Y006679D02*
X034459Y006679D01*
X034459Y006520D02*
X037807Y006520D01*
X037807Y006362D02*
X034458Y006362D01*
X034458Y006203D02*
X037807Y006203D01*
X037807Y006045D02*
X034457Y006045D01*
X034457Y005886D02*
X037807Y005886D01*
X037807Y005728D02*
X034456Y005728D01*
X034456Y005569D02*
X037807Y005569D01*
X037807Y005411D02*
X034668Y005411D01*
X034758Y005252D02*
X037807Y005252D01*
X037807Y005094D02*
X034793Y005094D01*
X034793Y004935D02*
X037807Y004935D01*
X037807Y004777D02*
X034793Y004777D01*
X034793Y004618D02*
X037807Y004618D01*
X037807Y004460D02*
X034793Y004460D01*
X034793Y004301D02*
X037807Y004301D01*
X037807Y004143D02*
X034783Y004143D01*
X034717Y003984D02*
X037807Y003984D01*
X037807Y003826D02*
X034569Y003826D01*
X033918Y003826D02*
X032611Y003826D01*
X032635Y003843D02*
X032698Y003906D01*
X032751Y003979D01*
X032792Y004059D01*
X032819Y004144D01*
X032833Y004233D01*
X032833Y004618D01*
X032313Y004618D01*
X033693Y004618D01*
X033693Y004460D02*
X032833Y004460D01*
X032833Y004301D02*
X033693Y004301D01*
X033704Y004143D02*
X032819Y004143D01*
X032753Y003984D02*
X033770Y003984D01*
X033693Y004777D02*
X032833Y004777D01*
X032833Y004718D02*
X032833Y005103D01*
X032819Y005191D01*
X032792Y005277D01*
X032751Y005356D01*
X032698Y005429D01*
X032635Y005493D01*
X032562Y005545D01*
X032482Y005586D01*
X032397Y005614D01*
X032313Y005627D01*
X032313Y004718D01*
X032213Y004718D01*
X032213Y004618D01*
X030397Y004618D01*
X030397Y004460D02*
X031693Y004460D01*
X031693Y004618D02*
X031693Y004233D01*
X031707Y004144D01*
X031735Y004059D01*
X031776Y003979D01*
X031829Y003906D01*
X031892Y003843D01*
X031965Y003790D01*
X032045Y003750D01*
X032130Y003722D01*
X032213Y003709D01*
X032213Y004618D01*
X031693Y004618D01*
X031693Y004718D02*
X032213Y004718D01*
X032213Y005627D01*
X032130Y005614D01*
X032045Y005586D01*
X031965Y005545D01*
X031892Y005493D01*
X031829Y005429D01*
X031776Y005356D01*
X031735Y005277D01*
X031707Y005191D01*
X031693Y005103D01*
X031693Y004718D01*
X031693Y004777D02*
X030397Y004777D01*
X030397Y004935D02*
X031693Y004935D01*
X031693Y005094D02*
X030397Y005094D01*
X030367Y005252D02*
X031727Y005252D01*
X031815Y005411D02*
X030284Y005411D01*
X030079Y005569D02*
X032011Y005569D01*
X032213Y005569D02*
X032313Y005569D01*
X032313Y005411D02*
X032213Y005411D01*
X032213Y005252D02*
X032313Y005252D01*
X032313Y005094D02*
X032213Y005094D01*
X032213Y004935D02*
X032313Y004935D01*
X032313Y004777D02*
X032213Y004777D01*
X032313Y004718D02*
X032833Y004718D01*
X032833Y004935D02*
X033693Y004935D01*
X033693Y005094D02*
X032833Y005094D01*
X032800Y005252D02*
X033729Y005252D01*
X033818Y005411D02*
X032712Y005411D01*
X032515Y005569D02*
X034036Y005569D01*
X034036Y005728D02*
X030057Y005728D01*
X029938Y005886D02*
X034037Y005886D01*
X034037Y006045D02*
X026657Y006045D01*
X026340Y006203D02*
X034038Y006203D01*
X034038Y006362D02*
X026032Y006362D01*
X026035Y005886D02*
X025998Y005886D01*
X026117Y005728D02*
X026352Y005728D01*
X026139Y005569D02*
X026669Y005569D01*
X026344Y005411D02*
X027420Y005411D01*
X027336Y005252D02*
X026427Y005252D01*
X026457Y005094D02*
X027307Y005094D01*
X027307Y004935D02*
X026457Y004935D01*
X026457Y004777D02*
X027307Y004777D01*
X027307Y004618D02*
X026457Y004618D01*
X026457Y004460D02*
X027307Y004460D01*
X027307Y004301D02*
X026457Y004301D01*
X026441Y004143D02*
X027325Y004143D01*
X027394Y003984D02*
X026375Y003984D01*
X026220Y003826D02*
X027546Y003826D01*
X027827Y003826D02*
X027927Y003826D01*
X027927Y003984D02*
X027827Y003984D01*
X027827Y004143D02*
X027927Y004143D01*
X027927Y004301D02*
X027827Y004301D01*
X027827Y004460D02*
X027927Y004460D01*
X027927Y004618D02*
X027827Y004618D01*
X028447Y004618D02*
X029297Y004618D01*
X029297Y004460D02*
X028447Y004460D01*
X028447Y004301D02*
X029297Y004301D01*
X029312Y004143D02*
X028428Y004143D01*
X028359Y003984D02*
X029378Y003984D01*
X029533Y003826D02*
X028207Y003826D01*
X028447Y004777D02*
X029297Y004777D01*
X029297Y004935D02*
X028447Y004935D01*
X028447Y005094D02*
X029297Y005094D01*
X029327Y005252D02*
X028417Y005252D01*
X028334Y005411D02*
X029409Y005411D01*
X030397Y004301D02*
X031693Y004301D01*
X031708Y004143D02*
X030381Y004143D01*
X030315Y003984D02*
X031773Y003984D01*
X031916Y003826D02*
X030160Y003826D01*
X032213Y003826D02*
X032313Y003826D01*
X032313Y003709D02*
X032397Y003722D01*
X032482Y003750D01*
X032562Y003790D01*
X032635Y003843D01*
X032313Y003709D02*
X032313Y004618D01*
X032213Y004618D01*
X032313Y004618D02*
X032313Y004718D01*
X032313Y004460D02*
X032213Y004460D01*
X032213Y004301D02*
X032313Y004301D01*
X032313Y004143D02*
X032213Y004143D01*
X032213Y003984D02*
X032313Y003984D01*
X034039Y006520D02*
X025127Y006520D01*
X025127Y006679D02*
X034039Y006679D01*
X034039Y006837D02*
X025057Y006837D01*
X024707Y006362D02*
X024532Y006362D01*
X024627Y006203D02*
X024707Y006203D01*
X024755Y006045D02*
X024627Y006045D01*
X024207Y005886D02*
X024018Y005886D01*
X024137Y005728D02*
X024207Y005728D01*
X024231Y005569D02*
X024159Y005569D01*
X024364Y005411D02*
X025469Y005411D01*
X025387Y005252D02*
X024447Y005252D01*
X024477Y005094D02*
X025357Y005094D01*
X025357Y004935D02*
X024477Y004935D01*
X024477Y004777D02*
X025357Y004777D01*
X025357Y004618D02*
X024477Y004618D01*
X024477Y004460D02*
X025357Y004460D01*
X025357Y004301D02*
X024477Y004301D01*
X024461Y004143D02*
X025372Y004143D01*
X025438Y003984D02*
X024395Y003984D01*
X024240Y003826D02*
X025593Y003826D01*
X023613Y003826D02*
X022287Y003826D01*
X022439Y003984D02*
X023458Y003984D01*
X023392Y004143D02*
X022508Y004143D01*
X022527Y004301D02*
X023377Y004301D01*
X023377Y004460D02*
X022527Y004460D01*
X022527Y004618D02*
X023377Y004618D01*
X023377Y004777D02*
X022527Y004777D01*
X022527Y004935D02*
X023377Y004935D01*
X023377Y005094D02*
X022527Y005094D01*
X022497Y005252D02*
X023407Y005252D01*
X023489Y005411D02*
X022414Y005411D01*
X022007Y004618D02*
X021907Y004618D01*
X021907Y004460D02*
X022007Y004460D01*
X022007Y004301D02*
X021907Y004301D01*
X021907Y004143D02*
X022007Y004143D01*
X022007Y003984D02*
X021907Y003984D01*
X021907Y003826D02*
X022007Y003826D01*
X018755Y006045D02*
X018627Y006045D01*
X018627Y006203D02*
X018707Y006203D01*
X018707Y006362D02*
X018532Y006362D01*
X018207Y005886D02*
X017888Y005886D01*
X018007Y005728D02*
X018207Y005728D01*
X016329Y007471D02*
X016127Y007471D01*
X016127Y007630D02*
X016207Y007630D01*
X016207Y007788D02*
X016127Y007788D01*
X016127Y007947D02*
X016207Y007947D01*
X016207Y008105D02*
X016127Y008105D01*
X016127Y008264D02*
X016207Y008264D01*
X016207Y008422D02*
X011127Y008422D01*
X011127Y008581D02*
X011219Y008581D01*
X011207Y008739D02*
X011127Y008739D01*
X011127Y008898D02*
X011207Y008898D01*
X011207Y009056D02*
X011127Y009056D01*
X011127Y009215D02*
X011207Y009215D01*
X011207Y009373D02*
X011127Y009373D01*
X011127Y009532D02*
X011207Y009532D01*
X011207Y009690D02*
X011127Y009690D01*
X011207Y009849D02*
X011045Y009849D01*
X010707Y009373D02*
X010521Y009373D01*
X010627Y009215D02*
X010707Y009215D01*
X010707Y009056D02*
X010627Y009056D01*
X010627Y008898D02*
X010707Y008898D01*
X010707Y008739D02*
X010627Y008739D01*
X010627Y008581D02*
X010707Y008581D01*
X010707Y008422D02*
X010627Y008422D01*
X010627Y008264D02*
X010707Y008264D01*
X010707Y008105D02*
X010627Y008105D01*
X009707Y007154D02*
X009627Y007154D01*
X009627Y006996D02*
X009804Y006996D01*
X008207Y005886D02*
X008157Y005886D01*
X008157Y005728D02*
X008207Y005728D01*
X008231Y005569D02*
X008179Y005569D01*
X008384Y005411D02*
X009460Y005411D01*
X009376Y005252D02*
X008467Y005252D01*
X008497Y005094D02*
X009347Y005094D01*
X009347Y004935D02*
X008497Y004935D01*
X008497Y004777D02*
X009347Y004777D01*
X009347Y004618D02*
X008497Y004618D01*
X008497Y004460D02*
X009347Y004460D01*
X009347Y004301D02*
X008497Y004301D01*
X008481Y004143D02*
X009365Y004143D01*
X009434Y003984D02*
X008415Y003984D01*
X008260Y003826D02*
X009586Y003826D01*
X009867Y003826D02*
X009967Y003826D01*
X009967Y003984D02*
X009867Y003984D01*
X009867Y004143D02*
X009967Y004143D01*
X009967Y004301D02*
X009867Y004301D01*
X009867Y004460D02*
X009967Y004460D01*
X009967Y004618D02*
X009867Y004618D01*
X010487Y004618D02*
X011337Y004618D01*
X011337Y004460D02*
X010487Y004460D01*
X010487Y004301D02*
X011337Y004301D01*
X011352Y004143D02*
X010468Y004143D01*
X010399Y003984D02*
X011418Y003984D01*
X011573Y003826D02*
X010247Y003826D01*
X010487Y004777D02*
X011337Y004777D01*
X011337Y004935D02*
X010487Y004935D01*
X010487Y005094D02*
X011337Y005094D01*
X011367Y005252D02*
X010457Y005252D01*
X010374Y005411D02*
X011449Y005411D01*
X012119Y005569D02*
X013634Y005569D01*
X013657Y005728D02*
X012097Y005728D01*
X011978Y005886D02*
X013657Y005886D01*
X013429Y005411D02*
X012324Y005411D01*
X012407Y005252D02*
X013347Y005252D01*
X013317Y005094D02*
X012437Y005094D01*
X012437Y004935D02*
X013317Y004935D01*
X013317Y004777D02*
X012437Y004777D01*
X012437Y004618D02*
X013317Y004618D01*
X013317Y004460D02*
X012437Y004460D01*
X012437Y004301D02*
X013317Y004301D01*
X013332Y004143D02*
X012421Y004143D01*
X012355Y003984D02*
X013398Y003984D01*
X013553Y003826D02*
X012200Y003826D01*
X007633Y003826D02*
X006280Y003826D01*
X006435Y003984D02*
X007478Y003984D01*
X007412Y004143D02*
X006501Y004143D01*
X006517Y004301D02*
X007397Y004301D01*
X007397Y004460D02*
X006517Y004460D01*
X006517Y004618D02*
X007397Y004618D01*
X007397Y004777D02*
X006517Y004777D01*
X006517Y004935D02*
X007397Y004935D01*
X007397Y005094D02*
X006517Y005094D01*
X006487Y005252D02*
X007427Y005252D01*
X007509Y005411D02*
X006404Y005411D01*
X006199Y005569D02*
X007714Y005569D01*
X007737Y005728D02*
X006177Y005728D01*
X006177Y005886D02*
X007737Y005886D01*
X007737Y006045D02*
X006177Y006045D01*
X006177Y006203D02*
X007737Y006203D01*
X007737Y006362D02*
X006082Y006362D01*
X005734Y005569D02*
X004283Y005569D01*
X004464Y005411D02*
X005529Y005411D01*
X005447Y005252D02*
X004547Y005252D01*
X004577Y005094D02*
X005417Y005094D01*
X005417Y004935D02*
X004577Y004935D01*
X004577Y004777D02*
X005417Y004777D01*
X005417Y004618D02*
X004577Y004618D01*
X004577Y004460D02*
X005417Y004460D01*
X005417Y004301D02*
X004577Y004301D01*
X004558Y004143D02*
X005432Y004143D01*
X005498Y003984D02*
X004489Y003984D01*
X004337Y003826D02*
X005653Y003826D01*
X003524Y003984D02*
X002505Y003984D01*
X002571Y004143D02*
X003455Y004143D01*
X003437Y004301D02*
X002587Y004301D01*
X002587Y004460D02*
X003437Y004460D01*
X003437Y004618D02*
X002587Y004618D01*
X002587Y004777D02*
X003437Y004777D01*
X003437Y004935D02*
X002587Y004935D01*
X002587Y005094D02*
X003437Y005094D01*
X003466Y005252D02*
X002557Y005252D01*
X002474Y005411D02*
X003550Y005411D01*
X000897Y003667D02*
X037807Y003667D01*
X037807Y003509D02*
X000897Y003509D01*
X000897Y003350D02*
X037807Y003350D01*
X037807Y003192D02*
X000897Y003192D01*
X000897Y003033D02*
X037807Y003033D01*
X037807Y002875D02*
X000897Y002875D01*
X000897Y002716D02*
X036461Y002716D01*
X036203Y002558D02*
X000897Y002558D01*
X000897Y002399D02*
X036045Y002399D01*
X035941Y002241D02*
X000897Y002241D01*
X000897Y002082D02*
X035860Y002082D01*
X035817Y001924D02*
X000897Y001924D01*
X000897Y001765D02*
X035792Y001765D01*
X035792Y001607D02*
X000897Y001607D01*
X000897Y001448D02*
X035814Y001448D01*
X035857Y001290D02*
X000897Y001290D01*
X000897Y001131D02*
X035935Y001131D01*
X036033Y000973D02*
X000897Y000973D01*
X000897Y000814D02*
X036192Y000814D01*
X037789Y002399D02*
X037807Y002399D01*
X037807Y002558D02*
X037630Y002558D01*
X037807Y002716D02*
X037372Y002716D01*
X033211Y007788D02*
X020106Y007788D01*
X016627Y007947D02*
X033057Y007947D01*
X032991Y008105D02*
X016627Y008105D01*
X016627Y008264D02*
X032977Y008264D01*
X033003Y008422D02*
X016627Y008422D01*
X016627Y008581D02*
X033079Y008581D01*
X033270Y008739D02*
X016627Y008739D01*
X008627Y012543D02*
X033102Y012543D01*
X034495Y013653D02*
X035595Y013653D01*
X035596Y013811D02*
X034726Y013811D01*
X034819Y013970D02*
X035596Y013970D01*
X035595Y013494D02*
X008627Y013494D01*
X008627Y013336D02*
X035595Y013336D01*
X035595Y013177D02*
X008627Y013177D01*
X008627Y013019D02*
X035595Y013019D01*
X035596Y014445D02*
X034788Y014445D01*
X034651Y014604D02*
X035596Y014604D01*
X017579Y020785D02*
X016091Y020785D01*
X016279Y020944D02*
X017365Y020944D01*
X017279Y021102D02*
X016365Y021102D01*
X016397Y021261D02*
X017247Y021261D01*
X017247Y021419D02*
X016397Y021419D01*
X016397Y021578D02*
X017247Y021578D01*
X017247Y021736D02*
X016397Y021736D01*
X016397Y021895D02*
X017247Y021895D01*
X017247Y022053D02*
X016397Y022053D01*
X016380Y022212D02*
X017260Y022212D01*
X017326Y022370D02*
X016313Y022370D01*
X016165Y022529D02*
X017477Y022529D01*
X015877Y022529D02*
X015777Y022529D01*
X015777Y022370D02*
X015877Y022370D01*
X015877Y022212D02*
X015777Y022212D01*
X015777Y022053D02*
X015877Y022053D01*
X015877Y021895D02*
X015777Y021895D01*
X015777Y021736D02*
X015877Y021736D01*
X015877Y021578D02*
X015777Y021578D01*
X015777Y021419D02*
X015877Y021419D01*
X015877Y021261D02*
X015777Y021261D01*
X015777Y021102D02*
X015877Y021102D01*
X015877Y020944D02*
X015777Y020944D01*
X014543Y020785D02*
X014085Y020785D01*
X014077Y020627D02*
X014306Y020627D01*
X013657Y020468D02*
X008157Y020468D01*
X008157Y020310D02*
X013657Y020310D01*
X013657Y020151D02*
X008157Y020151D01*
X008157Y019993D02*
X013657Y019993D01*
X013657Y019834D02*
X008157Y019834D01*
X008157Y019676D02*
X013657Y019676D01*
X013657Y019517D02*
X008081Y019517D01*
X009867Y020785D02*
X009967Y020785D01*
X009967Y020721D02*
X010050Y020734D01*
X010135Y020762D01*
X010215Y020802D01*
X010288Y020855D01*
X010351Y020919D01*
X010404Y020991D01*
X010445Y021071D01*
X010473Y021157D01*
X010487Y021245D01*
X010487Y021630D01*
X009967Y021630D01*
X009967Y020721D01*
X009967Y020944D02*
X009867Y020944D01*
X009867Y021102D02*
X009967Y021102D01*
X009967Y021261D02*
X009867Y021261D01*
X009867Y021419D02*
X009967Y021419D01*
X009967Y021578D02*
X009867Y021578D01*
X009867Y021736D02*
X009967Y021736D01*
X009967Y021895D02*
X009867Y021895D01*
X009867Y022053D02*
X009967Y022053D01*
X009967Y022212D02*
X009867Y022212D01*
X009867Y022370D02*
X009967Y022370D01*
X009967Y022529D02*
X009867Y022529D01*
X010255Y022529D02*
X011567Y022529D01*
X011416Y022370D02*
X010403Y022370D01*
X010470Y022212D02*
X011350Y022212D01*
X011337Y022053D02*
X010487Y022053D01*
X010487Y021895D02*
X011337Y021895D01*
X011337Y021736D02*
X010487Y021736D01*
X010487Y021578D02*
X011337Y021578D01*
X011337Y021419D02*
X010487Y021419D01*
X010487Y021261D02*
X011337Y021261D01*
X011369Y021102D02*
X010455Y021102D01*
X010369Y020944D02*
X011455Y020944D01*
X011669Y020785D02*
X010181Y020785D01*
X006707Y015238D02*
X006627Y015238D01*
X006627Y015079D02*
X006707Y015079D01*
X006707Y014921D02*
X006627Y014921D01*
X006627Y014762D02*
X006707Y014762D01*
X006707Y014604D02*
X006627Y014604D01*
X006627Y014445D02*
X006707Y014445D01*
X006707Y014287D02*
X006627Y014287D01*
X006627Y014128D02*
X006707Y014128D01*
X006707Y013970D02*
X006627Y013970D01*
X006627Y013811D02*
X006707Y013811D01*
X006707Y013653D02*
X006627Y013653D01*
X006627Y013494D02*
X006707Y013494D01*
X006707Y013336D02*
X006627Y013336D01*
X006627Y013177D02*
X006707Y013177D01*
X006707Y013019D02*
X006627Y013019D01*
X006627Y012860D02*
X006707Y012860D01*
X006707Y012702D02*
X006627Y012702D01*
X006627Y012543D02*
X006707Y012543D01*
X006707Y012385D02*
X006627Y012385D01*
X006627Y012226D02*
X006707Y012226D01*
X006707Y012068D02*
X006627Y012068D01*
X006627Y011909D02*
X006707Y011909D01*
X006707Y011751D02*
X006627Y011751D01*
X006627Y011592D02*
X006707Y011592D01*
X006707Y011434D02*
X006627Y011434D01*
X006627Y011275D02*
X006707Y011275D01*
X006707Y011117D02*
X006627Y011117D01*
X006627Y010958D02*
X006707Y010958D01*
X006707Y010800D02*
X006627Y010800D01*
X006627Y010641D02*
X006707Y010641D01*
X006707Y010483D02*
X006627Y010483D01*
X006627Y010324D02*
X006707Y010324D01*
X006707Y010166D02*
X006627Y010166D01*
X006627Y010007D02*
X006707Y010007D01*
X006707Y009849D02*
X006627Y009849D01*
X006627Y009690D02*
X006707Y009690D01*
X006768Y009532D02*
X006627Y009532D01*
X005207Y009532D02*
X005127Y009532D01*
X005127Y009690D02*
X005207Y009690D01*
X005207Y009849D02*
X005127Y009849D01*
X005127Y010007D02*
X005207Y010007D01*
X005207Y010166D02*
X005127Y010166D01*
X005127Y010324D02*
X005207Y010324D01*
X005207Y010483D02*
X005127Y010483D01*
X005127Y010641D02*
X005207Y010641D01*
X005207Y010800D02*
X005127Y010800D01*
X005127Y010958D02*
X005207Y010958D01*
X005207Y011117D02*
X005127Y011117D01*
X005127Y011275D02*
X005207Y011275D01*
X005207Y011434D02*
X005127Y011434D01*
X005127Y011592D02*
X005207Y011592D01*
X005207Y011751D02*
X005127Y011751D01*
X005127Y011909D02*
X005207Y011909D01*
X005207Y012068D02*
X005127Y012068D01*
X005127Y012226D02*
X005207Y012226D01*
X005207Y012385D02*
X005127Y012385D01*
X005127Y012543D02*
X005207Y012543D01*
X005207Y012702D02*
X005127Y012702D01*
X005127Y012860D02*
X005207Y012860D01*
X005207Y013019D02*
X005127Y013019D01*
X005127Y013177D02*
X005207Y013177D01*
X005207Y013336D02*
X005127Y013336D01*
X005127Y013494D02*
X005207Y013494D01*
X005207Y013653D02*
X005127Y013653D01*
X005083Y013811D02*
X005207Y013811D01*
X005207Y013970D02*
X002778Y013970D01*
X001207Y014128D02*
X000897Y014128D01*
X000897Y013970D02*
X001056Y013970D01*
X000957Y013811D02*
X000897Y013811D01*
X000897Y013653D02*
X000957Y013653D01*
X000957Y013494D02*
X000897Y013494D01*
X000897Y013336D02*
X001111Y013336D01*
X001207Y013177D02*
X000897Y013177D01*
X000897Y013019D02*
X001105Y013019D01*
X000957Y012860D02*
X000897Y012860D01*
X000897Y012702D02*
X000957Y012702D01*
X000957Y012543D02*
X000897Y012543D01*
X000897Y012385D02*
X001062Y012385D01*
X001207Y012226D02*
X000897Y012226D01*
X000897Y012068D02*
X001154Y012068D01*
X000995Y011909D02*
X000897Y011909D01*
X000897Y011751D02*
X000957Y011751D01*
X000957Y011592D02*
X000897Y011592D01*
X000897Y011434D02*
X001013Y011434D01*
X000897Y011275D02*
X001171Y011275D01*
X001226Y011140D02*
X000957Y010871D01*
X000957Y010489D01*
X001226Y010220D01*
X001607Y010220D01*
X001877Y010489D01*
X001877Y010871D01*
X001607Y011140D01*
X001226Y011140D01*
X001203Y011117D02*
X000897Y011117D01*
X000897Y010958D02*
X001044Y010958D01*
X000957Y010800D02*
X000897Y010800D01*
X000897Y010641D02*
X000957Y010641D01*
X000964Y010483D02*
X000897Y010483D01*
X000897Y010324D02*
X001122Y010324D01*
X001226Y010140D02*
X000957Y009871D01*
X000957Y009489D01*
X001226Y009220D01*
X001607Y009220D01*
X001877Y009489D01*
X001877Y009871D01*
X001607Y010140D01*
X001226Y010140D01*
X001093Y010007D02*
X000897Y010007D01*
X000897Y009849D02*
X000957Y009849D01*
X000957Y009690D02*
X000897Y009690D01*
X000897Y009532D02*
X000957Y009532D01*
X000897Y009373D02*
X001073Y009373D01*
X000897Y009215D02*
X002707Y009215D01*
X002437Y009056D02*
X002397Y009056D01*
X002397Y008898D02*
X002437Y008898D01*
X002437Y008739D02*
X002397Y008739D01*
X002397Y008581D02*
X002437Y008581D01*
X002437Y008422D02*
X002397Y008422D01*
X002397Y008264D02*
X002437Y008264D01*
X002679Y008264D02*
X002707Y008264D01*
X002707Y008105D02*
X000897Y008105D01*
X000897Y007947D02*
X001165Y007947D01*
X001218Y008200D02*
X000937Y008481D01*
X000937Y008660D01*
X001397Y008660D01*
X001437Y008660D01*
X001437Y008700D01*
X001897Y008700D01*
X001897Y008879D01*
X001615Y009160D01*
X001437Y009160D01*
X001437Y008700D01*
X001397Y008700D01*
X001397Y009160D01*
X001218Y009160D01*
X000937Y008879D01*
X000937Y008700D01*
X001397Y008700D01*
X001397Y008660D01*
X001397Y008200D01*
X001218Y008200D01*
X001154Y008264D02*
X000897Y008264D01*
X000897Y008422D02*
X000996Y008422D01*
X000937Y008581D02*
X000897Y008581D01*
X000897Y008739D02*
X000937Y008739D01*
X000955Y008898D02*
X000897Y008898D01*
X000897Y009056D02*
X001114Y009056D01*
X001397Y009056D02*
X001437Y009056D01*
X001437Y008898D02*
X001397Y008898D01*
X001397Y008739D02*
X001437Y008739D01*
X001437Y008660D02*
X001897Y008660D01*
X001897Y008481D01*
X001615Y008200D01*
X001437Y008200D01*
X001437Y008660D01*
X001437Y008581D02*
X001397Y008581D01*
X001397Y008422D02*
X001437Y008422D01*
X001437Y008264D02*
X001397Y008264D01*
X001679Y008264D02*
X002154Y008264D01*
X001996Y008422D02*
X001838Y008422D01*
X001897Y008581D02*
X001937Y008581D01*
X001937Y008739D02*
X001897Y008739D01*
X001878Y008898D02*
X001955Y008898D01*
X002114Y009056D02*
X001719Y009056D01*
X001760Y009373D02*
X002073Y009373D01*
X001957Y009532D02*
X001877Y009532D01*
X001877Y009690D02*
X001957Y009690D01*
X001957Y009849D02*
X001877Y009849D01*
X001740Y010007D02*
X002093Y010007D01*
X002122Y010324D02*
X001711Y010324D01*
X001870Y010483D02*
X001964Y010483D01*
X001957Y010641D02*
X001877Y010641D01*
X001877Y010800D02*
X001957Y010800D01*
X002044Y010958D02*
X001789Y010958D01*
X001631Y011117D02*
X002203Y011117D01*
X002171Y011275D02*
X001662Y011275D01*
X001821Y011434D02*
X002013Y011434D01*
X001957Y011592D02*
X001877Y011592D01*
X001877Y011751D02*
X001957Y011751D01*
X001995Y011909D02*
X001838Y011909D01*
X002662Y011275D02*
X002707Y011275D01*
X002707Y011117D02*
X002631Y011117D01*
X002707Y010166D02*
X000897Y010166D01*
X000897Y007788D02*
X000919Y007788D01*
X002130Y007947D02*
X002707Y007947D01*
X002707Y007788D02*
X002376Y007788D01*
X002535Y007630D02*
X002707Y007630D01*
X002707Y007471D02*
X002632Y007471D01*
X005127Y008105D02*
X005207Y008105D01*
X005207Y008264D02*
X005127Y008264D01*
X005127Y008422D02*
X005207Y008422D01*
X005207Y008581D02*
X005127Y008581D01*
X005127Y008739D02*
X005207Y008739D01*
X005207Y008898D02*
X005127Y008898D01*
X005127Y009056D02*
X005207Y009056D01*
X005207Y009215D02*
X005127Y009215D01*
X005127Y009373D02*
X005207Y009373D01*
X004707Y013019D02*
X004627Y013019D01*
X004627Y013177D02*
X004707Y013177D01*
X004707Y013336D02*
X004558Y013336D01*
X001160Y014287D02*
X000897Y014287D01*
X000897Y014445D02*
X001001Y014445D01*
X000957Y014604D02*
X000897Y014604D01*
X000897Y014762D02*
X000957Y014762D01*
X001007Y014921D02*
X000897Y014921D01*
X000897Y015079D02*
X001165Y015079D01*
D13*
X001417Y015180D02*
X001417Y014680D01*
X001417Y015180D02*
X006417Y015180D01*
X006417Y009180D01*
X010417Y009180D01*
X010417Y007680D01*
X015417Y007680D01*
X015417Y006680D01*
X018917Y006680D01*
X018917Y006180D01*
X020917Y006180D01*
X020917Y005680D01*
X023927Y005680D01*
X023927Y004680D01*
X024417Y005680D02*
X025907Y005680D01*
X025907Y004680D01*
X026917Y005680D02*
X029847Y005680D01*
X029847Y004680D01*
X026917Y005680D02*
X025917Y006180D01*
X024917Y006180D01*
X024917Y006680D01*
X021917Y006680D01*
X021917Y007180D01*
X019917Y007180D01*
X019917Y007680D01*
X016417Y007680D01*
X016417Y008680D01*
X011417Y008680D01*
X011417Y010180D01*
X007417Y010180D01*
X007417Y016180D01*
X001417Y016180D01*
X001417Y015680D01*
X002417Y015680D02*
X006917Y015680D01*
X006917Y009680D01*
X010917Y009680D01*
X010917Y008180D01*
X015917Y008180D01*
X015917Y007180D01*
X019417Y007180D01*
X019417Y006680D01*
X021417Y006680D01*
X021417Y006180D01*
X024417Y006180D01*
X024417Y005680D01*
X019987Y005680D02*
X019987Y004680D01*
X019987Y005680D02*
X018417Y005680D01*
X018417Y006180D01*
X014917Y006180D01*
X014917Y007180D01*
X009917Y007180D01*
X009917Y008680D01*
X005917Y008680D01*
X005917Y014680D01*
X002417Y014680D01*
X001417Y014180D02*
X005417Y014180D01*
X005417Y008180D01*
X009417Y008180D01*
X009417Y006680D01*
X014417Y006680D01*
X014417Y005680D01*
X017797Y005680D01*
X017797Y004680D01*
X013867Y004680D02*
X013867Y006180D01*
X008917Y006180D01*
X008917Y007680D01*
X004917Y007680D01*
X004917Y013680D01*
X002417Y013680D01*
X002417Y012680D02*
X003917Y012680D01*
X003917Y006680D01*
X007947Y006680D01*
X007947Y004680D01*
X008417Y005680D02*
X011887Y005680D01*
X011887Y004680D01*
X011917Y004680D01*
X008417Y005680D02*
X008417Y007180D01*
X004417Y007180D01*
X004417Y013180D01*
X001417Y013180D01*
X001417Y012680D01*
X001417Y012180D02*
X003417Y012180D01*
X003417Y006180D01*
X005967Y006180D01*
X005967Y004680D01*
X002917Y005680D02*
X002917Y011680D01*
X002417Y011680D01*
X001417Y011680D02*
X001417Y012180D01*
X001417Y013680D02*
X001417Y014180D01*
X001417Y016680D02*
X001417Y017180D01*
X033917Y017180D01*
X033917Y018110D01*
X031867Y017680D02*
X031867Y021680D01*
X029917Y021680D02*
X029917Y023680D01*
X023955Y023680D01*
X023955Y021680D01*
X023967Y021680D01*
X025947Y021680D02*
X025947Y018180D01*
X001417Y018180D01*
X001417Y017680D01*
X002417Y017680D02*
X031867Y017680D01*
X033917Y014180D02*
X033917Y014170D01*
X033917Y014180D02*
X035806Y014180D01*
X035806Y021680D01*
X035797Y021680D01*
X035797Y023680D01*
X029917Y023680D01*
X029887Y021680D02*
X029917Y021680D01*
X023955Y023680D02*
X017840Y023680D01*
X011917Y023680D01*
X005974Y023680D01*
X005974Y021680D01*
X005967Y021680D01*
X007947Y021680D02*
X007947Y019680D01*
X002417Y019680D01*
X002417Y018680D02*
X020037Y018680D01*
X020037Y021680D01*
X017840Y021680D02*
X017840Y023680D01*
X017797Y021680D02*
X017840Y021680D01*
X013867Y021680D02*
X013867Y019180D01*
X001417Y019180D01*
X001417Y018680D01*
X001417Y019680D02*
X001417Y021680D01*
X002037Y021680D01*
X002417Y016680D02*
X008417Y016680D01*
X008417Y012180D01*
X033917Y012180D01*
X033917Y012190D01*
X035806Y014180D02*
X035801Y008250D01*
X033917Y008250D01*
X034253Y008222D01*
X034243Y004668D01*
X011917Y021680D02*
X011917Y023680D01*
X011887Y021680D02*
X011917Y021680D01*
X002917Y005680D02*
X001917Y005680D01*
X001917Y004680D01*
X002037Y004680D01*
M02*
