G75*
%MOIN*%
%OFA0B0*%
%FSLAX24Y24*%
%IPPOS*%
%LPD*%
%AMOC8*
5,1,8,0,0,1.08239X$1,22.5*
%
%ADD10C,0.0780*%
%ADD11OC8,0.0600*%
D10*
X002037Y004290D02*
X002037Y005070D01*
X004007Y005070D02*
X004007Y004290D01*
X005967Y004290D02*
X005967Y005070D01*
X007947Y005070D02*
X007947Y004290D01*
X009917Y004290D02*
X009917Y005070D01*
X011887Y005070D02*
X011887Y004290D01*
X013867Y004290D02*
X013867Y005070D01*
X015827Y005070D02*
X015827Y004290D01*
X017797Y004290D02*
X017797Y005070D01*
X019987Y005070D02*
X019987Y004290D01*
X021957Y004290D02*
X021957Y005070D01*
X023927Y005070D02*
X023927Y004290D01*
X025907Y004290D02*
X025907Y005070D01*
X027877Y005070D02*
X027877Y004290D01*
X029847Y004290D02*
X029847Y005070D01*
X032263Y005058D02*
X032263Y004278D01*
X034243Y004278D02*
X034243Y005058D01*
X034307Y008250D02*
X033527Y008250D01*
X033527Y010220D02*
X034307Y010220D01*
X034307Y012190D02*
X033527Y012190D01*
X033527Y014170D02*
X034307Y014170D01*
X034307Y016140D02*
X033527Y016140D01*
X033527Y018110D02*
X034307Y018110D01*
X033827Y021290D02*
X033827Y022070D01*
X031867Y022070D02*
X031867Y021290D01*
X029887Y021290D02*
X029887Y022070D01*
X027917Y022070D02*
X027917Y021290D01*
X025947Y021290D02*
X025947Y022070D01*
X023967Y022070D02*
X023967Y021290D01*
X022007Y021290D02*
X022007Y022070D01*
X020037Y022070D02*
X020037Y021290D01*
X017797Y021290D02*
X017797Y022070D01*
X015827Y022070D02*
X015827Y021290D01*
X013867Y021290D02*
X013867Y022070D01*
X011887Y022070D02*
X011887Y021290D01*
X009917Y021290D02*
X009917Y022070D01*
X007947Y022070D02*
X007947Y021290D01*
X005967Y021290D02*
X005967Y022070D01*
X004007Y022070D02*
X004007Y021290D01*
X002037Y021290D02*
X002037Y022070D01*
X035797Y022070D02*
X035797Y021290D01*
D11*
X002417Y019680D03*
X002417Y018680D03*
X002417Y017680D03*
X002417Y016680D03*
X002417Y015680D03*
X002417Y014680D03*
X001417Y014680D03*
X001417Y015680D03*
X001417Y016680D03*
X001417Y017680D03*
X001417Y018680D03*
X001417Y019680D03*
X001417Y013680D03*
X002417Y013680D03*
X002417Y012680D03*
X002417Y011680D03*
X002417Y010680D03*
X002417Y009680D03*
X002417Y008680D03*
X001417Y008680D03*
X001417Y009680D03*
X001417Y010680D03*
X001417Y011680D03*
X001417Y012680D03*
M02*
