G75*
%MOIN*%
%OFA0B0*%
%FSLAX24Y24*%
%IPPOS*%
%LPD*%
%AMOC8*
5,1,8,0,0,1.08239X$1,22.5*
%
%ADD10OC8,0.0600*%
%ADD11C,0.0600*%
%ADD12C,0.0780*%
%ADD13OC8,0.0520*%
%ADD14C,0.0660*%
%ADD15OC8,0.0630*%
%ADD16C,0.0750*%
%ADD17OC8,0.0750*%
%ADD18C,0.0160*%
%ADD19C,0.0320*%
%ADD20C,0.0060*%
D10*
X030350Y021800D03*
X031350Y021800D03*
X031350Y022800D03*
X031350Y023800D03*
X030350Y023800D03*
X030350Y022800D03*
X042300Y022800D03*
X042300Y023800D03*
X043300Y023800D03*
X043300Y022800D03*
X043300Y021800D03*
X043300Y020800D03*
X042300Y020800D03*
X042300Y021800D03*
X042300Y019800D03*
X043300Y019800D03*
X043300Y018800D03*
X043300Y017800D03*
X042300Y017800D03*
X042300Y018800D03*
X042300Y016800D03*
X042300Y015800D03*
X043300Y015800D03*
X043300Y016800D03*
X043300Y014800D03*
X042300Y014800D03*
X042300Y024800D03*
X042300Y025800D03*
X043300Y025800D03*
X043300Y024800D03*
X043300Y026800D03*
X043300Y027800D03*
X042300Y027800D03*
X042300Y026800D03*
X042300Y028800D03*
X042300Y029800D03*
X043300Y029800D03*
X043300Y028800D03*
X043300Y030800D03*
X042300Y030800D03*
X042300Y031800D03*
X043300Y031800D03*
D11*
X039300Y032100D02*
X039300Y031500D01*
X038300Y031500D02*
X038300Y032100D01*
X037300Y032100D02*
X037300Y031500D01*
X036300Y031500D02*
X036300Y032100D01*
X035300Y032100D02*
X035300Y031500D01*
X034300Y031500D02*
X034300Y032100D01*
X033300Y032100D02*
X033300Y031500D01*
X032300Y031500D02*
X032300Y032100D01*
X030300Y032100D02*
X030300Y031500D01*
X029300Y031500D02*
X029300Y032100D01*
X028300Y032100D02*
X028300Y031500D01*
X027300Y031500D02*
X027300Y032100D01*
X026300Y032100D02*
X026300Y031500D01*
X025300Y031500D02*
X025300Y032100D01*
X024300Y032100D02*
X024300Y031500D01*
X023300Y031500D02*
X023300Y032100D01*
X021700Y032100D02*
X021700Y031500D01*
X020700Y031500D02*
X020700Y032100D01*
X019700Y032100D02*
X019700Y031500D01*
X018700Y031500D02*
X018700Y032100D01*
X017700Y032100D02*
X017700Y031500D01*
X016700Y031500D02*
X016700Y032100D01*
X015700Y032100D02*
X015700Y031500D01*
X014700Y031500D02*
X014700Y032100D01*
X011050Y016850D02*
X010450Y016850D01*
X010450Y015850D02*
X011050Y015850D01*
X011050Y014850D02*
X010450Y014850D01*
X018300Y013100D02*
X018300Y012500D01*
X019300Y012500D02*
X019300Y013100D01*
X020300Y013100D02*
X020300Y012500D01*
X021300Y012500D02*
X021300Y013100D01*
X022300Y013100D02*
X022300Y012500D01*
X023300Y012500D02*
X023300Y013100D01*
X025300Y013100D02*
X025300Y012500D01*
X026300Y012500D02*
X026300Y013100D01*
X027300Y013100D02*
X027300Y012500D01*
X028300Y012500D02*
X028300Y013100D01*
X029300Y013100D02*
X029300Y012500D01*
X030300Y012500D02*
X030300Y013100D01*
X031300Y013100D02*
X031300Y012500D01*
X032300Y012500D02*
X032300Y013100D01*
X034300Y013100D02*
X034300Y012500D01*
X035300Y012500D02*
X035300Y013100D01*
X036300Y013100D02*
X036300Y012500D01*
X037300Y012500D02*
X037300Y013100D01*
X038300Y013100D02*
X038300Y012500D01*
X039300Y012500D02*
X039300Y013100D01*
X040300Y013100D02*
X040300Y012500D01*
X041300Y012500D02*
X041300Y013100D01*
X041400Y009850D02*
X040800Y009850D01*
X040800Y008850D02*
X041400Y008850D01*
X041400Y007850D02*
X040800Y007850D01*
X038700Y007850D02*
X038100Y007850D01*
X038100Y008850D02*
X038700Y008850D01*
X038700Y009850D02*
X038100Y009850D01*
D12*
X034970Y009440D02*
X034970Y008660D01*
X033000Y008660D02*
X033000Y009440D01*
X031030Y009440D02*
X031030Y008660D01*
X028730Y008660D02*
X028730Y009440D01*
X026760Y009440D02*
X026760Y008660D01*
X024790Y008660D02*
X024790Y009440D01*
X022810Y009440D02*
X022810Y008660D01*
X020840Y008660D02*
X020840Y009440D01*
X018870Y009440D02*
X018870Y008660D01*
X016680Y008660D02*
X016680Y009440D01*
X014710Y009440D02*
X014710Y008660D01*
X012740Y008660D02*
X012740Y009440D01*
X010760Y009440D02*
X010760Y008660D01*
X008790Y008660D02*
X008790Y009440D01*
X006820Y009440D02*
X006820Y008660D01*
X007510Y019740D02*
X008290Y019740D01*
X008290Y021720D02*
X007510Y021720D01*
X007510Y023680D02*
X008290Y023680D01*
X008290Y025660D02*
X007510Y025660D01*
X007070Y035010D02*
X007070Y035790D01*
X009040Y035790D02*
X009040Y035010D01*
X011010Y035010D02*
X011010Y035790D01*
X012990Y035790D02*
X012990Y035010D01*
X014960Y035010D02*
X014960Y035790D01*
X016930Y035790D02*
X016930Y035010D01*
X019270Y035010D02*
X019270Y035790D01*
X021240Y035790D02*
X021240Y035010D01*
X023210Y035010D02*
X023210Y035790D01*
X025190Y035790D02*
X025190Y035010D01*
X027160Y035010D02*
X027160Y035790D01*
X029130Y035790D02*
X029130Y035010D01*
X031430Y035010D02*
X031430Y035790D01*
X033400Y035790D02*
X033400Y035010D01*
X035370Y035010D02*
X035370Y035790D01*
X039210Y035721D02*
X039210Y034941D01*
X041180Y034941D02*
X041180Y035721D01*
D13*
X016445Y015703D03*
X015445Y015703D03*
X008650Y028400D03*
X008650Y029400D03*
D14*
X010300Y024950D03*
X010300Y020950D03*
D15*
X034254Y023964D03*
X035254Y023964D03*
D16*
X016451Y013426D03*
X013246Y014799D03*
D17*
X014451Y013426D03*
X013246Y016799D03*
D18*
X005830Y006830D02*
X005830Y037770D01*
X043770Y037770D01*
X043770Y027819D01*
X043764Y027732D01*
X043770Y027714D01*
X043770Y027695D01*
X043803Y027615D01*
X043831Y027532D01*
X043843Y027518D01*
X043851Y027500D01*
X043912Y027439D01*
X043969Y027373D01*
X043986Y027364D01*
X044000Y027351D01*
X044080Y027318D01*
X044770Y026972D01*
X044770Y013520D01*
X044365Y013114D01*
X044334Y013228D01*
X044188Y013482D01*
X043982Y013688D01*
X043728Y013834D01*
X043446Y013910D01*
X043154Y013910D01*
X042872Y013834D01*
X042618Y013688D01*
X042412Y013482D01*
X042266Y013228D01*
X042190Y012946D01*
X042190Y012654D01*
X042266Y012372D01*
X042412Y012118D01*
X042618Y011912D01*
X042872Y011766D01*
X043154Y011690D01*
X043446Y011690D01*
X043728Y011766D01*
X043770Y011790D01*
X043770Y006830D01*
X005830Y006830D01*
X005830Y006934D02*
X043770Y006934D01*
X043770Y007093D02*
X005830Y007093D01*
X005830Y007251D02*
X043770Y007251D01*
X043770Y007410D02*
X041593Y007410D01*
X041584Y007405D02*
X041652Y007439D01*
X041713Y007484D01*
X041766Y007537D01*
X041811Y007598D01*
X041845Y007666D01*
X041868Y007738D01*
X041880Y007812D01*
X041880Y007830D01*
X041120Y007830D01*
X041120Y007870D01*
X041080Y007870D01*
X041080Y008330D01*
X040762Y008330D01*
X040688Y008318D01*
X040616Y008295D01*
X040548Y008261D01*
X040487Y008216D01*
X040434Y008163D01*
X040389Y008102D01*
X040355Y008034D01*
X040332Y007962D01*
X040320Y007888D01*
X040320Y007870D01*
X041080Y007870D01*
X041080Y007830D01*
X041120Y007830D01*
X041120Y007370D01*
X041438Y007370D01*
X041512Y007382D01*
X041584Y007405D01*
X041788Y007568D02*
X043770Y007568D01*
X043770Y007727D02*
X041865Y007727D01*
X041880Y007870D02*
X041880Y007888D01*
X041868Y007962D01*
X041845Y008034D01*
X041811Y008102D01*
X041766Y008163D01*
X041713Y008216D01*
X041652Y008261D01*
X041584Y008295D01*
X041512Y008318D01*
X041438Y008330D01*
X041120Y008330D01*
X041120Y007870D01*
X041880Y007870D01*
X041880Y007885D02*
X043770Y007885D01*
X043770Y008044D02*
X041840Y008044D01*
X041727Y008202D02*
X043770Y008202D01*
X043770Y008361D02*
X035420Y008361D01*
X035419Y008360D02*
X035500Y008555D01*
X035500Y009545D01*
X035419Y009740D01*
X035270Y009889D01*
X035075Y009970D01*
X034865Y009970D01*
X034670Y009889D01*
X034521Y009740D01*
X034440Y009545D01*
X034440Y008555D01*
X034521Y008360D01*
X034670Y008211D01*
X034865Y008130D01*
X035075Y008130D01*
X035270Y008211D01*
X035419Y008360D01*
X035485Y008519D02*
X037809Y008519D01*
X037851Y008477D02*
X038012Y008410D01*
X038788Y008410D01*
X038949Y008477D01*
X039073Y008601D01*
X039140Y008762D01*
X039140Y008938D01*
X039073Y009099D01*
X038949Y009223D01*
X038788Y009290D01*
X038012Y009290D01*
X037851Y009223D01*
X037727Y009099D01*
X037660Y008938D01*
X037660Y008762D01*
X037727Y008601D01*
X037851Y008477D01*
X037916Y008295D02*
X037848Y008261D01*
X037787Y008216D01*
X037734Y008163D01*
X037689Y008102D01*
X037655Y008034D01*
X037632Y007962D01*
X037620Y007888D01*
X037620Y007870D01*
X038380Y007870D01*
X038380Y008330D01*
X038062Y008330D01*
X037988Y008318D01*
X037916Y008295D01*
X037773Y008202D02*
X035249Y008202D01*
X034691Y008202D02*
X033339Y008202D01*
X033371Y008225D02*
X033435Y008289D01*
X033488Y008361D01*
X033528Y008441D01*
X033556Y008527D01*
X033570Y008615D01*
X033570Y009000D01*
X033050Y009000D01*
X033050Y009100D01*
X033570Y009100D01*
X033570Y009485D01*
X033556Y009573D01*
X033528Y009659D01*
X033488Y009739D01*
X033435Y009811D01*
X033371Y009875D01*
X033299Y009928D01*
X033219Y009968D01*
X033133Y009996D01*
X033050Y010009D01*
X033050Y009100D01*
X032950Y009100D01*
X032950Y010009D01*
X032867Y009996D01*
X032781Y009968D01*
X032701Y009928D01*
X032629Y009875D01*
X032565Y009811D01*
X032512Y009739D01*
X032472Y009659D01*
X032444Y009573D01*
X032430Y009485D01*
X032430Y009100D01*
X032950Y009100D01*
X032950Y009000D01*
X033050Y009000D01*
X033050Y008091D01*
X033133Y008104D01*
X033219Y008132D01*
X033299Y008172D01*
X033371Y008225D01*
X033487Y008361D02*
X034520Y008361D01*
X034455Y008519D02*
X033554Y008519D01*
X033570Y008678D02*
X034440Y008678D01*
X034440Y008836D02*
X033570Y008836D01*
X033570Y008995D02*
X034440Y008995D01*
X034440Y009153D02*
X033570Y009153D01*
X033570Y009312D02*
X034440Y009312D01*
X034440Y009470D02*
X033570Y009470D01*
X033538Y009629D02*
X034474Y009629D01*
X034567Y009787D02*
X033452Y009787D01*
X033263Y009946D02*
X034805Y009946D01*
X035135Y009946D02*
X037630Y009946D01*
X037630Y009921D02*
X037630Y009920D01*
X037630Y009850D01*
X037630Y009780D01*
X037630Y009780D01*
X037630Y009780D01*
X037669Y009740D01*
X037727Y009601D01*
X037851Y009477D01*
X038012Y009410D01*
X038788Y009410D01*
X038949Y009477D01*
X039073Y009601D01*
X039106Y009680D01*
X040394Y009680D01*
X040427Y009601D01*
X040551Y009477D01*
X040712Y009410D01*
X041488Y009410D01*
X041649Y009477D01*
X041773Y009601D01*
X041840Y009762D01*
X041840Y009938D01*
X041773Y010099D01*
X041649Y010223D01*
X041488Y010290D01*
X040712Y010290D01*
X040551Y010223D01*
X040427Y010099D01*
X040394Y010020D01*
X039106Y010020D01*
X039073Y010099D01*
X038949Y010223D01*
X038788Y010290D01*
X038012Y010290D01*
X037971Y010273D01*
X037976Y012202D01*
X038051Y012127D01*
X038212Y012060D01*
X038388Y012060D01*
X038549Y012127D01*
X038673Y012251D01*
X038740Y012412D01*
X038740Y013188D01*
X038673Y013349D01*
X038549Y013473D01*
X038388Y013540D01*
X038212Y013540D01*
X038051Y013473D01*
X037979Y013402D01*
X037985Y015466D01*
X037985Y015467D01*
X037985Y015537D01*
X037985Y015607D01*
X037985Y015608D01*
X037935Y015657D01*
X037886Y015706D01*
X037885Y015706D01*
X037885Y015707D01*
X037815Y015707D01*
X037745Y015707D01*
X037745Y015706D01*
X035221Y015698D01*
X035121Y015598D01*
X035122Y015457D01*
X035222Y015358D01*
X037645Y015366D01*
X037639Y013383D01*
X037549Y013473D01*
X037388Y013540D01*
X037212Y013540D01*
X037051Y013473D01*
X036927Y013349D01*
X036860Y013188D01*
X036860Y012412D01*
X036927Y012251D01*
X037051Y012127D01*
X037212Y012060D01*
X037388Y012060D01*
X037549Y012127D01*
X037636Y012214D01*
X037630Y009921D01*
X037630Y009787D02*
X035373Y009787D01*
X035466Y009629D02*
X037715Y009629D01*
X037868Y009470D02*
X035500Y009470D01*
X035500Y009312D02*
X043770Y009312D01*
X043770Y009470D02*
X041632Y009470D01*
X041785Y009629D02*
X043770Y009629D01*
X043770Y009787D02*
X041840Y009787D01*
X041837Y009946D02*
X043770Y009946D01*
X043770Y010104D02*
X041768Y010104D01*
X041554Y010263D02*
X043770Y010263D01*
X043770Y010421D02*
X037972Y010421D01*
X037972Y010580D02*
X043770Y010580D01*
X043770Y010738D02*
X037972Y010738D01*
X037973Y010897D02*
X043770Y010897D01*
X043770Y011055D02*
X037973Y011055D01*
X037974Y011214D02*
X043770Y011214D01*
X043770Y011372D02*
X037974Y011372D01*
X037974Y011531D02*
X043770Y011531D01*
X043770Y011689D02*
X037975Y011689D01*
X037975Y011848D02*
X042730Y011848D01*
X042524Y012006D02*
X037976Y012006D01*
X037976Y012165D02*
X038013Y012165D01*
X037636Y012165D02*
X037587Y012165D01*
X037636Y012006D02*
X034470Y012006D01*
X034470Y012094D02*
X034549Y012127D01*
X034673Y012251D01*
X034740Y012412D01*
X034740Y013188D01*
X034673Y013349D01*
X034549Y013473D01*
X034388Y013540D01*
X034212Y013540D01*
X034051Y013473D01*
X033927Y013349D01*
X033860Y013188D01*
X033860Y012412D01*
X033927Y012251D01*
X034051Y012127D01*
X034130Y012094D01*
X034130Y011970D01*
X031031Y011970D01*
X030961Y011970D01*
X030961Y011970D01*
X030961Y011970D01*
X030911Y011920D01*
X030861Y011871D01*
X030861Y011871D01*
X030861Y011870D01*
X030861Y011800D01*
X030857Y009942D01*
X030730Y009889D01*
X030581Y009740D01*
X030500Y009545D01*
X030500Y008555D01*
X030581Y008360D01*
X030730Y008211D01*
X030925Y008130D01*
X031135Y008130D01*
X031330Y008211D01*
X031479Y008360D01*
X031560Y008555D01*
X031560Y009545D01*
X031479Y009740D01*
X031330Y009889D01*
X031197Y009944D01*
X031201Y011630D01*
X034370Y011630D01*
X034470Y011730D01*
X034470Y012094D01*
X034587Y012165D02*
X035013Y012165D01*
X035051Y012127D02*
X034927Y012251D01*
X034860Y012412D01*
X034860Y013188D01*
X034927Y013349D01*
X035051Y013473D01*
X035212Y013540D01*
X035388Y013540D01*
X035549Y013473D01*
X035673Y013349D01*
X035740Y013188D01*
X035740Y012412D01*
X035673Y012251D01*
X035549Y012127D01*
X035388Y012060D01*
X035212Y012060D01*
X035051Y012127D01*
X034897Y012323D02*
X034703Y012323D01*
X034740Y012482D02*
X034860Y012482D01*
X034860Y012640D02*
X034740Y012640D01*
X034740Y012799D02*
X034860Y012799D01*
X034860Y012957D02*
X034740Y012957D01*
X034740Y013116D02*
X034860Y013116D01*
X034896Y013274D02*
X034704Y013274D01*
X034590Y013433D02*
X035010Y013433D01*
X035590Y013433D02*
X036010Y013433D01*
X036051Y013473D02*
X035927Y013349D01*
X035860Y013188D01*
X035860Y012412D01*
X035927Y012251D01*
X036051Y012127D01*
X036212Y012060D01*
X036388Y012060D01*
X036549Y012127D01*
X036673Y012251D01*
X036740Y012412D01*
X036740Y013188D01*
X036673Y013349D01*
X036549Y013473D01*
X036388Y013540D01*
X036212Y013540D01*
X036051Y013473D01*
X035896Y013274D02*
X035704Y013274D01*
X035740Y013116D02*
X035860Y013116D01*
X035860Y012957D02*
X035740Y012957D01*
X035740Y012799D02*
X035860Y012799D01*
X035860Y012640D02*
X035740Y012640D01*
X035740Y012482D02*
X035860Y012482D01*
X035897Y012323D02*
X035703Y012323D01*
X035587Y012165D02*
X036013Y012165D01*
X036587Y012165D02*
X037013Y012165D01*
X036897Y012323D02*
X036703Y012323D01*
X036740Y012482D02*
X036860Y012482D01*
X036860Y012640D02*
X036740Y012640D01*
X036740Y012799D02*
X036860Y012799D01*
X036860Y012957D02*
X036740Y012957D01*
X036740Y013116D02*
X036860Y013116D01*
X036896Y013274D02*
X036704Y013274D01*
X036590Y013433D02*
X037010Y013433D01*
X037590Y013433D02*
X037639Y013433D01*
X037640Y013591D02*
X016941Y013591D01*
X016966Y013529D02*
X016888Y013718D01*
X016743Y013863D01*
X016554Y013941D01*
X016349Y013941D01*
X016160Y013863D01*
X016015Y013718D01*
X015936Y013529D01*
X015936Y013324D01*
X016015Y013135D01*
X016160Y012990D01*
X016349Y012911D01*
X016554Y012911D01*
X016743Y012990D01*
X016888Y013135D01*
X016966Y013324D01*
X016966Y013529D01*
X016966Y013433D02*
X018010Y013433D01*
X018051Y013473D02*
X017927Y013349D01*
X017860Y013188D01*
X017860Y012412D01*
X017927Y012251D01*
X018051Y012127D01*
X018212Y012060D01*
X018388Y012060D01*
X018549Y012127D01*
X018673Y012251D01*
X018740Y012412D01*
X018740Y013188D01*
X018673Y013349D01*
X018549Y013473D01*
X018388Y013540D01*
X018212Y013540D01*
X018051Y013473D01*
X017896Y013274D02*
X016946Y013274D01*
X016869Y013116D02*
X017860Y013116D01*
X017860Y012957D02*
X016664Y012957D01*
X016239Y012957D02*
X014767Y012957D01*
X014681Y012871D02*
X015006Y013197D01*
X015006Y013426D01*
X014451Y013426D01*
X014451Y013426D01*
X014451Y012871D01*
X014221Y012871D01*
X013896Y013197D01*
X013896Y013426D01*
X014451Y013426D01*
X014451Y013426D01*
X014451Y012871D01*
X014681Y012871D01*
X014451Y012957D02*
X014451Y012957D01*
X014451Y013116D02*
X014451Y013116D01*
X014451Y013274D02*
X014451Y013274D01*
X014451Y013426D02*
X014451Y013426D01*
X013896Y013426D01*
X013896Y013656D01*
X014221Y013981D01*
X014451Y013981D01*
X014451Y013426D01*
X014451Y013426D01*
X015006Y013426D01*
X015006Y013656D01*
X014681Y013981D01*
X014451Y013981D01*
X014451Y013426D01*
X014451Y013433D02*
X014451Y013433D01*
X014451Y013591D02*
X014451Y013591D01*
X014451Y013750D02*
X014451Y013750D01*
X014451Y013908D02*
X014451Y013908D01*
X014148Y013908D02*
X010953Y013908D01*
X010946Y013910D02*
X010654Y013910D01*
X010372Y013834D01*
X010118Y013688D01*
X009912Y013482D01*
X009766Y013228D01*
X009690Y012946D01*
X009690Y012654D01*
X009766Y012372D01*
X009912Y012118D01*
X010118Y011912D01*
X010372Y011766D01*
X010449Y011745D01*
X006810Y011742D01*
X006739Y011742D01*
X006689Y011692D01*
X006640Y011643D01*
X006640Y011642D01*
X006640Y011572D01*
X006638Y009938D01*
X006520Y009889D01*
X006371Y009740D01*
X006290Y009545D01*
X006290Y008555D01*
X006371Y008360D01*
X006520Y008211D01*
X006715Y008130D01*
X006925Y008130D01*
X007120Y008211D01*
X007269Y008360D01*
X007350Y008555D01*
X007350Y009545D01*
X007269Y009740D01*
X007120Y009889D01*
X006978Y009948D01*
X006980Y011402D01*
X010635Y011405D01*
X010593Y011363D01*
X010592Y011363D01*
X010592Y011293D01*
X010588Y009942D01*
X010460Y009889D01*
X010311Y009740D01*
X010230Y009545D01*
X010230Y008555D01*
X010311Y008360D01*
X010460Y008211D01*
X010655Y008130D01*
X010865Y008130D01*
X011060Y008211D01*
X011209Y008360D01*
X011290Y008555D01*
X011290Y009545D01*
X011209Y009740D01*
X011060Y009889D01*
X010928Y009944D01*
X010932Y011123D01*
X026299Y011130D01*
X026370Y011130D01*
X026370Y011130D01*
X026370Y011130D01*
X026420Y011180D01*
X026470Y011230D01*
X026470Y011300D01*
X026470Y012094D01*
X026549Y012127D01*
X026673Y012251D01*
X026740Y012412D01*
X026740Y013188D01*
X026673Y013349D01*
X026549Y013473D01*
X026388Y013540D01*
X026212Y013540D01*
X026051Y013473D01*
X025927Y013349D01*
X025860Y013188D01*
X025860Y012412D01*
X025927Y012251D01*
X026051Y012127D01*
X026130Y012094D01*
X026130Y011470D01*
X025410Y011470D01*
X025456Y011515D01*
X025456Y011516D01*
X025457Y011517D01*
X025457Y011586D01*
X025462Y012091D01*
X025549Y012127D01*
X025673Y012251D01*
X025740Y012412D01*
X025740Y013188D01*
X025673Y013349D01*
X025549Y013473D01*
X025388Y013540D01*
X025212Y013540D01*
X025051Y013473D01*
X024927Y013349D01*
X024860Y013188D01*
X024860Y012412D01*
X024927Y012251D01*
X025051Y012127D01*
X025123Y012097D01*
X025119Y011757D01*
X011153Y011746D01*
X011228Y011766D01*
X011482Y011912D01*
X011688Y012118D01*
X011834Y012372D01*
X011910Y012654D01*
X011910Y012946D01*
X011834Y013228D01*
X011688Y013482D01*
X011482Y013688D01*
X011228Y013834D01*
X010946Y013910D01*
X010647Y013908D02*
X005830Y013908D01*
X005830Y013750D02*
X010225Y013750D01*
X010021Y013591D02*
X005830Y013591D01*
X005830Y013433D02*
X009884Y013433D01*
X009792Y013274D02*
X005830Y013274D01*
X005830Y013116D02*
X009735Y013116D01*
X009693Y012957D02*
X005830Y012957D01*
X005830Y012799D02*
X009690Y012799D01*
X009694Y012640D02*
X005830Y012640D01*
X005830Y012482D02*
X009736Y012482D01*
X009794Y012323D02*
X005830Y012323D01*
X005830Y012165D02*
X009885Y012165D01*
X010024Y012006D02*
X005830Y012006D01*
X005830Y011848D02*
X010230Y011848D01*
X010601Y011372D02*
X006980Y011372D01*
X006979Y011214D02*
X010592Y011214D01*
X010593Y011363D02*
X010593Y011363D01*
X010592Y011055D02*
X006979Y011055D01*
X006979Y010897D02*
X010591Y010897D01*
X010591Y010738D02*
X006979Y010738D01*
X006979Y010580D02*
X010590Y010580D01*
X010590Y010421D02*
X006979Y010421D01*
X006979Y010263D02*
X010589Y010263D01*
X010588Y010104D02*
X006978Y010104D01*
X006985Y009946D02*
X008527Y009946D01*
X008491Y009928D02*
X008419Y009875D01*
X008355Y009811D01*
X008302Y009739D01*
X008262Y009659D01*
X008234Y009573D01*
X008220Y009485D01*
X008220Y009100D01*
X008740Y009100D01*
X008740Y010009D01*
X008657Y009996D01*
X008571Y009968D01*
X008491Y009928D01*
X008338Y009787D02*
X007223Y009787D01*
X007316Y009629D02*
X008252Y009629D01*
X008220Y009470D02*
X007350Y009470D01*
X007350Y009312D02*
X008220Y009312D01*
X008220Y009153D02*
X007350Y009153D01*
X007350Y008995D02*
X008220Y008995D01*
X008220Y009000D02*
X008220Y008615D01*
X008234Y008527D01*
X008262Y008441D01*
X008302Y008361D01*
X008355Y008289D01*
X008419Y008225D01*
X008491Y008172D01*
X008571Y008132D01*
X008657Y008104D01*
X008740Y008091D01*
X008740Y009000D01*
X008840Y009000D01*
X008840Y009100D01*
X009360Y009100D01*
X009360Y009485D01*
X009346Y009573D01*
X009318Y009659D01*
X009278Y009739D01*
X009225Y009811D01*
X009161Y009875D01*
X009089Y009928D01*
X009009Y009968D01*
X008923Y009996D01*
X008840Y010009D01*
X008840Y009100D01*
X008740Y009100D01*
X008740Y009000D01*
X008220Y009000D01*
X008220Y008836D02*
X007350Y008836D01*
X007350Y008678D02*
X008220Y008678D01*
X008236Y008519D02*
X007335Y008519D01*
X007270Y008361D02*
X008303Y008361D01*
X008451Y008202D02*
X007099Y008202D01*
X006541Y008202D02*
X005830Y008202D01*
X005830Y008044D02*
X037660Y008044D01*
X037620Y007885D02*
X005830Y007885D01*
X005830Y007727D02*
X037635Y007727D01*
X037632Y007738D02*
X037655Y007666D01*
X037689Y007598D01*
X037734Y007537D01*
X037787Y007484D01*
X037848Y007439D01*
X037916Y007405D01*
X037988Y007382D01*
X038062Y007370D01*
X038380Y007370D01*
X038380Y007830D01*
X038420Y007830D01*
X038420Y007870D01*
X038380Y007870D01*
X038380Y007830D01*
X037620Y007830D01*
X037620Y007812D01*
X037632Y007738D01*
X037712Y007568D02*
X005830Y007568D01*
X005830Y007410D02*
X037907Y007410D01*
X038380Y007410D02*
X038420Y007410D01*
X038420Y007370D02*
X038738Y007370D01*
X038812Y007382D01*
X038884Y007405D01*
X038952Y007439D01*
X039013Y007484D01*
X039066Y007537D01*
X039111Y007598D01*
X039145Y007666D01*
X039168Y007738D01*
X039180Y007812D01*
X039180Y007830D01*
X038420Y007830D01*
X038420Y007370D01*
X038420Y007568D02*
X038380Y007568D01*
X038380Y007727D02*
X038420Y007727D01*
X038420Y007870D02*
X039180Y007870D01*
X039180Y007888D01*
X039168Y007962D01*
X039145Y008034D01*
X039111Y008102D01*
X039066Y008163D01*
X039013Y008216D01*
X038952Y008261D01*
X038884Y008295D01*
X038812Y008318D01*
X038738Y008330D01*
X038420Y008330D01*
X038420Y007870D01*
X038420Y007885D02*
X038380Y007885D01*
X038380Y008044D02*
X038420Y008044D01*
X038420Y008202D02*
X038380Y008202D01*
X038991Y008519D02*
X040509Y008519D01*
X040551Y008477D02*
X040712Y008410D01*
X041488Y008410D01*
X041649Y008477D01*
X041773Y008601D01*
X041840Y008762D01*
X041840Y008938D01*
X041773Y009099D01*
X041649Y009223D01*
X041488Y009290D01*
X040712Y009290D01*
X040551Y009223D01*
X040427Y009099D01*
X040360Y008938D01*
X040360Y008762D01*
X040427Y008601D01*
X040551Y008477D01*
X040395Y008678D02*
X039105Y008678D01*
X039140Y008836D02*
X040360Y008836D01*
X040384Y008995D02*
X039116Y008995D01*
X039019Y009153D02*
X040481Y009153D01*
X040568Y009470D02*
X038932Y009470D01*
X039085Y009629D02*
X040415Y009629D01*
X040432Y010104D02*
X039068Y010104D01*
X038854Y010263D02*
X040646Y010263D01*
X041719Y009153D02*
X043770Y009153D01*
X043770Y008995D02*
X041816Y008995D01*
X041840Y008836D02*
X043770Y008836D01*
X043770Y008678D02*
X041805Y008678D01*
X041691Y008519D02*
X043770Y008519D01*
X041120Y008202D02*
X041080Y008202D01*
X041080Y008044D02*
X041120Y008044D01*
X041120Y007885D02*
X041080Y007885D01*
X041080Y007830D02*
X040320Y007830D01*
X040320Y007812D01*
X040332Y007738D01*
X040355Y007666D01*
X040389Y007598D01*
X040434Y007537D01*
X040487Y007484D01*
X040548Y007439D01*
X040616Y007405D01*
X040688Y007382D01*
X040762Y007370D01*
X041080Y007370D01*
X041080Y007830D01*
X041080Y007727D02*
X041120Y007727D01*
X041120Y007568D02*
X041080Y007568D01*
X041080Y007410D02*
X041120Y007410D01*
X040607Y007410D02*
X038893Y007410D01*
X039088Y007568D02*
X040412Y007568D01*
X040335Y007727D02*
X039165Y007727D01*
X039180Y007885D02*
X040320Y007885D01*
X040360Y008044D02*
X039140Y008044D01*
X039027Y008202D02*
X040473Y008202D01*
X037695Y008678D02*
X035500Y008678D01*
X035500Y008836D02*
X037660Y008836D01*
X037684Y008995D02*
X035500Y008995D01*
X035500Y009153D02*
X037781Y009153D01*
X037631Y010104D02*
X031198Y010104D01*
X031197Y009946D02*
X032737Y009946D01*
X032950Y009946D02*
X033050Y009946D01*
X033050Y009787D02*
X032950Y009787D01*
X032950Y009629D02*
X033050Y009629D01*
X033050Y009470D02*
X032950Y009470D01*
X032950Y009312D02*
X033050Y009312D01*
X033050Y009153D02*
X032950Y009153D01*
X032950Y009000D02*
X032430Y009000D01*
X032430Y008615D01*
X032444Y008527D01*
X032472Y008441D01*
X032512Y008361D01*
X032565Y008289D01*
X032629Y008225D01*
X032701Y008172D01*
X032781Y008132D01*
X032867Y008104D01*
X032950Y008091D01*
X032950Y009000D01*
X032950Y008995D02*
X033050Y008995D01*
X033050Y008836D02*
X032950Y008836D01*
X032950Y008678D02*
X033050Y008678D01*
X033050Y008519D02*
X032950Y008519D01*
X032950Y008361D02*
X033050Y008361D01*
X033050Y008202D02*
X032950Y008202D01*
X032661Y008202D02*
X031309Y008202D01*
X031480Y008361D02*
X032513Y008361D01*
X032446Y008519D02*
X031545Y008519D01*
X031560Y008678D02*
X032430Y008678D01*
X032430Y008836D02*
X031560Y008836D01*
X031560Y008995D02*
X032430Y008995D01*
X032430Y009153D02*
X031560Y009153D01*
X031560Y009312D02*
X032430Y009312D01*
X032430Y009470D02*
X031560Y009470D01*
X031526Y009629D02*
X032462Y009629D01*
X032548Y009787D02*
X031433Y009787D01*
X030857Y009946D02*
X028895Y009946D01*
X028835Y009970D02*
X029030Y009889D01*
X029179Y009740D01*
X029260Y009545D01*
X029260Y008555D01*
X029179Y008360D01*
X029030Y008211D01*
X028835Y008130D01*
X028625Y008130D01*
X028430Y008211D01*
X028281Y008360D01*
X028200Y008555D01*
X028200Y009545D01*
X028281Y009740D01*
X028430Y009889D01*
X028625Y009970D01*
X028835Y009970D01*
X028565Y009946D02*
X027023Y009946D01*
X027059Y009928D02*
X026979Y009968D01*
X026893Y009996D01*
X026810Y010009D01*
X026810Y009100D01*
X027330Y009100D01*
X027330Y009485D01*
X027316Y009573D01*
X027288Y009659D01*
X027248Y009739D01*
X027195Y009811D01*
X027131Y009875D01*
X027059Y009928D01*
X027212Y009787D02*
X028327Y009787D01*
X028234Y009629D02*
X027298Y009629D01*
X027330Y009470D02*
X028200Y009470D01*
X028200Y009312D02*
X027330Y009312D01*
X027330Y009153D02*
X028200Y009153D01*
X028200Y008995D02*
X027330Y008995D01*
X027330Y009000D02*
X026810Y009000D01*
X026810Y009100D01*
X026710Y009100D01*
X026710Y010009D01*
X026627Y009996D01*
X026541Y009968D01*
X026461Y009928D01*
X026389Y009875D01*
X026325Y009811D01*
X026272Y009739D01*
X026232Y009659D01*
X026204Y009573D01*
X026190Y009485D01*
X026190Y009100D01*
X026710Y009100D01*
X026710Y009000D01*
X026810Y009000D01*
X026810Y008091D01*
X026893Y008104D01*
X026979Y008132D01*
X027059Y008172D01*
X027131Y008225D01*
X027195Y008289D01*
X027248Y008361D01*
X027288Y008441D01*
X027316Y008527D01*
X027330Y008615D01*
X027330Y009000D01*
X027330Y008836D02*
X028200Y008836D01*
X028200Y008678D02*
X027330Y008678D01*
X027314Y008519D02*
X028215Y008519D01*
X028280Y008361D02*
X027247Y008361D01*
X027099Y008202D02*
X028451Y008202D01*
X029009Y008202D02*
X030751Y008202D01*
X030580Y008361D02*
X029180Y008361D01*
X029245Y008519D02*
X030515Y008519D01*
X030500Y008678D02*
X029260Y008678D01*
X029260Y008836D02*
X030500Y008836D01*
X030500Y008995D02*
X029260Y008995D01*
X029260Y009153D02*
X030500Y009153D01*
X030500Y009312D02*
X029260Y009312D01*
X029260Y009470D02*
X030500Y009470D01*
X030534Y009629D02*
X029226Y009629D01*
X029133Y009787D02*
X030627Y009787D01*
X030858Y010104D02*
X016855Y010104D01*
X016855Y010125D02*
X028299Y010130D01*
X028370Y010130D01*
X028370Y010130D01*
X028370Y010130D01*
X028420Y010180D01*
X028470Y010230D01*
X028470Y010300D01*
X028470Y012094D01*
X028549Y012127D01*
X028673Y012251D01*
X028740Y012412D01*
X028740Y013188D01*
X028673Y013349D01*
X028549Y013473D01*
X028388Y013540D01*
X028212Y013540D01*
X028051Y013473D01*
X027927Y013349D01*
X027860Y013188D01*
X027860Y012412D01*
X027927Y012251D01*
X028051Y012127D01*
X028130Y012094D01*
X028130Y010470D01*
X016686Y010465D01*
X016615Y010465D01*
X016615Y010465D01*
X016615Y010465D01*
X016565Y010415D01*
X016515Y010365D01*
X016515Y010295D01*
X016515Y009945D01*
X016380Y009889D01*
X016231Y009740D01*
X016150Y009545D01*
X016150Y008555D01*
X016231Y008360D01*
X016380Y008211D01*
X016575Y008130D01*
X016785Y008130D01*
X016980Y008211D01*
X017129Y008360D01*
X017210Y008555D01*
X017210Y009545D01*
X017129Y009740D01*
X016980Y009889D01*
X016855Y009941D01*
X016855Y010125D01*
X016855Y009946D02*
X018705Y009946D01*
X018765Y009970D02*
X018570Y009889D01*
X018421Y009740D01*
X018340Y009545D01*
X018340Y008555D01*
X018421Y008360D01*
X018570Y008211D01*
X018765Y008130D01*
X018975Y008130D01*
X019170Y008211D01*
X019319Y008360D01*
X019400Y008555D01*
X019400Y009545D01*
X019319Y009740D01*
X019170Y009889D01*
X018975Y009970D01*
X018765Y009970D01*
X019035Y009946D02*
X020577Y009946D01*
X020541Y009928D02*
X020469Y009875D01*
X020405Y009811D01*
X020352Y009739D01*
X020312Y009659D01*
X020284Y009573D01*
X020270Y009485D01*
X020270Y009100D01*
X020790Y009100D01*
X020790Y010009D01*
X020707Y009996D01*
X020621Y009968D01*
X020541Y009928D01*
X020388Y009787D02*
X019273Y009787D01*
X019366Y009629D02*
X020302Y009629D01*
X020270Y009470D02*
X019400Y009470D01*
X019400Y009312D02*
X020270Y009312D01*
X020270Y009153D02*
X019400Y009153D01*
X019400Y008995D02*
X020270Y008995D01*
X020270Y009000D02*
X020270Y008615D01*
X020284Y008527D01*
X020312Y008441D01*
X020352Y008361D01*
X020405Y008289D01*
X020469Y008225D01*
X020541Y008172D01*
X020621Y008132D01*
X020707Y008104D01*
X020790Y008091D01*
X020790Y009000D01*
X020890Y009000D01*
X020890Y009100D01*
X021410Y009100D01*
X021410Y009485D01*
X021396Y009573D01*
X021368Y009659D01*
X021328Y009739D01*
X021275Y009811D01*
X021211Y009875D01*
X021139Y009928D01*
X021059Y009968D01*
X020973Y009996D01*
X020890Y010009D01*
X020890Y009100D01*
X020790Y009100D01*
X020790Y009000D01*
X020270Y009000D01*
X020270Y008836D02*
X019400Y008836D01*
X019400Y008678D02*
X020270Y008678D01*
X020286Y008519D02*
X019385Y008519D01*
X019320Y008361D02*
X020353Y008361D01*
X020501Y008202D02*
X019149Y008202D01*
X018591Y008202D02*
X016959Y008202D01*
X017130Y008361D02*
X018420Y008361D01*
X018355Y008519D02*
X017195Y008519D01*
X017210Y008678D02*
X018340Y008678D01*
X018340Y008836D02*
X017210Y008836D01*
X017210Y008995D02*
X018340Y008995D01*
X018340Y009153D02*
X017210Y009153D01*
X017210Y009312D02*
X018340Y009312D01*
X018340Y009470D02*
X017210Y009470D01*
X017176Y009629D02*
X018374Y009629D01*
X018467Y009787D02*
X017083Y009787D01*
X016515Y009946D02*
X014973Y009946D01*
X015009Y009928D02*
X014929Y009968D01*
X014843Y009996D01*
X014760Y010009D01*
X014760Y009100D01*
X015280Y009100D01*
X015280Y009485D01*
X015266Y009573D01*
X015238Y009659D01*
X015198Y009739D01*
X015145Y009811D01*
X015081Y009875D01*
X015009Y009928D01*
X015162Y009787D02*
X016277Y009787D01*
X016184Y009629D02*
X015248Y009629D01*
X015280Y009470D02*
X016150Y009470D01*
X016150Y009312D02*
X015280Y009312D01*
X015280Y009153D02*
X016150Y009153D01*
X016150Y008995D02*
X015280Y008995D01*
X015280Y009000D02*
X014760Y009000D01*
X014760Y009100D01*
X014660Y009100D01*
X014660Y010009D01*
X014577Y009996D01*
X014491Y009968D01*
X014411Y009928D01*
X014339Y009875D01*
X014275Y009811D01*
X014222Y009739D01*
X014182Y009659D01*
X014154Y009573D01*
X014140Y009485D01*
X014140Y009100D01*
X014660Y009100D01*
X014660Y009000D01*
X014760Y009000D01*
X014760Y008091D01*
X014843Y008104D01*
X014929Y008132D01*
X015009Y008172D01*
X015081Y008225D01*
X015145Y008289D01*
X015198Y008361D01*
X015238Y008441D01*
X015266Y008527D01*
X015280Y008615D01*
X015280Y009000D01*
X015280Y008836D02*
X016150Y008836D01*
X016150Y008678D02*
X015280Y008678D01*
X015264Y008519D02*
X016165Y008519D01*
X016230Y008361D02*
X015197Y008361D01*
X015049Y008202D02*
X016401Y008202D01*
X014760Y008202D02*
X014660Y008202D01*
X014660Y008091D02*
X014660Y009000D01*
X014140Y009000D01*
X014140Y008615D01*
X014154Y008527D01*
X014182Y008441D01*
X014222Y008361D01*
X014275Y008289D01*
X014339Y008225D01*
X014411Y008172D01*
X014491Y008132D01*
X014577Y008104D01*
X014660Y008091D01*
X014660Y008361D02*
X014760Y008361D01*
X014760Y008519D02*
X014660Y008519D01*
X014660Y008678D02*
X014760Y008678D01*
X014760Y008836D02*
X014660Y008836D01*
X014660Y008995D02*
X014760Y008995D01*
X014760Y009153D02*
X014660Y009153D01*
X014660Y009312D02*
X014760Y009312D01*
X014760Y009470D02*
X014660Y009470D01*
X014660Y009629D02*
X014760Y009629D01*
X014760Y009787D02*
X014660Y009787D01*
X014660Y009946D02*
X014760Y009946D01*
X014447Y009946D02*
X012910Y009946D01*
X012910Y009943D02*
X012912Y010630D01*
X027370Y010630D01*
X027470Y010730D01*
X027470Y012094D01*
X027549Y012127D01*
X027673Y012251D01*
X027740Y012412D01*
X027740Y013188D01*
X027673Y013349D01*
X027549Y013473D01*
X027388Y013540D01*
X027212Y013540D01*
X027051Y013473D01*
X026927Y013349D01*
X026860Y013188D01*
X026860Y012412D01*
X026927Y012251D01*
X027051Y012127D01*
X027130Y012094D01*
X027130Y010970D01*
X012743Y010970D01*
X012673Y010970D01*
X012672Y010970D01*
X012623Y010920D01*
X012573Y010871D01*
X012573Y010871D01*
X012573Y010870D01*
X012573Y010800D01*
X012570Y009943D01*
X012440Y009889D01*
X012291Y009740D01*
X012210Y009545D01*
X012210Y008555D01*
X012291Y008360D01*
X012440Y008211D01*
X012635Y008130D01*
X012845Y008130D01*
X013040Y008211D01*
X013189Y008360D01*
X013270Y008555D01*
X013270Y009545D01*
X013189Y009740D01*
X013040Y009889D01*
X012910Y009943D01*
X012911Y010104D02*
X016515Y010104D01*
X016515Y010263D02*
X012911Y010263D01*
X012911Y010421D02*
X016571Y010421D01*
X016515Y010365D02*
X016515Y010365D01*
X016515Y010365D01*
X014258Y009787D02*
X013143Y009787D01*
X013236Y009629D02*
X014172Y009629D01*
X014140Y009470D02*
X013270Y009470D01*
X013270Y009312D02*
X014140Y009312D01*
X014140Y009153D02*
X013270Y009153D01*
X013270Y008995D02*
X014140Y008995D01*
X014140Y008836D02*
X013270Y008836D01*
X013270Y008678D02*
X014140Y008678D01*
X014156Y008519D02*
X013255Y008519D01*
X013190Y008361D02*
X014223Y008361D01*
X014371Y008202D02*
X013019Y008202D01*
X012461Y008202D02*
X011039Y008202D01*
X011210Y008361D02*
X012290Y008361D01*
X012225Y008519D02*
X011275Y008519D01*
X011290Y008678D02*
X012210Y008678D01*
X012210Y008836D02*
X011290Y008836D01*
X011290Y008995D02*
X012210Y008995D01*
X012210Y009153D02*
X011290Y009153D01*
X011290Y009312D02*
X012210Y009312D01*
X012210Y009470D02*
X011290Y009470D01*
X011256Y009629D02*
X012244Y009629D01*
X012337Y009787D02*
X011163Y009787D01*
X010928Y009946D02*
X012570Y009946D01*
X012571Y010104D02*
X010928Y010104D01*
X010929Y010263D02*
X012571Y010263D01*
X012571Y010421D02*
X010930Y010421D01*
X010930Y010580D02*
X012572Y010580D01*
X012572Y010738D02*
X010931Y010738D01*
X010931Y010897D02*
X012599Y010897D01*
X012672Y010970D02*
X012672Y010970D01*
X012912Y010580D02*
X028130Y010580D01*
X028130Y010738D02*
X027470Y010738D01*
X027470Y010897D02*
X028130Y010897D01*
X028130Y011055D02*
X027470Y011055D01*
X027470Y011214D02*
X028130Y011214D01*
X028130Y011372D02*
X027470Y011372D01*
X027470Y011531D02*
X028130Y011531D01*
X028130Y011689D02*
X027470Y011689D01*
X027470Y011848D02*
X028130Y011848D01*
X028130Y012006D02*
X027470Y012006D01*
X027587Y012165D02*
X028013Y012165D01*
X027897Y012323D02*
X027703Y012323D01*
X027740Y012482D02*
X027860Y012482D01*
X027860Y012640D02*
X027740Y012640D01*
X027740Y012799D02*
X027860Y012799D01*
X027860Y012957D02*
X027740Y012957D01*
X027740Y013116D02*
X027860Y013116D01*
X027896Y013274D02*
X027704Y013274D01*
X027590Y013433D02*
X028010Y013433D01*
X028590Y013433D02*
X029010Y013433D01*
X029051Y013473D02*
X028927Y013349D01*
X028860Y013188D01*
X028860Y012412D01*
X028927Y012251D01*
X029051Y012127D01*
X029212Y012060D01*
X029388Y012060D01*
X029549Y012127D01*
X029673Y012251D01*
X029740Y012412D01*
X029740Y013188D01*
X029673Y013349D01*
X029549Y013473D01*
X029388Y013540D01*
X029212Y013540D01*
X029051Y013473D01*
X028896Y013274D02*
X028704Y013274D01*
X028740Y013116D02*
X028860Y013116D01*
X028860Y012957D02*
X028740Y012957D01*
X028740Y012799D02*
X028860Y012799D01*
X028860Y012640D02*
X028740Y012640D01*
X028740Y012482D02*
X028860Y012482D01*
X028897Y012323D02*
X028703Y012323D01*
X028587Y012165D02*
X029013Y012165D01*
X028470Y012006D02*
X034130Y012006D01*
X034013Y012165D02*
X032587Y012165D01*
X032549Y012127D02*
X032673Y012251D01*
X032740Y012412D01*
X032740Y013188D01*
X032673Y013349D01*
X032549Y013473D01*
X032388Y013540D01*
X032212Y013540D01*
X032051Y013473D01*
X031927Y013349D01*
X031860Y013188D01*
X031860Y012412D01*
X031927Y012251D01*
X032051Y012127D01*
X032212Y012060D01*
X032388Y012060D01*
X032549Y012127D01*
X032703Y012323D02*
X033897Y012323D01*
X033860Y012482D02*
X032740Y012482D01*
X032740Y012640D02*
X033860Y012640D01*
X033860Y012799D02*
X032740Y012799D01*
X032740Y012957D02*
X033860Y012957D01*
X033860Y013116D02*
X032740Y013116D01*
X032704Y013274D02*
X033896Y013274D01*
X034010Y013433D02*
X032590Y013433D01*
X032010Y013433D02*
X031590Y013433D01*
X031549Y013473D02*
X031388Y013540D01*
X031212Y013540D01*
X031051Y013473D01*
X030927Y013349D01*
X030860Y013188D01*
X030860Y012412D01*
X030927Y012251D01*
X031051Y012127D01*
X031212Y012060D01*
X031388Y012060D01*
X031549Y012127D01*
X031673Y012251D01*
X031740Y012412D01*
X031740Y013188D01*
X031673Y013349D01*
X031549Y013473D01*
X031704Y013274D02*
X031896Y013274D01*
X031860Y013116D02*
X031740Y013116D01*
X031740Y012957D02*
X031860Y012957D01*
X031860Y012799D02*
X031740Y012799D01*
X031740Y012640D02*
X031860Y012640D01*
X031860Y012482D02*
X031740Y012482D01*
X031703Y012323D02*
X031897Y012323D01*
X032013Y012165D02*
X031587Y012165D01*
X031013Y012165D02*
X030587Y012165D01*
X030549Y012127D02*
X030673Y012251D01*
X030740Y012412D01*
X030740Y013188D01*
X030673Y013349D01*
X030549Y013473D01*
X030388Y013540D01*
X030212Y013540D01*
X030051Y013473D01*
X029927Y013349D01*
X029860Y013188D01*
X029860Y012412D01*
X029927Y012251D01*
X030051Y012127D01*
X030212Y012060D01*
X030388Y012060D01*
X030549Y012127D01*
X030703Y012323D02*
X030897Y012323D01*
X030860Y012482D02*
X030740Y012482D01*
X030740Y012640D02*
X030860Y012640D01*
X030860Y012799D02*
X030740Y012799D01*
X030740Y012957D02*
X030860Y012957D01*
X030860Y013116D02*
X030740Y013116D01*
X030704Y013274D02*
X030896Y013274D01*
X031010Y013433D02*
X030590Y013433D01*
X030010Y013433D02*
X029590Y013433D01*
X029704Y013274D02*
X029896Y013274D01*
X029860Y013116D02*
X029740Y013116D01*
X029740Y012957D02*
X029860Y012957D01*
X029860Y012799D02*
X029740Y012799D01*
X029740Y012640D02*
X029860Y012640D01*
X029860Y012482D02*
X029740Y012482D01*
X029703Y012323D02*
X029897Y012323D01*
X030013Y012165D02*
X029587Y012165D01*
X028470Y011848D02*
X030861Y011848D01*
X030861Y011689D02*
X028470Y011689D01*
X028470Y011531D02*
X030861Y011531D01*
X030860Y011372D02*
X028470Y011372D01*
X028470Y011214D02*
X030860Y011214D01*
X030860Y011055D02*
X028470Y011055D01*
X028470Y010897D02*
X030859Y010897D01*
X030859Y010738D02*
X028470Y010738D01*
X028470Y010580D02*
X030859Y010580D01*
X030858Y010421D02*
X028470Y010421D01*
X028470Y010263D02*
X030858Y010263D01*
X031198Y010263D02*
X037631Y010263D01*
X037632Y010421D02*
X031198Y010421D01*
X031199Y010580D02*
X037632Y010580D01*
X037632Y010738D02*
X031199Y010738D01*
X031199Y010897D02*
X037633Y010897D01*
X037633Y011055D02*
X031200Y011055D01*
X031200Y011214D02*
X037634Y011214D01*
X037634Y011372D02*
X031200Y011372D01*
X031201Y011531D02*
X037634Y011531D01*
X037635Y011689D02*
X034429Y011689D01*
X034470Y011848D02*
X037635Y011848D01*
X038587Y012165D02*
X039013Y012165D01*
X039051Y012127D02*
X039212Y012060D01*
X039388Y012060D01*
X039549Y012127D01*
X039673Y012251D01*
X039740Y012412D01*
X039740Y013188D01*
X039673Y013349D01*
X039549Y013473D01*
X039388Y013540D01*
X039212Y013540D01*
X039051Y013473D01*
X038927Y013349D01*
X038860Y013188D01*
X038860Y012412D01*
X038927Y012251D01*
X039051Y012127D01*
X038897Y012323D02*
X038703Y012323D01*
X038740Y012482D02*
X038860Y012482D01*
X038860Y012640D02*
X038740Y012640D01*
X038740Y012799D02*
X038860Y012799D01*
X038860Y012957D02*
X038740Y012957D01*
X038740Y013116D02*
X038860Y013116D01*
X038896Y013274D02*
X038704Y013274D01*
X038590Y013433D02*
X039010Y013433D01*
X039590Y013433D02*
X040010Y013433D01*
X040051Y013473D02*
X039927Y013349D01*
X039860Y013188D01*
X039860Y012412D01*
X039927Y012251D01*
X040051Y012127D01*
X040212Y012060D01*
X040388Y012060D01*
X040549Y012127D01*
X040673Y012251D01*
X040740Y012412D01*
X040740Y013188D01*
X040673Y013349D01*
X040549Y013473D01*
X040388Y013540D01*
X040212Y013540D01*
X040051Y013473D01*
X039896Y013274D02*
X039704Y013274D01*
X039740Y013116D02*
X039860Y013116D01*
X039860Y012957D02*
X039740Y012957D01*
X039740Y012799D02*
X039860Y012799D01*
X039860Y012640D02*
X039740Y012640D01*
X039740Y012482D02*
X039860Y012482D01*
X039897Y012323D02*
X039703Y012323D01*
X039587Y012165D02*
X040013Y012165D01*
X040587Y012165D02*
X041013Y012165D01*
X041051Y012127D02*
X040927Y012251D01*
X040860Y012412D01*
X040860Y013188D01*
X040927Y013349D01*
X041051Y013473D01*
X041212Y013540D01*
X041388Y013540D01*
X041549Y013473D01*
X041673Y013349D01*
X041740Y013188D01*
X041740Y012412D01*
X041673Y012251D01*
X041549Y012127D01*
X041388Y012060D01*
X041212Y012060D01*
X041051Y012127D01*
X040897Y012323D02*
X040703Y012323D01*
X040740Y012482D02*
X040860Y012482D01*
X040860Y012640D02*
X040740Y012640D01*
X040740Y012799D02*
X040860Y012799D01*
X040860Y012957D02*
X040740Y012957D01*
X040740Y013116D02*
X040860Y013116D01*
X040896Y013274D02*
X040704Y013274D01*
X040590Y013433D02*
X041010Y013433D01*
X041590Y013433D02*
X042384Y013433D01*
X042292Y013274D02*
X041704Y013274D01*
X041740Y013116D02*
X042235Y013116D01*
X042193Y012957D02*
X041740Y012957D01*
X041740Y012799D02*
X042190Y012799D01*
X042194Y012640D02*
X041740Y012640D01*
X041740Y012482D02*
X042236Y012482D01*
X042294Y012323D02*
X041703Y012323D01*
X041587Y012165D02*
X042385Y012165D01*
X042521Y013591D02*
X037980Y013591D01*
X037979Y013433D02*
X038010Y013433D01*
X037980Y013750D02*
X042725Y013750D01*
X043147Y013908D02*
X037981Y013908D01*
X037981Y014067D02*
X044770Y014067D01*
X044770Y014225D02*
X037982Y014225D01*
X037982Y014384D02*
X042038Y014384D01*
X042101Y014320D02*
X042280Y014320D01*
X042280Y014780D01*
X042320Y014780D01*
X042320Y014820D01*
X042780Y014820D01*
X042780Y014999D01*
X042499Y015280D01*
X042320Y015280D01*
X042320Y014820D01*
X042280Y014820D01*
X042280Y015280D01*
X042101Y015280D01*
X041820Y014999D01*
X041820Y014820D01*
X042280Y014820D01*
X042280Y014780D01*
X041820Y014780D01*
X041820Y014601D01*
X042101Y014320D01*
X042280Y014384D02*
X042320Y014384D01*
X042320Y014320D02*
X042499Y014320D01*
X042780Y014601D01*
X042780Y014780D01*
X042320Y014780D01*
X042320Y014320D01*
X042320Y014542D02*
X042280Y014542D01*
X042280Y014701D02*
X042320Y014701D01*
X042320Y014859D02*
X042280Y014859D01*
X042280Y015018D02*
X042320Y015018D01*
X042320Y015176D02*
X042280Y015176D01*
X042118Y015360D02*
X042482Y015360D01*
X042740Y015618D01*
X042740Y015982D01*
X042482Y016240D01*
X042118Y016240D01*
X041860Y015982D01*
X041860Y015618D01*
X042118Y015360D01*
X041985Y015493D02*
X037985Y015493D01*
X037985Y015607D02*
X037985Y015607D01*
X037940Y015652D02*
X041860Y015652D01*
X041860Y015810D02*
X016845Y015810D01*
X016845Y015869D02*
X016611Y016103D01*
X016279Y016103D01*
X016045Y015869D01*
X016045Y015538D01*
X016279Y015303D01*
X016611Y015303D01*
X016845Y015538D01*
X016845Y015869D01*
X016745Y015969D02*
X041860Y015969D01*
X042005Y016127D02*
X015644Y016127D01*
X015627Y016143D02*
X015445Y016143D01*
X015263Y016143D01*
X015005Y015886D01*
X015005Y015703D01*
X015005Y015521D01*
X015263Y015263D01*
X015445Y015263D01*
X015445Y015703D01*
X015445Y015703D01*
X015445Y015263D01*
X015627Y015263D01*
X015885Y015521D01*
X015885Y015703D01*
X015445Y015703D01*
X015005Y015703D01*
X015445Y015703D01*
X015445Y015703D01*
X015445Y015703D01*
X015885Y015703D01*
X015885Y015886D01*
X015627Y016143D01*
X015445Y016143D02*
X015445Y015703D01*
X015445Y016143D01*
X015445Y016127D02*
X015445Y016127D01*
X015445Y015969D02*
X015445Y015969D01*
X015445Y015810D02*
X015445Y015810D01*
X015445Y015703D02*
X015445Y015703D01*
X015445Y015652D02*
X015445Y015652D01*
X015445Y015493D02*
X015445Y015493D01*
X015445Y015335D02*
X015445Y015335D01*
X015192Y015335D02*
X005830Y015335D01*
X005830Y015493D02*
X010128Y015493D01*
X010137Y015484D02*
X010198Y015439D01*
X010266Y015405D01*
X010338Y015382D01*
X010412Y015370D01*
X010730Y015370D01*
X010730Y015830D01*
X010770Y015830D01*
X010770Y015870D01*
X010730Y015870D01*
X010730Y016330D01*
X010412Y016330D01*
X010338Y016318D01*
X010266Y016295D01*
X010198Y016261D01*
X010137Y016216D01*
X010084Y016163D01*
X010039Y016102D01*
X010005Y016034D01*
X009982Y015962D01*
X009970Y015888D01*
X009970Y015870D01*
X010730Y015870D01*
X010730Y015830D01*
X009970Y015830D01*
X009970Y015812D01*
X009982Y015738D01*
X010005Y015666D01*
X010039Y015598D01*
X010084Y015537D01*
X010137Y015484D01*
X010012Y015652D02*
X005830Y015652D01*
X005830Y015810D02*
X009970Y015810D01*
X009984Y015969D02*
X005830Y015969D01*
X005830Y016127D02*
X010058Y016127D01*
X010247Y016286D02*
X005830Y016286D01*
X005830Y016444D02*
X010280Y016444D01*
X010201Y016477D02*
X010362Y016410D01*
X011138Y016410D01*
X011299Y016477D01*
X011423Y016601D01*
X011490Y016762D01*
X011490Y016938D01*
X011423Y017099D01*
X011299Y017223D01*
X011138Y017290D01*
X010362Y017290D01*
X010201Y017223D01*
X010077Y017099D01*
X010010Y016938D01*
X010010Y016762D01*
X010077Y016601D01*
X010201Y016477D01*
X010076Y016603D02*
X005830Y016603D01*
X005830Y016761D02*
X010011Y016761D01*
X010010Y016920D02*
X005830Y016920D01*
X005830Y017078D02*
X010068Y017078D01*
X010233Y017237D02*
X005830Y017237D01*
X005830Y017395D02*
X042083Y017395D01*
X042118Y017360D02*
X042482Y017360D01*
X042740Y017618D01*
X042740Y017982D01*
X042482Y018240D01*
X042118Y018240D01*
X041860Y017982D01*
X041860Y017618D01*
X042118Y017360D01*
X042118Y017240D02*
X041860Y016982D01*
X041860Y016618D01*
X042118Y016360D01*
X042482Y016360D01*
X042740Y016618D01*
X042740Y016982D01*
X042482Y017240D01*
X042118Y017240D01*
X042114Y017237D02*
X013593Y017237D01*
X013476Y017354D02*
X013801Y017028D01*
X013801Y016799D01*
X013247Y016799D01*
X013246Y016799D02*
X013246Y016799D01*
X013246Y017354D01*
X013017Y017354D01*
X012691Y017028D01*
X012691Y016799D01*
X013246Y016799D01*
X013246Y016799D01*
X013246Y017354D01*
X013476Y017354D01*
X013246Y017237D02*
X013246Y017237D01*
X013246Y017078D02*
X013246Y017078D01*
X013246Y016920D02*
X013246Y016920D01*
X013247Y016799D02*
X013247Y016799D01*
X013801Y016799D01*
X013801Y016569D01*
X013476Y016244D01*
X013246Y016244D01*
X013246Y016798D01*
X013246Y016799D02*
X012691Y016799D01*
X012691Y016569D01*
X013017Y016244D01*
X013246Y016244D01*
X013246Y016798D01*
X013246Y016798D01*
X013246Y016761D02*
X013246Y016761D01*
X013246Y016603D02*
X013246Y016603D01*
X013246Y016444D02*
X013246Y016444D01*
X013246Y016286D02*
X013246Y016286D01*
X012975Y016286D02*
X011253Y016286D01*
X011234Y016295D02*
X011162Y016318D01*
X011088Y016330D01*
X010770Y016330D01*
X010770Y015870D01*
X011530Y015870D01*
X011530Y015888D01*
X011518Y015962D01*
X011495Y016034D01*
X011461Y016102D01*
X011416Y016163D01*
X011363Y016216D01*
X011302Y016261D01*
X011234Y016295D01*
X011220Y016444D02*
X012816Y016444D01*
X012691Y016603D02*
X011424Y016603D01*
X011489Y016761D02*
X012691Y016761D01*
X012691Y016920D02*
X011490Y016920D01*
X011432Y017078D02*
X012741Y017078D01*
X012900Y017237D02*
X011267Y017237D01*
X010770Y016286D02*
X010730Y016286D01*
X010730Y016127D02*
X010770Y016127D01*
X010770Y015969D02*
X010730Y015969D01*
X010770Y015830D02*
X011530Y015830D01*
X011530Y015812D01*
X011518Y015738D01*
X011495Y015666D01*
X011461Y015598D01*
X011416Y015537D01*
X011363Y015484D01*
X011302Y015439D01*
X011234Y015405D01*
X011162Y015382D01*
X011088Y015370D01*
X010770Y015370D01*
X010770Y015830D01*
X010770Y015810D02*
X010730Y015810D01*
X010730Y015652D02*
X010770Y015652D01*
X010770Y015493D02*
X010730Y015493D01*
X010362Y015290D02*
X010201Y015223D01*
X010077Y015099D01*
X010010Y014938D01*
X010010Y014762D01*
X010077Y014601D01*
X010201Y014477D01*
X010362Y014410D01*
X011138Y014410D01*
X011299Y014477D01*
X011423Y014601D01*
X011490Y014762D01*
X011490Y014938D01*
X011423Y015099D01*
X011299Y015223D01*
X011138Y015290D01*
X010362Y015290D01*
X010154Y015176D02*
X005830Y015176D01*
X005830Y015018D02*
X010043Y015018D01*
X010010Y014859D02*
X005830Y014859D01*
X005830Y014701D02*
X010036Y014701D01*
X010136Y014542D02*
X005830Y014542D01*
X005830Y014384D02*
X012933Y014384D01*
X012955Y014362D02*
X013144Y014284D01*
X013349Y014284D01*
X013538Y014362D01*
X013683Y014507D01*
X013761Y014696D01*
X013761Y014901D01*
X013683Y015090D01*
X013538Y015235D01*
X013349Y015314D01*
X013144Y015314D01*
X012955Y015235D01*
X012810Y015090D01*
X012731Y014901D01*
X012731Y014696D01*
X012810Y014507D01*
X012955Y014362D01*
X012795Y014542D02*
X011364Y014542D01*
X011464Y014701D02*
X012731Y014701D01*
X012731Y014859D02*
X011490Y014859D01*
X011457Y015018D02*
X012780Y015018D01*
X012896Y015176D02*
X011346Y015176D01*
X011372Y015493D02*
X015033Y015493D01*
X015005Y015652D02*
X011488Y015652D01*
X011530Y015810D02*
X015005Y015810D01*
X015088Y015969D02*
X011516Y015969D01*
X011442Y016127D02*
X015247Y016127D01*
X015802Y015969D02*
X016145Y015969D01*
X016045Y015810D02*
X015885Y015810D01*
X015885Y015652D02*
X016045Y015652D01*
X016090Y015493D02*
X015857Y015493D01*
X015699Y015335D02*
X016248Y015335D01*
X016642Y015335D02*
X037644Y015335D01*
X037644Y015176D02*
X013597Y015176D01*
X013713Y015018D02*
X037644Y015018D01*
X037643Y014859D02*
X013761Y014859D01*
X013761Y014701D02*
X037643Y014701D01*
X037642Y014542D02*
X013698Y014542D01*
X013560Y014384D02*
X037642Y014384D01*
X037642Y014225D02*
X005830Y014225D01*
X005830Y014067D02*
X037641Y014067D01*
X037641Y013908D02*
X016634Y013908D01*
X016857Y013750D02*
X037640Y013750D01*
X037982Y014542D02*
X041879Y014542D01*
X041820Y014701D02*
X037983Y014701D01*
X037983Y014859D02*
X041820Y014859D01*
X041839Y015018D02*
X037984Y015018D01*
X037984Y015176D02*
X041997Y015176D01*
X042603Y015176D02*
X042997Y015176D01*
X043101Y015280D02*
X042820Y014999D01*
X042820Y014820D01*
X043280Y014820D01*
X043280Y015280D01*
X043101Y015280D01*
X043118Y015360D02*
X043482Y015360D01*
X043740Y015618D01*
X043740Y015982D01*
X043482Y016240D01*
X043118Y016240D01*
X042860Y015982D01*
X042860Y015618D01*
X043118Y015360D01*
X042985Y015493D02*
X042615Y015493D01*
X042740Y015652D02*
X042860Y015652D01*
X042860Y015810D02*
X042740Y015810D01*
X042740Y015969D02*
X042860Y015969D01*
X043005Y016127D02*
X042595Y016127D01*
X042566Y016444D02*
X043034Y016444D01*
X043118Y016360D02*
X043482Y016360D01*
X043740Y016618D01*
X043740Y016982D01*
X043482Y017240D01*
X043118Y017240D01*
X042860Y016982D01*
X042860Y016618D01*
X043118Y016360D01*
X042875Y016603D02*
X042725Y016603D01*
X042740Y016761D02*
X042860Y016761D01*
X042860Y016920D02*
X042740Y016920D01*
X042644Y017078D02*
X042956Y017078D01*
X043114Y017237D02*
X042486Y017237D01*
X042517Y017395D02*
X043083Y017395D01*
X043118Y017360D02*
X043482Y017360D01*
X043740Y017618D01*
X043740Y017982D01*
X043482Y018240D01*
X043118Y018240D01*
X042860Y017982D01*
X042860Y017618D01*
X043118Y017360D01*
X042924Y017554D02*
X042676Y017554D01*
X042740Y017712D02*
X042860Y017712D01*
X042860Y017871D02*
X042740Y017871D01*
X042693Y018029D02*
X042907Y018029D01*
X043065Y018188D02*
X042535Y018188D01*
X042482Y018360D02*
X042740Y018618D01*
X042740Y018982D01*
X042482Y019240D01*
X042118Y019240D01*
X041860Y018982D01*
X041860Y018618D01*
X042118Y018360D01*
X042482Y018360D01*
X042627Y018505D02*
X042973Y018505D01*
X042860Y018618D02*
X043118Y018360D01*
X043482Y018360D01*
X043740Y018618D01*
X043740Y018982D01*
X043482Y019240D01*
X043118Y019240D01*
X042860Y018982D01*
X042860Y018618D01*
X042860Y018663D02*
X042740Y018663D01*
X042740Y018822D02*
X042860Y018822D01*
X042860Y018980D02*
X042740Y018980D01*
X042584Y019139D02*
X043016Y019139D01*
X043118Y019360D02*
X043482Y019360D01*
X043740Y019618D01*
X043740Y019982D01*
X043482Y020240D01*
X043118Y020240D01*
X042860Y019982D01*
X042860Y019618D01*
X043118Y019360D01*
X043022Y019456D02*
X042578Y019456D01*
X042482Y019360D02*
X042740Y019618D01*
X042740Y019982D01*
X042482Y020240D01*
X042118Y020240D01*
X041860Y019982D01*
X041860Y019618D01*
X042118Y019360D01*
X042482Y019360D01*
X042736Y019614D02*
X042864Y019614D01*
X042860Y019773D02*
X042740Y019773D01*
X042740Y019931D02*
X042860Y019931D01*
X042967Y020090D02*
X042633Y020090D01*
X042482Y020360D02*
X042740Y020618D01*
X042740Y020982D01*
X042482Y021240D01*
X042118Y021240D01*
X041860Y020982D01*
X041860Y020618D01*
X042118Y020360D01*
X042482Y020360D01*
X042529Y020407D02*
X043071Y020407D01*
X043118Y020360D02*
X042860Y020618D01*
X042860Y020982D01*
X043118Y021240D01*
X043482Y021240D01*
X043740Y020982D01*
X043740Y020618D01*
X043482Y020360D01*
X043118Y020360D01*
X042913Y020565D02*
X042687Y020565D01*
X042740Y020724D02*
X042860Y020724D01*
X042860Y020882D02*
X042740Y020882D01*
X042682Y021041D02*
X042918Y021041D01*
X043077Y021199D02*
X042523Y021199D01*
X042482Y021360D02*
X042740Y021618D01*
X042740Y021982D01*
X042482Y022240D01*
X042118Y022240D01*
X041860Y021982D01*
X041860Y021618D01*
X042118Y021360D01*
X042482Y021360D01*
X042638Y021516D02*
X042962Y021516D01*
X042860Y021618D02*
X043118Y021360D01*
X043482Y021360D01*
X043740Y021618D01*
X043740Y021982D01*
X043482Y022240D01*
X043118Y022240D01*
X042860Y021982D01*
X042860Y021618D01*
X042860Y021675D02*
X042740Y021675D01*
X042740Y021833D02*
X042860Y021833D01*
X042869Y021992D02*
X042731Y021992D01*
X042572Y022150D02*
X043028Y022150D01*
X043118Y022360D02*
X043482Y022360D01*
X043740Y022618D01*
X043740Y022982D01*
X043482Y023240D01*
X043118Y023240D01*
X042860Y022982D01*
X042860Y022618D01*
X043118Y022360D01*
X043011Y022467D02*
X042589Y022467D01*
X042482Y022360D02*
X042118Y022360D01*
X041860Y022618D01*
X041860Y022982D01*
X042118Y023240D01*
X042482Y023240D01*
X042740Y022982D01*
X042740Y022618D01*
X042482Y022360D01*
X042740Y022626D02*
X042860Y022626D01*
X042860Y022784D02*
X042740Y022784D01*
X042740Y022943D02*
X042860Y022943D01*
X042979Y023101D02*
X042621Y023101D01*
X042482Y023360D02*
X042118Y023360D01*
X041860Y023618D01*
X041860Y023982D01*
X042118Y024240D01*
X042482Y024240D01*
X042740Y023982D01*
X042740Y023618D01*
X042482Y023360D01*
X042540Y023418D02*
X043060Y023418D01*
X043118Y023360D02*
X043482Y023360D01*
X043740Y023618D01*
X043740Y023982D01*
X043482Y024240D01*
X043118Y024240D01*
X042860Y023982D01*
X042860Y023618D01*
X043118Y023360D01*
X042901Y023577D02*
X042699Y023577D01*
X042740Y023735D02*
X042860Y023735D01*
X042860Y023894D02*
X042740Y023894D01*
X042670Y024052D02*
X042930Y024052D01*
X043088Y024211D02*
X042512Y024211D01*
X042482Y024360D02*
X042118Y024360D01*
X041860Y024618D01*
X041860Y024982D01*
X042118Y025240D01*
X042482Y025240D01*
X042740Y024982D01*
X042740Y024618D01*
X042482Y024360D01*
X042491Y024369D02*
X043109Y024369D01*
X043118Y024360D02*
X043482Y024360D01*
X043740Y024618D01*
X043740Y024982D01*
X043482Y025240D01*
X043118Y025240D01*
X042860Y024982D01*
X042860Y024618D01*
X043118Y024360D01*
X042950Y024528D02*
X042650Y024528D01*
X042740Y024686D02*
X042860Y024686D01*
X042860Y024845D02*
X042740Y024845D01*
X042719Y025003D02*
X042881Y025003D01*
X043039Y025162D02*
X042561Y025162D01*
X042482Y025360D02*
X042740Y025618D01*
X042740Y025982D01*
X042482Y026240D01*
X042118Y026240D01*
X041860Y025982D01*
X041860Y025618D01*
X042118Y025360D01*
X042482Y025360D01*
X042601Y025479D02*
X042999Y025479D01*
X043118Y025360D02*
X043482Y025360D01*
X043740Y025618D01*
X043740Y025982D01*
X043482Y026240D01*
X043118Y026240D01*
X042860Y025982D01*
X042860Y025618D01*
X043118Y025360D01*
X042860Y025637D02*
X042740Y025637D01*
X042740Y025796D02*
X042860Y025796D01*
X042860Y025954D02*
X042740Y025954D01*
X042610Y026113D02*
X042990Y026113D01*
X043118Y026360D02*
X043482Y026360D01*
X043740Y026618D01*
X043740Y026982D01*
X043482Y027240D01*
X043118Y027240D01*
X042860Y026982D01*
X042860Y026618D01*
X043118Y026360D01*
X043048Y026430D02*
X042552Y026430D01*
X042482Y026360D02*
X042740Y026618D01*
X042740Y026982D01*
X042482Y027240D01*
X042118Y027240D01*
X041860Y026982D01*
X041860Y026618D01*
X042118Y026360D01*
X042482Y026360D01*
X042710Y026588D02*
X042890Y026588D01*
X042860Y026747D02*
X042740Y026747D01*
X042740Y026905D02*
X042860Y026905D01*
X042941Y027064D02*
X042659Y027064D01*
X042500Y027222D02*
X043100Y027222D01*
X043118Y027360D02*
X043482Y027360D01*
X043740Y027618D01*
X043740Y027982D01*
X043482Y028240D01*
X043118Y028240D01*
X042860Y027982D01*
X042860Y027618D01*
X043118Y027360D01*
X043097Y027381D02*
X042503Y027381D01*
X042482Y027360D02*
X042740Y027618D01*
X042740Y027982D01*
X042482Y028240D01*
X042118Y028240D01*
X041860Y027982D01*
X041860Y027618D01*
X042118Y027360D01*
X042482Y027360D01*
X042661Y027539D02*
X042939Y027539D01*
X042860Y027698D02*
X042740Y027698D01*
X042740Y027856D02*
X042860Y027856D01*
X042892Y028015D02*
X042708Y028015D01*
X042549Y028173D02*
X043051Y028173D01*
X043118Y028360D02*
X043482Y028360D01*
X043740Y028618D01*
X043740Y028982D01*
X043482Y029240D01*
X043118Y029240D01*
X042860Y028982D01*
X042860Y028618D01*
X043118Y028360D01*
X042988Y028490D02*
X042612Y028490D01*
X042740Y028618D02*
X042482Y028360D01*
X042118Y028360D01*
X041860Y028618D01*
X041860Y028982D01*
X042118Y029240D01*
X042482Y029240D01*
X042740Y028982D01*
X042740Y028618D01*
X042740Y028649D02*
X042860Y028649D01*
X042860Y028807D02*
X042740Y028807D01*
X042740Y028966D02*
X042860Y028966D01*
X043002Y029124D02*
X042598Y029124D01*
X042482Y029360D02*
X042740Y029618D01*
X042740Y029982D01*
X042482Y030240D01*
X042118Y030240D01*
X041860Y029982D01*
X041860Y029618D01*
X042118Y029360D01*
X042482Y029360D01*
X042563Y029441D02*
X043037Y029441D01*
X043118Y029360D02*
X042860Y029618D01*
X042860Y029982D01*
X043118Y030240D01*
X043482Y030240D01*
X043740Y029982D01*
X043740Y029618D01*
X043482Y029360D01*
X043118Y029360D01*
X042878Y029600D02*
X042722Y029600D01*
X042740Y029758D02*
X042860Y029758D01*
X042860Y029917D02*
X042740Y029917D01*
X042647Y030075D02*
X042953Y030075D01*
X043111Y030234D02*
X042489Y030234D01*
X042482Y030360D02*
X042740Y030618D01*
X042740Y030982D01*
X042482Y031240D01*
X042118Y031240D01*
X041860Y030982D01*
X041860Y030618D01*
X042118Y030360D01*
X042482Y030360D01*
X042514Y030392D02*
X043086Y030392D01*
X043118Y030360D02*
X043482Y030360D01*
X043740Y030618D01*
X043740Y030982D01*
X043482Y031240D01*
X043118Y031240D01*
X042860Y030982D01*
X042860Y030618D01*
X043118Y030360D01*
X042927Y030551D02*
X042673Y030551D01*
X042740Y030709D02*
X042860Y030709D01*
X042860Y030868D02*
X042740Y030868D01*
X042696Y031026D02*
X042904Y031026D01*
X043062Y031185D02*
X042538Y031185D01*
X042482Y031360D02*
X042740Y031618D01*
X042740Y031982D01*
X042482Y032240D01*
X042118Y032240D01*
X041892Y032014D01*
X041834Y032228D01*
X041688Y032482D01*
X041482Y032688D01*
X041228Y032834D01*
X040946Y032910D01*
X040654Y032910D01*
X040372Y032834D01*
X040118Y032688D01*
X039925Y032495D01*
X039927Y034132D01*
X040199Y034133D01*
X040269Y034133D01*
X040269Y034134D01*
X040270Y034134D01*
X040319Y034183D01*
X040368Y034233D01*
X040368Y034233D01*
X040369Y034234D01*
X040368Y034304D01*
X040368Y035161D01*
X040650Y035161D01*
X040650Y034835D01*
X040731Y034640D01*
X040880Y034491D01*
X041074Y034411D01*
X041285Y034411D01*
X041480Y034491D01*
X041629Y034640D01*
X041710Y034835D01*
X041710Y035826D01*
X041629Y036021D01*
X041480Y036170D01*
X041285Y036251D01*
X041074Y036251D01*
X040880Y036170D01*
X040731Y036021D01*
X040650Y035826D01*
X040650Y035501D01*
X040128Y035501D01*
X040028Y035401D01*
X040028Y034472D01*
X039757Y034470D01*
X039687Y034471D01*
X039687Y034470D01*
X039686Y034470D01*
X039637Y034420D01*
X039588Y034371D01*
X039588Y034370D01*
X039587Y034370D01*
X039588Y034300D01*
X039585Y032437D01*
X039549Y032473D01*
X039388Y032540D01*
X039212Y032540D01*
X039051Y032473D01*
X038962Y032384D01*
X038962Y034470D01*
X039104Y034411D01*
X039315Y034411D01*
X039510Y034491D01*
X039659Y034640D01*
X039740Y034835D01*
X039740Y035826D01*
X039659Y036021D01*
X039510Y036170D01*
X039315Y036251D01*
X039104Y036251D01*
X038910Y036170D01*
X038761Y036021D01*
X038680Y035826D01*
X038680Y035460D01*
X038671Y035452D01*
X038622Y035402D01*
X038621Y035402D01*
X038621Y035332D01*
X038621Y035261D01*
X038621Y035261D01*
X038622Y032400D01*
X038549Y032473D01*
X038388Y032540D01*
X038212Y032540D01*
X038051Y032473D01*
X037927Y032349D01*
X037860Y032188D01*
X037860Y031412D01*
X037927Y031251D01*
X038051Y031127D01*
X038212Y031060D01*
X038388Y031060D01*
X038549Y031127D01*
X038622Y031200D01*
X038623Y026920D01*
X038619Y026916D01*
X038623Y026851D01*
X038623Y026785D01*
X038626Y026782D01*
X038620Y026047D01*
X038536Y025963D01*
X038490Y025853D01*
X038490Y025734D01*
X038536Y025623D01*
X038620Y025539D01*
X038731Y025493D01*
X038850Y025493D01*
X038960Y025539D01*
X039045Y025623D01*
X039090Y025734D01*
X039090Y025853D01*
X039045Y025963D01*
X038960Y026048D01*
X038966Y026731D01*
X038970Y026736D01*
X038966Y026801D01*
X038967Y026866D01*
X038963Y026870D01*
X038962Y031216D01*
X039051Y031127D01*
X039212Y031060D01*
X039388Y031060D01*
X039549Y031127D01*
X039583Y031161D01*
X039577Y026870D01*
X039542Y026868D01*
X039474Y026868D01*
X039472Y026866D01*
X039469Y026866D01*
X039423Y026816D01*
X039375Y026768D01*
X039375Y026765D01*
X039373Y026762D01*
X039376Y026695D01*
X039379Y025967D01*
X039309Y025898D01*
X039264Y025787D01*
X039264Y025668D01*
X039309Y025558D01*
X039394Y025473D01*
X039504Y025428D01*
X039623Y025428D01*
X039734Y025473D01*
X039818Y025558D01*
X039864Y025668D01*
X039864Y025787D01*
X039818Y025898D01*
X039734Y025982D01*
X039719Y025988D01*
X039716Y026535D01*
X039750Y026536D01*
X039817Y026536D01*
X039820Y026539D01*
X039824Y026539D01*
X039869Y026588D01*
X041890Y026588D01*
X041860Y026747D02*
X039917Y026747D01*
X039917Y026709D02*
X039923Y031107D01*
X040118Y030912D01*
X040372Y030766D01*
X040654Y030690D01*
X040946Y030690D01*
X041228Y030766D01*
X041482Y030912D01*
X041688Y031118D01*
X041834Y031372D01*
X041892Y031586D01*
X042118Y031360D01*
X042482Y031360D01*
X042624Y031502D02*
X042976Y031502D01*
X042860Y031618D02*
X043118Y031360D01*
X043482Y031360D01*
X043740Y031618D01*
X043740Y031982D01*
X043482Y032240D01*
X043118Y032240D01*
X042860Y031982D01*
X042860Y031618D01*
X042860Y031660D02*
X042740Y031660D01*
X042740Y031819D02*
X042860Y031819D01*
X042860Y031977D02*
X042740Y031977D01*
X042587Y032136D02*
X043013Y032136D01*
X043587Y032136D02*
X043770Y032136D01*
X043770Y032294D02*
X041796Y032294D01*
X041859Y032136D02*
X042013Y032136D01*
X041705Y032453D02*
X043770Y032453D01*
X043770Y032611D02*
X041559Y032611D01*
X041341Y032770D02*
X043770Y032770D01*
X043770Y032928D02*
X039926Y032928D01*
X039925Y032770D02*
X040259Y032770D01*
X040041Y032611D02*
X039925Y032611D01*
X039585Y032611D02*
X038962Y032611D01*
X038962Y032453D02*
X039030Y032453D01*
X038962Y032770D02*
X039585Y032770D01*
X039586Y032928D02*
X038962Y032928D01*
X038962Y033087D02*
X039586Y033087D01*
X039586Y033245D02*
X038962Y033245D01*
X038962Y033404D02*
X039586Y033404D01*
X039587Y033562D02*
X038962Y033562D01*
X038962Y033721D02*
X039587Y033721D01*
X039587Y033879D02*
X038962Y033879D01*
X038962Y034038D02*
X039587Y034038D01*
X039587Y034196D02*
X038962Y034196D01*
X038962Y034355D02*
X039587Y034355D01*
X039532Y034513D02*
X040028Y034513D01*
X040028Y034672D02*
X039672Y034672D01*
X039738Y034830D02*
X040028Y034830D01*
X040028Y034989D02*
X039740Y034989D01*
X039740Y035147D02*
X040028Y035147D01*
X040028Y035306D02*
X039740Y035306D01*
X039740Y035464D02*
X040091Y035464D01*
X039740Y035623D02*
X040650Y035623D01*
X040650Y035781D02*
X039740Y035781D01*
X039693Y035940D02*
X040697Y035940D01*
X040808Y036098D02*
X039582Y036098D01*
X038838Y036098D02*
X035811Y036098D01*
X035819Y036090D02*
X035670Y036239D01*
X035475Y036320D01*
X035265Y036320D01*
X035070Y036239D01*
X034921Y036090D01*
X034840Y035895D01*
X034840Y034905D01*
X034921Y034710D01*
X035070Y034561D01*
X035265Y034480D01*
X035475Y034480D01*
X035670Y034561D01*
X035688Y034579D01*
X035686Y032317D01*
X035673Y032349D01*
X035549Y032473D01*
X035388Y032540D01*
X035212Y032540D01*
X035051Y032473D01*
X034927Y032349D01*
X034860Y032188D01*
X034860Y031412D01*
X034927Y031251D01*
X035051Y031127D01*
X035212Y031060D01*
X035388Y031060D01*
X035549Y031127D01*
X035673Y031251D01*
X035685Y031280D01*
X035680Y026471D01*
X032084Y026470D01*
X032013Y026470D01*
X032013Y026470D01*
X032013Y026470D01*
X031963Y026420D01*
X031913Y026370D01*
X031913Y026300D01*
X031913Y025904D01*
X032013Y025804D01*
X032153Y025804D01*
X032253Y025904D01*
X032253Y026130D01*
X035850Y026131D01*
X035921Y026131D01*
X035970Y026180D01*
X036020Y026230D01*
X036020Y026230D01*
X036020Y026230D01*
X036020Y026301D01*
X036025Y031153D01*
X036051Y031127D01*
X036212Y031060D01*
X036388Y031060D01*
X036549Y031127D01*
X036673Y031251D01*
X036740Y031412D01*
X036740Y032188D01*
X036673Y032349D01*
X036549Y032473D01*
X036388Y032540D01*
X036212Y032540D01*
X036051Y032473D01*
X036026Y032449D01*
X036029Y035330D01*
X036029Y035330D01*
X036029Y035400D01*
X036029Y035470D01*
X036029Y035471D01*
X035980Y035520D01*
X035930Y035570D01*
X035930Y035570D01*
X035930Y035570D01*
X035900Y035570D01*
X035900Y035895D01*
X035819Y036090D01*
X035882Y035940D02*
X038727Y035940D01*
X038680Y035781D02*
X035900Y035781D01*
X035900Y035623D02*
X038680Y035623D01*
X038680Y035464D02*
X036029Y035464D01*
X036029Y035471D02*
X036029Y035471D01*
X036029Y035306D02*
X038621Y035306D01*
X038622Y035402D02*
X038622Y035402D01*
X038621Y035147D02*
X036029Y035147D01*
X036029Y034989D02*
X038621Y034989D01*
X038621Y034830D02*
X036029Y034830D01*
X036029Y034672D02*
X038622Y034672D01*
X038622Y034513D02*
X036028Y034513D01*
X036028Y034355D02*
X038622Y034355D01*
X038622Y034196D02*
X036028Y034196D01*
X036028Y034038D02*
X038622Y034038D01*
X038622Y033879D02*
X036028Y033879D01*
X036028Y033721D02*
X038622Y033721D01*
X038622Y033562D02*
X036027Y033562D01*
X036027Y033404D02*
X038622Y033404D01*
X038622Y033245D02*
X036027Y033245D01*
X036027Y033087D02*
X038622Y033087D01*
X038622Y032928D02*
X036027Y032928D01*
X036027Y032770D02*
X038622Y032770D01*
X038622Y032611D02*
X036027Y032611D01*
X036026Y032453D02*
X036030Y032453D01*
X035686Y032453D02*
X035570Y032453D01*
X035687Y032611D02*
X033907Y032611D01*
X033907Y032453D02*
X034030Y032453D01*
X034051Y032473D02*
X033927Y032349D01*
X033908Y032302D01*
X033902Y034310D01*
X033902Y034381D01*
X033901Y034381D02*
X033852Y034430D01*
X033802Y034480D01*
X033802Y034480D01*
X033802Y034480D01*
X033731Y034480D01*
X033661Y034480D01*
X033661Y034480D01*
X033661Y034480D01*
X033660Y034479D01*
X033611Y034479D01*
X033619Y034482D01*
X033699Y034522D01*
X033771Y034575D01*
X033835Y034639D01*
X033888Y034711D01*
X033928Y034791D01*
X033956Y034877D01*
X033970Y034965D01*
X033970Y035350D01*
X033450Y035350D01*
X033450Y035450D01*
X033350Y035450D01*
X033350Y036359D01*
X033267Y036346D01*
X033181Y036318D01*
X033101Y036278D01*
X033029Y036225D01*
X032965Y036161D01*
X032912Y036089D01*
X032872Y036009D01*
X032844Y035923D01*
X032830Y035835D01*
X032830Y035450D01*
X033350Y035450D01*
X033350Y035350D01*
X032830Y035350D01*
X032830Y034965D01*
X032844Y034877D01*
X032872Y034791D01*
X032912Y034711D01*
X032965Y034639D01*
X033029Y034575D01*
X033101Y034522D01*
X033181Y034482D01*
X033189Y034479D01*
X031618Y034479D01*
X031618Y034514D01*
X031730Y034561D01*
X031879Y034710D01*
X031960Y034905D01*
X031960Y035895D01*
X031879Y036090D01*
X031730Y036239D01*
X031535Y036320D01*
X031325Y036320D01*
X031130Y036239D01*
X030981Y036090D01*
X030900Y035895D01*
X030900Y034905D01*
X030981Y034710D01*
X031130Y034561D01*
X031278Y034499D01*
X031278Y034239D01*
X031378Y034139D01*
X033562Y034139D01*
X033567Y032455D01*
X033549Y032473D01*
X033388Y032540D01*
X033212Y032540D01*
X033051Y032473D01*
X032927Y032349D01*
X032860Y032188D01*
X032860Y031412D01*
X032927Y031251D01*
X033051Y031127D01*
X033149Y031086D01*
X033149Y028038D01*
X032490Y028038D01*
X032490Y031103D01*
X032549Y031127D01*
X032673Y031251D01*
X032740Y031412D01*
X032740Y032188D01*
X032673Y032349D01*
X032549Y032473D01*
X032388Y032540D01*
X032212Y032540D01*
X032051Y032473D01*
X031927Y032349D01*
X031860Y032188D01*
X031860Y031412D01*
X031927Y031251D01*
X032051Y031127D01*
X032150Y031086D01*
X032150Y028234D01*
X029183Y028234D01*
X029084Y028134D01*
X029084Y024857D01*
X027454Y024857D01*
X027354Y024758D01*
X027354Y019198D01*
X027454Y019098D01*
X033297Y019098D01*
X033396Y019198D01*
X033396Y019342D01*
X033297Y019442D01*
X033156Y019442D01*
X033152Y019438D01*
X027694Y019438D01*
X027694Y024517D01*
X029298Y024517D01*
X029299Y024411D01*
X028621Y024403D01*
X028523Y024302D01*
X028525Y024161D01*
X028626Y024063D01*
X029468Y024073D01*
X029537Y024073D01*
X029539Y024074D01*
X029541Y024074D01*
X029589Y024123D01*
X029637Y024172D01*
X029637Y024174D01*
X029639Y024175D01*
X029639Y024201D01*
X030126Y024199D01*
X029910Y023982D01*
X029910Y023618D01*
X030168Y023360D01*
X030532Y023360D01*
X030790Y023618D01*
X030790Y023982D01*
X030576Y024197D01*
X031122Y024194D01*
X030910Y023982D01*
X030910Y023618D01*
X031168Y023360D01*
X031532Y023360D01*
X031790Y023618D01*
X031790Y023982D01*
X031580Y024193D01*
X032976Y024187D01*
X032984Y022442D01*
X033084Y022343D01*
X033224Y022344D01*
X033324Y022444D01*
X033316Y024356D01*
X033316Y024426D01*
X033315Y024426D01*
X033315Y024427D01*
X033266Y024476D01*
X033217Y024526D01*
X033216Y024526D01*
X033216Y024526D01*
X033146Y024526D01*
X029638Y024541D01*
X029618Y027698D01*
X033389Y027698D01*
X033489Y027798D01*
X033489Y031102D01*
X033549Y031127D01*
X033571Y031149D01*
X033581Y027634D01*
X032014Y027644D01*
X031914Y027546D01*
X031913Y027405D01*
X032011Y027305D01*
X033681Y027293D01*
X033682Y027292D01*
X033751Y027292D01*
X033821Y027292D01*
X033822Y027293D01*
X033823Y027293D01*
X033872Y027342D01*
X033921Y027391D01*
X033921Y027392D01*
X033922Y027393D01*
X033922Y027462D01*
X033922Y027532D01*
X033922Y027532D01*
X033911Y031291D01*
X033927Y031251D01*
X034051Y031127D01*
X034212Y031060D01*
X034388Y031060D01*
X034549Y031127D01*
X034673Y031251D01*
X034740Y031412D01*
X034740Y032188D01*
X034673Y032349D01*
X034549Y032473D01*
X034388Y032540D01*
X034212Y032540D01*
X034051Y032473D01*
X033906Y032770D02*
X035687Y032770D01*
X035687Y032928D02*
X033906Y032928D01*
X033905Y033087D02*
X035687Y033087D01*
X035687Y033245D02*
X033905Y033245D01*
X033904Y033404D02*
X035687Y033404D01*
X035687Y033562D02*
X033904Y033562D01*
X033903Y033721D02*
X035688Y033721D01*
X035688Y033879D02*
X033903Y033879D01*
X033902Y034038D02*
X035688Y034038D01*
X035688Y034196D02*
X033902Y034196D01*
X033902Y034355D02*
X035688Y034355D01*
X035688Y034513D02*
X035555Y034513D01*
X035185Y034513D02*
X033680Y034513D01*
X033859Y034672D02*
X034959Y034672D01*
X034871Y034830D02*
X033941Y034830D01*
X033970Y034989D02*
X034840Y034989D01*
X034840Y035147D02*
X033970Y035147D01*
X033970Y035306D02*
X034840Y035306D01*
X034840Y035464D02*
X033970Y035464D01*
X033970Y035450D02*
X033970Y035835D01*
X033956Y035923D01*
X033928Y036009D01*
X033888Y036089D01*
X033835Y036161D01*
X033771Y036225D01*
X033699Y036278D01*
X033619Y036318D01*
X033533Y036346D01*
X033450Y036359D01*
X033450Y035450D01*
X033970Y035450D01*
X033970Y035623D02*
X034840Y035623D01*
X034840Y035781D02*
X033970Y035781D01*
X033951Y035940D02*
X034858Y035940D01*
X034929Y036098D02*
X033881Y036098D01*
X033728Y036257D02*
X035111Y036257D01*
X035629Y036257D02*
X043770Y036257D01*
X043770Y036415D02*
X005830Y036415D01*
X005830Y036257D02*
X006811Y036257D01*
X006770Y036239D02*
X006621Y036090D01*
X006540Y035895D01*
X006540Y034905D01*
X006621Y034710D01*
X006770Y034561D01*
X006908Y034503D01*
X006918Y030474D01*
X006918Y030404D01*
X006968Y030354D01*
X007018Y030305D01*
X007018Y030305D01*
X007018Y030305D01*
X007089Y030305D01*
X011613Y030305D01*
X011613Y027854D01*
X011713Y027754D01*
X011853Y027754D01*
X011953Y027854D01*
X011953Y030545D01*
X011853Y030645D01*
X007258Y030645D01*
X007248Y034510D01*
X007370Y034561D01*
X007519Y034710D01*
X007600Y034905D01*
X007600Y035895D01*
X007519Y036090D01*
X007370Y036239D01*
X007175Y036320D01*
X006965Y036320D01*
X006770Y036239D01*
X006629Y036098D02*
X005830Y036098D01*
X005830Y035940D02*
X006558Y035940D01*
X006540Y035781D02*
X005830Y035781D01*
X005830Y035623D02*
X006540Y035623D01*
X006540Y035464D02*
X005830Y035464D01*
X005830Y035306D02*
X006540Y035306D01*
X006540Y035147D02*
X005830Y035147D01*
X005830Y034989D02*
X006540Y034989D01*
X006571Y034830D02*
X005830Y034830D01*
X005830Y034672D02*
X006659Y034672D01*
X006885Y034513D02*
X005830Y034513D01*
X005830Y034355D02*
X006909Y034355D01*
X006909Y034196D02*
X005830Y034196D01*
X005830Y034038D02*
X006909Y034038D01*
X006910Y033879D02*
X005830Y033879D01*
X005830Y033721D02*
X006910Y033721D01*
X006910Y033562D02*
X005830Y033562D01*
X005830Y033404D02*
X006911Y033404D01*
X006911Y033245D02*
X005830Y033245D01*
X005830Y033087D02*
X006912Y033087D01*
X006912Y032928D02*
X005830Y032928D01*
X005830Y032770D02*
X006912Y032770D01*
X006913Y032611D02*
X005830Y032611D01*
X005830Y032453D02*
X006913Y032453D01*
X006914Y032294D02*
X005830Y032294D01*
X005830Y032136D02*
X006914Y032136D01*
X006914Y031977D02*
X005830Y031977D01*
X005830Y031819D02*
X006915Y031819D01*
X006915Y031660D02*
X005830Y031660D01*
X005830Y031502D02*
X006916Y031502D01*
X006916Y031343D02*
X005830Y031343D01*
X005830Y031185D02*
X006916Y031185D01*
X006917Y031026D02*
X005830Y031026D01*
X005830Y030868D02*
X006917Y030868D01*
X006917Y030709D02*
X005830Y030709D01*
X005830Y030551D02*
X006918Y030551D01*
X006918Y030404D02*
X006918Y030404D01*
X006918Y030404D01*
X006930Y030392D02*
X005830Y030392D01*
X005830Y030234D02*
X011613Y030234D01*
X011613Y030075D02*
X005830Y030075D01*
X005830Y029917D02*
X011613Y029917D01*
X011613Y029758D02*
X008914Y029758D01*
X008832Y029840D02*
X008650Y029840D01*
X008650Y029400D01*
X008650Y029400D01*
X009090Y029400D01*
X009090Y029582D01*
X008832Y029840D01*
X008650Y029840D02*
X008468Y029840D01*
X008210Y029582D01*
X008210Y029400D01*
X008650Y029400D01*
X008650Y029400D01*
X008650Y029400D01*
X008650Y029840D01*
X008650Y029758D02*
X008650Y029758D01*
X008650Y029600D02*
X008650Y029600D01*
X008650Y029441D02*
X008650Y029441D01*
X008650Y029400D02*
X008210Y029400D01*
X008210Y029218D01*
X008468Y028960D01*
X008650Y028960D01*
X008832Y028960D01*
X009090Y029218D01*
X009090Y029400D01*
X008650Y029400D01*
X008650Y028960D01*
X008650Y029400D01*
X008650Y029400D01*
X008650Y029283D02*
X008650Y029283D01*
X008650Y029124D02*
X008650Y029124D01*
X008650Y028966D02*
X008650Y028966D01*
X008838Y028966D02*
X011613Y028966D01*
X011613Y029124D02*
X008996Y029124D01*
X009090Y029283D02*
X011613Y029283D01*
X011613Y029441D02*
X009090Y029441D01*
X009073Y029600D02*
X011613Y029600D01*
X011953Y029600D02*
X012630Y029600D01*
X012630Y029758D02*
X011953Y029758D01*
X011953Y029917D02*
X012630Y029917D01*
X012630Y030075D02*
X011953Y030075D01*
X011953Y030234D02*
X012630Y030234D01*
X012630Y030392D02*
X011953Y030392D01*
X011948Y030551D02*
X012630Y030551D01*
X012630Y030709D02*
X011517Y030709D01*
X011446Y030690D02*
X011728Y030766D01*
X011982Y030912D01*
X012188Y031118D01*
X012334Y031372D01*
X012410Y031654D01*
X012410Y031946D01*
X012334Y032228D01*
X012188Y032482D01*
X011982Y032688D01*
X011728Y032834D01*
X011446Y032910D01*
X011154Y032910D01*
X010872Y032834D01*
X010618Y032688D01*
X010412Y032482D01*
X010266Y032228D01*
X010190Y031946D01*
X010190Y031654D01*
X010266Y031372D01*
X010412Y031118D01*
X010618Y030912D01*
X010872Y030766D01*
X011154Y030690D01*
X011446Y030690D01*
X011083Y030709D02*
X007257Y030709D01*
X007257Y030868D02*
X010695Y030868D01*
X010504Y031026D02*
X007257Y031026D01*
X007256Y031185D02*
X010374Y031185D01*
X010282Y031343D02*
X007256Y031343D01*
X007256Y031502D02*
X010231Y031502D01*
X010190Y031660D02*
X007255Y031660D01*
X007255Y031819D02*
X010190Y031819D01*
X010198Y031977D02*
X007254Y031977D01*
X007254Y032136D02*
X010241Y032136D01*
X010304Y032294D02*
X007254Y032294D01*
X007253Y032453D02*
X010395Y032453D01*
X010541Y032611D02*
X007253Y032611D01*
X007252Y032770D02*
X010759Y032770D01*
X011841Y032770D02*
X012130Y032770D01*
X012130Y032730D02*
X012230Y032630D01*
X012630Y032630D01*
X012630Y026470D01*
X011713Y026470D01*
X011613Y026370D01*
X011613Y026154D01*
X011713Y026054D01*
X011853Y026054D01*
X011929Y026130D01*
X012870Y026130D01*
X012970Y026230D01*
X012970Y032870D01*
X012870Y032970D01*
X012470Y032970D01*
X012470Y034880D01*
X012541Y034710D01*
X012690Y034561D01*
X012885Y034480D01*
X013095Y034480D01*
X013290Y034561D01*
X013439Y034710D01*
X013520Y034905D01*
X013520Y035230D01*
X013630Y035230D01*
X013630Y028230D01*
X013730Y028130D01*
X016963Y028130D01*
X016963Y027854D01*
X017063Y027754D01*
X017203Y027754D01*
X017303Y027854D01*
X017303Y028370D01*
X017203Y028470D01*
X013970Y028470D01*
X013970Y035470D01*
X013870Y035570D01*
X013520Y035570D01*
X013520Y035895D01*
X013439Y036090D01*
X013290Y036239D01*
X013095Y036320D01*
X012885Y036320D01*
X012690Y036239D01*
X012541Y036090D01*
X012460Y035895D01*
X012460Y035480D01*
X012370Y035570D01*
X011540Y035570D01*
X011540Y035895D01*
X011459Y036090D01*
X011310Y036239D01*
X011115Y036320D01*
X010905Y036320D01*
X010710Y036239D01*
X010561Y036090D01*
X010480Y035895D01*
X010480Y034905D01*
X010561Y034710D01*
X010710Y034561D01*
X010905Y034480D01*
X011115Y034480D01*
X011310Y034561D01*
X011459Y034710D01*
X011540Y034905D01*
X011540Y035230D01*
X012130Y035230D01*
X012130Y032730D01*
X012059Y032611D02*
X012630Y032611D01*
X012630Y032453D02*
X012205Y032453D01*
X012296Y032294D02*
X012630Y032294D01*
X012630Y032136D02*
X012359Y032136D01*
X012402Y031977D02*
X012630Y031977D01*
X012630Y031819D02*
X012410Y031819D01*
X012410Y031660D02*
X012630Y031660D01*
X012630Y031502D02*
X012369Y031502D01*
X012318Y031343D02*
X012630Y031343D01*
X012630Y031185D02*
X012226Y031185D01*
X012096Y031026D02*
X012630Y031026D01*
X012630Y030868D02*
X011905Y030868D01*
X012970Y030868D02*
X013630Y030868D01*
X013630Y031026D02*
X012970Y031026D01*
X012970Y031185D02*
X013630Y031185D01*
X013630Y031343D02*
X012970Y031343D01*
X012970Y031502D02*
X013630Y031502D01*
X013630Y031660D02*
X012970Y031660D01*
X012970Y031819D02*
X013630Y031819D01*
X013630Y031977D02*
X012970Y031977D01*
X012970Y032136D02*
X013630Y032136D01*
X013630Y032294D02*
X012970Y032294D01*
X012970Y032453D02*
X013630Y032453D01*
X013630Y032611D02*
X012970Y032611D01*
X012970Y032770D02*
X013630Y032770D01*
X013630Y032928D02*
X012912Y032928D01*
X012470Y033087D02*
X013630Y033087D01*
X013630Y033245D02*
X012470Y033245D01*
X012470Y033404D02*
X013630Y033404D01*
X013630Y033562D02*
X012470Y033562D01*
X012470Y033721D02*
X013630Y033721D01*
X013630Y033879D02*
X012470Y033879D01*
X012470Y034038D02*
X013630Y034038D01*
X013630Y034196D02*
X012470Y034196D01*
X012470Y034355D02*
X013630Y034355D01*
X013630Y034513D02*
X013175Y034513D01*
X013401Y034672D02*
X013630Y034672D01*
X013630Y034830D02*
X013489Y034830D01*
X013520Y034989D02*
X013630Y034989D01*
X013630Y035147D02*
X013520Y035147D01*
X013970Y035147D02*
X014390Y035147D01*
X014390Y034989D02*
X013970Y034989D01*
X013970Y034830D02*
X014419Y034830D01*
X014432Y034791D02*
X014404Y034877D01*
X014390Y034965D01*
X014390Y035350D01*
X014910Y035350D01*
X014910Y035450D01*
X014910Y036359D01*
X014827Y036346D01*
X014741Y036318D01*
X014661Y036278D01*
X014589Y036225D01*
X014525Y036161D01*
X014472Y036089D01*
X014432Y036009D01*
X014404Y035923D01*
X014390Y035835D01*
X014390Y035450D01*
X014910Y035450D01*
X015010Y035450D01*
X015010Y036359D01*
X015093Y036346D01*
X015179Y036318D01*
X015259Y036278D01*
X015331Y036225D01*
X015395Y036161D01*
X015448Y036089D01*
X015488Y036009D01*
X015516Y035923D01*
X015530Y035835D01*
X015530Y035450D01*
X015010Y035450D01*
X015010Y035350D01*
X015530Y035350D01*
X015530Y034965D01*
X015516Y034877D01*
X015488Y034791D01*
X015448Y034711D01*
X015395Y034639D01*
X015331Y034575D01*
X015259Y034522D01*
X015179Y034482D01*
X015093Y034454D01*
X015010Y034441D01*
X015010Y035350D01*
X014910Y035350D01*
X014910Y034441D01*
X014827Y034454D01*
X014741Y034482D01*
X014661Y034522D01*
X014589Y034575D01*
X014525Y034639D01*
X014472Y034711D01*
X014432Y034791D01*
X014501Y034672D02*
X013970Y034672D01*
X013970Y034513D02*
X014680Y034513D01*
X014910Y034513D02*
X015010Y034513D01*
X015010Y034672D02*
X014910Y034672D01*
X014910Y034830D02*
X015010Y034830D01*
X015010Y034989D02*
X014910Y034989D01*
X014910Y035147D02*
X015010Y035147D01*
X015010Y035306D02*
X014910Y035306D01*
X014910Y035464D02*
X015010Y035464D01*
X015010Y035623D02*
X014910Y035623D01*
X014910Y035781D02*
X015010Y035781D01*
X015010Y035940D02*
X014910Y035940D01*
X014910Y036098D02*
X015010Y036098D01*
X015010Y036257D02*
X014910Y036257D01*
X014632Y036257D02*
X013249Y036257D01*
X013431Y036098D02*
X014479Y036098D01*
X014409Y035940D02*
X013502Y035940D01*
X013520Y035781D02*
X014390Y035781D01*
X014390Y035623D02*
X013520Y035623D01*
X013970Y035464D02*
X014390Y035464D01*
X014390Y035306D02*
X013970Y035306D01*
X013970Y034355D02*
X018030Y034355D01*
X018030Y034513D02*
X017115Y034513D01*
X017035Y034480D02*
X017230Y034561D01*
X017379Y034710D01*
X017460Y034905D01*
X017460Y035233D01*
X018031Y035236D01*
X018029Y032393D01*
X017949Y032473D01*
X017788Y032540D01*
X017612Y032540D01*
X017451Y032473D01*
X017327Y032349D01*
X017260Y032188D01*
X017260Y031412D01*
X017327Y031251D01*
X017451Y031127D01*
X017612Y031060D01*
X017788Y031060D01*
X017949Y031127D01*
X018029Y031206D01*
X018026Y026966D01*
X017154Y026970D01*
X017153Y026970D01*
X017084Y026970D01*
X017013Y026970D01*
X017013Y026970D01*
X017013Y026970D01*
X016963Y026921D01*
X016913Y026871D01*
X016913Y026871D01*
X016913Y026870D01*
X016913Y026800D01*
X016913Y026730D01*
X016913Y025954D01*
X008742Y025954D01*
X008739Y025960D02*
X008590Y026109D01*
X008395Y026190D01*
X007405Y026190D01*
X007210Y026109D01*
X007061Y025960D01*
X006980Y025765D01*
X006980Y025555D01*
X007061Y025360D01*
X007210Y025211D01*
X007405Y025130D01*
X008395Y025130D01*
X008590Y025211D01*
X008739Y025360D01*
X008820Y025555D01*
X008820Y025765D01*
X008739Y025960D01*
X008808Y025796D02*
X029084Y025796D01*
X029084Y025954D02*
X027504Y025954D01*
X027503Y025954D02*
X027603Y026054D01*
X027603Y026130D01*
X028870Y026130D01*
X028970Y026230D01*
X028970Y031208D01*
X029051Y031127D01*
X029212Y031060D01*
X029388Y031060D01*
X029549Y031127D01*
X029673Y031251D01*
X029740Y031412D01*
X029740Y032188D01*
X029673Y032349D01*
X029549Y032473D01*
X029388Y032540D01*
X029212Y032540D01*
X029051Y032473D01*
X028970Y032392D01*
X028970Y034503D01*
X029025Y034480D01*
X029235Y034480D01*
X029430Y034561D01*
X029579Y034710D01*
X029660Y034905D01*
X029660Y035895D01*
X029579Y036090D01*
X029430Y036239D01*
X029235Y036320D01*
X029025Y036320D01*
X028830Y036239D01*
X028681Y036090D01*
X028600Y035895D01*
X028600Y034905D01*
X028630Y034832D01*
X028630Y032392D01*
X028549Y032473D01*
X028388Y032540D01*
X028212Y032540D01*
X028051Y032473D01*
X027927Y032349D01*
X027860Y032188D01*
X027860Y031412D01*
X027927Y031251D01*
X028051Y031127D01*
X028212Y031060D01*
X028388Y031060D01*
X028549Y031127D01*
X028630Y031208D01*
X028630Y026470D01*
X027363Y026470D01*
X027263Y026370D01*
X027263Y026054D01*
X027363Y025954D01*
X027503Y025954D01*
X027363Y025954D02*
X022504Y025954D01*
X022503Y025954D02*
X022603Y026054D01*
X022603Y026121D01*
X022748Y026114D01*
X022751Y026111D01*
X022818Y026111D01*
X022884Y026108D01*
X022887Y026111D01*
X022892Y026111D01*
X022939Y026158D01*
X022988Y026202D01*
X022988Y026207D01*
X022992Y026210D01*
X022992Y026277D01*
X022995Y026343D01*
X022992Y026346D01*
X022992Y031186D01*
X023051Y031127D01*
X023212Y031060D01*
X023388Y031060D01*
X023549Y031127D01*
X023673Y031251D01*
X023740Y031412D01*
X023740Y032188D01*
X023673Y032349D01*
X023549Y032473D01*
X023388Y032540D01*
X023212Y032540D01*
X023051Y032473D01*
X022992Y032414D01*
X022992Y034527D01*
X023105Y034480D01*
X023315Y034480D01*
X023510Y034561D01*
X023659Y034710D01*
X023740Y034905D01*
X023740Y035895D01*
X023659Y036090D01*
X023510Y036239D01*
X023315Y036320D01*
X023105Y036320D01*
X022910Y036239D01*
X022761Y036090D01*
X022680Y035895D01*
X022680Y035497D01*
X022652Y035469D01*
X022652Y035469D01*
X022652Y035469D01*
X022652Y035399D01*
X022652Y026459D01*
X022507Y026467D01*
X022503Y026470D01*
X022437Y026470D01*
X022371Y026473D01*
X022368Y026470D01*
X022363Y026470D01*
X022316Y026423D01*
X022267Y026379D01*
X022266Y026374D01*
X022263Y026370D01*
X022263Y026304D01*
X022260Y026238D01*
X022263Y026234D01*
X022263Y026054D01*
X022363Y025954D01*
X022503Y025954D01*
X022363Y025954D02*
X017253Y025954D01*
X017253Y026629D01*
X018125Y026625D01*
X018125Y026625D01*
X018195Y026625D01*
X018266Y026625D01*
X018266Y026625D01*
X018266Y026625D01*
X018316Y026674D01*
X018366Y026724D01*
X018366Y026724D01*
X018366Y026725D01*
X018366Y026795D01*
X018366Y026865D01*
X018369Y031209D01*
X018451Y031127D01*
X018612Y031060D01*
X018788Y031060D01*
X018949Y031127D01*
X019030Y031208D01*
X019030Y028230D01*
X019130Y028130D01*
X022263Y028130D01*
X022263Y027904D01*
X022363Y027804D01*
X022503Y027804D01*
X022603Y027904D01*
X022603Y028370D01*
X022503Y028470D01*
X019370Y028470D01*
X019370Y031207D01*
X019451Y031127D01*
X019612Y031060D01*
X019788Y031060D01*
X019949Y031127D01*
X020073Y031251D01*
X020140Y031412D01*
X020140Y032188D01*
X020073Y032349D01*
X019949Y032473D01*
X019788Y032540D01*
X019612Y032540D01*
X019451Y032473D01*
X019370Y032393D01*
X019370Y034480D01*
X019375Y034480D01*
X019570Y034561D01*
X019719Y034710D01*
X019800Y034905D01*
X019800Y035895D01*
X019719Y036090D01*
X019570Y036239D01*
X019375Y036320D01*
X019165Y036320D01*
X018970Y036239D01*
X018821Y036090D01*
X018740Y035895D01*
X018740Y034905D01*
X018821Y034710D01*
X018970Y034561D01*
X019030Y034536D01*
X019030Y032392D01*
X018949Y032473D01*
X018788Y032540D01*
X018612Y032540D01*
X018451Y032473D01*
X018369Y032391D01*
X018371Y035337D01*
X018371Y035337D01*
X018371Y035407D01*
X018371Y035477D01*
X018371Y035477D01*
X018371Y035478D01*
X018321Y035527D01*
X018271Y035577D01*
X018270Y035577D01*
X018201Y035577D01*
X018131Y035577D01*
X018130Y035576D01*
X017460Y035573D01*
X017460Y035895D01*
X017379Y036090D01*
X017230Y036239D01*
X017035Y036320D01*
X016825Y036320D01*
X016630Y036239D01*
X016481Y036090D01*
X016400Y035895D01*
X016400Y034905D01*
X016481Y034710D01*
X016630Y034561D01*
X016825Y034480D01*
X017035Y034480D01*
X016745Y034513D02*
X015240Y034513D01*
X015419Y034672D02*
X016519Y034672D01*
X016431Y034830D02*
X015501Y034830D01*
X015530Y034989D02*
X016400Y034989D01*
X016400Y035147D02*
X015530Y035147D01*
X015530Y035306D02*
X016400Y035306D01*
X016400Y035464D02*
X015530Y035464D01*
X015530Y035623D02*
X016400Y035623D01*
X016400Y035781D02*
X015530Y035781D01*
X015511Y035940D02*
X016418Y035940D01*
X016489Y036098D02*
X015441Y036098D01*
X015288Y036257D02*
X016671Y036257D01*
X017189Y036257D02*
X019011Y036257D01*
X018829Y036098D02*
X017371Y036098D01*
X017442Y035940D02*
X018758Y035940D01*
X018740Y035781D02*
X017460Y035781D01*
X017460Y035623D02*
X018740Y035623D01*
X018740Y035464D02*
X018371Y035464D01*
X018271Y035577D02*
X018271Y035577D01*
X018371Y035306D02*
X018740Y035306D01*
X018740Y035147D02*
X018371Y035147D01*
X018371Y034989D02*
X018740Y034989D01*
X018771Y034830D02*
X018371Y034830D01*
X018371Y034672D02*
X018859Y034672D01*
X019030Y034513D02*
X018370Y034513D01*
X018370Y034355D02*
X019030Y034355D01*
X019030Y034196D02*
X018370Y034196D01*
X018370Y034038D02*
X019030Y034038D01*
X019030Y033879D02*
X018370Y033879D01*
X018370Y033721D02*
X019030Y033721D01*
X019030Y033562D02*
X018370Y033562D01*
X018370Y033404D02*
X019030Y033404D01*
X019030Y033245D02*
X018370Y033245D01*
X018370Y033087D02*
X019030Y033087D01*
X019030Y032928D02*
X018370Y032928D01*
X018369Y032770D02*
X019030Y032770D01*
X019030Y032611D02*
X018369Y032611D01*
X018369Y032453D02*
X018430Y032453D01*
X018029Y032453D02*
X017970Y032453D01*
X018029Y032611D02*
X013970Y032611D01*
X013970Y032453D02*
X014430Y032453D01*
X014451Y032473D02*
X014327Y032349D01*
X014260Y032188D01*
X014260Y031412D01*
X014327Y031251D01*
X014451Y031127D01*
X014612Y031060D01*
X014788Y031060D01*
X014949Y031127D01*
X015073Y031251D01*
X015140Y031412D01*
X015140Y032188D01*
X015073Y032349D01*
X014949Y032473D01*
X014788Y032540D01*
X014612Y032540D01*
X014451Y032473D01*
X014304Y032294D02*
X013970Y032294D01*
X013970Y032136D02*
X014260Y032136D01*
X014260Y031977D02*
X013970Y031977D01*
X013970Y031819D02*
X014260Y031819D01*
X014260Y031660D02*
X013970Y031660D01*
X013970Y031502D02*
X014260Y031502D01*
X014289Y031343D02*
X013970Y031343D01*
X013970Y031185D02*
X014393Y031185D01*
X013970Y031026D02*
X018028Y031026D01*
X018028Y030868D02*
X013970Y030868D01*
X013970Y030709D02*
X018028Y030709D01*
X018028Y030551D02*
X013970Y030551D01*
X013970Y030392D02*
X018028Y030392D01*
X018028Y030234D02*
X013970Y030234D01*
X013970Y030075D02*
X018028Y030075D01*
X018028Y029917D02*
X013970Y029917D01*
X013970Y029758D02*
X018028Y029758D01*
X018028Y029600D02*
X013970Y029600D01*
X013970Y029441D02*
X018028Y029441D01*
X018027Y029283D02*
X013970Y029283D01*
X013970Y029124D02*
X018027Y029124D01*
X018027Y028966D02*
X013970Y028966D01*
X013970Y028807D02*
X018027Y028807D01*
X018027Y028649D02*
X013970Y028649D01*
X013970Y028490D02*
X018027Y028490D01*
X018027Y028332D02*
X017303Y028332D01*
X017303Y028173D02*
X018027Y028173D01*
X018027Y028015D02*
X017303Y028015D01*
X017303Y027856D02*
X018027Y027856D01*
X018026Y027698D02*
X012970Y027698D01*
X012970Y027856D02*
X016963Y027856D01*
X016963Y028015D02*
X012970Y028015D01*
X012970Y028173D02*
X013687Y028173D01*
X013630Y028332D02*
X012970Y028332D01*
X012970Y028490D02*
X013630Y028490D01*
X013630Y028649D02*
X012970Y028649D01*
X012970Y028807D02*
X013630Y028807D01*
X013630Y028966D02*
X012970Y028966D01*
X012970Y029124D02*
X013630Y029124D01*
X013630Y029283D02*
X012970Y029283D01*
X012970Y029441D02*
X013630Y029441D01*
X013630Y029600D02*
X012970Y029600D01*
X012970Y029758D02*
X013630Y029758D01*
X013630Y029917D02*
X012970Y029917D01*
X012970Y030075D02*
X013630Y030075D01*
X013630Y030234D02*
X012970Y030234D01*
X012970Y030392D02*
X013630Y030392D01*
X013630Y030551D02*
X012970Y030551D01*
X012970Y030709D02*
X013630Y030709D01*
X015007Y031185D02*
X015393Y031185D01*
X015451Y031127D02*
X015612Y031060D01*
X015788Y031060D01*
X015949Y031127D01*
X016073Y031251D01*
X016140Y031412D01*
X016140Y032188D01*
X016073Y032349D01*
X015949Y032473D01*
X015788Y032540D01*
X015612Y032540D01*
X015451Y032473D01*
X015327Y032349D01*
X015260Y032188D01*
X015260Y031412D01*
X015327Y031251D01*
X015451Y031127D01*
X015289Y031343D02*
X015111Y031343D01*
X015140Y031502D02*
X015260Y031502D01*
X015260Y031660D02*
X015140Y031660D01*
X015140Y031819D02*
X015260Y031819D01*
X015260Y031977D02*
X015140Y031977D01*
X015140Y032136D02*
X015260Y032136D01*
X015304Y032294D02*
X015096Y032294D01*
X014970Y032453D02*
X015430Y032453D01*
X015970Y032453D02*
X016430Y032453D01*
X016451Y032473D02*
X016327Y032349D01*
X016260Y032188D01*
X016260Y031412D01*
X016327Y031251D01*
X016451Y031127D01*
X016612Y031060D01*
X016788Y031060D01*
X016949Y031127D01*
X017073Y031251D01*
X017140Y031412D01*
X017140Y032188D01*
X017073Y032349D01*
X016949Y032473D01*
X016788Y032540D01*
X016612Y032540D01*
X016451Y032473D01*
X016304Y032294D02*
X016096Y032294D01*
X016140Y032136D02*
X016260Y032136D01*
X016260Y031977D02*
X016140Y031977D01*
X016140Y031819D02*
X016260Y031819D01*
X016260Y031660D02*
X016140Y031660D01*
X016140Y031502D02*
X016260Y031502D01*
X016289Y031343D02*
X016111Y031343D01*
X016007Y031185D02*
X016393Y031185D01*
X017007Y031185D02*
X017393Y031185D01*
X017289Y031343D02*
X017111Y031343D01*
X017140Y031502D02*
X017260Y031502D01*
X017260Y031660D02*
X017140Y031660D01*
X017140Y031819D02*
X017260Y031819D01*
X017260Y031977D02*
X017140Y031977D01*
X017140Y032136D02*
X017260Y032136D01*
X017304Y032294D02*
X017096Y032294D01*
X016970Y032453D02*
X017430Y032453D01*
X018029Y032770D02*
X013970Y032770D01*
X013970Y032928D02*
X018030Y032928D01*
X018030Y033087D02*
X013970Y033087D01*
X013970Y033245D02*
X018030Y033245D01*
X018030Y033404D02*
X013970Y033404D01*
X013970Y033562D02*
X018030Y033562D01*
X018030Y033721D02*
X013970Y033721D01*
X013970Y033879D02*
X018030Y033879D01*
X018030Y034038D02*
X013970Y034038D01*
X013970Y034196D02*
X018030Y034196D01*
X018031Y034672D02*
X017341Y034672D01*
X017429Y034830D02*
X018031Y034830D01*
X018031Y034989D02*
X017460Y034989D01*
X017460Y035147D02*
X018031Y035147D01*
X019370Y034355D02*
X022652Y034355D01*
X022652Y034513D02*
X021520Y034513D01*
X021539Y034522D02*
X021611Y034575D01*
X021675Y034639D01*
X021728Y034711D01*
X021768Y034791D01*
X021796Y034877D01*
X021810Y034965D01*
X021810Y035350D01*
X021290Y035350D01*
X021290Y035450D01*
X021190Y035450D01*
X021190Y036359D01*
X021107Y036346D01*
X021021Y036318D01*
X020941Y036278D01*
X020869Y036225D01*
X020805Y036161D01*
X020752Y036089D01*
X020712Y036009D01*
X020684Y035923D01*
X020670Y035835D01*
X020670Y035450D01*
X021190Y035450D01*
X021190Y035350D01*
X020670Y035350D01*
X020670Y034965D01*
X020684Y034877D01*
X020712Y034791D01*
X020752Y034711D01*
X020805Y034639D01*
X020869Y034575D01*
X020941Y034522D01*
X021021Y034482D01*
X021107Y034454D01*
X021190Y034441D01*
X021190Y035350D01*
X021290Y035350D01*
X021290Y034441D01*
X021373Y034454D01*
X021459Y034482D01*
X021539Y034522D01*
X021699Y034672D02*
X022652Y034672D01*
X022652Y034830D02*
X021781Y034830D01*
X021810Y034989D02*
X022652Y034989D01*
X022652Y035147D02*
X021810Y035147D01*
X021810Y035306D02*
X022652Y035306D01*
X022652Y035464D02*
X021810Y035464D01*
X021810Y035450D02*
X021810Y035835D01*
X021796Y035923D01*
X021768Y036009D01*
X021728Y036089D01*
X021675Y036161D01*
X021611Y036225D01*
X021539Y036278D01*
X021459Y036318D01*
X021373Y036346D01*
X021290Y036359D01*
X021290Y035450D01*
X021810Y035450D01*
X021810Y035623D02*
X022680Y035623D01*
X022680Y035781D02*
X021810Y035781D01*
X021791Y035940D02*
X022698Y035940D01*
X022769Y036098D02*
X021721Y036098D01*
X021568Y036257D02*
X022951Y036257D01*
X023469Y036257D02*
X024931Y036257D01*
X024890Y036239D02*
X024741Y036090D01*
X024660Y035895D01*
X024660Y034905D01*
X024671Y034878D01*
X024671Y032351D01*
X024549Y032473D01*
X024388Y032540D01*
X024212Y032540D01*
X024051Y032473D01*
X023927Y032349D01*
X023860Y032188D01*
X023860Y031412D01*
X023927Y031251D01*
X024051Y031127D01*
X024212Y031060D01*
X024388Y031060D01*
X024549Y031127D01*
X024671Y031249D01*
X024671Y028351D01*
X024671Y028351D01*
X024671Y028280D01*
X024671Y028210D01*
X024721Y028160D01*
X024771Y028111D01*
X024771Y028111D01*
X024771Y028111D01*
X024841Y028111D01*
X024911Y028111D01*
X024912Y028111D01*
X027207Y028119D01*
X027215Y027849D01*
X027318Y027752D01*
X027458Y027756D01*
X027555Y027858D01*
X027543Y028292D01*
X027542Y028361D01*
X027541Y028362D01*
X027541Y028365D01*
X027491Y028412D01*
X027442Y028460D01*
X027440Y028460D01*
X027438Y028462D01*
X027370Y028460D01*
X025011Y028451D01*
X025011Y031167D01*
X025051Y031127D01*
X025212Y031060D01*
X025388Y031060D01*
X025549Y031127D01*
X025673Y031251D01*
X025740Y031412D01*
X025740Y032188D01*
X025673Y032349D01*
X025549Y032473D01*
X025388Y032540D01*
X025212Y032540D01*
X025051Y032473D01*
X025011Y032433D01*
X025011Y034510D01*
X025085Y034480D01*
X025295Y034480D01*
X025490Y034561D01*
X025639Y034710D01*
X025720Y034905D01*
X025720Y035895D01*
X025639Y036090D01*
X025490Y036239D01*
X025295Y036320D01*
X025085Y036320D01*
X024890Y036239D01*
X024749Y036098D02*
X023651Y036098D01*
X023722Y035940D02*
X024678Y035940D01*
X024660Y035781D02*
X023740Y035781D01*
X023740Y035623D02*
X024660Y035623D01*
X024660Y035464D02*
X023740Y035464D01*
X023740Y035306D02*
X024660Y035306D01*
X024660Y035147D02*
X023740Y035147D01*
X023740Y034989D02*
X024660Y034989D01*
X024671Y034830D02*
X023709Y034830D01*
X023621Y034672D02*
X024671Y034672D01*
X024671Y034513D02*
X023395Y034513D01*
X023025Y034513D02*
X022992Y034513D01*
X022992Y034355D02*
X024671Y034355D01*
X024671Y034196D02*
X022992Y034196D01*
X022992Y034038D02*
X024671Y034038D01*
X024671Y033879D02*
X022992Y033879D01*
X022992Y033721D02*
X024671Y033721D01*
X024671Y033562D02*
X022992Y033562D01*
X022992Y033404D02*
X024671Y033404D01*
X024671Y033245D02*
X022992Y033245D01*
X022992Y033087D02*
X024671Y033087D01*
X024671Y032928D02*
X022992Y032928D01*
X022992Y032770D02*
X024671Y032770D01*
X024671Y032611D02*
X022992Y032611D01*
X022992Y032453D02*
X023030Y032453D01*
X022652Y032453D02*
X021970Y032453D01*
X021949Y032473D02*
X021788Y032540D01*
X021612Y032540D01*
X021451Y032473D01*
X021327Y032349D01*
X021260Y032188D01*
X021260Y031412D01*
X021327Y031251D01*
X021451Y031127D01*
X021612Y031060D01*
X021788Y031060D01*
X021949Y031127D01*
X022073Y031251D01*
X022140Y031412D01*
X022140Y032188D01*
X022073Y032349D01*
X021949Y032473D01*
X022096Y032294D02*
X022652Y032294D01*
X022652Y032136D02*
X022140Y032136D01*
X022140Y031977D02*
X022652Y031977D01*
X022652Y031819D02*
X022140Y031819D01*
X022140Y031660D02*
X022652Y031660D01*
X022652Y031502D02*
X022140Y031502D01*
X022111Y031343D02*
X022652Y031343D01*
X022652Y031185D02*
X022007Y031185D01*
X021393Y031185D02*
X021007Y031185D01*
X020949Y031127D02*
X021073Y031251D01*
X021140Y031412D01*
X021140Y032188D01*
X021073Y032349D01*
X020949Y032473D01*
X020788Y032540D01*
X020612Y032540D01*
X020451Y032473D01*
X020327Y032349D01*
X020260Y032188D01*
X020260Y031412D01*
X020327Y031251D01*
X020451Y031127D01*
X020612Y031060D01*
X020788Y031060D01*
X020949Y031127D01*
X021111Y031343D02*
X021289Y031343D01*
X021260Y031502D02*
X021140Y031502D01*
X021140Y031660D02*
X021260Y031660D01*
X021260Y031819D02*
X021140Y031819D01*
X021140Y031977D02*
X021260Y031977D01*
X021260Y032136D02*
X021140Y032136D01*
X021096Y032294D02*
X021304Y032294D01*
X021430Y032453D02*
X020970Y032453D01*
X020430Y032453D02*
X019970Y032453D01*
X020096Y032294D02*
X020304Y032294D01*
X020260Y032136D02*
X020140Y032136D01*
X020140Y031977D02*
X020260Y031977D01*
X020260Y031819D02*
X020140Y031819D01*
X020140Y031660D02*
X020260Y031660D01*
X020260Y031502D02*
X020140Y031502D01*
X020111Y031343D02*
X020289Y031343D01*
X020393Y031185D02*
X020007Y031185D01*
X019393Y031185D02*
X019370Y031185D01*
X019370Y031026D02*
X022652Y031026D01*
X022652Y030868D02*
X019370Y030868D01*
X019370Y030709D02*
X022652Y030709D01*
X022652Y030551D02*
X019370Y030551D01*
X019370Y030392D02*
X022652Y030392D01*
X022652Y030234D02*
X019370Y030234D01*
X019370Y030075D02*
X022652Y030075D01*
X022652Y029917D02*
X019370Y029917D01*
X019370Y029758D02*
X022652Y029758D01*
X022652Y029600D02*
X019370Y029600D01*
X019370Y029441D02*
X022652Y029441D01*
X022652Y029283D02*
X019370Y029283D01*
X019370Y029124D02*
X022652Y029124D01*
X022652Y028966D02*
X019370Y028966D01*
X019370Y028807D02*
X022652Y028807D01*
X022652Y028649D02*
X019370Y028649D01*
X019370Y028490D02*
X022652Y028490D01*
X022652Y028332D02*
X022603Y028332D01*
X022603Y028173D02*
X022652Y028173D01*
X022652Y028015D02*
X022603Y028015D01*
X022556Y027856D02*
X022652Y027856D01*
X022652Y027698D02*
X018366Y027698D01*
X018367Y027856D02*
X022311Y027856D01*
X022263Y028015D02*
X018367Y028015D01*
X018367Y028173D02*
X019087Y028173D01*
X019030Y028332D02*
X018367Y028332D01*
X018367Y028490D02*
X019030Y028490D01*
X019030Y028649D02*
X018367Y028649D01*
X018367Y028807D02*
X019030Y028807D01*
X019030Y028966D02*
X018367Y028966D01*
X018367Y029124D02*
X019030Y029124D01*
X019030Y029283D02*
X018367Y029283D01*
X018368Y029441D02*
X019030Y029441D01*
X019030Y029600D02*
X018368Y029600D01*
X018368Y029758D02*
X019030Y029758D01*
X019030Y029917D02*
X018368Y029917D01*
X018368Y030075D02*
X019030Y030075D01*
X019030Y030234D02*
X018368Y030234D01*
X018368Y030392D02*
X019030Y030392D01*
X019030Y030551D02*
X018368Y030551D01*
X018368Y030709D02*
X019030Y030709D01*
X019030Y030868D02*
X018368Y030868D01*
X018368Y031026D02*
X019030Y031026D01*
X019030Y031185D02*
X019007Y031185D01*
X018393Y031185D02*
X018369Y031185D01*
X018029Y031185D02*
X018007Y031185D01*
X018970Y032453D02*
X019030Y032453D01*
X019370Y032453D02*
X019430Y032453D01*
X019370Y032611D02*
X022652Y032611D01*
X022652Y032770D02*
X019370Y032770D01*
X019370Y032928D02*
X022652Y032928D01*
X022652Y033087D02*
X019370Y033087D01*
X019370Y033245D02*
X022652Y033245D01*
X022652Y033404D02*
X019370Y033404D01*
X019370Y033562D02*
X022652Y033562D01*
X022652Y033721D02*
X019370Y033721D01*
X019370Y033879D02*
X022652Y033879D01*
X022652Y034038D02*
X019370Y034038D01*
X019370Y034196D02*
X022652Y034196D01*
X021290Y034513D02*
X021190Y034513D01*
X021190Y034672D02*
X021290Y034672D01*
X021290Y034830D02*
X021190Y034830D01*
X021190Y034989D02*
X021290Y034989D01*
X021290Y035147D02*
X021190Y035147D01*
X021190Y035306D02*
X021290Y035306D01*
X021290Y035464D02*
X021190Y035464D01*
X021190Y035623D02*
X021290Y035623D01*
X021290Y035781D02*
X021190Y035781D01*
X021190Y035940D02*
X021290Y035940D01*
X021290Y036098D02*
X021190Y036098D01*
X021190Y036257D02*
X021290Y036257D01*
X020912Y036257D02*
X019529Y036257D01*
X019711Y036098D02*
X020759Y036098D01*
X020689Y035940D02*
X019782Y035940D01*
X019800Y035781D02*
X020670Y035781D01*
X020670Y035623D02*
X019800Y035623D01*
X019800Y035464D02*
X020670Y035464D01*
X020670Y035306D02*
X019800Y035306D01*
X019800Y035147D02*
X020670Y035147D01*
X020670Y034989D02*
X019800Y034989D01*
X019769Y034830D02*
X020699Y034830D01*
X020781Y034672D02*
X019681Y034672D01*
X019455Y034513D02*
X020960Y034513D01*
X023570Y032453D02*
X024030Y032453D01*
X023904Y032294D02*
X023696Y032294D01*
X023740Y032136D02*
X023860Y032136D01*
X023860Y031977D02*
X023740Y031977D01*
X023740Y031819D02*
X023860Y031819D01*
X023860Y031660D02*
X023740Y031660D01*
X023740Y031502D02*
X023860Y031502D01*
X023889Y031343D02*
X023711Y031343D01*
X023607Y031185D02*
X023993Y031185D01*
X024671Y031026D02*
X022992Y031026D01*
X022992Y030868D02*
X024671Y030868D01*
X024671Y030709D02*
X022992Y030709D01*
X022992Y030551D02*
X024671Y030551D01*
X024671Y030392D02*
X022992Y030392D01*
X022992Y030234D02*
X024671Y030234D01*
X024671Y030075D02*
X022992Y030075D01*
X022992Y029917D02*
X024671Y029917D01*
X024671Y029758D02*
X022992Y029758D01*
X022992Y029600D02*
X024671Y029600D01*
X024671Y029441D02*
X022992Y029441D01*
X022992Y029283D02*
X024671Y029283D01*
X024671Y029124D02*
X022992Y029124D01*
X022992Y028966D02*
X024671Y028966D01*
X024671Y028807D02*
X022992Y028807D01*
X022992Y028649D02*
X024671Y028649D01*
X024671Y028490D02*
X022992Y028490D01*
X022992Y028332D02*
X024671Y028332D01*
X024671Y028210D02*
X024671Y028210D01*
X024671Y028210D01*
X024708Y028173D02*
X022992Y028173D01*
X022992Y028015D02*
X027210Y028015D01*
X027215Y027856D02*
X022992Y027856D01*
X022992Y027698D02*
X028630Y027698D01*
X028630Y027856D02*
X027553Y027856D01*
X027551Y028015D02*
X028630Y028015D01*
X028630Y028173D02*
X027546Y028173D01*
X027542Y028332D02*
X028630Y028332D01*
X028630Y028490D02*
X025011Y028490D01*
X025011Y028649D02*
X028630Y028649D01*
X028630Y028807D02*
X025011Y028807D01*
X025011Y028966D02*
X028630Y028966D01*
X028630Y029124D02*
X025011Y029124D01*
X025011Y029283D02*
X028630Y029283D01*
X028630Y029441D02*
X025011Y029441D01*
X025011Y029600D02*
X028630Y029600D01*
X028630Y029758D02*
X025011Y029758D01*
X025011Y029917D02*
X028630Y029917D01*
X028630Y030075D02*
X025011Y030075D01*
X025011Y030234D02*
X028630Y030234D01*
X028630Y030392D02*
X025011Y030392D01*
X025011Y030551D02*
X028630Y030551D01*
X028630Y030709D02*
X025011Y030709D01*
X025011Y030868D02*
X028630Y030868D01*
X028630Y031026D02*
X025011Y031026D01*
X024671Y031185D02*
X024607Y031185D01*
X025607Y031185D02*
X025993Y031185D01*
X026051Y031127D02*
X026212Y031060D01*
X026388Y031060D01*
X026549Y031127D01*
X026673Y031251D01*
X026740Y031412D01*
X026740Y032188D01*
X026673Y032349D01*
X026549Y032473D01*
X026388Y032540D01*
X026212Y032540D01*
X026051Y032473D01*
X025927Y032349D01*
X025860Y032188D01*
X025860Y031412D01*
X025927Y031251D01*
X026051Y031127D01*
X025889Y031343D02*
X025711Y031343D01*
X025740Y031502D02*
X025860Y031502D01*
X025860Y031660D02*
X025740Y031660D01*
X025740Y031819D02*
X025860Y031819D01*
X025860Y031977D02*
X025740Y031977D01*
X025740Y032136D02*
X025860Y032136D01*
X025904Y032294D02*
X025696Y032294D01*
X025570Y032453D02*
X026030Y032453D01*
X026570Y032453D02*
X027030Y032453D01*
X027051Y032473D02*
X026927Y032349D01*
X026860Y032188D01*
X026860Y031412D01*
X026927Y031251D01*
X027051Y031127D01*
X027212Y031060D01*
X027388Y031060D01*
X027549Y031127D01*
X027673Y031251D01*
X027740Y031412D01*
X027740Y032188D01*
X027673Y032349D01*
X027549Y032473D01*
X027388Y032540D01*
X027212Y032540D01*
X027051Y032473D01*
X026904Y032294D02*
X026696Y032294D01*
X026740Y032136D02*
X026860Y032136D01*
X026860Y031977D02*
X026740Y031977D01*
X026740Y031819D02*
X026860Y031819D01*
X026860Y031660D02*
X026740Y031660D01*
X026740Y031502D02*
X026860Y031502D01*
X026889Y031343D02*
X026711Y031343D01*
X026607Y031185D02*
X026993Y031185D01*
X027607Y031185D02*
X027993Y031185D01*
X027889Y031343D02*
X027711Y031343D01*
X027740Y031502D02*
X027860Y031502D01*
X027860Y031660D02*
X027740Y031660D01*
X027740Y031819D02*
X027860Y031819D01*
X027860Y031977D02*
X027740Y031977D01*
X027740Y032136D02*
X027860Y032136D01*
X027904Y032294D02*
X027696Y032294D01*
X027570Y032453D02*
X028030Y032453D01*
X028570Y032453D02*
X028630Y032453D01*
X028630Y032611D02*
X025011Y032611D01*
X025011Y032453D02*
X025030Y032453D01*
X025011Y032770D02*
X028630Y032770D01*
X028630Y032928D02*
X025011Y032928D01*
X025011Y033087D02*
X028630Y033087D01*
X028630Y033245D02*
X025011Y033245D01*
X025011Y033404D02*
X028630Y033404D01*
X028630Y033562D02*
X025011Y033562D01*
X025011Y033721D02*
X028630Y033721D01*
X028630Y033879D02*
X025011Y033879D01*
X025011Y034038D02*
X028630Y034038D01*
X028630Y034196D02*
X025011Y034196D01*
X025011Y034355D02*
X028630Y034355D01*
X028630Y034513D02*
X027440Y034513D01*
X027459Y034522D02*
X027531Y034575D01*
X027595Y034639D01*
X027648Y034711D01*
X027688Y034791D01*
X027716Y034877D01*
X027730Y034965D01*
X027730Y035350D01*
X027210Y035350D01*
X027210Y035450D01*
X027110Y035450D01*
X027110Y036359D01*
X027027Y036346D01*
X026941Y036318D01*
X026861Y036278D01*
X026789Y036225D01*
X026725Y036161D01*
X026672Y036089D01*
X026632Y036009D01*
X026604Y035923D01*
X026590Y035835D01*
X026590Y035450D01*
X027110Y035450D01*
X027110Y035350D01*
X026590Y035350D01*
X026590Y034965D01*
X026604Y034877D01*
X026632Y034791D01*
X026672Y034711D01*
X026725Y034639D01*
X026789Y034575D01*
X026861Y034522D01*
X026941Y034482D01*
X027027Y034454D01*
X027110Y034441D01*
X027110Y035350D01*
X027210Y035350D01*
X027210Y034441D01*
X027293Y034454D01*
X027379Y034482D01*
X027459Y034522D01*
X027619Y034672D02*
X028630Y034672D01*
X028630Y034830D02*
X027701Y034830D01*
X027730Y034989D02*
X028600Y034989D01*
X028600Y035147D02*
X027730Y035147D01*
X027730Y035306D02*
X028600Y035306D01*
X028600Y035464D02*
X027730Y035464D01*
X027730Y035450D02*
X027730Y035835D01*
X027716Y035923D01*
X027688Y036009D01*
X027648Y036089D01*
X027595Y036161D01*
X027531Y036225D01*
X027459Y036278D01*
X027379Y036318D01*
X027293Y036346D01*
X027210Y036359D01*
X027210Y035450D01*
X027730Y035450D01*
X027730Y035623D02*
X028600Y035623D01*
X028600Y035781D02*
X027730Y035781D01*
X027711Y035940D02*
X028618Y035940D01*
X028689Y036098D02*
X027641Y036098D01*
X027488Y036257D02*
X028871Y036257D01*
X029389Y036257D02*
X031171Y036257D01*
X030989Y036098D02*
X029571Y036098D01*
X029642Y035940D02*
X030918Y035940D01*
X030900Y035781D02*
X029660Y035781D01*
X029660Y035623D02*
X030900Y035623D01*
X030900Y035464D02*
X029660Y035464D01*
X029660Y035306D02*
X030900Y035306D01*
X030900Y035147D02*
X029660Y035147D01*
X029660Y034989D02*
X030900Y034989D01*
X030931Y034830D02*
X029629Y034830D01*
X029541Y034672D02*
X031019Y034672D01*
X031245Y034513D02*
X029315Y034513D01*
X028970Y034355D02*
X031278Y034355D01*
X031321Y034196D02*
X028970Y034196D01*
X028970Y034038D02*
X033562Y034038D01*
X033563Y033879D02*
X028970Y033879D01*
X028970Y033721D02*
X033563Y033721D01*
X033564Y033562D02*
X028970Y033562D01*
X028970Y033404D02*
X033564Y033404D01*
X033565Y033245D02*
X028970Y033245D01*
X028970Y033087D02*
X033565Y033087D01*
X033566Y032928D02*
X028970Y032928D01*
X028970Y032770D02*
X033566Y032770D01*
X033567Y032611D02*
X028970Y032611D01*
X028970Y032453D02*
X029030Y032453D01*
X029570Y032453D02*
X030030Y032453D01*
X030051Y032473D02*
X029927Y032349D01*
X029860Y032188D01*
X029860Y031412D01*
X029927Y031251D01*
X030051Y031127D01*
X030212Y031060D01*
X030388Y031060D01*
X030549Y031127D01*
X030673Y031251D01*
X030740Y031412D01*
X030740Y032188D01*
X030673Y032349D01*
X030549Y032473D01*
X030388Y032540D01*
X030212Y032540D01*
X030051Y032473D01*
X029904Y032294D02*
X029696Y032294D01*
X029740Y032136D02*
X029860Y032136D01*
X029860Y031977D02*
X029740Y031977D01*
X029740Y031819D02*
X029860Y031819D01*
X029860Y031660D02*
X029740Y031660D01*
X029740Y031502D02*
X029860Y031502D01*
X029889Y031343D02*
X029711Y031343D01*
X029607Y031185D02*
X029993Y031185D01*
X030607Y031185D02*
X031993Y031185D01*
X031889Y031343D02*
X030711Y031343D01*
X030740Y031502D02*
X031860Y031502D01*
X031860Y031660D02*
X030740Y031660D01*
X030740Y031819D02*
X031860Y031819D01*
X031860Y031977D02*
X030740Y031977D01*
X030740Y032136D02*
X031860Y032136D01*
X031904Y032294D02*
X030696Y032294D01*
X030570Y032453D02*
X032030Y032453D01*
X032570Y032453D02*
X033030Y032453D01*
X032904Y032294D02*
X032696Y032294D01*
X032740Y032136D02*
X032860Y032136D01*
X032860Y031977D02*
X032740Y031977D01*
X032740Y031819D02*
X032860Y031819D01*
X032860Y031660D02*
X032740Y031660D01*
X032740Y031502D02*
X032860Y031502D01*
X032889Y031343D02*
X032711Y031343D01*
X032607Y031185D02*
X032993Y031185D01*
X033149Y031026D02*
X032490Y031026D01*
X032490Y030868D02*
X033149Y030868D01*
X033149Y030709D02*
X032490Y030709D01*
X032490Y030551D02*
X033149Y030551D01*
X033149Y030392D02*
X032490Y030392D01*
X032490Y030234D02*
X033149Y030234D01*
X033149Y030075D02*
X032490Y030075D01*
X032490Y029917D02*
X033149Y029917D01*
X033149Y029758D02*
X032490Y029758D01*
X032490Y029600D02*
X033149Y029600D01*
X033149Y029441D02*
X032490Y029441D01*
X032490Y029283D02*
X033149Y029283D01*
X033149Y029124D02*
X032490Y029124D01*
X032490Y028966D02*
X033149Y028966D01*
X033149Y028807D02*
X032490Y028807D01*
X032490Y028649D02*
X033149Y028649D01*
X033149Y028490D02*
X032490Y028490D01*
X032490Y028332D02*
X033149Y028332D01*
X033149Y028173D02*
X032490Y028173D01*
X032150Y028332D02*
X028970Y028332D01*
X028970Y028490D02*
X032150Y028490D01*
X032150Y028649D02*
X028970Y028649D01*
X028970Y028807D02*
X032150Y028807D01*
X032150Y028966D02*
X028970Y028966D01*
X028970Y029124D02*
X032150Y029124D01*
X032150Y029283D02*
X028970Y029283D01*
X028970Y029441D02*
X032150Y029441D01*
X032150Y029600D02*
X028970Y029600D01*
X028970Y029758D02*
X032150Y029758D01*
X032150Y029917D02*
X028970Y029917D01*
X028970Y030075D02*
X032150Y030075D01*
X032150Y030234D02*
X028970Y030234D01*
X028970Y030392D02*
X032150Y030392D01*
X032150Y030551D02*
X028970Y030551D01*
X028970Y030709D02*
X032150Y030709D01*
X032150Y030868D02*
X028970Y030868D01*
X028970Y031026D02*
X032150Y031026D01*
X033489Y031026D02*
X033571Y031026D01*
X033572Y030868D02*
X033489Y030868D01*
X033489Y030709D02*
X033572Y030709D01*
X033573Y030551D02*
X033489Y030551D01*
X033489Y030392D02*
X033573Y030392D01*
X033574Y030234D02*
X033489Y030234D01*
X033489Y030075D02*
X033574Y030075D01*
X033575Y029917D02*
X033489Y029917D01*
X033489Y029758D02*
X033575Y029758D01*
X033575Y029600D02*
X033489Y029600D01*
X033489Y029441D02*
X033576Y029441D01*
X033576Y029283D02*
X033489Y029283D01*
X033489Y029124D02*
X033577Y029124D01*
X033577Y028966D02*
X033489Y028966D01*
X033489Y028807D02*
X033578Y028807D01*
X033578Y028649D02*
X033489Y028649D01*
X033489Y028490D02*
X033579Y028490D01*
X033579Y028332D02*
X033489Y028332D01*
X033489Y028173D02*
X033580Y028173D01*
X033580Y028015D02*
X033489Y028015D01*
X033489Y027856D02*
X033581Y027856D01*
X033581Y027698D02*
X029618Y027698D01*
X029619Y027539D02*
X031914Y027539D01*
X031936Y027381D02*
X029620Y027381D01*
X029621Y027222D02*
X035681Y027222D01*
X035681Y027064D02*
X029622Y027064D01*
X029623Y026905D02*
X035681Y026905D01*
X035681Y026747D02*
X029624Y026747D01*
X029625Y026588D02*
X035681Y026588D01*
X036021Y026588D02*
X038624Y026588D01*
X038623Y026430D02*
X036020Y026430D01*
X036020Y026271D02*
X038622Y026271D01*
X038621Y026113D02*
X032253Y026113D01*
X032253Y025954D02*
X038532Y025954D01*
X038490Y025796D02*
X029630Y025796D01*
X029629Y025954D02*
X031913Y025954D01*
X031913Y026113D02*
X029628Y026113D01*
X029627Y026271D02*
X031913Y026271D01*
X031913Y026370D02*
X031913Y026370D01*
X031913Y026370D01*
X031972Y026430D02*
X029626Y026430D01*
X029084Y026430D02*
X028970Y026430D01*
X028970Y026588D02*
X029084Y026588D01*
X029084Y026747D02*
X028970Y026747D01*
X028970Y026905D02*
X029084Y026905D01*
X029084Y027064D02*
X028970Y027064D01*
X028970Y027222D02*
X029084Y027222D01*
X029084Y027381D02*
X028970Y027381D01*
X028970Y027539D02*
X029084Y027539D01*
X029084Y027698D02*
X028970Y027698D01*
X028970Y027856D02*
X029084Y027856D01*
X029084Y028015D02*
X028970Y028015D01*
X028970Y028173D02*
X029123Y028173D01*
X028630Y027539D02*
X022992Y027539D01*
X022992Y027381D02*
X028630Y027381D01*
X028630Y027222D02*
X022992Y027222D01*
X022992Y027064D02*
X028630Y027064D01*
X028630Y026905D02*
X022992Y026905D01*
X022992Y026747D02*
X028630Y026747D01*
X028630Y026588D02*
X022992Y026588D01*
X022992Y026430D02*
X027322Y026430D01*
X027263Y026271D02*
X022992Y026271D01*
X022894Y026113D02*
X027263Y026113D01*
X027603Y026113D02*
X029084Y026113D01*
X029084Y026271D02*
X028970Y026271D01*
X029084Y025637D02*
X008820Y025637D01*
X008788Y025479D02*
X029084Y025479D01*
X029084Y025320D02*
X010595Y025320D01*
X010566Y025348D02*
X010393Y025420D01*
X010207Y025420D01*
X010034Y025348D01*
X009902Y025216D01*
X009830Y025043D01*
X009830Y024857D01*
X009902Y024684D01*
X010034Y024552D01*
X010207Y024480D01*
X010393Y024480D01*
X010566Y024552D01*
X010698Y024684D01*
X010770Y024857D01*
X010770Y025043D01*
X010698Y025216D01*
X010566Y025348D01*
X010721Y025162D02*
X029084Y025162D01*
X029084Y025003D02*
X010770Y025003D01*
X010765Y024845D02*
X027441Y024845D01*
X027354Y024686D02*
X010699Y024686D01*
X010508Y024528D02*
X027354Y024528D01*
X027354Y024369D02*
X005830Y024369D01*
X005830Y024211D02*
X007298Y024211D01*
X007291Y024208D02*
X007211Y024168D01*
X007139Y024115D01*
X007075Y024051D01*
X007022Y023979D01*
X006982Y023899D01*
X006954Y023813D01*
X006941Y023730D01*
X007850Y023730D01*
X007850Y024250D01*
X007465Y024250D01*
X007377Y024236D01*
X007291Y024208D01*
X007076Y024052D02*
X005830Y024052D01*
X005830Y023894D02*
X006980Y023894D01*
X006942Y023735D02*
X005830Y023735D01*
X005830Y023577D02*
X006949Y023577D01*
X006954Y023547D02*
X006982Y023461D01*
X007022Y023381D01*
X007075Y023309D01*
X007139Y023245D01*
X007211Y023192D01*
X007291Y023152D01*
X007377Y023124D01*
X007465Y023110D01*
X007850Y023110D01*
X007850Y023630D01*
X007950Y023630D01*
X007950Y023730D01*
X007850Y023730D01*
X007850Y023630D01*
X006941Y023630D01*
X006954Y023547D01*
X007004Y023418D02*
X005830Y023418D01*
X005830Y023260D02*
X007124Y023260D01*
X007850Y023260D02*
X007950Y023260D01*
X007950Y023110D02*
X008335Y023110D01*
X008423Y023124D01*
X008509Y023152D01*
X008589Y023192D01*
X008661Y023245D01*
X008725Y023309D01*
X008778Y023381D01*
X008818Y023461D01*
X008846Y023547D01*
X008859Y023630D01*
X007950Y023630D01*
X007950Y023110D01*
X007950Y023418D02*
X007850Y023418D01*
X007850Y023577D02*
X007950Y023577D01*
X007950Y023730D02*
X008859Y023730D01*
X008846Y023813D01*
X008818Y023899D01*
X008778Y023979D01*
X008725Y024051D01*
X008661Y024115D01*
X008589Y024168D01*
X008509Y024208D01*
X008423Y024236D01*
X008335Y024250D01*
X007950Y024250D01*
X007950Y023730D01*
X007950Y023735D02*
X007850Y023735D01*
X007850Y023894D02*
X007950Y023894D01*
X007950Y024052D02*
X007850Y024052D01*
X007850Y024211D02*
X007950Y024211D01*
X008502Y024211D02*
X027354Y024211D01*
X027354Y024052D02*
X008724Y024052D01*
X008820Y023894D02*
X027354Y023894D01*
X027354Y023735D02*
X008858Y023735D01*
X008851Y023577D02*
X027354Y023577D01*
X027354Y023418D02*
X008796Y023418D01*
X008676Y023260D02*
X027354Y023260D01*
X027354Y023101D02*
X005830Y023101D01*
X005830Y022943D02*
X027354Y022943D01*
X027354Y022784D02*
X005830Y022784D01*
X005830Y022626D02*
X027354Y022626D01*
X027354Y022467D02*
X005830Y022467D01*
X005830Y022309D02*
X027354Y022309D01*
X027354Y022150D02*
X008610Y022150D01*
X008590Y022169D02*
X008395Y022250D01*
X007405Y022250D01*
X007210Y022169D01*
X007061Y022020D01*
X006980Y021825D01*
X006980Y021615D01*
X007061Y021420D01*
X007210Y021271D01*
X007405Y021190D01*
X008395Y021190D01*
X008590Y021271D01*
X008739Y021420D01*
X008820Y021615D01*
X008820Y021825D01*
X008739Y022020D01*
X008590Y022169D01*
X008751Y021992D02*
X027354Y021992D01*
X027354Y021833D02*
X008817Y021833D01*
X008820Y021675D02*
X027354Y021675D01*
X027354Y021516D02*
X008779Y021516D01*
X008677Y021358D02*
X010056Y021358D01*
X010034Y021348D02*
X009902Y021216D01*
X009830Y021043D01*
X009830Y020857D01*
X009902Y020684D01*
X010034Y020552D01*
X010207Y020480D01*
X010393Y020480D01*
X010566Y020552D01*
X010698Y020684D01*
X010770Y020857D01*
X010770Y021043D01*
X010698Y021216D01*
X010566Y021348D01*
X010393Y021420D01*
X010207Y021420D01*
X010034Y021348D01*
X009894Y021199D02*
X008417Y021199D01*
X007383Y021199D02*
X005830Y021199D01*
X005830Y021041D02*
X009830Y021041D01*
X009830Y020882D02*
X005830Y020882D01*
X005830Y020724D02*
X009885Y020724D01*
X010020Y020565D02*
X005830Y020565D01*
X005830Y020407D02*
X027354Y020407D01*
X027354Y020565D02*
X010580Y020565D01*
X010715Y020724D02*
X027354Y020724D01*
X027354Y020882D02*
X010770Y020882D01*
X010770Y021041D02*
X027354Y021041D01*
X027354Y021199D02*
X010706Y021199D01*
X010544Y021358D02*
X027354Y021358D01*
X027694Y021358D02*
X031114Y021358D01*
X031151Y021320D02*
X030870Y021601D01*
X030870Y021780D01*
X031330Y021780D01*
X031330Y021820D01*
X031330Y022280D01*
X031151Y022280D01*
X030870Y021999D01*
X030870Y021820D01*
X031330Y021820D01*
X031370Y021820D01*
X031370Y022280D01*
X031549Y022280D01*
X031830Y021999D01*
X031830Y021820D01*
X031370Y021820D01*
X031370Y021780D01*
X031830Y021780D01*
X031830Y021601D01*
X031549Y021320D01*
X031370Y021320D01*
X031370Y021780D01*
X031330Y021780D01*
X031330Y021320D01*
X031151Y021320D01*
X031330Y021358D02*
X031370Y021358D01*
X031370Y021516D02*
X031330Y021516D01*
X031330Y021675D02*
X031370Y021675D01*
X031370Y021833D02*
X031330Y021833D01*
X031330Y021992D02*
X031370Y021992D01*
X031370Y022150D02*
X031330Y022150D01*
X031168Y022360D02*
X031532Y022360D01*
X031790Y022618D01*
X031790Y022982D01*
X031532Y023240D01*
X031168Y023240D01*
X030910Y022982D01*
X030910Y022618D01*
X031168Y022360D01*
X031061Y022467D02*
X030639Y022467D01*
X030532Y022360D02*
X030790Y022618D01*
X030790Y022982D01*
X030532Y023240D01*
X030168Y023240D01*
X029910Y022982D01*
X029910Y022618D01*
X030168Y022360D01*
X030532Y022360D01*
X030532Y022240D02*
X030168Y022240D01*
X029910Y021982D01*
X029910Y021618D01*
X030168Y021360D01*
X030532Y021360D01*
X030790Y021618D01*
X030790Y021982D01*
X030532Y022240D01*
X030622Y022150D02*
X031021Y022150D01*
X030870Y021992D02*
X030781Y021992D01*
X030790Y021833D02*
X030870Y021833D01*
X030870Y021675D02*
X030790Y021675D01*
X030688Y021516D02*
X030955Y021516D01*
X030012Y021516D02*
X027694Y021516D01*
X027694Y021675D02*
X029910Y021675D01*
X029910Y021833D02*
X027694Y021833D01*
X027694Y021992D02*
X029919Y021992D01*
X030078Y022150D02*
X027694Y022150D01*
X027694Y022309D02*
X044770Y022309D01*
X044770Y022467D02*
X043589Y022467D01*
X043740Y022626D02*
X044770Y022626D01*
X044770Y022784D02*
X043740Y022784D01*
X043740Y022943D02*
X044770Y022943D01*
X044770Y023101D02*
X043621Y023101D01*
X043540Y023418D02*
X044770Y023418D01*
X044770Y023260D02*
X033320Y023260D01*
X033320Y023418D02*
X042060Y023418D01*
X041901Y023577D02*
X035510Y023577D01*
X035442Y023509D02*
X035709Y023775D01*
X035709Y024152D01*
X035442Y024419D01*
X035065Y024419D01*
X034799Y024152D01*
X034799Y023775D01*
X035065Y023509D01*
X035442Y023509D01*
X035669Y023735D02*
X041860Y023735D01*
X041860Y023894D02*
X035709Y023894D01*
X035709Y024052D02*
X041930Y024052D01*
X042088Y024211D02*
X035650Y024211D01*
X035492Y024369D02*
X042109Y024369D01*
X041950Y024528D02*
X032821Y024528D01*
X032977Y024052D02*
X031720Y024052D01*
X031790Y023894D02*
X032978Y023894D01*
X032978Y023735D02*
X031790Y023735D01*
X031749Y023577D02*
X032979Y023577D01*
X032980Y023418D02*
X031590Y023418D01*
X031671Y023101D02*
X032981Y023101D01*
X032982Y022943D02*
X031790Y022943D01*
X031790Y022784D02*
X032982Y022784D01*
X032983Y022626D02*
X031790Y022626D01*
X031639Y022467D02*
X032983Y022467D01*
X033323Y022467D02*
X042011Y022467D01*
X041860Y022626D02*
X033323Y022626D01*
X033322Y022784D02*
X041860Y022784D01*
X041860Y022943D02*
X033322Y022943D01*
X033321Y023101D02*
X041979Y023101D01*
X042028Y022150D02*
X031679Y022150D01*
X031830Y021992D02*
X041869Y021992D01*
X041860Y021833D02*
X031830Y021833D01*
X031830Y021675D02*
X041860Y021675D01*
X041962Y021516D02*
X031745Y021516D01*
X031586Y021358D02*
X044770Y021358D01*
X044770Y021516D02*
X043638Y021516D01*
X043740Y021675D02*
X044770Y021675D01*
X044770Y021833D02*
X043740Y021833D01*
X043731Y021992D02*
X044770Y021992D01*
X044770Y022150D02*
X043572Y022150D01*
X043523Y021199D02*
X044770Y021199D01*
X044770Y021041D02*
X043682Y021041D01*
X043740Y020882D02*
X044770Y020882D01*
X044770Y020724D02*
X043740Y020724D01*
X043687Y020565D02*
X044770Y020565D01*
X044770Y020407D02*
X043529Y020407D01*
X043633Y020090D02*
X044770Y020090D01*
X044770Y020248D02*
X027694Y020248D01*
X027694Y020090D02*
X041967Y020090D01*
X041860Y019931D02*
X027694Y019931D01*
X027694Y019773D02*
X041860Y019773D01*
X041864Y019614D02*
X027694Y019614D01*
X027694Y019456D02*
X042022Y019456D01*
X042016Y019139D02*
X033337Y019139D01*
X033396Y019297D02*
X044770Y019297D01*
X044770Y019139D02*
X043584Y019139D01*
X043740Y018980D02*
X044770Y018980D01*
X044770Y018822D02*
X043740Y018822D01*
X043740Y018663D02*
X044770Y018663D01*
X044770Y018505D02*
X043627Y018505D01*
X043535Y018188D02*
X044770Y018188D01*
X044770Y018346D02*
X005830Y018346D01*
X005830Y018188D02*
X042065Y018188D01*
X041907Y018029D02*
X005830Y018029D01*
X005830Y017871D02*
X041860Y017871D01*
X041860Y017712D02*
X005830Y017712D01*
X005830Y017554D02*
X041924Y017554D01*
X041956Y017078D02*
X013752Y017078D01*
X013801Y016920D02*
X041860Y016920D01*
X041860Y016761D02*
X013801Y016761D01*
X013801Y016603D02*
X041875Y016603D01*
X042034Y016444D02*
X013677Y016444D01*
X013518Y016286D02*
X044770Y016286D01*
X044770Y016444D02*
X043566Y016444D01*
X043725Y016603D02*
X044770Y016603D01*
X044770Y016761D02*
X043740Y016761D01*
X043740Y016920D02*
X044770Y016920D01*
X044770Y017078D02*
X043644Y017078D01*
X043486Y017237D02*
X044770Y017237D01*
X044770Y017395D02*
X043517Y017395D01*
X043676Y017554D02*
X044770Y017554D01*
X044770Y017712D02*
X043740Y017712D01*
X043740Y017871D02*
X044770Y017871D01*
X044770Y018029D02*
X043693Y018029D01*
X041973Y018505D02*
X005830Y018505D01*
X005830Y018663D02*
X041860Y018663D01*
X041860Y018822D02*
X005830Y018822D01*
X005830Y018980D02*
X041860Y018980D01*
X043578Y019456D02*
X044770Y019456D01*
X044770Y019614D02*
X043736Y019614D01*
X043740Y019773D02*
X044770Y019773D01*
X044770Y019931D02*
X043740Y019931D01*
X042071Y020407D02*
X027694Y020407D01*
X027694Y020565D02*
X041913Y020565D01*
X041860Y020724D02*
X027694Y020724D01*
X027694Y020882D02*
X041860Y020882D01*
X041918Y021041D02*
X027694Y021041D01*
X027694Y021199D02*
X042077Y021199D01*
X043699Y023577D02*
X044770Y023577D01*
X044770Y023735D02*
X043740Y023735D01*
X043740Y023894D02*
X044770Y023894D01*
X044770Y024052D02*
X043670Y024052D01*
X043512Y024211D02*
X044770Y024211D01*
X044770Y024369D02*
X043491Y024369D01*
X043650Y024528D02*
X044770Y024528D01*
X044770Y024686D02*
X043740Y024686D01*
X043740Y024845D02*
X044770Y024845D01*
X044770Y025003D02*
X043719Y025003D01*
X043561Y025162D02*
X044770Y025162D01*
X044770Y025320D02*
X029633Y025320D01*
X029634Y025162D02*
X042039Y025162D01*
X041881Y025003D02*
X029635Y025003D01*
X029636Y024845D02*
X041860Y024845D01*
X041860Y024686D02*
X029637Y024686D01*
X029980Y024052D02*
X027694Y024052D01*
X027694Y023894D02*
X029910Y023894D01*
X029910Y023735D02*
X027694Y023735D01*
X027694Y023577D02*
X029951Y023577D01*
X030110Y023418D02*
X027694Y023418D01*
X027694Y023260D02*
X032980Y023260D01*
X033319Y023577D02*
X033941Y023577D01*
X034049Y023469D02*
X033759Y023759D01*
X033759Y023964D01*
X034254Y023964D01*
X034254Y023964D01*
X034254Y024459D01*
X034459Y024459D01*
X034749Y024169D01*
X034749Y023964D01*
X034254Y023964D01*
X034254Y024459D01*
X034049Y024459D01*
X033759Y024169D01*
X033759Y023964D01*
X034254Y023964D01*
X034254Y023964D01*
X034254Y023964D01*
X034749Y023964D01*
X034749Y023759D01*
X034459Y023469D01*
X034254Y023469D01*
X034254Y023964D01*
X034254Y023964D01*
X034254Y023469D01*
X034049Y023469D01*
X034254Y023577D02*
X034254Y023577D01*
X034254Y023735D02*
X034254Y023735D01*
X034254Y023894D02*
X034254Y023894D01*
X034254Y024052D02*
X034254Y024052D01*
X034254Y024211D02*
X034254Y024211D01*
X034254Y024369D02*
X034254Y024369D01*
X034549Y024369D02*
X035016Y024369D01*
X034857Y024211D02*
X034707Y024211D01*
X034749Y024052D02*
X034799Y024052D01*
X034799Y023894D02*
X034749Y023894D01*
X034725Y023735D02*
X034839Y023735D01*
X034998Y023577D02*
X034567Y023577D01*
X033782Y023735D02*
X033318Y023735D01*
X033318Y023894D02*
X033759Y023894D01*
X033759Y024052D02*
X033317Y024052D01*
X033316Y024211D02*
X033801Y024211D01*
X033959Y024369D02*
X033316Y024369D01*
X031110Y023418D02*
X030590Y023418D01*
X030749Y023577D02*
X030951Y023577D01*
X030910Y023735D02*
X030790Y023735D01*
X030790Y023894D02*
X030910Y023894D01*
X030980Y024052D02*
X030720Y024052D01*
X030671Y023101D02*
X031029Y023101D01*
X030910Y022943D02*
X030790Y022943D01*
X030790Y022784D02*
X030910Y022784D01*
X030910Y022626D02*
X030790Y022626D01*
X030061Y022467D02*
X027694Y022467D01*
X027694Y022626D02*
X029910Y022626D01*
X029910Y022784D02*
X027694Y022784D01*
X027694Y022943D02*
X029910Y022943D01*
X030029Y023101D02*
X027694Y023101D01*
X027694Y024211D02*
X028524Y024211D01*
X028588Y024369D02*
X027694Y024369D01*
X029632Y025479D02*
X039389Y025479D01*
X039277Y025637D02*
X039050Y025637D01*
X039090Y025796D02*
X039267Y025796D01*
X039366Y025954D02*
X039049Y025954D01*
X038960Y026048D02*
X038960Y026048D01*
X038961Y026113D02*
X039378Y026113D01*
X039378Y026271D02*
X038962Y026271D01*
X038963Y026430D02*
X039377Y026430D01*
X039376Y026588D02*
X038964Y026588D01*
X038969Y026747D02*
X039374Y026747D01*
X039577Y026905D02*
X038963Y026905D01*
X038963Y027064D02*
X039577Y027064D01*
X039577Y027222D02*
X038963Y027222D01*
X038963Y027381D02*
X039578Y027381D01*
X039578Y027539D02*
X038963Y027539D01*
X038962Y027698D02*
X039578Y027698D01*
X039578Y027856D02*
X038962Y027856D01*
X038962Y028015D02*
X039579Y028015D01*
X039579Y028173D02*
X038962Y028173D01*
X038962Y028332D02*
X039579Y028332D01*
X039579Y028490D02*
X038962Y028490D01*
X038962Y028649D02*
X039579Y028649D01*
X039580Y028807D02*
X038962Y028807D01*
X038962Y028966D02*
X039580Y028966D01*
X039580Y029124D02*
X038962Y029124D01*
X038962Y029283D02*
X039580Y029283D01*
X039581Y029441D02*
X038962Y029441D01*
X038962Y029600D02*
X039581Y029600D01*
X039581Y029758D02*
X038962Y029758D01*
X038962Y029917D02*
X039581Y029917D01*
X039581Y030075D02*
X038962Y030075D01*
X038962Y030234D02*
X039582Y030234D01*
X039582Y030392D02*
X038962Y030392D01*
X038962Y030551D02*
X039582Y030551D01*
X039582Y030709D02*
X038962Y030709D01*
X038962Y030868D02*
X039583Y030868D01*
X039583Y031026D02*
X038962Y031026D01*
X038962Y031185D02*
X038993Y031185D01*
X038622Y031185D02*
X038607Y031185D01*
X038622Y031026D02*
X036025Y031026D01*
X036025Y030868D02*
X038622Y030868D01*
X038622Y030709D02*
X036025Y030709D01*
X036024Y030551D02*
X038622Y030551D01*
X038622Y030392D02*
X036024Y030392D01*
X036024Y030234D02*
X038622Y030234D01*
X038622Y030075D02*
X036024Y030075D01*
X036024Y029917D02*
X038622Y029917D01*
X038622Y029758D02*
X036024Y029758D01*
X036024Y029600D02*
X038622Y029600D01*
X038622Y029441D02*
X036023Y029441D01*
X036023Y029283D02*
X038622Y029283D01*
X038622Y029124D02*
X036023Y029124D01*
X036023Y028966D02*
X038622Y028966D01*
X038622Y028807D02*
X036023Y028807D01*
X036023Y028649D02*
X038622Y028649D01*
X038622Y028490D02*
X036022Y028490D01*
X036022Y028332D02*
X038622Y028332D01*
X038622Y028173D02*
X036022Y028173D01*
X036022Y028015D02*
X038622Y028015D01*
X038622Y027856D02*
X036022Y027856D01*
X036022Y027698D02*
X038622Y027698D01*
X038623Y027539D02*
X036022Y027539D01*
X036021Y027381D02*
X038623Y027381D01*
X038623Y027222D02*
X036021Y027222D01*
X036021Y027064D02*
X038623Y027064D01*
X038619Y026905D02*
X036021Y026905D01*
X036021Y026747D02*
X038626Y026747D01*
X039717Y026430D02*
X042048Y026430D01*
X041990Y026113D02*
X039718Y026113D01*
X039718Y026271D02*
X044770Y026271D01*
X044770Y026113D02*
X043610Y026113D01*
X043740Y025954D02*
X044770Y025954D01*
X044770Y025796D02*
X043740Y025796D01*
X043740Y025637D02*
X044770Y025637D01*
X044770Y025479D02*
X043601Y025479D01*
X043552Y026430D02*
X044770Y026430D01*
X044770Y026588D02*
X043710Y026588D01*
X043740Y026747D02*
X044770Y026747D01*
X044770Y026905D02*
X043740Y026905D01*
X043659Y027064D02*
X044588Y027064D01*
X044271Y027222D02*
X043500Y027222D01*
X043503Y027381D02*
X043962Y027381D01*
X043828Y027539D02*
X043661Y027539D01*
X043740Y027698D02*
X043770Y027698D01*
X043770Y027856D02*
X043740Y027856D01*
X043770Y028015D02*
X043708Y028015D01*
X043770Y028173D02*
X043549Y028173D01*
X043770Y028332D02*
X039919Y028332D01*
X039919Y028490D02*
X041988Y028490D01*
X041860Y028649D02*
X039919Y028649D01*
X039920Y028807D02*
X041860Y028807D01*
X041860Y028966D02*
X039920Y028966D01*
X039920Y029124D02*
X042002Y029124D01*
X042037Y029441D02*
X039921Y029441D01*
X039920Y029283D02*
X043770Y029283D01*
X043770Y029441D02*
X043563Y029441D01*
X043722Y029600D02*
X043770Y029600D01*
X043770Y029758D02*
X043740Y029758D01*
X043740Y029917D02*
X043770Y029917D01*
X043770Y030075D02*
X043647Y030075D01*
X043770Y030234D02*
X043489Y030234D01*
X043514Y030392D02*
X043770Y030392D01*
X043770Y030551D02*
X043673Y030551D01*
X043740Y030709D02*
X043770Y030709D01*
X043770Y030868D02*
X043740Y030868D01*
X043770Y031026D02*
X043696Y031026D01*
X043770Y031185D02*
X043538Y031185D01*
X043770Y031343D02*
X041818Y031343D01*
X041869Y031502D02*
X041976Y031502D01*
X042062Y031185D02*
X041726Y031185D01*
X041596Y031026D02*
X041904Y031026D01*
X041860Y030868D02*
X041405Y030868D01*
X041017Y030709D02*
X041860Y030709D01*
X041927Y030551D02*
X039922Y030551D01*
X039922Y030709D02*
X040583Y030709D01*
X040195Y030868D02*
X039923Y030868D01*
X039923Y031026D02*
X040004Y031026D01*
X039922Y030392D02*
X042086Y030392D01*
X042111Y030234D02*
X039922Y030234D01*
X039921Y030075D02*
X041953Y030075D01*
X041860Y029917D02*
X039921Y029917D01*
X039921Y029758D02*
X041860Y029758D01*
X041878Y029600D02*
X039921Y029600D01*
X039919Y028173D02*
X042051Y028173D01*
X041892Y028015D02*
X039919Y028015D01*
X039918Y027856D02*
X041860Y027856D01*
X041860Y027698D02*
X039918Y027698D01*
X039918Y027539D02*
X041939Y027539D01*
X042097Y027381D02*
X039918Y027381D01*
X039917Y027222D02*
X042100Y027222D01*
X041941Y027064D02*
X039917Y027064D01*
X039917Y026905D02*
X041860Y026905D01*
X041860Y025954D02*
X039762Y025954D01*
X039860Y025796D02*
X041860Y025796D01*
X041860Y025637D02*
X039851Y025637D01*
X039739Y025479D02*
X041999Y025479D01*
X039917Y026636D02*
X039917Y026640D01*
X039919Y026642D01*
X039917Y026709D01*
X039917Y026636D02*
X039869Y026588D01*
X038530Y025637D02*
X029631Y025637D01*
X033911Y027381D02*
X035681Y027381D01*
X035682Y027539D02*
X033922Y027539D01*
X033921Y027698D02*
X035682Y027698D01*
X035682Y027856D02*
X033921Y027856D01*
X033920Y028015D02*
X035682Y028015D01*
X035682Y028173D02*
X033920Y028173D01*
X033919Y028332D02*
X035682Y028332D01*
X035682Y028490D02*
X033919Y028490D01*
X033918Y028649D02*
X035683Y028649D01*
X035683Y028807D02*
X033918Y028807D01*
X033917Y028966D02*
X035683Y028966D01*
X035683Y029124D02*
X033917Y029124D01*
X033916Y029283D02*
X035683Y029283D01*
X035683Y029441D02*
X033916Y029441D01*
X033915Y029600D02*
X035684Y029600D01*
X035684Y029758D02*
X033915Y029758D01*
X033915Y029917D02*
X035684Y029917D01*
X035684Y030075D02*
X033914Y030075D01*
X033914Y030234D02*
X035684Y030234D01*
X035684Y030392D02*
X033913Y030392D01*
X033913Y030551D02*
X035685Y030551D01*
X035685Y030709D02*
X033912Y030709D01*
X033912Y030868D02*
X035685Y030868D01*
X035685Y031026D02*
X033911Y031026D01*
X033911Y031185D02*
X033993Y031185D01*
X034607Y031185D02*
X034993Y031185D01*
X034889Y031343D02*
X034711Y031343D01*
X034740Y031502D02*
X034860Y031502D01*
X034860Y031660D02*
X034740Y031660D01*
X034740Y031819D02*
X034860Y031819D01*
X034860Y031977D02*
X034740Y031977D01*
X034740Y032136D02*
X034860Y032136D01*
X034904Y032294D02*
X034696Y032294D01*
X034570Y032453D02*
X035030Y032453D01*
X035607Y031185D02*
X035685Y031185D01*
X036607Y031185D02*
X036993Y031185D01*
X037051Y031127D02*
X037212Y031060D01*
X037388Y031060D01*
X037549Y031127D01*
X037673Y031251D01*
X037740Y031412D01*
X037740Y032188D01*
X037673Y032349D01*
X037549Y032473D01*
X037388Y032540D01*
X037212Y032540D01*
X037051Y032473D01*
X036927Y032349D01*
X036860Y032188D01*
X036860Y031412D01*
X036927Y031251D01*
X037051Y031127D01*
X036889Y031343D02*
X036711Y031343D01*
X036740Y031502D02*
X036860Y031502D01*
X036860Y031660D02*
X036740Y031660D01*
X036740Y031819D02*
X036860Y031819D01*
X036860Y031977D02*
X036740Y031977D01*
X036740Y032136D02*
X036860Y032136D01*
X036904Y032294D02*
X036696Y032294D01*
X036570Y032453D02*
X037030Y032453D01*
X037570Y032453D02*
X038030Y032453D01*
X037904Y032294D02*
X037696Y032294D01*
X037740Y032136D02*
X037860Y032136D01*
X037860Y031977D02*
X037740Y031977D01*
X037740Y031819D02*
X037860Y031819D01*
X037860Y031660D02*
X037740Y031660D01*
X037740Y031502D02*
X037860Y031502D01*
X037889Y031343D02*
X037711Y031343D01*
X037607Y031185D02*
X037993Y031185D01*
X038570Y032453D02*
X038622Y032453D01*
X039570Y032453D02*
X039585Y032453D01*
X039926Y033087D02*
X043770Y033087D01*
X043770Y033245D02*
X039926Y033245D01*
X039926Y033404D02*
X043770Y033404D01*
X043770Y033562D02*
X039927Y033562D01*
X039927Y033721D02*
X043770Y033721D01*
X043770Y033879D02*
X039927Y033879D01*
X039927Y034038D02*
X043770Y034038D01*
X043770Y034196D02*
X040331Y034196D01*
X040368Y034355D02*
X043770Y034355D01*
X043770Y034513D02*
X041502Y034513D01*
X041642Y034672D02*
X043770Y034672D01*
X043770Y034830D02*
X041708Y034830D01*
X041710Y034989D02*
X043770Y034989D01*
X043770Y035147D02*
X041710Y035147D01*
X041710Y035306D02*
X043770Y035306D01*
X043770Y035464D02*
X041710Y035464D01*
X041710Y035623D02*
X043770Y035623D01*
X043770Y035781D02*
X041710Y035781D01*
X041663Y035940D02*
X043770Y035940D01*
X043770Y036098D02*
X041552Y036098D01*
X040650Y035147D02*
X040368Y035147D01*
X040368Y034989D02*
X040650Y034989D01*
X040652Y034830D02*
X040368Y034830D01*
X040368Y034672D02*
X040718Y034672D01*
X040858Y034513D02*
X040368Y034513D01*
X043770Y036574D02*
X005830Y036574D01*
X005830Y036732D02*
X043770Y036732D01*
X043770Y036891D02*
X005830Y036891D01*
X005830Y037049D02*
X043770Y037049D01*
X043770Y037208D02*
X005830Y037208D01*
X005830Y037366D02*
X043770Y037366D01*
X043770Y037525D02*
X005830Y037525D01*
X005830Y037683D02*
X043770Y037683D01*
X043740Y031977D02*
X043770Y031977D01*
X043770Y031819D02*
X043740Y031819D01*
X043740Y031660D02*
X043770Y031660D01*
X043770Y031502D02*
X043624Y031502D01*
X043598Y029124D02*
X043770Y029124D01*
X043770Y028966D02*
X043740Y028966D01*
X043740Y028807D02*
X043770Y028807D01*
X043770Y028649D02*
X043740Y028649D01*
X043770Y028490D02*
X043612Y028490D01*
X035921Y026131D02*
X035921Y026131D01*
X035921Y026131D01*
X028993Y031185D02*
X028970Y031185D01*
X028630Y031185D02*
X028607Y031185D01*
X024671Y032453D02*
X024570Y032453D01*
X022993Y031185D02*
X022992Y031185D01*
X025375Y034513D02*
X026880Y034513D01*
X027110Y034513D02*
X027210Y034513D01*
X027210Y034672D02*
X027110Y034672D01*
X027110Y034830D02*
X027210Y034830D01*
X027210Y034989D02*
X027110Y034989D01*
X027110Y035147D02*
X027210Y035147D01*
X027210Y035306D02*
X027110Y035306D01*
X027110Y035464D02*
X027210Y035464D01*
X027210Y035623D02*
X027110Y035623D01*
X027110Y035781D02*
X027210Y035781D01*
X027210Y035940D02*
X027110Y035940D01*
X027110Y036098D02*
X027210Y036098D01*
X027210Y036257D02*
X027110Y036257D01*
X026832Y036257D02*
X025449Y036257D01*
X025631Y036098D02*
X026679Y036098D01*
X026609Y035940D02*
X025702Y035940D01*
X025720Y035781D02*
X026590Y035781D01*
X026590Y035623D02*
X025720Y035623D01*
X025720Y035464D02*
X026590Y035464D01*
X026590Y035306D02*
X025720Y035306D01*
X025720Y035147D02*
X026590Y035147D01*
X026590Y034989D02*
X025720Y034989D01*
X025689Y034830D02*
X026619Y034830D01*
X026701Y034672D02*
X025601Y034672D01*
X031618Y034513D02*
X033120Y034513D01*
X032941Y034672D02*
X031841Y034672D01*
X031929Y034830D02*
X032859Y034830D01*
X032830Y034989D02*
X031960Y034989D01*
X031960Y035147D02*
X032830Y035147D01*
X032830Y035306D02*
X031960Y035306D01*
X031960Y035464D02*
X032830Y035464D01*
X032830Y035623D02*
X031960Y035623D01*
X031960Y035781D02*
X032830Y035781D01*
X032849Y035940D02*
X031942Y035940D01*
X031871Y036098D02*
X032919Y036098D01*
X033072Y036257D02*
X031689Y036257D01*
X033350Y036257D02*
X033450Y036257D01*
X033450Y036098D02*
X033350Y036098D01*
X033350Y035940D02*
X033450Y035940D01*
X033450Y035781D02*
X033350Y035781D01*
X033350Y035623D02*
X033450Y035623D01*
X033450Y035464D02*
X033350Y035464D01*
X033901Y034381D02*
X033901Y034381D01*
X033902Y034381D01*
X022652Y027539D02*
X018366Y027539D01*
X018366Y027381D02*
X022652Y027381D01*
X022652Y027222D02*
X018366Y027222D01*
X018366Y027064D02*
X022652Y027064D01*
X022652Y026905D02*
X018366Y026905D01*
X018366Y026865D02*
X018366Y026865D01*
X018366Y026747D02*
X022652Y026747D01*
X022652Y026588D02*
X017253Y026588D01*
X017253Y026430D02*
X022322Y026430D01*
X022261Y026271D02*
X017253Y026271D01*
X017253Y026113D02*
X022263Y026113D01*
X022603Y026113D02*
X022750Y026113D01*
X018026Y027064D02*
X012970Y027064D01*
X012970Y027222D02*
X018026Y027222D01*
X018026Y027381D02*
X012970Y027381D01*
X012970Y027539D02*
X018026Y027539D01*
X016948Y026905D02*
X012970Y026905D01*
X012970Y026747D02*
X016913Y026747D01*
X016913Y026730D02*
X016913Y026730D01*
X016913Y026588D02*
X012970Y026588D01*
X012970Y026430D02*
X016913Y026430D01*
X016913Y026271D02*
X012970Y026271D01*
X012630Y026588D02*
X005830Y026588D01*
X005830Y026430D02*
X011672Y026430D01*
X011613Y026271D02*
X005830Y026271D01*
X005830Y026113D02*
X007218Y026113D01*
X007058Y025954D02*
X005830Y025954D01*
X005830Y025796D02*
X006992Y025796D01*
X006980Y025637D02*
X005830Y025637D01*
X005830Y025479D02*
X007011Y025479D01*
X007100Y025320D02*
X005830Y025320D01*
X005830Y025162D02*
X007328Y025162D01*
X008472Y025162D02*
X009879Y025162D01*
X009830Y025003D02*
X005830Y025003D01*
X005830Y024845D02*
X009835Y024845D01*
X009901Y024686D02*
X005830Y024686D01*
X005830Y024528D02*
X010092Y024528D01*
X010005Y025320D02*
X008700Y025320D01*
X008582Y026113D02*
X011654Y026113D01*
X011912Y026113D02*
X016913Y026113D01*
X016913Y025954D02*
X017013Y025854D01*
X017153Y025854D01*
X017253Y025954D01*
X012630Y026747D02*
X005830Y026747D01*
X005830Y026905D02*
X012630Y026905D01*
X012630Y027064D02*
X005830Y027064D01*
X005830Y027222D02*
X012630Y027222D01*
X012630Y027381D02*
X005830Y027381D01*
X005830Y027539D02*
X012630Y027539D01*
X012630Y027698D02*
X005830Y027698D01*
X005830Y027856D02*
X011613Y027856D01*
X011613Y028015D02*
X008830Y028015D01*
X008816Y028000D02*
X009050Y028234D01*
X009050Y028566D01*
X008816Y028800D01*
X008484Y028800D01*
X008250Y028566D01*
X008250Y028234D01*
X008484Y028000D01*
X008816Y028000D01*
X008989Y028173D02*
X011613Y028173D01*
X011613Y028332D02*
X009050Y028332D01*
X009050Y028490D02*
X011613Y028490D01*
X011613Y028649D02*
X008967Y028649D01*
X008462Y028966D02*
X005830Y028966D01*
X005830Y029124D02*
X008304Y029124D01*
X008210Y029283D02*
X005830Y029283D01*
X005830Y029441D02*
X008210Y029441D01*
X008227Y029600D02*
X005830Y029600D01*
X005830Y029758D02*
X008386Y029758D01*
X008333Y028649D02*
X005830Y028649D01*
X005830Y028807D02*
X011613Y028807D01*
X011953Y028807D02*
X012630Y028807D01*
X012630Y028649D02*
X011953Y028649D01*
X011953Y028490D02*
X012630Y028490D01*
X012630Y028332D02*
X011953Y028332D01*
X011953Y028173D02*
X012630Y028173D01*
X012630Y028015D02*
X011953Y028015D01*
X011953Y027856D02*
X012630Y027856D01*
X012630Y028966D02*
X011953Y028966D01*
X011953Y029124D02*
X012630Y029124D01*
X012630Y029283D02*
X011953Y029283D01*
X011953Y029441D02*
X012630Y029441D01*
X012130Y032928D02*
X007252Y032928D01*
X007252Y033087D02*
X012130Y033087D01*
X012130Y033245D02*
X007251Y033245D01*
X007251Y033404D02*
X012130Y033404D01*
X012130Y033562D02*
X007250Y033562D01*
X007250Y033721D02*
X012130Y033721D01*
X012130Y033879D02*
X007250Y033879D01*
X007249Y034038D02*
X012130Y034038D01*
X012130Y034196D02*
X007249Y034196D01*
X007249Y034355D02*
X012130Y034355D01*
X012130Y034513D02*
X011195Y034513D01*
X011421Y034672D02*
X012130Y034672D01*
X012130Y034830D02*
X011509Y034830D01*
X011540Y034989D02*
X012130Y034989D01*
X012130Y035147D02*
X011540Y035147D01*
X011540Y035623D02*
X012460Y035623D01*
X012460Y035781D02*
X011540Y035781D01*
X011522Y035940D02*
X012478Y035940D01*
X012549Y036098D02*
X011451Y036098D01*
X011269Y036257D02*
X012731Y036257D01*
X010751Y036257D02*
X009368Y036257D01*
X009339Y036278D02*
X009259Y036318D01*
X009173Y036346D01*
X009090Y036359D01*
X009090Y035450D01*
X008990Y035450D01*
X008990Y036359D01*
X008907Y036346D01*
X008821Y036318D01*
X008741Y036278D01*
X008669Y036225D01*
X008605Y036161D01*
X008552Y036089D01*
X008512Y036009D01*
X008484Y035923D01*
X008470Y035835D01*
X008470Y035450D01*
X008990Y035450D01*
X008990Y035350D01*
X008470Y035350D01*
X008470Y034965D01*
X008484Y034877D01*
X008512Y034791D01*
X008552Y034711D01*
X008605Y034639D01*
X008669Y034575D01*
X008741Y034522D01*
X008821Y034482D01*
X008907Y034454D01*
X008990Y034441D01*
X008990Y035350D01*
X009090Y035350D01*
X009090Y035450D01*
X009610Y035450D01*
X009610Y035835D01*
X009596Y035923D01*
X009568Y036009D01*
X009528Y036089D01*
X009475Y036161D01*
X009411Y036225D01*
X009339Y036278D01*
X009090Y036257D02*
X008990Y036257D01*
X008990Y036098D02*
X009090Y036098D01*
X009090Y035940D02*
X008990Y035940D01*
X008990Y035781D02*
X009090Y035781D01*
X009090Y035623D02*
X008990Y035623D01*
X008990Y035464D02*
X009090Y035464D01*
X009090Y035350D02*
X009610Y035350D01*
X009610Y034965D01*
X009596Y034877D01*
X009568Y034791D01*
X009528Y034711D01*
X009475Y034639D01*
X009411Y034575D01*
X009339Y034522D01*
X009259Y034482D01*
X009173Y034454D01*
X009090Y034441D01*
X009090Y035350D01*
X009090Y035306D02*
X008990Y035306D01*
X008990Y035147D02*
X009090Y035147D01*
X009090Y034989D02*
X008990Y034989D01*
X008990Y034830D02*
X009090Y034830D01*
X009090Y034672D02*
X008990Y034672D01*
X008990Y034513D02*
X009090Y034513D01*
X009320Y034513D02*
X010825Y034513D01*
X010599Y034672D02*
X009499Y034672D01*
X009581Y034830D02*
X010511Y034830D01*
X010480Y034989D02*
X009610Y034989D01*
X009610Y035147D02*
X010480Y035147D01*
X010480Y035306D02*
X009610Y035306D01*
X009610Y035464D02*
X010480Y035464D01*
X010480Y035623D02*
X009610Y035623D01*
X009610Y035781D02*
X010480Y035781D01*
X010498Y035940D02*
X009591Y035940D01*
X009521Y036098D02*
X010569Y036098D01*
X008712Y036257D02*
X007329Y036257D01*
X007511Y036098D02*
X008559Y036098D01*
X008489Y035940D02*
X007582Y035940D01*
X007600Y035781D02*
X008470Y035781D01*
X008470Y035623D02*
X007600Y035623D01*
X007600Y035464D02*
X008470Y035464D01*
X008470Y035306D02*
X007600Y035306D01*
X007600Y035147D02*
X008470Y035147D01*
X008470Y034989D02*
X007600Y034989D01*
X007569Y034830D02*
X008499Y034830D01*
X008581Y034672D02*
X007481Y034672D01*
X007255Y034513D02*
X008760Y034513D01*
X012470Y034513D02*
X012805Y034513D01*
X012579Y034672D02*
X012470Y034672D01*
X012470Y034830D02*
X012491Y034830D01*
X008250Y028490D02*
X005830Y028490D01*
X005830Y028332D02*
X008250Y028332D01*
X008311Y028173D02*
X005830Y028173D01*
X005830Y028015D02*
X008470Y028015D01*
X007190Y022150D02*
X005830Y022150D01*
X005830Y021992D02*
X007049Y021992D01*
X006983Y021833D02*
X005830Y021833D01*
X005830Y021675D02*
X006980Y021675D01*
X007021Y021516D02*
X005830Y021516D01*
X005830Y021358D02*
X007123Y021358D01*
X007377Y020296D02*
X007291Y020268D01*
X007211Y020228D01*
X007139Y020175D01*
X007075Y020111D01*
X007022Y020039D01*
X006982Y019959D01*
X006954Y019873D01*
X006941Y019790D01*
X007850Y019790D01*
X007850Y020310D01*
X007465Y020310D01*
X007377Y020296D01*
X007252Y020248D02*
X005830Y020248D01*
X005830Y020090D02*
X007059Y020090D01*
X006973Y019931D02*
X005830Y019931D01*
X005830Y019773D02*
X007850Y019773D01*
X007850Y019790D02*
X007850Y019690D01*
X007950Y019690D01*
X007950Y019790D01*
X007850Y019790D01*
X007950Y019790D02*
X007950Y020310D01*
X008335Y020310D01*
X008423Y020296D01*
X008509Y020268D01*
X008589Y020228D01*
X008661Y020175D01*
X008725Y020111D01*
X008778Y020039D01*
X008818Y019959D01*
X008846Y019873D01*
X008859Y019790D01*
X007950Y019790D01*
X007950Y019773D02*
X027354Y019773D01*
X027354Y019931D02*
X008827Y019931D01*
X008741Y020090D02*
X027354Y020090D01*
X027354Y020248D02*
X008548Y020248D01*
X008859Y019690D02*
X007950Y019690D01*
X007950Y019170D01*
X008335Y019170D01*
X008423Y019184D01*
X008509Y019212D01*
X008589Y019252D01*
X008661Y019305D01*
X008725Y019369D01*
X008778Y019441D01*
X008818Y019521D01*
X008846Y019607D01*
X008859Y019690D01*
X008847Y019614D02*
X027354Y019614D01*
X027354Y019456D02*
X008785Y019456D01*
X008650Y019297D02*
X027354Y019297D01*
X027413Y019139D02*
X005830Y019139D01*
X005830Y019297D02*
X007150Y019297D01*
X007139Y019305D02*
X007211Y019252D01*
X007291Y019212D01*
X007377Y019184D01*
X007465Y019170D01*
X007850Y019170D01*
X007850Y019690D01*
X006941Y019690D01*
X006954Y019607D01*
X006982Y019521D01*
X007022Y019441D01*
X007075Y019369D01*
X007139Y019305D01*
X007015Y019456D02*
X005830Y019456D01*
X005830Y019614D02*
X006953Y019614D01*
X007850Y019614D02*
X007950Y019614D01*
X007950Y019456D02*
X007850Y019456D01*
X007850Y019297D02*
X007950Y019297D01*
X007950Y019931D02*
X007850Y019931D01*
X007850Y020090D02*
X007950Y020090D01*
X007950Y020248D02*
X007850Y020248D01*
X011375Y013750D02*
X013990Y013750D01*
X013896Y013591D02*
X011579Y013591D01*
X011716Y013433D02*
X013896Y013433D01*
X013896Y013274D02*
X011808Y013274D01*
X011865Y013116D02*
X013977Y013116D01*
X014136Y012957D02*
X011907Y012957D01*
X011910Y012799D02*
X017860Y012799D01*
X017860Y012640D02*
X011906Y012640D01*
X011864Y012482D02*
X017860Y012482D01*
X017897Y012323D02*
X011806Y012323D01*
X011715Y012165D02*
X018013Y012165D01*
X018587Y012165D02*
X019013Y012165D01*
X019051Y012127D02*
X018927Y012251D01*
X018860Y012412D01*
X018860Y013188D01*
X018927Y013349D01*
X019051Y013473D01*
X019212Y013540D01*
X019388Y013540D01*
X019549Y013473D01*
X019673Y013349D01*
X019740Y013188D01*
X019740Y012412D01*
X019673Y012251D01*
X019549Y012127D01*
X019388Y012060D01*
X019212Y012060D01*
X019051Y012127D01*
X018897Y012323D02*
X018703Y012323D01*
X018740Y012482D02*
X018860Y012482D01*
X018860Y012640D02*
X018740Y012640D01*
X018740Y012799D02*
X018860Y012799D01*
X018860Y012957D02*
X018740Y012957D01*
X018740Y013116D02*
X018860Y013116D01*
X018896Y013274D02*
X018704Y013274D01*
X018590Y013433D02*
X019010Y013433D01*
X019590Y013433D02*
X020010Y013433D01*
X020051Y013473D02*
X019927Y013349D01*
X019860Y013188D01*
X019860Y012412D01*
X019927Y012251D01*
X020051Y012127D01*
X020212Y012060D01*
X020388Y012060D01*
X020549Y012127D01*
X020673Y012251D01*
X020740Y012412D01*
X020740Y013188D01*
X020673Y013349D01*
X020549Y013473D01*
X020388Y013540D01*
X020212Y013540D01*
X020051Y013473D01*
X019896Y013274D02*
X019704Y013274D01*
X019740Y013116D02*
X019860Y013116D01*
X019860Y012957D02*
X019740Y012957D01*
X019740Y012799D02*
X019860Y012799D01*
X019860Y012640D02*
X019740Y012640D01*
X019740Y012482D02*
X019860Y012482D01*
X019897Y012323D02*
X019703Y012323D01*
X019587Y012165D02*
X020013Y012165D01*
X020587Y012165D02*
X020957Y012165D01*
X020934Y012187D02*
X020987Y012134D01*
X021048Y012089D01*
X021116Y012055D01*
X021188Y012032D01*
X021262Y012020D01*
X021280Y012020D01*
X021280Y012780D01*
X021320Y012780D01*
X021320Y012820D01*
X021780Y012820D01*
X021780Y013138D01*
X021768Y013212D01*
X021745Y013284D01*
X021711Y013352D01*
X021666Y013413D01*
X021613Y013466D01*
X021552Y013511D01*
X021484Y013545D01*
X021412Y013568D01*
X021338Y013580D01*
X021320Y013580D01*
X021320Y012820D01*
X021280Y012820D01*
X021280Y013580D01*
X021262Y013580D01*
X021188Y013568D01*
X021116Y013545D01*
X021048Y013511D01*
X020987Y013466D01*
X020934Y013413D01*
X020889Y013352D01*
X020855Y013284D01*
X020832Y013212D01*
X020820Y013138D01*
X020820Y012820D01*
X021280Y012820D01*
X021280Y012780D01*
X020820Y012780D01*
X020820Y012462D01*
X020832Y012388D01*
X020855Y012316D01*
X020889Y012248D01*
X020934Y012187D01*
X020853Y012323D02*
X020703Y012323D01*
X020740Y012482D02*
X020820Y012482D01*
X020820Y012640D02*
X020740Y012640D01*
X020740Y012799D02*
X021280Y012799D01*
X021320Y012799D02*
X022280Y012799D01*
X022280Y012780D02*
X021820Y012780D01*
X021820Y012462D01*
X021832Y012388D01*
X021855Y012316D01*
X021889Y012248D01*
X021934Y012187D01*
X021987Y012134D01*
X022048Y012089D01*
X022116Y012055D01*
X022188Y012032D01*
X022262Y012020D01*
X022280Y012020D01*
X022280Y012780D01*
X022320Y012780D01*
X022320Y012820D01*
X022780Y012820D01*
X022780Y013138D01*
X022768Y013212D01*
X022745Y013284D01*
X022711Y013352D01*
X022666Y013413D01*
X022613Y013466D01*
X022552Y013511D01*
X022484Y013545D01*
X022412Y013568D01*
X022338Y013580D01*
X022320Y013580D01*
X022320Y012820D01*
X022280Y012820D01*
X022280Y013580D01*
X022262Y013580D01*
X022188Y013568D01*
X022116Y013545D01*
X022048Y013511D01*
X021987Y013466D01*
X021934Y013413D01*
X021889Y013352D01*
X021855Y013284D01*
X021832Y013212D01*
X021820Y013138D01*
X021820Y012820D01*
X022280Y012820D01*
X022280Y012780D01*
X022320Y012780D02*
X022320Y012020D01*
X022338Y012020D01*
X022412Y012032D01*
X022484Y012055D01*
X022552Y012089D01*
X022613Y012134D01*
X022666Y012187D01*
X022711Y012248D01*
X022745Y012316D01*
X022768Y012388D01*
X022780Y012462D01*
X022780Y012780D01*
X022320Y012780D01*
X022320Y012799D02*
X022860Y012799D01*
X022860Y012957D02*
X022780Y012957D01*
X022780Y013116D02*
X022860Y013116D01*
X022860Y013188D02*
X022927Y013349D01*
X023051Y013473D01*
X023212Y013540D01*
X023388Y013540D01*
X023549Y013473D01*
X023673Y013349D01*
X023740Y013188D01*
X023740Y012412D01*
X023673Y012251D01*
X023549Y012127D01*
X023388Y012060D01*
X023212Y012060D01*
X023051Y012127D01*
X022927Y012251D01*
X022860Y012412D01*
X022860Y013188D01*
X022896Y013274D02*
X022748Y013274D01*
X022646Y013433D02*
X023010Y013433D01*
X023590Y013433D02*
X025010Y013433D01*
X024896Y013274D02*
X023704Y013274D01*
X023740Y013116D02*
X024860Y013116D01*
X024860Y012957D02*
X023740Y012957D01*
X023740Y012799D02*
X024860Y012799D01*
X024860Y012640D02*
X023740Y012640D01*
X023740Y012482D02*
X024860Y012482D01*
X024897Y012323D02*
X023703Y012323D01*
X023587Y012165D02*
X025013Y012165D01*
X025122Y012006D02*
X011576Y012006D01*
X011370Y011848D02*
X025120Y011848D01*
X025460Y011848D02*
X026130Y011848D01*
X026130Y012006D02*
X025462Y012006D01*
X025587Y012165D02*
X026013Y012165D01*
X025897Y012323D02*
X025703Y012323D01*
X025740Y012482D02*
X025860Y012482D01*
X025860Y012640D02*
X025740Y012640D01*
X025740Y012799D02*
X025860Y012799D01*
X025860Y012957D02*
X025740Y012957D01*
X025740Y013116D02*
X025860Y013116D01*
X025896Y013274D02*
X025704Y013274D01*
X025590Y013433D02*
X026010Y013433D01*
X026590Y013433D02*
X027010Y013433D01*
X026896Y013274D02*
X026704Y013274D01*
X026740Y013116D02*
X026860Y013116D01*
X026860Y012957D02*
X026740Y012957D01*
X026740Y012799D02*
X026860Y012799D01*
X026860Y012640D02*
X026740Y012640D01*
X026740Y012482D02*
X026860Y012482D01*
X026897Y012323D02*
X026703Y012323D01*
X026587Y012165D02*
X027013Y012165D01*
X027130Y012006D02*
X026470Y012006D01*
X026470Y011848D02*
X027130Y011848D01*
X027130Y011689D02*
X026470Y011689D01*
X026470Y011531D02*
X027130Y011531D01*
X027130Y011372D02*
X026470Y011372D01*
X026470Y011230D02*
X026470Y011230D01*
X026470Y011230D01*
X026454Y011214D02*
X027130Y011214D01*
X027130Y011055D02*
X010932Y011055D01*
X010588Y009946D02*
X009053Y009946D01*
X008840Y009946D02*
X008740Y009946D01*
X008740Y009787D02*
X008840Y009787D01*
X008840Y009629D02*
X008740Y009629D01*
X008740Y009470D02*
X008840Y009470D01*
X008840Y009312D02*
X008740Y009312D01*
X008740Y009153D02*
X008840Y009153D01*
X008840Y009000D02*
X009360Y009000D01*
X009360Y008615D01*
X009346Y008527D01*
X009318Y008441D01*
X009278Y008361D01*
X009225Y008289D01*
X009161Y008225D01*
X009089Y008172D01*
X009009Y008132D01*
X008923Y008104D01*
X008840Y008091D01*
X008840Y009000D01*
X008840Y008995D02*
X008740Y008995D01*
X008740Y008836D02*
X008840Y008836D01*
X008840Y008678D02*
X008740Y008678D01*
X008740Y008519D02*
X008840Y008519D01*
X008840Y008361D02*
X008740Y008361D01*
X008740Y008202D02*
X008840Y008202D01*
X009129Y008202D02*
X010481Y008202D01*
X010310Y008361D02*
X009277Y008361D01*
X009344Y008519D02*
X010245Y008519D01*
X010230Y008678D02*
X009360Y008678D01*
X009360Y008836D02*
X010230Y008836D01*
X010230Y008995D02*
X009360Y008995D01*
X009360Y009153D02*
X010230Y009153D01*
X010230Y009312D02*
X009360Y009312D01*
X009360Y009470D02*
X010230Y009470D01*
X010264Y009629D02*
X009328Y009629D01*
X009242Y009787D02*
X010357Y009787D01*
X006638Y009946D02*
X005830Y009946D01*
X005830Y010104D02*
X006638Y010104D01*
X006639Y010263D02*
X005830Y010263D01*
X005830Y010421D02*
X006639Y010421D01*
X006639Y010580D02*
X005830Y010580D01*
X005830Y010738D02*
X006639Y010738D01*
X006639Y010897D02*
X005830Y010897D01*
X005830Y011055D02*
X006639Y011055D01*
X006639Y011214D02*
X005830Y011214D01*
X005830Y011372D02*
X006640Y011372D01*
X006640Y011531D02*
X005830Y011531D01*
X005830Y011689D02*
X006686Y011689D01*
X006640Y011642D02*
X006640Y011642D01*
X006739Y011742D02*
X006739Y011742D01*
X006739Y011742D01*
X006417Y009787D02*
X005830Y009787D01*
X005830Y009629D02*
X006324Y009629D01*
X006290Y009470D02*
X005830Y009470D01*
X005830Y009312D02*
X006290Y009312D01*
X006290Y009153D02*
X005830Y009153D01*
X005830Y008995D02*
X006290Y008995D01*
X006290Y008836D02*
X005830Y008836D01*
X005830Y008678D02*
X006290Y008678D01*
X006305Y008519D02*
X005830Y008519D01*
X005830Y008361D02*
X006370Y008361D01*
X014925Y013116D02*
X016034Y013116D01*
X015957Y013274D02*
X015006Y013274D01*
X015006Y013433D02*
X015936Y013433D01*
X015962Y013591D02*
X015006Y013591D01*
X014913Y013750D02*
X016046Y013750D01*
X016268Y013908D02*
X014755Y013908D01*
X016800Y015493D02*
X035122Y015493D01*
X035174Y015652D02*
X016845Y015652D01*
X020590Y013433D02*
X020954Y013433D01*
X020852Y013274D02*
X020704Y013274D01*
X020740Y013116D02*
X020820Y013116D01*
X020820Y012957D02*
X020740Y012957D01*
X021280Y012957D02*
X021320Y012957D01*
X021320Y013116D02*
X021280Y013116D01*
X021280Y013274D02*
X021320Y013274D01*
X021320Y013433D02*
X021280Y013433D01*
X021646Y013433D02*
X021954Y013433D01*
X021852Y013274D02*
X021748Y013274D01*
X021780Y013116D02*
X021820Y013116D01*
X021820Y012957D02*
X021780Y012957D01*
X021780Y012780D02*
X021320Y012780D01*
X021320Y012020D01*
X021338Y012020D01*
X021412Y012032D01*
X021484Y012055D01*
X021552Y012089D01*
X021613Y012134D01*
X021666Y012187D01*
X021711Y012248D01*
X021745Y012316D01*
X021768Y012388D01*
X021780Y012462D01*
X021780Y012780D01*
X021780Y012640D02*
X021820Y012640D01*
X021820Y012482D02*
X021780Y012482D01*
X021747Y012323D02*
X021853Y012323D01*
X021957Y012165D02*
X021643Y012165D01*
X021320Y012165D02*
X021280Y012165D01*
X021280Y012323D02*
X021320Y012323D01*
X021320Y012482D02*
X021280Y012482D01*
X021280Y012640D02*
X021320Y012640D01*
X022280Y012640D02*
X022320Y012640D01*
X022320Y012482D02*
X022280Y012482D01*
X022280Y012323D02*
X022320Y012323D01*
X022320Y012165D02*
X022280Y012165D01*
X022643Y012165D02*
X023013Y012165D01*
X022897Y012323D02*
X022747Y012323D01*
X022780Y012482D02*
X022860Y012482D01*
X022860Y012640D02*
X022780Y012640D01*
X022320Y012957D02*
X022280Y012957D01*
X022280Y013116D02*
X022320Y013116D01*
X022320Y013274D02*
X022280Y013274D01*
X022280Y013433D02*
X022320Y013433D01*
X025458Y011689D02*
X026130Y011689D01*
X026130Y011531D02*
X025457Y011531D01*
X024895Y009970D02*
X024685Y009970D01*
X024490Y009889D01*
X024341Y009740D01*
X024260Y009545D01*
X024260Y008555D01*
X024341Y008360D01*
X024490Y008211D01*
X024685Y008130D01*
X024895Y008130D01*
X025090Y008211D01*
X025239Y008360D01*
X025320Y008555D01*
X025320Y009545D01*
X025239Y009740D01*
X025090Y009889D01*
X024895Y009970D01*
X024955Y009946D02*
X026497Y009946D01*
X026710Y009946D02*
X026810Y009946D01*
X026810Y009787D02*
X026710Y009787D01*
X026710Y009629D02*
X026810Y009629D01*
X026810Y009470D02*
X026710Y009470D01*
X026710Y009312D02*
X026810Y009312D01*
X026810Y009153D02*
X026710Y009153D01*
X026710Y009000D02*
X026190Y009000D01*
X026190Y008615D01*
X026204Y008527D01*
X026232Y008441D01*
X026272Y008361D01*
X026325Y008289D01*
X026389Y008225D01*
X026461Y008172D01*
X026541Y008132D01*
X026627Y008104D01*
X026710Y008091D01*
X026710Y009000D01*
X026710Y008995D02*
X026810Y008995D01*
X026810Y008836D02*
X026710Y008836D01*
X026710Y008678D02*
X026810Y008678D01*
X026810Y008519D02*
X026710Y008519D01*
X026710Y008361D02*
X026810Y008361D01*
X026810Y008202D02*
X026710Y008202D01*
X026421Y008202D02*
X025069Y008202D01*
X025240Y008361D02*
X026273Y008361D01*
X026206Y008519D02*
X025305Y008519D01*
X025320Y008678D02*
X026190Y008678D01*
X026190Y008836D02*
X025320Y008836D01*
X025320Y008995D02*
X026190Y008995D01*
X026190Y009153D02*
X025320Y009153D01*
X025320Y009312D02*
X026190Y009312D01*
X026190Y009470D02*
X025320Y009470D01*
X025286Y009629D02*
X026222Y009629D01*
X026308Y009787D02*
X025193Y009787D01*
X024625Y009946D02*
X022975Y009946D01*
X022915Y009970D02*
X023110Y009889D01*
X023259Y009740D01*
X023340Y009545D01*
X023340Y008555D01*
X023259Y008360D01*
X023110Y008211D01*
X022915Y008130D01*
X022705Y008130D01*
X022510Y008211D01*
X022361Y008360D01*
X022280Y008555D01*
X022280Y009545D01*
X022361Y009740D01*
X022510Y009889D01*
X022705Y009970D01*
X022915Y009970D01*
X022645Y009946D02*
X021103Y009946D01*
X020890Y009946D02*
X020790Y009946D01*
X020790Y009787D02*
X020890Y009787D01*
X020890Y009629D02*
X020790Y009629D01*
X020790Y009470D02*
X020890Y009470D01*
X020890Y009312D02*
X020790Y009312D01*
X020790Y009153D02*
X020890Y009153D01*
X020890Y009000D02*
X021410Y009000D01*
X021410Y008615D01*
X021396Y008527D01*
X021368Y008441D01*
X021328Y008361D01*
X021275Y008289D01*
X021211Y008225D01*
X021139Y008172D01*
X021059Y008132D01*
X020973Y008104D01*
X020890Y008091D01*
X020890Y009000D01*
X020890Y008995D02*
X020790Y008995D01*
X020790Y008836D02*
X020890Y008836D01*
X020890Y008678D02*
X020790Y008678D01*
X020790Y008519D02*
X020890Y008519D01*
X020890Y008361D02*
X020790Y008361D01*
X020790Y008202D02*
X020890Y008202D01*
X021179Y008202D02*
X022531Y008202D01*
X022360Y008361D02*
X021327Y008361D01*
X021394Y008519D02*
X022295Y008519D01*
X022280Y008678D02*
X021410Y008678D01*
X021410Y008836D02*
X022280Y008836D01*
X022280Y008995D02*
X021410Y008995D01*
X021410Y009153D02*
X022280Y009153D01*
X022280Y009312D02*
X021410Y009312D01*
X021410Y009470D02*
X022280Y009470D01*
X022314Y009629D02*
X021378Y009629D01*
X021292Y009787D02*
X022407Y009787D01*
X023213Y009787D02*
X024387Y009787D01*
X024294Y009629D02*
X023306Y009629D01*
X023340Y009470D02*
X024260Y009470D01*
X024260Y009312D02*
X023340Y009312D01*
X023340Y009153D02*
X024260Y009153D01*
X024260Y008995D02*
X023340Y008995D01*
X023340Y008836D02*
X024260Y008836D01*
X024260Y008678D02*
X023340Y008678D01*
X023325Y008519D02*
X024275Y008519D01*
X024340Y008361D02*
X023260Y008361D01*
X023089Y008202D02*
X024511Y008202D01*
X028470Y010230D02*
X028470Y010230D01*
X028470Y010230D01*
X037984Y015335D02*
X044770Y015335D01*
X044770Y015493D02*
X043615Y015493D01*
X043740Y015652D02*
X044770Y015652D01*
X044770Y015810D02*
X043740Y015810D01*
X043740Y015969D02*
X044770Y015969D01*
X044770Y016127D02*
X043595Y016127D01*
X043499Y015280D02*
X043320Y015280D01*
X043320Y014820D01*
X043780Y014820D01*
X043780Y014999D01*
X043499Y015280D01*
X043603Y015176D02*
X044770Y015176D01*
X044770Y015018D02*
X043761Y015018D01*
X043780Y014859D02*
X044770Y014859D01*
X044770Y014701D02*
X043780Y014701D01*
X043780Y014780D02*
X043320Y014780D01*
X043320Y014820D01*
X043280Y014820D01*
X043280Y014780D01*
X043320Y014780D01*
X043320Y014320D01*
X043499Y014320D01*
X043780Y014601D01*
X043780Y014780D01*
X043721Y014542D02*
X044770Y014542D01*
X044770Y014384D02*
X043562Y014384D01*
X043320Y014384D02*
X043280Y014384D01*
X043280Y014320D02*
X043280Y014780D01*
X042820Y014780D01*
X042820Y014601D01*
X043101Y014320D01*
X043280Y014320D01*
X043280Y014542D02*
X043320Y014542D01*
X043320Y014701D02*
X043280Y014701D01*
X043280Y014859D02*
X043320Y014859D01*
X043320Y015018D02*
X043280Y015018D01*
X043280Y015176D02*
X043320Y015176D01*
X042839Y015018D02*
X042761Y015018D01*
X042780Y014859D02*
X042820Y014859D01*
X042820Y014701D02*
X042780Y014701D01*
X042721Y014542D02*
X042879Y014542D01*
X043038Y014384D02*
X042562Y014384D01*
X043453Y013908D02*
X044770Y013908D01*
X044770Y013750D02*
X043875Y013750D01*
X044079Y013591D02*
X044770Y013591D01*
X044683Y013433D02*
X044216Y013433D01*
X044308Y013274D02*
X044524Y013274D01*
X044366Y013116D02*
X044365Y013116D01*
D19*
X036426Y023810D03*
X038790Y025793D03*
X039564Y025728D03*
D20*
X039550Y025769D02*
X039546Y026698D01*
X039747Y026706D01*
X039758Y034300D01*
X040198Y034303D01*
X040198Y035331D01*
X041180Y035331D01*
X039210Y035331D02*
X038791Y035331D01*
X038793Y026856D01*
X038796Y026796D01*
X038788Y025713D01*
X035850Y026301D02*
X032083Y026300D01*
X032083Y025974D01*
X032083Y027474D02*
X033752Y027462D01*
X033732Y034310D01*
X033732Y034309D01*
X031448Y034309D01*
X031448Y035400D01*
X031430Y035400D01*
X029130Y035400D02*
X028800Y035400D01*
X028800Y026300D01*
X027433Y026300D01*
X027433Y026124D01*
X027524Y024687D02*
X027524Y019268D01*
X033226Y019268D01*
X033226Y019272D01*
X033153Y022514D02*
X033146Y024356D01*
X029469Y024371D01*
X029468Y024243D01*
X028694Y024234D01*
X029254Y024687D02*
X027524Y024687D01*
X029254Y024687D02*
X029254Y028064D01*
X032320Y028064D01*
X032320Y031800D01*
X032300Y031800D01*
X033300Y031800D02*
X033319Y031800D01*
X033319Y027868D01*
X029447Y027868D01*
X029469Y024371D01*
X027383Y027924D02*
X027373Y028290D01*
X024841Y028281D01*
X024841Y035400D01*
X025190Y035400D01*
X023210Y035400D02*
X022822Y035399D01*
X022822Y026281D01*
X022433Y026300D01*
X022433Y026124D01*
X022433Y027974D02*
X022433Y028300D01*
X019200Y028300D01*
X019200Y035400D01*
X019270Y035400D01*
X018201Y035407D02*
X018196Y026795D01*
X017083Y026800D01*
X017083Y026024D01*
X017133Y027924D02*
X017133Y028300D01*
X013800Y028300D01*
X013800Y035400D01*
X012990Y035400D01*
X012300Y035400D02*
X012300Y032800D01*
X012800Y032800D01*
X012800Y026300D01*
X011783Y026300D01*
X011783Y026224D01*
X011783Y027924D02*
X011783Y030475D01*
X007088Y030475D01*
X007076Y035392D01*
X007070Y035400D01*
X011010Y035400D02*
X012300Y035400D01*
X016930Y035400D02*
X018201Y035407D01*
X035370Y035400D02*
X035859Y035400D01*
X035850Y026301D01*
X035292Y015528D02*
X037815Y015537D01*
X037800Y009850D01*
X038400Y009850D01*
X041100Y009850D01*
X034300Y011800D02*
X034300Y012800D01*
X034300Y011800D02*
X031031Y011800D01*
X031025Y009039D01*
X031030Y009050D01*
X028300Y010300D02*
X028300Y012800D01*
X027300Y012800D02*
X027300Y010800D01*
X012743Y010800D01*
X012737Y009050D01*
X012740Y009050D01*
X010760Y009050D02*
X010755Y009050D01*
X010762Y011292D01*
X026300Y011300D01*
X026300Y012800D01*
X025300Y012800D02*
X025287Y011587D01*
X006810Y011572D01*
X006808Y009042D01*
X006820Y009050D01*
X016680Y009050D02*
X016685Y009066D01*
X016685Y010295D01*
X028300Y010300D01*
M02*
