G75*
%MOIN*%
%OFA0B0*%
%FSLAX24Y24*%
%IPPOS*%
%LPD*%
%AMOC8*
5,1,8,0,0,1.08239X$1,22.5*
%
%ADD10C,0.1300*%
%ADD11OC8,0.0640*%
%ADD12C,0.0640*%
%ADD13C,0.0820*%
%ADD14C,0.1340*%
%ADD15OC8,0.0560*%
%ADD16C,0.0700*%
%ADD17OC8,0.0670*%
%ADD18C,0.0790*%
%ADD19OC8,0.0790*%
%ADD20C,0.0360*%
D10*
X010800Y012800D03*
X011300Y031800D03*
X040800Y031800D03*
X043300Y012800D03*
D11*
X043300Y014800D03*
X042300Y014800D03*
X042300Y015800D03*
X042300Y016800D03*
X043300Y016800D03*
X043300Y015800D03*
X043300Y017800D03*
X043300Y018800D03*
X042300Y018800D03*
X042300Y017800D03*
X042300Y019800D03*
X043300Y019800D03*
X043300Y020800D03*
X043300Y021800D03*
X042300Y021800D03*
X042300Y020800D03*
X042300Y022800D03*
X042300Y023800D03*
X043300Y023800D03*
X043300Y022800D03*
X043300Y024800D03*
X043300Y025800D03*
X042300Y025800D03*
X042300Y024800D03*
X042300Y026800D03*
X042300Y027800D03*
X043300Y027800D03*
X043300Y026800D03*
X043300Y028800D03*
X043300Y029800D03*
X042300Y029800D03*
X042300Y028800D03*
X042300Y030800D03*
X043300Y030800D03*
X043300Y031800D03*
X042300Y031800D03*
X031350Y023800D03*
X031350Y022800D03*
X030350Y022800D03*
X030350Y023800D03*
X030350Y021800D03*
X031350Y021800D03*
D12*
X031300Y013100D02*
X031300Y012500D01*
X030300Y012500D02*
X030300Y013100D01*
X029300Y013100D02*
X029300Y012500D01*
X028300Y012500D02*
X028300Y013100D01*
X027300Y013100D02*
X027300Y012500D01*
X026300Y012500D02*
X026300Y013100D01*
X025300Y013100D02*
X025300Y012500D01*
X023300Y012500D02*
X023300Y013100D01*
X022300Y013100D02*
X022300Y012500D01*
X021300Y012500D02*
X021300Y013100D01*
X020300Y013100D02*
X020300Y012500D01*
X019300Y012500D02*
X019300Y013100D01*
X018300Y013100D02*
X018300Y012500D01*
X011050Y014850D02*
X010450Y014850D01*
X010450Y015850D02*
X011050Y015850D01*
X011050Y016850D02*
X010450Y016850D01*
X014700Y031500D02*
X014700Y032100D01*
X015700Y032100D02*
X015700Y031500D01*
X016700Y031500D02*
X016700Y032100D01*
X017700Y032100D02*
X017700Y031500D01*
X018700Y031500D02*
X018700Y032100D01*
X019700Y032100D02*
X019700Y031500D01*
X020700Y031500D02*
X020700Y032100D01*
X021700Y032100D02*
X021700Y031500D01*
X023300Y031500D02*
X023300Y032100D01*
X024300Y032100D02*
X024300Y031500D01*
X025300Y031500D02*
X025300Y032100D01*
X026300Y032100D02*
X026300Y031500D01*
X027300Y031500D02*
X027300Y032100D01*
X028300Y032100D02*
X028300Y031500D01*
X029300Y031500D02*
X029300Y032100D01*
X030300Y032100D02*
X030300Y031500D01*
X032300Y031500D02*
X032300Y032100D01*
X033300Y032100D02*
X033300Y031500D01*
X034300Y031500D02*
X034300Y032100D01*
X035300Y032100D02*
X035300Y031500D01*
X036300Y031500D02*
X036300Y032100D01*
X037300Y032100D02*
X037300Y031500D01*
X038300Y031500D02*
X038300Y032100D01*
X039300Y032100D02*
X039300Y031500D01*
X039300Y013100D02*
X039300Y012500D01*
X038300Y012500D02*
X038300Y013100D01*
X037300Y013100D02*
X037300Y012500D01*
X036300Y012500D02*
X036300Y013100D01*
X035300Y013100D02*
X035300Y012500D01*
X034300Y012500D02*
X034300Y013100D01*
X032300Y013100D02*
X032300Y012500D01*
X038100Y009850D02*
X038700Y009850D01*
X038700Y008850D02*
X038100Y008850D01*
X038100Y007850D02*
X038700Y007850D01*
X040800Y007850D02*
X041400Y007850D01*
X041400Y008850D02*
X040800Y008850D01*
X040800Y009850D02*
X041400Y009850D01*
X041300Y012500D02*
X041300Y013100D01*
X040300Y013100D02*
X040300Y012500D01*
D13*
X006820Y009440D02*
X006820Y008660D01*
X008790Y008660D02*
X008790Y009440D01*
X010760Y009440D02*
X010760Y008660D01*
X012740Y008660D02*
X012740Y009440D01*
X014710Y009440D02*
X014710Y008660D01*
X016680Y008660D02*
X016680Y009440D01*
X018870Y009440D02*
X018870Y008660D01*
X020840Y008660D02*
X020840Y009440D01*
X022810Y009440D02*
X022810Y008660D01*
X024790Y008660D02*
X024790Y009440D01*
X026760Y009440D02*
X026760Y008660D01*
X028730Y008660D02*
X028730Y009440D01*
X031030Y009440D02*
X031030Y008660D01*
X033000Y008660D02*
X033000Y009440D01*
X034970Y009440D02*
X034970Y008660D01*
X008290Y019740D02*
X007510Y019740D01*
X007510Y021720D02*
X008290Y021720D01*
X008290Y023680D02*
X007510Y023680D01*
X007510Y025660D02*
X008290Y025660D01*
X009040Y035010D02*
X009040Y035790D01*
X007070Y035790D02*
X007070Y035010D01*
X011010Y035010D02*
X011010Y035790D01*
X012990Y035790D02*
X012990Y035010D01*
X014960Y035010D02*
X014960Y035790D01*
X016930Y035790D02*
X016930Y035010D01*
X019270Y035010D02*
X019270Y035790D01*
X021240Y035790D02*
X021240Y035010D01*
X023210Y035010D02*
X023210Y035790D01*
X025190Y035790D02*
X025190Y035010D01*
X027160Y035010D02*
X027160Y035790D01*
X029130Y035790D02*
X029130Y035010D01*
X031430Y035010D02*
X031430Y035790D01*
X033400Y035790D02*
X033400Y035010D01*
X035370Y035010D02*
X035370Y035790D01*
X039210Y035721D02*
X039210Y034941D01*
X041180Y034941D02*
X041180Y035721D01*
D14*
X001750Y015850D03*
D15*
X015445Y015703D03*
X016445Y015703D03*
X008650Y028400D03*
X008650Y029400D03*
D16*
X010300Y024950D03*
X010300Y020950D03*
D17*
X034254Y023964D03*
X035254Y023964D03*
D18*
X016451Y013426D03*
X013246Y014799D03*
D19*
X014451Y013426D03*
X013246Y016799D03*
D20*
X036426Y023810D03*
X038790Y025793D03*
X039564Y025728D03*
M02*
