G75*
%MOIN*%
%OFA0B0*%
%FSLAX24Y24*%
%IPPOS*%
%LPD*%
%AMOC8*
5,1,8,0,0,1.08239X$1,22.5*
%
%ADD10C,0.0100*%
%ADD11C,0.0000*%
D10*
X005300Y006300D02*
X005300Y038300D01*
X044300Y038300D01*
X044300Y027800D01*
X045300Y027300D01*
X045300Y013300D01*
X044300Y012300D01*
X044300Y006300D01*
X005300Y006300D01*
D11*
X010170Y012800D02*
X010172Y012850D01*
X010178Y012900D01*
X010188Y012949D01*
X010202Y012997D01*
X010219Y013044D01*
X010240Y013089D01*
X010265Y013133D01*
X010293Y013174D01*
X010325Y013213D01*
X010359Y013250D01*
X010396Y013284D01*
X010436Y013314D01*
X010478Y013341D01*
X010522Y013365D01*
X010568Y013386D01*
X010615Y013402D01*
X010663Y013415D01*
X010713Y013424D01*
X010762Y013429D01*
X010813Y013430D01*
X010863Y013427D01*
X010912Y013420D01*
X010961Y013409D01*
X011009Y013394D01*
X011055Y013376D01*
X011100Y013354D01*
X011143Y013328D01*
X011184Y013299D01*
X011223Y013267D01*
X011259Y013232D01*
X011291Y013194D01*
X011321Y013154D01*
X011348Y013111D01*
X011371Y013067D01*
X011390Y013021D01*
X011406Y012973D01*
X011418Y012924D01*
X011426Y012875D01*
X011430Y012825D01*
X011430Y012775D01*
X011426Y012725D01*
X011418Y012676D01*
X011406Y012627D01*
X011390Y012579D01*
X011371Y012533D01*
X011348Y012489D01*
X011321Y012446D01*
X011291Y012406D01*
X011259Y012368D01*
X011223Y012333D01*
X011184Y012301D01*
X011143Y012272D01*
X011100Y012246D01*
X011055Y012224D01*
X011009Y012206D01*
X010961Y012191D01*
X010912Y012180D01*
X010863Y012173D01*
X010813Y012170D01*
X010762Y012171D01*
X010713Y012176D01*
X010663Y012185D01*
X010615Y012198D01*
X010568Y012214D01*
X010522Y012235D01*
X010478Y012259D01*
X010436Y012286D01*
X010396Y012316D01*
X010359Y012350D01*
X010325Y012387D01*
X010293Y012426D01*
X010265Y012467D01*
X010240Y012511D01*
X010219Y012556D01*
X010202Y012603D01*
X010188Y012651D01*
X010178Y012700D01*
X010172Y012750D01*
X010170Y012800D01*
X001100Y015850D02*
X001102Y015900D01*
X001108Y015950D01*
X001118Y016000D01*
X001131Y016048D01*
X001148Y016096D01*
X001169Y016142D01*
X001193Y016186D01*
X001221Y016228D01*
X001252Y016268D01*
X001286Y016305D01*
X001323Y016340D01*
X001362Y016371D01*
X001403Y016400D01*
X001447Y016425D01*
X001493Y016447D01*
X001540Y016465D01*
X001588Y016479D01*
X001637Y016490D01*
X001687Y016497D01*
X001737Y016500D01*
X001788Y016499D01*
X001838Y016494D01*
X001888Y016485D01*
X001936Y016473D01*
X001984Y016456D01*
X002030Y016436D01*
X002075Y016413D01*
X002118Y016386D01*
X002158Y016356D01*
X002196Y016323D01*
X002231Y016287D01*
X002264Y016248D01*
X002293Y016207D01*
X002319Y016164D01*
X002342Y016119D01*
X002361Y016072D01*
X002376Y016024D01*
X002388Y015975D01*
X002396Y015925D01*
X002400Y015875D01*
X002400Y015825D01*
X002396Y015775D01*
X002388Y015725D01*
X002376Y015676D01*
X002361Y015628D01*
X002342Y015581D01*
X002319Y015536D01*
X002293Y015493D01*
X002264Y015452D01*
X002231Y015413D01*
X002196Y015377D01*
X002158Y015344D01*
X002118Y015314D01*
X002075Y015287D01*
X002030Y015264D01*
X001984Y015244D01*
X001936Y015227D01*
X001888Y015215D01*
X001838Y015206D01*
X001788Y015201D01*
X001737Y015200D01*
X001687Y015203D01*
X001637Y015210D01*
X001588Y015221D01*
X001540Y015235D01*
X001493Y015253D01*
X001447Y015275D01*
X001403Y015300D01*
X001362Y015329D01*
X001323Y015360D01*
X001286Y015395D01*
X001252Y015432D01*
X001221Y015472D01*
X001193Y015514D01*
X001169Y015558D01*
X001148Y015604D01*
X001131Y015652D01*
X001118Y015700D01*
X001108Y015750D01*
X001102Y015800D01*
X001100Y015850D01*
X010670Y031800D02*
X010672Y031850D01*
X010678Y031900D01*
X010688Y031949D01*
X010702Y031997D01*
X010719Y032044D01*
X010740Y032089D01*
X010765Y032133D01*
X010793Y032174D01*
X010825Y032213D01*
X010859Y032250D01*
X010896Y032284D01*
X010936Y032314D01*
X010978Y032341D01*
X011022Y032365D01*
X011068Y032386D01*
X011115Y032402D01*
X011163Y032415D01*
X011213Y032424D01*
X011262Y032429D01*
X011313Y032430D01*
X011363Y032427D01*
X011412Y032420D01*
X011461Y032409D01*
X011509Y032394D01*
X011555Y032376D01*
X011600Y032354D01*
X011643Y032328D01*
X011684Y032299D01*
X011723Y032267D01*
X011759Y032232D01*
X011791Y032194D01*
X011821Y032154D01*
X011848Y032111D01*
X011871Y032067D01*
X011890Y032021D01*
X011906Y031973D01*
X011918Y031924D01*
X011926Y031875D01*
X011930Y031825D01*
X011930Y031775D01*
X011926Y031725D01*
X011918Y031676D01*
X011906Y031627D01*
X011890Y031579D01*
X011871Y031533D01*
X011848Y031489D01*
X011821Y031446D01*
X011791Y031406D01*
X011759Y031368D01*
X011723Y031333D01*
X011684Y031301D01*
X011643Y031272D01*
X011600Y031246D01*
X011555Y031224D01*
X011509Y031206D01*
X011461Y031191D01*
X011412Y031180D01*
X011363Y031173D01*
X011313Y031170D01*
X011262Y031171D01*
X011213Y031176D01*
X011163Y031185D01*
X011115Y031198D01*
X011068Y031214D01*
X011022Y031235D01*
X010978Y031259D01*
X010936Y031286D01*
X010896Y031316D01*
X010859Y031350D01*
X010825Y031387D01*
X010793Y031426D01*
X010765Y031467D01*
X010740Y031511D01*
X010719Y031556D01*
X010702Y031603D01*
X010688Y031651D01*
X010678Y031700D01*
X010672Y031750D01*
X010670Y031800D01*
X040170Y031800D02*
X040172Y031850D01*
X040178Y031900D01*
X040188Y031949D01*
X040202Y031997D01*
X040219Y032044D01*
X040240Y032089D01*
X040265Y032133D01*
X040293Y032174D01*
X040325Y032213D01*
X040359Y032250D01*
X040396Y032284D01*
X040436Y032314D01*
X040478Y032341D01*
X040522Y032365D01*
X040568Y032386D01*
X040615Y032402D01*
X040663Y032415D01*
X040713Y032424D01*
X040762Y032429D01*
X040813Y032430D01*
X040863Y032427D01*
X040912Y032420D01*
X040961Y032409D01*
X041009Y032394D01*
X041055Y032376D01*
X041100Y032354D01*
X041143Y032328D01*
X041184Y032299D01*
X041223Y032267D01*
X041259Y032232D01*
X041291Y032194D01*
X041321Y032154D01*
X041348Y032111D01*
X041371Y032067D01*
X041390Y032021D01*
X041406Y031973D01*
X041418Y031924D01*
X041426Y031875D01*
X041430Y031825D01*
X041430Y031775D01*
X041426Y031725D01*
X041418Y031676D01*
X041406Y031627D01*
X041390Y031579D01*
X041371Y031533D01*
X041348Y031489D01*
X041321Y031446D01*
X041291Y031406D01*
X041259Y031368D01*
X041223Y031333D01*
X041184Y031301D01*
X041143Y031272D01*
X041100Y031246D01*
X041055Y031224D01*
X041009Y031206D01*
X040961Y031191D01*
X040912Y031180D01*
X040863Y031173D01*
X040813Y031170D01*
X040762Y031171D01*
X040713Y031176D01*
X040663Y031185D01*
X040615Y031198D01*
X040568Y031214D01*
X040522Y031235D01*
X040478Y031259D01*
X040436Y031286D01*
X040396Y031316D01*
X040359Y031350D01*
X040325Y031387D01*
X040293Y031426D01*
X040265Y031467D01*
X040240Y031511D01*
X040219Y031556D01*
X040202Y031603D01*
X040188Y031651D01*
X040178Y031700D01*
X040172Y031750D01*
X040170Y031800D01*
X042670Y012800D02*
X042672Y012850D01*
X042678Y012900D01*
X042688Y012949D01*
X042702Y012997D01*
X042719Y013044D01*
X042740Y013089D01*
X042765Y013133D01*
X042793Y013174D01*
X042825Y013213D01*
X042859Y013250D01*
X042896Y013284D01*
X042936Y013314D01*
X042978Y013341D01*
X043022Y013365D01*
X043068Y013386D01*
X043115Y013402D01*
X043163Y013415D01*
X043213Y013424D01*
X043262Y013429D01*
X043313Y013430D01*
X043363Y013427D01*
X043412Y013420D01*
X043461Y013409D01*
X043509Y013394D01*
X043555Y013376D01*
X043600Y013354D01*
X043643Y013328D01*
X043684Y013299D01*
X043723Y013267D01*
X043759Y013232D01*
X043791Y013194D01*
X043821Y013154D01*
X043848Y013111D01*
X043871Y013067D01*
X043890Y013021D01*
X043906Y012973D01*
X043918Y012924D01*
X043926Y012875D01*
X043930Y012825D01*
X043930Y012775D01*
X043926Y012725D01*
X043918Y012676D01*
X043906Y012627D01*
X043890Y012579D01*
X043871Y012533D01*
X043848Y012489D01*
X043821Y012446D01*
X043791Y012406D01*
X043759Y012368D01*
X043723Y012333D01*
X043684Y012301D01*
X043643Y012272D01*
X043600Y012246D01*
X043555Y012224D01*
X043509Y012206D01*
X043461Y012191D01*
X043412Y012180D01*
X043363Y012173D01*
X043313Y012170D01*
X043262Y012171D01*
X043213Y012176D01*
X043163Y012185D01*
X043115Y012198D01*
X043068Y012214D01*
X043022Y012235D01*
X042978Y012259D01*
X042936Y012286D01*
X042896Y012316D01*
X042859Y012350D01*
X042825Y012387D01*
X042793Y012426D01*
X042765Y012467D01*
X042740Y012511D01*
X042719Y012556D01*
X042702Y012603D01*
X042688Y012651D01*
X042678Y012700D01*
X042672Y012750D01*
X042670Y012800D01*
M02*
